<svg width="23" height="22" viewBox="0 0 23 22" fill="none" xmlns="http://www.w3.org/2000/svg">
<path fill-rule="evenodd" clip-rule="evenodd" d="M0.500183 1.69118C0.500183 1.49226 0.579201 1.3015 0.719853 1.16085C0.860505 1.0202 1.05127 0.941177 1.25018 0.941177H3.50018C3.66748 0.941224 3.82996 0.997203 3.96178 1.10021C4.0936 1.20323 4.1872 1.34735 4.22768 1.50968L4.83518 3.94118H22.2502C22.3641 3.94121 22.4765 3.96719 22.5789 4.01716C22.6813 4.06712 22.7709 4.13975 22.8411 4.22954C22.9112 4.31932 22.9599 4.4239 22.9836 4.53534C23.0073 4.64678 23.0053 4.76214 22.9777 4.87268L20.7277 13.8727C20.6872 14.035 20.5936 14.1791 20.4618 14.2821C20.33 14.3852 20.1675 14.4411 20.0002 14.4412H6.50018C6.33289 14.4411 6.17041 14.3852 6.03859 14.2821C5.90676 14.1791 5.81317 14.035 5.77268 13.8727L2.91518 2.44118H1.25018C1.05127 2.44118 0.860505 2.36216 0.719853 2.22151C0.579201 2.08086 0.500183 1.89009 0.500183 1.69118ZM5.21018 5.44118L7.08518 12.9412H19.4152L21.2902 5.44118H5.21018ZM8.00018 17.4412C7.60236 17.4412 7.22083 17.5992 6.93952 17.8805C6.65822 18.1618 6.50018 18.5434 6.50018 18.9412C6.50018 19.339 6.65822 19.7205 6.93952 20.0018C7.22083 20.2831 7.60236 20.4412 8.00018 20.4412C8.39801 20.4412 8.77954 20.2831 9.06084 20.0018C9.34215 19.7205 9.50018 19.339 9.50018 18.9412C9.50018 18.5434 9.34215 18.1618 9.06084 17.8805C8.77954 17.5992 8.39801 17.4412 8.00018 17.4412ZM5.00018 18.9412C5.00018 18.1455 5.31625 17.3825 5.87886 16.8199C6.44147 16.2572 7.20453 15.9412 8.00018 15.9412C8.79583 15.9412 9.55889 16.2572 10.1215 16.8199C10.6841 17.3825 11.0002 18.1455 11.0002 18.9412C11.0002 19.7368 10.6841 20.4999 10.1215 21.0625C9.55889 21.6251 8.79583 21.9412 8.00018 21.9412C7.20453 21.9412 6.44147 21.6251 5.87886 21.0625C5.31625 20.4999 5.00018 19.7368 5.00018 18.9412ZM18.5002 17.4412C18.1024 17.4412 17.7208 17.5992 17.4395 17.8805C17.1582 18.1618 17.0002 18.5434 17.0002 18.9412C17.0002 19.339 17.1582 19.7205 17.4395 20.0018C17.7208 20.2831 18.1024 20.4412 18.5002 20.4412C18.898 20.4412 19.2795 20.2831 19.5608 20.0018C19.8421 19.7205 20.0002 19.339 20.0002 18.9412C20.0002 18.5434 19.8421 18.1618 19.5608 17.8805C19.2795 17.5992 18.898 17.4412 18.5002 17.4412ZM15.5002 18.9412C15.5002 18.1455 15.8163 17.3825 16.3789 16.8199C16.9415 16.2572 17.7045 15.9412 18.5002 15.9412C19.2958 15.9412 20.0589 16.2572 20.6215 16.8199C21.1841 17.3825 21.5002 18.1455 21.5002 18.9412C21.5002 19.7368 21.1841 20.4999 20.6215 21.0625C20.0589 21.6251 19.2958 21.9412 18.5002 21.9412C17.7045 21.9412 16.9415 21.6251 16.3789 21.0625C15.8163 20.4999 15.5002 19.7368 15.5002 18.9412Z" fill="white"/>
</svg>
