<svg width="14" height="15" viewBox="0 0 14 15" fill="none" xmlns="http://www.w3.org/2000/svg">
<g clip-path="url(#clip0_40_221)">
<path fill-rule="evenodd" clip-rule="evenodd" d="M11.375 2.65809C11.375 2.07793 11.1445 1.52153 10.7343 1.11129C10.3241 0.701057 9.76766 0.470589 9.1875 0.470589C8.60734 0.470589 8.05094 0.701057 7.6407 1.11129C7.23047 1.52153 7 2.07793 7 2.65809C7 2.07793 6.76953 1.52153 6.3593 1.11129C5.94906 0.701057 5.39266 0.470589 4.8125 0.470589C4.23234 0.470589 3.67594 0.701057 3.2657 1.11129C2.85547 1.52153 2.625 2.07793 2.625 2.65809V2.66334C2.625 2.72459 2.625 2.89959 2.65825 3.09559H0.875C0.642936 3.09559 0.420376 3.18778 0.256282 3.35187C0.0921879 3.51596 0 3.73852 0 3.97059V4.84559C0 5.07765 0.0921879 5.30021 0.256282 5.46431C0.420376 5.6284 0.642936 5.72059 0.875 5.72059H13.125C13.3571 5.72059 13.5796 5.6284 13.7437 5.46431C13.9078 5.30021 14 5.07765 14 4.84559V3.97059C14 3.73852 13.9078 3.51596 13.7437 3.35187C13.5796 3.18778 13.3571 3.09559 13.125 3.09559H11.3417C11.3649 2.95268 11.376 2.8081 11.375 2.66334V2.65809ZM10.4405 3.09559H7.875V2.65809C7.875 2.48573 7.90895 2.31506 7.97491 2.15582C8.04087 1.99658 8.13755 1.85189 8.25942 1.73001C8.3813 1.60813 8.52599 1.51146 8.68523 1.4455C8.84447 1.37954 9.01514 1.34559 9.1875 1.34559C9.35986 1.34559 9.53053 1.37954 9.68977 1.4455C9.84901 1.51146 9.9937 1.60813 10.1156 1.73001C10.2375 1.85189 10.3341 1.99658 10.4001 2.15582C10.4661 2.31506 10.5 2.48573 10.5 2.65809C10.5 2.73246 10.4983 2.89784 10.4606 3.03434C10.4554 3.0552 10.4486 3.07567 10.4405 3.09559ZM6.125 3.09559H3.5595C3.55145 3.07564 3.54473 3.05518 3.53938 3.03434C3.50175 2.89784 3.5 2.73246 3.5 2.65809C3.5 2.30999 3.63828 1.97615 3.88442 1.73001C4.13056 1.48387 4.4644 1.34559 4.8125 1.34559C5.1606 1.34559 5.49444 1.48387 5.74058 1.73001C5.98672 1.97615 6.125 2.30999 6.125 2.65809V3.09559Z" fill="black"/>
<path d="M0.875 6.59559V13.1581C0.875 13.5062 1.01328 13.84 1.25942 14.0862C1.50556 14.3323 1.8394 14.4706 2.1875 14.4706H6.125V6.59559H0.875ZM11.8125 14.4706C12.1606 14.4706 12.4944 14.3323 12.7406 14.0862C12.9867 13.84 13.125 13.5062 13.125 13.1581V6.59559H7.875V14.4706H11.8125Z" fill="black"/>
</g>
<defs>
<clipPath id="clip0_40_221">
<rect width="14" height="14" fill="white" transform="matrix(-1 0 0 1 14 0.470589)"/>
</clipPath>
</defs>
</svg>
