<svg width="301" height="81" viewBox="0 0 301 81" fill="none" xmlns="http://www.w3.org/2000/svg">
<g clip-path="url(#clip0_13_10)">
<circle cx="48.6911" cy="43.6324" r="37.3088" fill="black"/>
<path d="M81 43.6324C83.7614 43.6324 86.0345 45.8809 85.6655 48.6176C84.7307 55.5511 81.8588 62.1187 77.3324 67.541C72.806 72.9634 66.8573 76.9625 60.2023 79.121C57.5756 79.973 54.9571 78.1383 54.4637 75.4213L49.7613 49.5257C49.204 46.4568 51.5618 43.6324 54.6809 43.6324H81Z" fill="#F77718"/>
<ellipse cx="26.8631" cy="52.2924" rx="24.6618" ry="10.75" transform="rotate(26.6667 26.8631 52.2924)" fill="#F77718"/>
<ellipse cx="26.6314" cy="51.0596" rx="20.7998" ry="8.64091" transform="rotate(26.6667 26.6314 51.0596)" fill="#C65806"/>
<ellipse cx="27.0905" cy="51.7653" rx="20.0728" ry="8.21626" transform="rotate(26.6667 27.0905 51.7653)" fill="#F7B47D"/>
<path d="M70.8235 33.5147C70.8235 35.6101 69.4079 38.5735 67.6617 38.5735C65.9155 38.5735 65.7646 36.8749 65.7646 34.7794C65.7646 32.684 65.9155 30.9853 67.6617 30.9853C69.4079 30.9853 70.1911 31.6176 70.8235 33.5147Z" fill="#FEB884"/>
<path d="M34.1471 31.6176C34.1471 33.7131 35.5627 36.6765 37.3089 36.6765C39.0551 36.6765 39.2059 34.9778 39.2059 32.8824C39.2059 30.7869 39.0551 29.0882 37.3089 29.0882C35.5627 29.0882 34.7795 29.7206 34.1471 31.6176Z" fill="#FEB884"/>
<path d="M2.87741 52.0269C1.86565 49.4975 3.29898 46.7573 4.14212 45.7034C4.49453 45.1975 6.39679 45.9142 7.30387 46.3358L11.098 48.8652C12.1519 49.7083 14.2598 51.5211 14.2598 52.0269C14.2598 52.5328 12.5735 54.7671 11.7303 55.8211L5.40681 57.0858C4.98525 56.4534 3.88917 54.5563 2.87741 52.0269Z" fill="#FEB884"/>
<path d="M51.8529 67.2034C52.8647 64.674 51.4314 61.9338 50.5882 60.8799C50.2358 60.374 48.3336 61.0907 47.4265 61.5122L43.6324 64.0416C42.5784 64.8848 40.4706 66.6975 40.4706 67.2034C40.4706 67.7093 42.1569 69.9436 43 70.9975L49.3235 72.2622C49.7451 71.6299 50.8412 69.7328 51.8529 67.2034Z" fill="#FEB884"/>
<circle cx="52.4853" cy="33.5147" r="14.5441" fill="#FEB884"/>
<path d="M42.3483 52.0226L42.0763 51.8671C40.5953 51.0208 39.2708 49.9262 38.1607 48.6311L37.5605 47.9309C36.5614 46.7652 35.8258 45.3975 35.404 43.9214C34.9922 42.4802 34.889 40.9684 35.1009 39.4846L35.4118 37.3088C35.8604 35.7385 38.0049 35.5392 38.7353 36.9999L39.6518 38.8329C40.1425 39.8143 41.1987 40.3796 42.2874 40.2435L48.475 39.47C49.8717 39.2954 51.2888 39.381 52.6544 39.7224L58.0778 41.0783C59.6949 41.4825 61.403 40.9607 62.5181 39.7218L65.1082 36.8439C65.7616 36.1179 66.924 36.2022 67.4658 37.0149C67.5947 37.2082 67.6768 37.4285 67.7053 37.6591C67.9256 39.4371 68.2941 42.527 68.2941 43C68.2941 43.3107 67.6579 44.9098 66.9717 46.5368C66.1937 48.3816 64.9956 50.0157 63.5075 51.355C60.8897 53.7111 57.4924 55.0147 53.9705 55.0147H53.696C52.4719 55.0147 51.2524 54.8646 50.0649 54.5677L46.406 53.653C44.9852 53.2978 43.6199 52.7492 42.3483 52.0226Z" fill="#F6F6F6"/>
<path d="M43.9196 38.5735C45.1843 36.0441 46.449 37.3088 52.1402 37.3088C50.6647 39.4167 46.449 43.7588 41.3902 44.2647C36.3314 44.7706 36.6765 37.9412 37.3089 34.7794C39.2059 36.6765 42.9078 40.5971 43.9196 38.5735Z" fill="white"/>
<path d="M57.5441 38.5735C56.2794 36.0441 55.0147 37.3088 49.3236 37.3088C50.799 39.4167 55.0147 43.7588 60.0736 44.2647C65.1324 44.7706 65.1324 38.5735 64.5 35.4118C62.603 37.3088 58.5559 40.5971 57.5441 38.5735Z" fill="white"/>
<ellipse cx="49.9559" cy="35.4118" rx="4.42647" ry="3.79412" fill="#F77718"/>
<path d="M39.8383 30.3529V30.3529C40.2571 31.1906 40.7962 32.0326 41.694 32.2992C42.6259 32.576 43.9552 32.5622 45.5294 31.6176" stroke="black" stroke-linecap="round"/>
<path d="M55.6471 31.6176V31.6176C56.0659 32.4553 56.6051 33.2973 57.5028 33.5639C58.4347 33.8407 59.764 33.8269 61.3383 32.8824" stroke="black" stroke-linecap="round"/>
<path d="M55.7507 28.7979C55.6725 28.1704 56.4415 27.1824 60.1432 28.2505C63.8449 29.3186 66.4436 29.3771 67.2803 29.2729" stroke="white" stroke-linecap="round"/>
<path d="M49.2078 27.9202C49.4036 27.3189 48.8359 26.203 44.9989 26.5497C41.1618 26.8964 38.5991 26.4609 37.7974 26.1999" stroke="white" stroke-linecap="round"/>
<ellipse cx="20.8676" cy="44.2647" rx="3.16176" ry="1.26471" transform="rotate(19.0681 20.8676 44.2647)" fill="#F7672D"/>
<ellipse cx="14.7839" cy="43.9635" rx="3.16176" ry="1.26471" transform="rotate(19.0681 14.7839 43.9635)" fill="#F7672D"/>
<ellipse cx="17.3133" cy="50.2871" rx="3.16176" ry="1.26471" transform="rotate(19.0681 17.3133 50.2871)" fill="#F7672D"/>
<ellipse cx="23.6368" cy="49.0224" rx="3.16176" ry="1.26471" transform="rotate(19.0681 23.6368 49.0224)" fill="#F7672D"/>
<ellipse cx="29.9602" cy="46.4929" rx="3.16176" ry="1.26471" transform="rotate(19.0681 29.9602 46.4929)" fill="#F7672D"/>
<ellipse cx="24.9014" cy="55.3459" rx="3.16176" ry="1.26471" transform="rotate(19.0681 24.9014 55.3459)" fill="#F7672D"/>
<ellipse cx="29.9602" cy="52.8165" rx="3.16176" ry="1.26471" transform="rotate(19.0681 29.9602 52.8165)" fill="#F7672D"/>
<ellipse cx="36.2839" cy="51.5518" rx="3.16176" ry="1.26471" transform="rotate(19.0681 36.2839 51.5518)" fill="#F7672D"/>
<ellipse cx="33.7544" cy="59.14" rx="3.16176" ry="1.26471" transform="rotate(19.0681 33.7544 59.14)" fill="#F7672D"/>
<ellipse cx="40.0779" cy="56.6106" rx="3.16176" ry="1.26471" transform="rotate(19.0681 40.0779 56.6106)" fill="#F7672D"/>
<circle cx="50.5882" cy="40.4706" r="1.26471" fill="black"/>
<path fill-rule="evenodd" clip-rule="evenodd" d="M43.098 15.6628C40.37 12.9304 35.8691 7.82309 36.8015 4.64965C38.0766 0.309977 48.9145 -0.991926 56.5648 0.743944C64.215 2.47982 69.9528 4.64966 73.7779 10.2912C76.838 14.8045 70.8028 17.958 67.4027 18.9706L66.9084 18.916L65.4589 27.9745L41.7353 24.1782L43.098 15.6628Z" fill="#F6F6F6"/>
<path d="M120.966 40.5309C119.904 41.6945 118.638 42.5213 117.168 43.0113C115.719 43.5012 114.229 43.7462 112.698 43.7462C111.126 43.7462 109.707 43.4502 108.441 42.8581C107.196 42.2457 106.124 41.4291 105.226 40.4084C104.348 39.3672 103.664 38.1628 103.174 36.795C102.705 35.4068 102.47 33.9267 102.47 32.3548C102.47 30.7625 102.715 29.2722 103.205 27.884C103.695 26.4958 104.389 25.2913 105.287 24.2706C106.206 23.2294 107.308 22.4129 108.594 21.8208C109.901 21.2288 111.36 20.9328 112.973 20.9328C114.708 20.9328 116.26 21.2492 117.628 21.8821C118.996 22.4945 120.169 23.3417 121.149 24.4237C121.456 24.7912 121.609 25.1586 121.609 25.5261C121.609 25.9752 121.415 26.3733 121.027 26.7204C120.659 27.047 120.241 27.2103 119.771 27.2103C119.547 27.2103 119.322 27.1695 119.098 27.0878C118.873 27.0062 118.669 26.853 118.485 26.6285C117.811 25.8936 117.026 25.3219 116.127 24.9137C115.229 24.4849 114.178 24.2706 112.973 24.2706C111.973 24.2706 111.044 24.4543 110.187 24.8218C109.329 25.1892 108.584 25.72 107.951 26.4141C107.339 27.1082 106.849 27.9554 106.481 28.9558C106.134 29.9561 105.961 31.0891 105.961 32.3548C105.961 33.6205 106.134 34.7535 106.481 35.7538C106.849 36.7542 107.339 37.6014 107.951 38.2955C108.564 38.9692 109.278 39.4897 110.095 39.8572C110.911 40.2247 111.779 40.4084 112.698 40.4084C113.902 40.4084 114.974 40.2349 115.913 39.8878C116.872 39.5408 117.669 39.0202 118.301 38.3261C118.669 37.9382 119.098 37.7443 119.588 37.7443C120.057 37.7443 120.476 37.9178 120.843 38.2648C121.211 38.5915 121.394 38.9896 121.394 39.4591C121.394 39.6224 121.364 39.8062 121.302 40.0103C121.241 40.194 121.129 40.3676 120.966 40.5309ZM130.646 29.1395C131.851 29.1395 132.973 29.2722 134.015 29.5376C135.056 29.803 135.954 30.2215 136.709 30.7931C137.485 31.3647 138.087 32.0996 138.516 32.9979C138.945 33.8961 139.159 34.9679 139.159 36.2132C139.159 37.2952 138.965 38.2853 138.577 39.1835C138.189 40.0613 137.618 40.8167 136.862 41.4495C136.127 42.0824 135.219 42.5826 134.137 42.95C133.075 43.2971 131.861 43.4706 130.493 43.4706H126.696C126.226 43.4706 125.818 43.3073 125.471 42.9806C125.124 42.654 124.95 42.2661 124.95 41.817V22.5864C124.95 22.0352 125.124 21.6269 125.471 21.3615C125.838 21.0757 126.237 20.9328 126.665 20.9328C127.114 20.9328 127.512 21.0757 127.859 21.3615C128.227 21.6269 128.411 22.0352 128.411 22.5864V29.1395H130.646ZM144.273 42.062C144.273 42.6336 144.089 43.0623 143.722 43.3481C143.375 43.6135 142.977 43.7462 142.527 43.7462C142.099 43.7462 141.701 43.6135 141.333 43.3481C140.986 43.0623 140.813 42.6336 140.813 42.062V22.5864C140.813 22.0352 140.986 21.6269 141.333 21.3615C141.701 21.0757 142.099 20.9328 142.527 20.9328C142.977 20.9328 143.375 21.0757 143.722 21.3615C144.089 21.6269 144.273 22.0352 144.273 22.5864V42.062ZM130.493 40.1328C131.473 40.1328 132.289 40.0307 132.943 39.8266C133.616 39.6224 134.157 39.3468 134.566 38.9998C134.974 38.6323 135.26 38.2138 135.423 37.7443C135.607 37.2543 135.699 36.744 135.699 36.2132C135.699 34.9883 135.321 34.0594 134.566 33.4266C133.81 32.7733 132.504 32.4467 130.646 32.4467H128.411V40.1328H130.493ZM149.2 22.862C149.2 22.4129 149.373 22.025 149.72 21.6983C150.067 21.3717 150.476 21.2084 150.945 21.2084H154.497C157.457 21.2084 159.672 21.8412 161.142 23.107C162.612 24.3522 163.347 26.0467 163.347 28.1902C163.347 30.64 162.571 32.5079 161.02 33.794C159.489 35.0597 157.284 35.6926 154.406 35.6926H152.691V42.062C152.691 42.6336 152.507 43.0623 152.139 43.3481C151.772 43.6135 151.374 43.7462 150.945 43.7462C150.496 43.7462 150.088 43.6135 149.72 43.3481C149.373 43.0623 149.2 42.6336 149.2 42.062V22.862ZM154.406 32.3854C155.467 32.3854 156.345 32.2936 157.039 32.1098C157.733 31.9261 158.284 31.6607 158.693 31.3137C159.121 30.9462 159.417 30.5073 159.581 29.9969C159.764 29.4661 159.856 28.8639 159.856 28.1902C159.856 27.6798 159.785 27.2103 159.642 26.7816C159.519 26.3325 159.264 25.9446 158.876 25.618C158.488 25.2709 157.937 25.0055 157.223 24.8218C156.529 24.6176 155.62 24.5156 154.497 24.5156H152.691V32.3854H154.406ZM190.773 27.3634L179.198 43.1031C178.708 43.736 178.177 44.0524 177.605 44.0524C177.177 44.0524 176.809 43.8789 176.503 43.5318C176.197 43.1848 176.044 42.705 176.044 42.0926V22.617C176.044 22.0658 176.217 21.6473 176.564 21.3615C176.932 21.0757 177.34 20.9328 177.789 20.9328C178.218 20.9328 178.616 21.0757 178.983 21.3615C179.351 21.6473 179.534 22.0658 179.534 22.617V37.2849L191.11 21.6371C191.334 21.3105 191.589 21.0757 191.875 20.9328C192.161 20.7899 192.436 20.7184 192.702 20.7184C193.131 20.7184 193.498 20.892 193.804 21.239C194.11 21.5656 194.264 22.025 194.264 22.617V42.0926C194.264 42.6642 194.08 43.0929 193.712 43.3787C193.345 43.6441 192.947 43.7768 192.518 43.7768C192.069 43.7768 191.661 43.6441 191.293 43.3787C190.946 43.0929 190.773 42.6642 190.773 42.0926V27.3634ZM220.482 21.2084C221.074 21.2084 221.513 21.3819 221.799 21.729C222.085 22.076 222.228 22.4639 222.228 22.8926C222.228 23.3009 222.085 23.6786 221.799 24.0256C221.513 24.3727 221.074 24.5462 220.482 24.5462H216.042V42.062C216.042 42.6336 215.858 43.0623 215.491 43.3481C215.123 43.6135 214.725 43.7462 214.297 43.7462C213.848 43.7462 213.439 43.6135 213.072 43.3481C212.725 43.0623 212.551 42.6336 212.551 42.062V24.5462H208.142C207.55 24.5462 207.101 24.3727 206.794 24.0256C206.508 23.6786 206.366 23.3009 206.366 22.8926C206.366 22.4639 206.508 22.076 206.794 21.729C207.101 21.3819 207.55 21.2084 208.142 21.2084H220.482ZM226.913 43.5012C226.444 43.5012 226.036 43.3277 225.688 42.9806C225.341 42.6336 225.168 42.2355 225.168 41.7864V22.862C225.168 22.4333 225.341 22.0556 225.688 21.729C226.036 21.3819 226.444 21.2084 226.913 21.2084H234.875C235.467 21.2084 235.906 21.3819 236.192 21.729C236.478 22.076 236.621 22.4537 236.621 22.862C236.621 23.2907 236.467 23.6786 236.161 24.0256C235.875 24.3727 235.447 24.5462 234.875 24.5462H228.659V29.6907H234.171C234.763 29.6907 235.202 29.8744 235.488 30.2419C235.773 30.5889 235.916 30.9666 235.916 31.3749C235.916 31.7832 235.773 32.1609 235.488 32.5079C235.202 32.8345 234.763 32.9979 234.171 32.9979H228.659V40.1328H235.089C235.681 40.1328 236.12 40.3165 236.406 40.684C236.712 41.031 236.865 41.4087 236.865 41.817C236.865 42.2457 236.712 42.6336 236.406 42.9806C236.12 43.3277 235.681 43.5012 235.089 43.5012H226.913ZM258.091 40.5309C257.029 41.6945 255.763 42.5213 254.293 43.0113C252.844 43.5012 251.354 43.7462 249.823 43.7462C248.251 43.7462 246.832 43.4502 245.566 42.8581C244.321 42.2457 243.249 41.4291 242.351 40.4084C241.473 39.3672 240.789 38.1628 240.299 36.795C239.83 35.4068 239.595 33.9267 239.595 32.3548C239.595 30.7625 239.84 29.2722 240.33 27.884C240.82 26.4958 241.514 25.2913 242.412 24.2706C243.331 23.2294 244.433 22.4129 245.719 21.8208C247.026 21.2288 248.485 20.9328 250.098 20.9328C251.833 20.9328 253.385 21.2492 254.753 21.8821C256.121 22.4945 257.294 23.3417 258.274 24.4237C258.581 24.7912 258.734 25.1586 258.734 25.5261C258.734 25.9752 258.54 26.3733 258.152 26.7204C257.784 27.047 257.366 27.2103 256.896 27.2103C256.672 27.2103 256.447 27.1695 256.223 27.0878C255.998 27.0062 255.794 26.853 255.61 26.6285C254.936 25.8936 254.151 25.3219 253.252 24.9137C252.354 24.4849 251.303 24.2706 250.098 24.2706C249.098 24.2706 248.169 24.4543 247.312 24.8218C246.454 25.1892 245.709 25.72 245.076 26.4141C244.464 27.1082 243.974 27.9554 243.606 28.9558C243.259 29.9561 243.086 31.0891 243.086 32.3548C243.086 33.6205 243.259 34.7535 243.606 35.7538C243.974 36.7542 244.464 37.6014 245.076 38.2955C245.689 38.9692 246.403 39.4897 247.22 39.8572C248.036 40.2247 248.904 40.4084 249.823 40.4084C251.027 40.4084 252.099 40.2349 253.038 39.8878C253.997 39.5408 254.794 39.0202 255.426 38.3261C255.794 37.9382 256.223 37.7443 256.713 37.7443C257.182 37.7443 257.601 37.9178 257.968 38.2648C258.336 38.5915 258.519 38.9896 258.519 39.4591C258.519 39.6224 258.489 39.8062 258.427 40.0103C258.366 40.194 258.254 40.3676 258.091 40.5309ZM274.857 21.2084C275.449 21.2084 275.888 21.3819 276.174 21.729C276.46 22.076 276.603 22.4639 276.603 22.8926C276.603 23.3009 276.46 23.6786 276.174 24.0256C275.888 24.3727 275.449 24.5462 274.857 24.5462H270.417V42.062C270.417 42.6336 270.233 43.0623 269.866 43.3481C269.498 43.6135 269.1 43.7462 268.672 43.7462C268.223 43.7462 267.814 43.6135 267.447 43.3481C267.1 43.0623 266.926 42.6336 266.926 42.062V24.5462H262.517C261.925 24.5462 261.476 24.3727 261.169 24.0256C260.883 23.6786 260.741 23.3009 260.741 22.8926C260.741 22.4639 260.883 22.076 261.169 21.729C261.476 21.3819 261.925 21.2084 262.517 21.2084H274.857ZM277.907 32.3548C277.907 30.7625 278.142 29.2722 278.612 27.884C279.102 26.4958 279.796 25.2913 280.694 24.2706C281.613 23.2294 282.715 22.4129 284.001 21.8208C285.287 21.2288 286.747 20.9328 288.38 20.9328C290.013 20.9328 291.473 21.2288 292.759 21.8208C294.066 22.4129 295.168 23.2294 296.066 24.2706C296.985 25.2913 297.689 26.4958 298.179 27.884C298.669 29.2722 298.914 30.7625 298.914 32.3548C298.914 33.9267 298.669 35.4068 298.179 36.795C297.689 38.1832 296.985 39.3979 296.066 40.439C295.168 41.4597 294.066 42.2661 292.759 42.8581C291.452 43.4502 289.993 43.7462 288.38 43.7462C286.747 43.7462 285.287 43.4502 284.001 42.8581C282.715 42.2661 281.613 41.4597 280.694 40.439C279.796 39.3979 279.102 38.1832 278.612 36.795C278.142 35.4068 277.907 33.9267 277.907 32.3548ZM281.398 32.3548C281.398 33.6205 281.572 34.7535 281.919 35.7538C282.266 36.7337 282.746 37.5707 283.358 38.2648C283.991 38.9589 284.736 39.4897 285.593 39.8572C286.451 40.2247 287.38 40.4084 288.38 40.4084C289.401 40.4084 290.34 40.2247 291.197 39.8572C292.055 39.4897 292.8 38.9589 293.433 38.2648C294.066 37.5707 294.556 36.7337 294.903 35.7538C295.25 34.7535 295.423 33.6205 295.423 32.3548C295.423 31.0891 295.239 29.9561 294.872 28.9558C294.525 27.9554 294.035 27.1082 293.402 26.4141C292.79 25.72 292.045 25.1892 291.167 24.8218C290.309 24.4543 289.38 24.2706 288.38 24.2706C287.38 24.2706 286.451 24.4543 285.593 24.8218C284.736 25.1892 283.991 25.72 283.358 26.4141C282.746 27.1082 282.266 27.9554 281.919 28.9558C281.572 29.9561 281.398 31.0891 281.398 32.3548Z" fill="black"/>
<path d="M101.576 59.573C101.737 59.5194 101.898 59.4167 102.058 59.2648C102.219 59.113 102.358 58.8495 102.474 58.4744C102.599 58.0993 102.697 57.5902 102.768 56.9471C102.849 56.3041 102.889 55.4645 102.889 54.4285V53.5979C102.889 53.446 102.947 53.3165 103.063 53.2093C103.179 53.1022 103.313 53.0486 103.465 53.0486H107.27C107.422 53.0486 107.551 53.1022 107.658 53.2093C107.774 53.3165 107.833 53.446 107.833 53.5979V60.0419C107.833 60.2294 107.774 60.3679 107.658 60.4572C107.542 60.5465 107.408 60.5912 107.256 60.5912C107.114 60.5912 106.984 60.5465 106.868 60.4572C106.752 60.3679 106.694 60.2294 106.694 60.0419V54.1471H104.028V54.4285C104.028 55.402 103.992 56.2505 103.921 56.9739C103.849 57.6885 103.733 58.2958 103.572 58.7959C103.411 59.2961 103.197 59.6936 102.929 59.9883C102.661 60.283 102.335 60.4974 101.951 60.6314C101.88 60.6581 101.813 60.6715 101.75 60.6715C101.581 60.6715 101.442 60.609 101.335 60.484C101.237 60.3679 101.188 60.2339 101.188 60.0821C101.188 59.9838 101.219 59.8856 101.281 59.7873C101.344 59.6891 101.442 59.6176 101.576 59.573ZM110.788 56.0227H111.753C111.815 55.5851 111.936 55.1787 112.114 54.8036C112.293 54.4285 112.521 54.1025 112.798 53.8256C113.074 53.5487 113.4 53.3344 113.776 53.1826C114.151 53.0218 114.566 52.9414 115.022 52.9414C115.54 52.9414 116.004 53.0441 116.415 53.2495C116.835 53.446 117.183 53.7184 117.46 54.0668C117.746 54.4062 117.964 54.8081 118.116 55.2725C118.268 55.7369 118.344 56.2282 118.344 56.7462C118.344 57.2731 118.268 57.7688 118.116 58.2333C117.964 58.6888 117.746 59.0907 117.46 59.439C117.183 59.7873 116.835 60.0642 116.415 60.2696C116.004 60.4661 115.54 60.5644 115.022 60.5644C114.53 60.5644 114.088 60.4751 113.695 60.2964C113.302 60.1178 112.963 59.8722 112.677 59.5596C112.4 59.247 112.177 58.8853 112.007 58.4744C111.846 58.0546 111.748 57.6036 111.712 57.1213H110.788V60.0151C110.788 60.2026 110.726 60.3411 110.6 60.4304C110.484 60.5197 110.355 60.5644 110.212 60.5644C110.06 60.5644 109.926 60.5197 109.81 60.4304C109.694 60.3411 109.636 60.2026 109.636 60.0151V53.4907C109.636 53.3121 109.694 53.1781 109.81 53.0888C109.926 52.9995 110.06 52.9548 110.212 52.9548C110.355 52.9548 110.484 52.9995 110.6 53.0888C110.726 53.1781 110.788 53.3121 110.788 53.4907V56.0227ZM112.851 56.7462C112.851 57.1749 112.905 57.5589 113.012 57.8983C113.128 58.2288 113.284 58.5146 113.481 58.7558C113.677 58.988 113.905 59.1666 114.164 59.2916C114.432 59.4077 114.718 59.4658 115.022 59.4658C115.325 59.4658 115.611 59.4077 115.879 59.2916C116.147 59.1666 116.379 58.988 116.576 58.7558C116.772 58.5146 116.924 58.2288 117.031 57.8983C117.147 57.5589 117.205 57.1749 117.205 56.7462C117.205 56.3175 117.147 55.9334 117.031 55.594C116.924 55.2546 116.772 54.9733 116.576 54.75C116.379 54.5178 116.147 54.3436 115.879 54.2275C115.611 54.1025 115.325 54.04 115.022 54.04C114.718 54.04 114.432 54.1025 114.164 54.2275C113.905 54.3436 113.677 54.5178 113.481 54.75C113.284 54.9733 113.128 55.2546 113.012 55.594C112.905 55.9334 112.851 56.3175 112.851 56.7462ZM122.578 60.5912C122.052 60.5912 121.583 60.4929 121.172 60.2964C120.77 60.0999 120.426 59.8231 120.14 59.4658C119.863 59.1085 119.653 58.6843 119.511 58.1931C119.368 57.6929 119.296 57.1436 119.296 56.5452C119.296 55.5449 119.341 54.6607 119.43 53.8926C119.519 53.1245 119.694 52.4725 119.953 51.9366C120.212 51.4007 120.573 50.972 121.038 50.6505C121.511 50.329 122.127 50.1057 122.887 49.9806C123.047 49.9538 123.244 49.9226 123.476 49.8869C123.708 49.8511 123.927 49.8199 124.133 49.7931C124.338 49.7574 124.512 49.7306 124.655 49.7127C124.798 49.6859 124.86 49.6725 124.843 49.6725C125.012 49.6725 125.146 49.735 125.245 49.8601C125.343 49.9762 125.392 50.1057 125.392 50.2486C125.392 50.4272 125.307 50.5656 125.137 50.6639C124.968 50.7621 124.762 50.8336 124.521 50.8782C124.28 50.9229 124.025 50.9586 123.757 50.9854C123.49 51.0033 123.257 51.0256 123.061 51.0524C122.641 51.1149 122.275 51.2176 121.962 51.3605C121.659 51.5034 121.4 51.7089 121.185 51.9768C120.971 52.2358 120.797 52.5752 120.663 52.995C120.529 53.4058 120.435 53.9194 120.381 54.5357C120.596 54.0802 120.899 53.705 121.292 53.4103C121.694 53.1156 122.199 52.9682 122.806 52.9682C123.396 52.9682 123.887 53.0709 124.28 53.2763C124.682 53.4818 125.003 53.7586 125.245 54.107C125.495 54.4553 125.669 54.8617 125.767 55.3261C125.874 55.7905 125.928 56.2773 125.928 56.7864C125.928 57.3759 125.847 57.9073 125.687 58.3806C125.535 58.854 125.312 59.2559 125.017 59.5864C124.722 59.9079 124.369 60.158 123.958 60.3366C123.548 60.5063 123.088 60.5912 122.578 60.5912ZM120.435 56.5452C120.435 57.0633 120.489 57.5098 120.596 57.8849C120.712 58.2511 120.864 58.5548 121.051 58.7959C121.248 59.0371 121.475 59.2157 121.734 59.3318C121.993 59.439 122.275 59.4926 122.578 59.4926C122.891 59.4926 123.181 59.4435 123.449 59.3452C123.717 59.2381 123.949 59.0773 124.146 58.8629C124.342 58.6486 124.494 58.3717 124.601 58.0323C124.718 57.684 124.776 57.2687 124.776 56.7864C124.776 55.9022 124.593 55.2278 124.226 54.7634C123.869 54.299 123.329 54.0668 122.605 54.0668C122.319 54.0668 122.047 54.1293 121.788 54.2543C121.538 54.3704 121.315 54.5312 121.118 54.7366C120.922 54.942 120.761 55.1877 120.636 55.4735C120.511 55.7503 120.444 56.0495 120.435 56.3711V56.4381V56.5452ZM126.831 56.7462C126.831 56.2014 126.907 55.6967 127.059 55.2323C127.219 54.7679 127.447 54.366 127.742 54.0266C128.037 53.6872 128.394 53.4237 128.814 53.2361C129.242 53.0396 129.72 52.9414 130.247 52.9414C130.774 52.9414 131.247 53.0396 131.667 53.2361C132.096 53.4237 132.458 53.6872 132.752 54.0266C133.047 54.366 133.27 54.7679 133.422 55.2323C133.583 55.6967 133.663 56.2014 133.663 56.7462C133.663 57.291 133.583 57.7956 133.422 58.2601C133.27 58.7245 133.047 59.1309 132.752 59.4792C132.458 59.8186 132.096 60.0865 131.667 60.283C131.247 60.4706 130.774 60.5644 130.247 60.5644C129.72 60.5644 129.242 60.4706 128.814 60.283C128.394 60.0865 128.037 59.8186 127.742 59.4792C127.447 59.1309 127.219 58.7245 127.059 58.2601C126.907 57.7956 126.831 57.291 126.831 56.7462ZM127.983 56.7462C127.983 57.1838 128.041 57.5723 128.157 57.9117C128.273 58.2511 128.43 58.5369 128.626 58.7692C128.831 58.9924 129.073 59.1666 129.349 59.2916C129.626 59.4077 129.926 59.4658 130.247 59.4658C130.569 59.4658 130.868 59.4077 131.145 59.2916C131.422 59.1666 131.658 58.9924 131.855 58.7692C132.06 58.5369 132.221 58.2511 132.337 57.9117C132.453 57.5723 132.511 57.1838 132.511 56.7462C132.511 56.3085 132.453 55.92 132.337 55.5806C132.221 55.2412 132.06 54.9599 131.855 54.7366C131.658 54.5044 131.422 54.3302 131.145 54.2141C130.868 54.098 130.569 54.04 130.247 54.04C129.926 54.04 129.626 54.098 129.349 54.2141C129.073 54.3302 128.831 54.5044 128.626 54.7366C128.43 54.9599 128.273 55.2412 128.157 55.5806C128.041 55.92 127.983 56.3085 127.983 56.7462ZM134.997 53.5979C134.997 53.446 135.051 53.3165 135.158 53.2093C135.274 53.1022 135.408 53.0486 135.56 53.0486H137.65C138.427 53.0486 139.052 53.1959 139.525 53.4907C139.999 53.7854 140.235 54.232 140.235 54.8304C140.235 55.1787 140.151 55.4824 139.981 55.7414C139.811 56.0004 139.579 56.2058 139.284 56.3577C139.767 56.4559 140.142 56.6703 140.41 57.0007C140.678 57.3223 140.812 57.7152 140.812 58.1797C140.812 58.921 140.566 59.4881 140.075 59.8811C139.592 60.2741 138.811 60.4706 137.73 60.4706H135.56C135.408 60.4706 135.274 60.417 135.158 60.3098C135.051 60.2026 134.997 60.0731 134.997 59.9213V53.5979ZM136.136 59.372H137.73C138.168 59.372 138.512 59.3408 138.762 59.2782C139.021 59.2157 139.217 59.1309 139.351 59.0237C139.485 58.9165 139.57 58.7915 139.606 58.6486C139.642 58.5057 139.659 58.3494 139.659 58.1797C139.659 58.0189 139.633 57.876 139.579 57.751C139.534 57.617 139.436 57.5009 139.284 57.4026C139.141 57.3044 138.936 57.2285 138.668 57.1749C138.4 57.1213 138.043 57.0945 137.596 57.0945H136.136V59.372ZM137.556 56.0763C137.869 56.0763 138.123 56.0406 138.32 55.9692C138.525 55.8977 138.681 55.8084 138.789 55.7012C138.905 55.594 138.981 55.4779 139.016 55.3529C139.061 55.2278 139.083 55.1162 139.083 55.018C139.083 54.8929 139.065 54.7768 139.03 54.6696C139.003 54.5625 138.936 54.4731 138.829 54.4017C138.731 54.3213 138.588 54.2588 138.4 54.2141C138.213 54.1695 137.962 54.1471 137.65 54.1471H136.136V56.0763H137.556ZM143.286 55.594H144.184C144.666 55.594 145.121 55.6342 145.55 55.7146C145.979 55.7861 146.354 55.9156 146.676 56.1031C146.997 56.2907 147.252 56.5408 147.439 56.8534C147.627 57.166 147.721 57.5545 147.721 58.0189C147.721 58.8138 147.421 59.4211 146.823 59.8409C146.225 60.2607 145.322 60.4706 144.117 60.4706H142.71C142.558 60.4706 142.424 60.417 142.308 60.3098C142.192 60.2026 142.134 60.0731 142.134 59.9213V53.4907C142.134 53.3121 142.192 53.1781 142.308 53.0888C142.424 52.9995 142.558 52.9548 142.71 52.9548C142.853 52.9548 142.982 52.9995 143.099 53.0888C143.224 53.1781 143.286 53.3121 143.286 53.4907V55.594ZM144.117 59.372C144.644 59.372 145.068 59.3363 145.389 59.2648C145.72 59.1845 145.97 59.0818 146.14 58.9567C146.318 58.8227 146.434 58.6754 146.488 58.5146C146.551 58.3538 146.582 58.1886 146.582 58.0189C146.582 57.8135 146.542 57.6304 146.461 57.4696C146.39 57.2999 146.26 57.1615 146.073 57.0543C145.885 56.9382 145.635 56.8489 145.322 56.7864C145.019 56.7239 144.639 56.6926 144.184 56.6926H143.286V59.372H144.117Z" fill="#F77718"/>
<path d="M158.805 59.0103C158.52 59.5015 158.149 59.8856 157.693 60.1625C157.247 60.4304 156.715 60.5644 156.099 60.5644C155.545 60.5644 155.054 60.4706 154.626 60.283C154.197 60.0865 153.831 59.8186 153.527 59.4792C153.232 59.1309 153.004 58.7245 152.844 58.2601C152.692 57.7956 152.616 57.291 152.616 56.7462C152.616 56.2014 152.692 55.6967 152.844 55.2323C153.004 54.7679 153.228 54.366 153.514 54.0266C153.808 53.6872 154.161 53.4237 154.572 53.2361C154.992 53.0396 155.465 52.9414 155.992 52.9414C156.581 52.9414 157.117 53.0709 157.6 53.3299C158.091 53.58 158.466 53.9328 158.725 54.3883C158.779 54.4955 158.805 54.5892 158.805 54.6696C158.805 54.8215 158.743 54.951 158.618 55.0581C158.502 55.1564 158.368 55.2055 158.216 55.2055C158.127 55.2055 158.037 55.1832 157.948 55.1385C157.868 55.0939 157.796 55.0224 157.734 54.9242C157.582 54.6652 157.359 54.4553 157.064 54.2945C156.769 54.1248 156.412 54.04 155.992 54.04C155.67 54.04 155.376 54.098 155.108 54.2141C154.84 54.3302 154.603 54.5044 154.398 54.7366C154.201 54.9599 154.045 55.2412 153.929 55.5806C153.822 55.92 153.768 56.3085 153.768 56.7462C153.768 57.1838 153.822 57.5723 153.929 57.9117C154.045 58.2511 154.206 58.5369 154.411 58.7692C154.617 58.9924 154.862 59.1666 155.148 59.2916C155.434 59.4077 155.751 59.4658 156.099 59.4658C156.867 59.4658 157.43 59.1398 157.787 58.4878C157.85 58.3806 157.921 58.3047 158.002 58.2601C158.091 58.2154 158.185 58.1931 158.283 58.1931C158.435 58.1931 158.573 58.2467 158.698 58.3538C158.823 58.4521 158.886 58.5771 158.886 58.729C158.886 58.8272 158.859 58.921 158.805 59.0103ZM164.214 53.5979C164.214 53.446 164.272 53.3165 164.388 53.2093C164.504 53.1022 164.638 53.0486 164.79 53.0486H169.68C169.832 53.0486 169.966 53.1022 170.082 53.2093C170.198 53.3165 170.256 53.446 170.256 53.5979V60.0419C170.256 60.2294 170.198 60.3679 170.082 60.4572C169.966 60.5465 169.832 60.5912 169.68 60.5912C169.537 60.5912 169.408 60.5465 169.292 60.4572C169.175 60.3679 169.117 60.2294 169.117 60.0419V54.1471H165.353V60.0419C165.353 60.2294 165.295 60.3679 165.179 60.4572C165.062 60.5465 164.929 60.5912 164.777 60.5912C164.634 60.5912 164.504 60.5465 164.388 60.4572C164.272 60.3679 164.214 60.2294 164.214 60.0419V53.5979ZM177.836 58.9969C177.55 59.506 177.17 59.8945 176.697 60.1625C176.233 60.4304 175.661 60.5644 174.982 60.5644C174.455 60.5644 173.982 60.4661 173.562 60.2696C173.151 60.0731 172.799 59.8052 172.504 59.4658C172.218 59.1264 171.995 58.7245 171.834 58.2601C171.682 57.7867 171.606 57.2821 171.606 56.7462C171.606 56.2014 171.682 55.6967 171.834 55.2323C171.995 54.7679 172.218 54.366 172.504 54.0266C172.799 53.6872 173.151 53.4237 173.562 53.2361C173.982 53.0396 174.455 52.9414 174.982 52.9414C175.491 52.9414 175.938 53.0352 176.322 53.2227C176.715 53.4014 177.045 53.6559 177.313 53.9864C177.581 54.3079 177.782 54.692 177.916 55.1385C178.05 55.5851 178.117 56.0674 178.117 56.5854C178.117 56.7373 178.059 56.8668 177.943 56.9739C177.836 57.0811 177.706 57.1347 177.554 57.1347H172.772C172.799 57.4384 172.861 57.7331 172.959 58.0189C173.058 58.2958 173.196 58.5414 173.375 58.7558C173.553 58.9701 173.772 59.1443 174.031 59.2782C174.299 59.4033 174.616 59.4658 174.982 59.4658C175.465 59.4658 175.844 59.3854 176.121 59.2247C176.398 59.055 176.63 58.8004 176.818 58.461C176.871 58.3628 176.938 58.2913 177.019 58.2467C177.108 58.202 177.197 58.1797 177.287 58.1797C177.438 58.1797 177.577 58.2333 177.702 58.3404C177.836 58.4476 177.903 58.5771 177.903 58.729C177.903 58.8272 177.88 58.9165 177.836 58.9969ZM176.952 56.0361C176.871 55.3663 176.652 54.8661 176.295 54.5357C175.947 54.2052 175.509 54.04 174.982 54.04C174.652 54.04 174.362 54.0936 174.111 54.2007C173.87 54.3079 173.66 54.4553 173.482 54.6428C173.303 54.8215 173.16 55.0314 173.053 55.2725C172.946 55.5137 172.865 55.7682 172.812 56.0361H176.952ZM179.472 53.4907C179.472 53.3121 179.53 53.1781 179.646 53.0888C179.762 52.9995 179.892 52.9548 180.035 52.9548C180.186 52.9548 180.32 52.9995 180.436 53.0888C180.553 53.1781 180.611 53.3121 180.611 53.4907V54.3481C180.843 53.8747 181.151 53.5219 181.535 53.2897C181.919 53.0575 182.348 52.9414 182.821 52.9414C183.357 52.9414 183.817 53.0396 184.201 53.2361C184.594 53.4326 184.916 53.705 185.166 54.0534C185.425 54.3928 185.617 54.7947 185.742 55.2591C185.867 55.7235 185.929 56.2192 185.929 56.7462C185.929 57.2821 185.867 57.7822 185.742 58.2467C185.617 58.7111 185.425 59.1175 185.166 59.4658C184.916 59.8052 184.594 60.0731 184.201 60.2696C183.817 60.4661 183.357 60.5644 182.821 60.5644C182.276 60.5644 181.821 60.4483 181.455 60.216C181.097 59.9749 180.816 59.6534 180.611 59.2514V62.6677C180.611 62.8553 180.553 62.9937 180.436 63.083C180.32 63.1723 180.186 63.217 180.035 63.217C179.892 63.217 179.762 63.1723 179.646 63.083C179.53 62.9937 179.472 62.8553 179.472 62.6677V53.4907ZM182.687 59.4658C183.303 59.4658 183.808 59.2425 184.201 58.7959C184.594 58.3404 184.79 57.6572 184.79 56.7462C184.79 55.8441 184.594 55.1698 184.201 54.7232C183.808 54.2677 183.303 54.04 182.687 54.04C182.482 54.04 182.258 54.0846 182.017 54.1739C181.785 54.2633 181.566 54.4062 181.361 54.6026C181.155 54.7991 180.981 55.0581 180.838 55.3797C180.695 55.6923 180.62 56.0719 180.611 56.5184V57.0007C180.611 57.3848 180.664 57.7286 180.771 58.0323C180.887 58.336 181.039 58.595 181.227 58.8093C181.423 59.0237 181.647 59.1889 181.897 59.305C182.147 59.4122 182.41 59.4658 182.687 59.4658ZM187.265 53.5979C187.265 53.446 187.318 53.3165 187.426 53.2093C187.542 53.1022 187.676 53.0486 187.827 53.0486H189.917C190.694 53.0486 191.32 53.1959 191.793 53.4907C192.266 53.7854 192.503 54.232 192.503 54.8304C192.503 55.1787 192.418 55.4824 192.249 55.7414C192.079 56.0004 191.847 56.2058 191.552 56.3577C192.034 56.4559 192.409 56.6703 192.677 57.0007C192.945 57.3223 193.079 57.7152 193.079 58.1797C193.079 58.921 192.834 59.4881 192.342 59.8811C191.86 60.2741 191.079 60.4706 189.998 60.4706H187.827C187.676 60.4706 187.542 60.417 187.426 60.3098C187.318 60.2026 187.265 60.0731 187.265 59.9213V53.5979ZM188.404 59.372H189.998C190.435 59.372 190.779 59.3408 191.029 59.2782C191.288 59.2157 191.485 59.1309 191.619 59.0237C191.753 58.9165 191.838 58.7915 191.873 58.6486C191.909 58.5057 191.927 58.3494 191.927 58.1797C191.927 58.0189 191.9 57.876 191.847 57.751C191.802 57.617 191.704 57.5009 191.552 57.4026C191.409 57.3044 191.204 57.2285 190.936 57.1749C190.668 57.1213 190.31 57.0945 189.864 57.0945H188.404V59.372ZM189.824 56.0763C190.136 56.0763 190.391 56.0406 190.587 55.9692C190.793 55.8977 190.949 55.8084 191.056 55.7012C191.172 55.594 191.248 55.4779 191.284 55.3529C191.329 55.2278 191.351 55.1162 191.351 55.018C191.351 54.8929 191.333 54.7768 191.297 54.6696C191.271 54.5625 191.204 54.4731 191.096 54.4017C190.998 54.3213 190.855 54.2588 190.668 54.2141C190.48 54.1695 190.23 54.1471 189.917 54.1471H188.404V56.0763H189.824ZM193.946 56.7462C193.946 56.2014 194.022 55.6967 194.174 55.2323C194.335 54.7679 194.562 54.366 194.857 54.0266C195.152 53.6872 195.509 53.4237 195.929 53.2361C196.357 53.0396 196.835 52.9414 197.362 52.9414C197.889 52.9414 198.363 53.0396 198.782 53.2361C199.211 53.4237 199.573 53.6872 199.868 54.0266C200.162 54.366 200.386 54.7679 200.537 55.2323C200.698 55.6967 200.779 56.2014 200.779 56.7462C200.779 57.291 200.698 57.7956 200.537 58.2601C200.386 58.7245 200.162 59.1309 199.868 59.4792C199.573 59.8186 199.211 60.0865 198.782 60.283C198.363 60.4706 197.889 60.5644 197.362 60.5644C196.835 60.5644 196.357 60.4706 195.929 60.283C195.509 60.0865 195.152 59.8186 194.857 59.4792C194.562 59.1309 194.335 58.7245 194.174 58.2601C194.022 57.7956 193.946 57.291 193.946 56.7462ZM195.098 56.7462C195.098 57.1838 195.156 57.5723 195.272 57.9117C195.388 58.2511 195.545 58.5369 195.741 58.7692C195.947 58.9924 196.188 59.1666 196.465 59.2916C196.742 59.4077 197.041 59.4658 197.362 59.4658C197.684 59.4658 197.983 59.4077 198.26 59.2916C198.537 59.1666 198.773 58.9924 198.97 58.7692C199.175 58.5369 199.336 58.2511 199.452 57.9117C199.568 57.5723 199.626 57.1838 199.626 56.7462C199.626 56.3085 199.568 55.92 199.452 55.5806C199.336 55.2412 199.175 54.9599 198.97 54.7366C198.773 54.5044 198.537 54.3302 198.26 54.2141C197.983 54.098 197.684 54.04 197.362 54.04C197.041 54.04 196.742 54.098 196.465 54.2141C196.188 54.3302 195.947 54.5044 195.741 54.7366C195.545 54.9599 195.388 55.2412 195.272 55.5806C195.156 55.92 195.098 56.3085 195.098 56.7462ZM202.112 53.5979C202.112 53.446 202.171 53.3165 202.287 53.2093C202.403 53.1022 202.537 53.0486 202.689 53.0486H206.252C206.44 53.0486 206.583 53.1066 206.681 53.2227C206.779 53.3389 206.828 53.4639 206.828 53.5979C206.828 53.7408 206.779 53.8703 206.681 53.9864C206.583 54.0936 206.44 54.1471 206.252 54.1471H203.265V60.0419C203.265 60.2294 203.202 60.3679 203.077 60.4572C202.961 60.5465 202.831 60.5912 202.689 60.5912C202.537 60.5912 202.403 60.5465 202.287 60.4572C202.171 60.3679 202.112 60.2294 202.112 60.0419V53.5979ZM207.262 56.7462C207.262 56.2014 207.338 55.6967 207.49 55.2323C207.651 54.7679 207.879 54.366 208.173 54.0266C208.468 53.6872 208.825 53.4237 209.245 53.2361C209.674 53.0396 210.152 52.9414 210.679 52.9414C211.206 52.9414 211.679 53.0396 212.099 53.2361C212.527 53.4237 212.889 53.6872 213.184 54.0266C213.479 54.366 213.702 54.7679 213.854 55.2323C214.015 55.6967 214.095 56.2014 214.095 56.7462C214.095 57.291 214.015 57.7956 213.854 58.2601C213.702 58.7245 213.479 59.1309 213.184 59.4792C212.889 59.8186 212.527 60.0865 212.099 60.283C211.679 60.4706 211.206 60.5644 210.679 60.5644C210.152 60.5644 209.674 60.4706 209.245 60.283C208.825 60.0865 208.468 59.8186 208.173 59.4792C207.879 59.1309 207.651 58.7245 207.49 58.2601C207.338 57.7956 207.262 57.291 207.262 56.7462ZM208.415 56.7462C208.415 57.1838 208.473 57.5723 208.589 57.9117C208.705 58.2511 208.861 58.5369 209.058 58.7692C209.263 58.9924 209.504 59.1666 209.781 59.2916C210.058 59.4077 210.357 59.4658 210.679 59.4658C211 59.4658 211.299 59.4077 211.576 59.2916C211.853 59.1666 212.09 58.9924 212.286 58.7692C212.492 58.5369 212.653 58.2511 212.769 57.9117C212.885 57.5723 212.943 57.1838 212.943 56.7462C212.943 56.3085 212.885 55.92 212.769 55.5806C212.653 55.2412 212.492 54.9599 212.286 54.7366C212.09 54.5044 211.853 54.3302 211.576 54.2141C211.299 54.098 211 54.04 210.679 54.04C210.357 54.04 210.058 54.098 209.781 54.2141C209.504 54.3302 209.263 54.5044 209.058 54.7366C208.861 54.9599 208.705 55.2412 208.589 55.5806C208.473 55.92 208.415 56.3085 208.415 56.7462ZM220.681 57.0677H220.601V60.0151C220.601 60.2026 220.538 60.3411 220.413 60.4304C220.297 60.5197 220.167 60.5644 220.024 60.5644C219.873 60.5644 219.739 60.5197 219.623 60.4304C219.506 60.3411 219.448 60.2026 219.448 60.0151V53.4907C219.448 53.3121 219.506 53.1781 219.623 53.0888C219.739 52.9995 219.873 52.9548 220.024 52.9548C220.167 52.9548 220.297 52.9995 220.413 53.0888C220.538 53.1781 220.601 53.3121 220.601 53.4907V55.9692H220.735L224.459 53.062C224.575 52.9727 224.696 52.928 224.821 52.928C224.972 52.928 225.106 52.9861 225.223 53.1022C225.339 53.2183 225.397 53.3522 225.397 53.5041C225.397 53.6648 225.325 53.8033 225.182 53.9194L221.793 56.5452L225.29 59.6132C225.361 59.6757 225.41 59.7427 225.437 59.8141C225.473 59.8766 225.49 59.9436 225.49 60.0151C225.49 60.1669 225.432 60.3009 225.316 60.417C225.2 60.5242 225.066 60.5778 224.914 60.5778C224.763 60.5778 224.633 60.5242 224.526 60.417L220.681 57.0677ZM226.706 62.0113C226.769 62.0113 226.822 62.0202 226.867 62.0381C226.921 62.0559 226.97 62.0738 227.014 62.0916C227.059 62.1095 227.108 62.1274 227.162 62.1452C227.224 62.1631 227.3 62.172 227.389 62.172C227.443 62.172 227.51 62.1586 227.59 62.1318C227.671 62.114 227.76 62.0514 227.858 61.9443C227.957 61.846 228.064 61.6897 228.18 61.4754C228.296 61.261 228.426 60.9618 228.568 60.5778L228.769 60.0285L225.943 53.6916C225.907 53.6202 225.889 53.5398 225.889 53.4505C225.889 53.2987 225.947 53.1736 226.063 53.0754C226.188 52.9771 226.327 52.928 226.478 52.928C226.702 52.928 226.867 53.0396 226.974 53.2629L229.345 58.5414L231.382 53.2763C231.426 53.1513 231.498 53.062 231.596 53.0084C231.694 52.9459 231.793 52.9146 231.891 52.9146C232.043 52.9146 232.181 52.9682 232.306 53.0754C232.431 53.1736 232.494 53.3031 232.494 53.4639C232.494 53.5264 232.48 53.5979 232.454 53.6782L229.881 60.3232L229.64 60.9395C229.488 61.3146 229.337 61.6451 229.185 61.9309C229.042 62.2256 228.881 62.4712 228.702 62.6677C228.533 62.8731 228.341 63.025 228.126 63.1232C227.912 63.2304 227.666 63.284 227.389 63.284C227.238 63.284 227.086 63.2706 226.934 63.2438C226.791 63.2259 226.662 63.1857 226.545 63.1232C226.429 63.0696 226.336 62.9937 226.264 62.8955C226.193 62.8062 226.157 62.6945 226.157 62.5605C226.157 62.3819 226.211 62.2435 226.318 62.1452C226.425 62.0559 226.554 62.0113 226.706 62.0113ZM239.305 59.0103C239.02 59.5015 238.649 59.8856 238.193 60.1625C237.747 60.4304 237.215 60.5644 236.599 60.5644C236.045 60.5644 235.554 60.4706 235.126 60.283C234.697 60.0865 234.331 59.8186 234.027 59.4792C233.732 59.1309 233.504 58.7245 233.344 58.2601C233.192 57.7956 233.116 57.291 233.116 56.7462C233.116 56.2014 233.192 55.6967 233.344 55.2323C233.504 54.7679 233.728 54.366 234.014 54.0266C234.308 53.6872 234.661 53.4237 235.072 53.2361C235.492 53.0396 235.965 52.9414 236.492 52.9414C237.081 52.9414 237.617 53.0709 238.1 53.3299C238.591 53.58 238.966 53.9328 239.225 54.3883C239.279 54.4955 239.305 54.5892 239.305 54.6696C239.305 54.8215 239.243 54.951 239.118 55.0581C239.002 55.1564 238.868 55.2055 238.716 55.2055C238.627 55.2055 238.537 55.1832 238.448 55.1385C238.368 55.0939 238.296 55.0224 238.234 54.9242C238.082 54.6652 237.859 54.4553 237.564 54.2945C237.269 54.1248 236.912 54.04 236.492 54.04C236.17 54.04 235.876 54.098 235.608 54.2141C235.34 54.3302 235.103 54.5044 234.898 54.7366C234.701 54.9599 234.545 55.2412 234.429 55.5806C234.322 55.92 234.268 56.3085 234.268 56.7462C234.268 57.1838 234.322 57.5723 234.429 57.9117C234.545 58.2511 234.706 58.5369 234.911 58.7692C235.117 58.9924 235.362 59.1666 235.648 59.2916C235.934 59.4077 236.251 59.4658 236.599 59.4658C237.367 59.4658 237.93 59.1398 238.287 58.4878C238.35 58.3806 238.421 58.3047 238.502 58.2601C238.591 58.2154 238.685 58.1931 238.783 58.1931C238.935 58.1931 239.073 58.2467 239.198 58.3538C239.323 58.4521 239.386 58.5771 239.386 58.729C239.386 58.8272 239.359 58.921 239.305 59.0103ZM240.239 56.7462C240.239 56.2014 240.315 55.6967 240.467 55.2323C240.627 54.7679 240.855 54.366 241.15 54.0266C241.445 53.6872 241.802 53.4237 242.222 53.2361C242.65 53.0396 243.128 52.9414 243.655 52.9414C244.182 52.9414 244.656 53.0396 245.075 53.2361C245.504 53.4237 245.866 53.6872 246.161 54.0266C246.455 54.366 246.679 54.7679 246.83 55.2323C246.991 55.6967 247.072 56.2014 247.072 56.7462C247.072 57.291 246.991 57.7956 246.83 58.2601C246.679 58.7245 246.455 59.1309 246.161 59.4792C245.866 59.8186 245.504 60.0865 245.075 60.283C244.656 60.4706 244.182 60.5644 243.655 60.5644C243.128 60.5644 242.65 60.4706 242.222 60.283C241.802 60.0865 241.445 59.8186 241.15 59.4792C240.855 59.1309 240.627 58.7245 240.467 58.2601C240.315 57.7956 240.239 57.291 240.239 56.7462ZM241.391 56.7462C241.391 57.1838 241.449 57.5723 241.565 57.9117C241.681 58.2511 241.838 58.5369 242.034 58.7692C242.24 58.9924 242.481 59.1666 242.758 59.2916C243.035 59.4077 243.334 59.4658 243.655 59.4658C243.977 59.4658 244.276 59.4077 244.553 59.2916C244.83 59.1666 245.066 58.9924 245.263 58.7692C245.468 58.5369 245.629 58.2511 245.745 57.9117C245.861 57.5723 245.919 57.1838 245.919 56.7462C245.919 56.3085 245.861 55.92 245.745 55.5806C245.629 55.2412 245.468 54.9599 245.263 54.7366C245.066 54.5044 244.83 54.3302 244.553 54.2141C244.276 54.098 243.977 54.04 243.655 54.04C243.334 54.04 243.035 54.098 242.758 54.2141C242.481 54.3302 242.24 54.5044 242.034 54.7366C241.838 54.9599 241.681 55.2412 241.565 55.5806C241.449 55.92 241.391 56.3085 241.391 56.7462ZM253.684 60.0151C253.684 60.2026 253.621 60.3411 253.496 60.4304C253.38 60.5197 253.251 60.5644 253.108 60.5644C252.956 60.5644 252.822 60.5197 252.706 60.4304C252.59 60.3411 252.532 60.2026 252.532 60.0151V57.617C252.3 57.6885 252.045 57.7465 251.768 57.7912C251.5 57.8269 251.232 57.8448 250.964 57.8448C250.518 57.8448 250.111 57.8046 249.745 57.7242C249.379 57.6349 249.066 57.492 248.807 57.2955C248.548 57.099 248.347 56.8489 248.204 56.5452C248.07 56.2416 248.004 55.8664 248.004 55.4199V53.4907C248.004 53.3121 248.062 53.1781 248.178 53.0888C248.294 52.9995 248.423 52.9548 248.566 52.9548C248.718 52.9548 248.852 52.9995 248.968 53.0888C249.084 53.1781 249.142 53.3121 249.142 53.4907V55.4199C249.142 55.6521 249.169 55.853 249.223 56.0227C249.276 56.1924 249.37 56.3309 249.504 56.4381C249.647 56.5452 249.834 56.6256 250.067 56.6792C250.308 56.7239 250.607 56.7462 250.964 56.7462C251.295 56.7462 251.603 56.7149 251.889 56.6524C252.183 56.581 252.398 56.5095 252.532 56.4381V53.4907C252.532 53.3121 252.59 53.1781 252.706 53.0888C252.822 52.9995 252.956 52.9548 253.108 52.9548C253.251 52.9548 253.38 52.9995 253.496 53.0888C253.621 53.1781 253.684 53.3121 253.684 53.4907V60.0151ZM256.706 57.0677H256.626V60.0151C256.626 60.2026 256.563 60.3411 256.438 60.4304C256.322 60.5197 256.193 60.5644 256.05 60.5644C255.898 60.5644 255.764 60.5197 255.648 60.4304C255.532 60.3411 255.474 60.2026 255.474 60.0151V53.4907C255.474 53.3121 255.532 53.1781 255.648 53.0888C255.764 52.9995 255.898 52.9548 256.05 52.9548C256.193 52.9548 256.322 52.9995 256.438 53.0888C256.563 53.1781 256.626 53.3121 256.626 53.4907V55.9692H256.76L260.484 53.062C260.6 52.9727 260.721 52.928 260.846 52.928C260.998 52.928 261.132 52.9861 261.248 53.1022C261.364 53.2183 261.422 53.3522 261.422 53.5041C261.422 53.6648 261.351 53.8033 261.208 53.9194L257.818 56.5452L261.315 59.6132C261.386 59.6757 261.436 59.7427 261.462 59.8141C261.498 59.8766 261.516 59.9436 261.516 60.0151C261.516 60.1669 261.458 60.3009 261.342 60.417C261.226 60.5242 261.092 60.5778 260.94 60.5778C260.788 60.5778 260.658 60.5242 260.551 60.417L256.706 57.0677ZM266.965 59.0639C266.733 59.5194 266.416 59.8856 266.014 60.1625C265.621 60.4304 265.139 60.5644 264.567 60.5644C264.174 60.5644 263.83 60.5108 263.535 60.4036C263.241 60.2875 262.991 60.1312 262.785 59.9347C262.58 59.7382 262.423 59.5015 262.316 59.2247C262.218 58.9478 262.169 58.6441 262.169 58.3137C262.169 57.876 262.258 57.5098 262.437 57.2151C262.624 56.9203 262.888 56.6837 263.227 56.505C263.576 56.3264 263.991 56.2014 264.473 56.1299C264.956 56.0495 265.496 56.0093 266.094 56.0093C266.237 56.0093 266.38 56.0093 266.523 56.0093C266.666 56.0093 266.813 56.0138 266.965 56.0227V55.9022C266.965 55.2323 266.836 54.7545 266.577 54.4687C266.318 54.1829 265.88 54.04 265.264 54.04C264.889 54.04 264.563 54.1203 264.286 54.2811C264.018 54.4419 263.808 54.6518 263.656 54.9108C263.594 55.009 263.518 55.0805 263.428 55.1251C263.348 55.1698 263.263 55.1921 263.174 55.1921C263.022 55.1921 262.883 55.143 262.758 55.0448C262.642 54.9376 262.584 54.8081 262.584 54.6562C262.584 54.5759 262.611 54.4821 262.665 54.3749C262.924 53.9194 263.276 53.5666 263.723 53.3165C264.179 53.0664 264.692 52.9414 265.264 52.9414C265.764 52.9414 266.193 53.0129 266.55 53.1558C266.907 53.2987 267.202 53.4996 267.434 53.7586C267.666 54.0176 267.836 54.3302 267.943 54.6964C268.05 55.0537 268.104 55.4556 268.104 55.9022V60.0151C268.104 60.2026 268.046 60.3411 267.93 60.4304C267.814 60.5197 267.68 60.5644 267.528 60.5644C267.385 60.5644 267.255 60.5197 267.139 60.4304C267.023 60.3411 266.965 60.2026 266.965 60.0151V59.0639ZM263.321 58.3137C263.321 58.6352 263.433 58.9076 263.656 59.1309C263.888 59.3542 264.259 59.4658 264.768 59.4658C265.072 59.4658 265.353 59.3988 265.612 59.2648C265.88 59.1309 266.112 58.9522 266.309 58.729C266.505 58.4967 266.661 58.2333 266.778 57.9385C266.894 57.6438 266.956 57.3312 266.965 57.0007C266.822 56.9918 266.684 56.9873 266.55 56.9873C266.425 56.9873 266.3 56.9873 266.175 56.9873C265.264 56.9873 264.558 57.0856 264.058 57.2821C263.567 57.4786 263.321 57.8224 263.321 58.3137Z" fill="black"/>
</g>
<defs>
<clipPath id="clip0_13_10">
<rect width="301" height="80.9412" fill="white"/>
</clipPath>
</defs>
</svg>
