<svg width="14" height="15" viewBox="0 0 14 15" fill="none" xmlns="http://www.w3.org/2000/svg">
<path fill-rule="evenodd" clip-rule="evenodd" d="M14 7.47059C14 11.3366 10.866 14.4706 7 14.4706C3.13401 14.4706 0 11.3366 0 7.47059C0 3.6046 3.13401 0.470589 7 0.470589C10.866 0.470589 14 3.6046 14 7.47059ZM8 4.47059C8 5.02287 7.55228 5.47059 7 5.47059C6.44772 5.47059 6 5.02287 6 4.47059C6 3.9183 6.44772 3.47059 7 3.47059C7.55228 3.47059 8 3.9183 8 4.47059ZM7 6.47059C6.44772 6.47059 6 6.9183 6 7.47059V10.4706C6 11.0229 6.44772 11.4706 7 11.4706C7.55228 11.4706 8 11.0229 8 10.4706V7.47059C8 6.9183 7.55228 6.47059 7 6.47059Z" fill="#010000"/>
</svg>
