<svg width="23" height="21" viewBox="0 0 23 21" fill="none" xmlns="http://www.w3.org/2000/svg">
<path fill-rule="evenodd" clip-rule="evenodd" d="M0.500244 0.75C0.500244 0.551088 0.579262 0.360322 0.719914 0.21967C0.860566 0.0790178 1.05133 0 1.25024 0H3.50024C3.66754 4.62172e-05 3.83002 0.056026 3.96184 0.159037C4.09366 0.262048 4.18726 0.406176 4.22774 0.5685L4.83524 3H22.2502C22.3642 3.00003 22.4766 3.02602 22.579 3.07598C22.6814 3.12594 22.771 3.19857 22.8411 3.28836C22.9112 3.37814 22.96 3.48272 22.9837 3.59416C23.0073 3.7056 23.0053 3.82096 22.9777 3.9315L20.7277 12.9315C20.6873 13.0938 20.5937 13.238 20.4618 13.341C20.33 13.444 20.1675 13.5 20.0002 13.5H6.50024C6.33295 13.5 6.17047 13.444 6.03865 13.341C5.90683 13.238 5.81323 13.0938 5.77274 12.9315L2.91524 1.5H1.25024C1.05133 1.5 0.860566 1.42098 0.719914 1.28033C0.579262 1.13968 0.500244 0.948912 0.500244 0.75ZM5.21024 4.5L7.08524 12H19.4152L21.2902 4.5H5.21024ZM8.00024 16.5C7.60242 16.5 7.22089 16.658 6.93958 16.9393C6.65828 17.2206 6.50024 17.6022 6.50024 18C6.50024 18.3978 6.65828 18.7794 6.93958 19.0607C7.22089 19.342 7.60242 19.5 8.00024 19.5C8.39807 19.5 8.7796 19.342 9.0609 19.0607C9.34221 18.7794 9.50024 18.3978 9.50024 18C9.50024 17.6022 9.34221 17.2206 9.0609 16.9393C8.7796 16.658 8.39807 16.5 8.00024 16.5ZM5.00024 18C5.00024 17.2044 5.31631 16.4413 5.87892 15.8787C6.44153 15.3161 7.20459 15 8.00024 15C8.79589 15 9.55896 15.3161 10.1216 15.8787C10.6842 16.4413 11.0002 17.2044 11.0002 18C11.0002 18.7956 10.6842 19.5587 10.1216 20.1213C9.55896 20.6839 8.79589 21 8.00024 21C7.20459 21 6.44153 20.6839 5.87892 20.1213C5.31631 19.5587 5.00024 18.7956 5.00024 18ZM18.5002 16.5C18.1024 16.5 17.7209 16.658 17.4396 16.9393C17.1583 17.2206 17.0002 17.6022 17.0002 18C17.0002 18.3978 17.1583 18.7794 17.4396 19.0607C17.7209 19.342 18.1024 19.5 18.5002 19.5C18.8981 19.5 19.2796 19.342 19.5609 19.0607C19.8422 18.7794 20.0002 18.3978 20.0002 18C20.0002 17.6022 19.8422 17.2206 19.5609 16.9393C19.2796 16.658 18.8981 16.5 18.5002 16.5ZM15.5002 18C15.5002 17.2044 15.8163 16.4413 16.3789 15.8787C16.9415 15.3161 17.7046 15 18.5002 15C19.2959 15 20.059 15.3161 20.6216 15.8787C21.1842 16.4413 21.5002 17.2044 21.5002 18C21.5002 18.7956 21.1842 19.5587 20.6216 20.1213C20.059 20.6839 19.2959 21 18.5002 21C17.7046 21 16.9415 20.6839 16.3789 20.1213C15.8163 19.5587 15.5002 18.7956 15.5002 18Z" fill="white"/>
</svg>
