<svg width="29" height="29" viewBox="0 0 29 29" fill="none" xmlns="http://www.w3.org/2000/svg">
<path fill-rule="evenodd" clip-rule="evenodd" d="M0.585786 0.585786C1.36683 -0.195262 2.63317 -0.195262 3.41421 0.585786L14.5 11.6716L25.5858 0.585786C26.3668 -0.195262 27.6332 -0.195262 28.4142 0.585786C29.1953 1.36683 29.1953 2.63317 28.4142 3.41421L17.3284 14.5L28.4142 25.5858C29.1953 26.3668 29.1953 27.6332 28.4142 28.4142C27.6332 29.1953 26.3668 29.1953 25.5858 28.4142L14.5 17.3284L3.41421 28.4142C2.63317 29.1953 1.36683 29.1953 0.585786 28.4142C-0.195262 27.6332 -0.195262 26.3668 0.585786 25.5858L11.6716 14.5L0.585786 3.41421C-0.195262 2.63317 -0.195262 1.36683 0.585786 0.585786Z" fill="white"/>
</svg>
