<svg width="14" height="14" viewBox="0 0 14 14" fill="none" xmlns="http://www.w3.org/2000/svg">
<g clip-path="url(#clip0_68_2251)">
<path fill-rule="evenodd" clip-rule="evenodd" d="M1.3125 13.1249C1.19647 13.1249 1.08519 13.171 1.00314 13.2531C0.921094 13.3351 0.875 13.4464 0.875 13.5624C0.875 13.6785 0.921094 13.7897 1.00314 13.8718C1.08519 13.9538 1.19647 13.9999 1.3125 13.9999H12.6875C12.8035 13.9999 12.9148 13.9538 12.9969 13.8718C13.0789 13.7897 13.125 13.6785 13.125 13.5624C13.125 13.4464 13.0789 13.3351 12.9969 13.2531C12.9148 13.171 12.8035 13.1249 12.6875 13.1249H11.375V2.18743C11.375 1.83934 11.2367 1.5055 10.9906 1.25936C10.7444 1.01321 10.4106 0.874934 10.0625 0.874934H9.625V0.437434C9.62499 0.374811 9.61154 0.31292 9.58555 0.255943C9.55956 0.198967 9.52165 0.148234 9.47436 0.107173C9.42708 0.066112 9.37153 0.03568 9.31148 0.017934C9.25142 0.000187949 9.18826 -0.00445847 9.12625 0.00430875L3.00125 0.879309C2.89688 0.894066 2.80134 0.94601 2.73222 1.02559C2.66309 1.10516 2.62502 1.20702 2.625 1.31243V13.1249H1.3125ZM9.625 1.74993V13.1249H10.5V2.18743C10.5 2.0714 10.4539 1.96012 10.3719 1.87807C10.2898 1.79603 10.1785 1.74993 10.0625 1.74993H9.625ZM7.4375 8.74993C7.196 8.74993 7 8.35793 7 7.87493C7 7.39193 7.196 6.99993 7.4375 6.99993C7.679 6.99993 7.875 7.39193 7.875 7.87493C7.875 8.35793 7.679 8.74993 7.4375 8.74993Z" fill="white"/>
</g>
<defs>
<clipPath id="clip0_68_2251">
<rect width="14" height="14" fill="white"/>
</clipPath>
</defs>
</svg>
