<svg width="14" height="14" viewBox="0 0 14 14" fill="none" xmlns="http://www.w3.org/2000/svg">
<g clip-path="url(#clip0_68_2259)">
<path fill-rule="evenodd" clip-rule="evenodd" d="M11.375 2.1875C11.375 1.60734 11.1445 1.05094 10.7343 0.640704C10.3241 0.230468 9.76766 0 9.1875 0C8.60734 0 8.05094 0.230468 7.6407 0.640704C7.23047 1.05094 7 1.60734 7 2.1875C7 1.60734 6.76953 1.05094 6.3593 0.640704C5.94906 0.230468 5.39266 0 4.8125 0C4.23234 0 3.67594 0.230468 3.2657 0.640704C2.85547 1.05094 2.625 1.60734 2.625 2.1875V2.19275C2.625 2.254 2.625 2.429 2.65825 2.625H0.875C0.642936 2.625 0.420376 2.71719 0.256282 2.88128C0.0921879 3.04538 0 3.26794 0 3.5V4.375C0 4.60706 0.0921879 4.82962 0.256282 4.99372C0.420376 5.15781 0.642936 5.25 0.875 5.25H13.125C13.3571 5.25 13.5796 5.15781 13.7437 4.99372C13.9078 4.82962 14 4.60706 14 4.375V3.5C14 3.26794 13.9078 3.04538 13.7437 2.88128C13.5796 2.71719 13.3571 2.625 13.125 2.625H11.3417C11.3649 2.4821 11.376 2.33751 11.375 2.19275V2.1875ZM10.4405 2.625H7.875V2.1875C7.875 2.01514 7.90895 1.84447 7.97491 1.68523C8.04087 1.52599 8.13755 1.3813 8.25942 1.25942C8.3813 1.13755 8.52599 1.04087 8.68523 0.974908C8.84447 0.908949 9.01514 0.875 9.1875 0.875C9.35986 0.875 9.53053 0.908949 9.68977 0.974908C9.84901 1.04087 9.9937 1.13755 10.1156 1.25942C10.2375 1.3813 10.3341 1.52599 10.4001 1.68523C10.4661 1.84447 10.5 2.01514 10.5 2.1875C10.5 2.26187 10.4983 2.42725 10.4606 2.56375C10.4554 2.58462 10.4486 2.60508 10.4405 2.625ZM6.125 2.625H3.5595C3.55145 2.60505 3.54473 2.58459 3.53938 2.56375C3.50175 2.42725 3.5 2.26187 3.5 2.1875C3.5 1.8394 3.63828 1.50556 3.88442 1.25942C4.13056 1.01328 4.4644 0.875 4.8125 0.875C5.1606 0.875 5.49444 1.01328 5.74058 1.25942C5.98672 1.50556 6.125 1.8394 6.125 2.1875V2.625Z" fill="white"/>
<path d="M0.875 6.125V12.6875C0.875 13.0356 1.01328 13.3694 1.25942 13.6156C1.50556 13.8617 1.8394 14 2.1875 14H6.125V6.125H0.875ZM11.8125 14C12.1606 14 12.4944 13.8617 12.7406 13.6156C12.9867 13.3694 13.125 13.0356 13.125 12.6875V6.125H7.875V14H11.8125Z" fill="white"/>
</g>
<defs>
<clipPath id="clip0_68_2259">
<rect width="14" height="14" fill="white" transform="matrix(-1 0 0 1 14 0)"/>
</clipPath>
</defs>
</svg>
