<svg width="10" height="15" viewBox="0 0 10 15" fill="none" xmlns="http://www.w3.org/2000/svg">
<path fill-rule="evenodd" clip-rule="evenodd" d="M8.03193 0.530078C8.11757 0.579725 8.18384 0.656945 8.21992 0.749124C8.256 0.841303 8.25975 0.942992 8.23056 1.03758L6.65468 6.15808H9.56231C9.64776 6.15804 9.73135 6.18303 9.80275 6.22996C9.87416 6.27689 9.93027 6.3437 9.96414 6.42215C9.99801 6.50059 10.0082 6.58724 9.99336 6.6714C9.97855 6.75555 9.93943 6.83353 9.88081 6.8957L2.88081 14.3332C2.81308 14.4052 2.72295 14.4522 2.62511 14.4664C2.52727 14.4807 2.4275 14.4613 2.34204 14.4116C2.25659 14.3619 2.1905 14.2847 2.15455 14.1926C2.1186 14.1005 2.1149 13.9989 2.14406 13.9045L3.71993 8.78308H0.812308C0.72686 8.78311 0.643272 8.75812 0.571864 8.7112C0.500455 8.66427 0.444351 8.59746 0.410478 8.51901C0.376605 8.44056 0.366446 8.35391 0.381254 8.26976C0.396063 8.1856 0.435191 8.10763 0.493808 8.04545L7.49381 0.607953C7.56146 0.536028 7.65145 0.489101 7.74915 0.474803C7.84685 0.460506 7.94651 0.479678 8.03193 0.529203V0.530078Z" fill="black"/>
</svg>
