<svg width="10" height="14" viewBox="0 0 10 14" fill="none" xmlns="http://www.w3.org/2000/svg">
<path fill-rule="evenodd" clip-rule="evenodd" d="M7.6573 0.0594898C7.74294 0.109136 7.80921 0.186356 7.84529 0.278535C7.88136 0.370714 7.88511 0.472403 7.85592 0.56699L6.28005 5.68749H9.18768C9.27312 5.68746 9.35671 5.71244 9.42812 5.75937C9.49953 5.8063 9.55563 5.87311 9.58951 5.95156C9.62338 6.03 9.63354 6.11666 9.61873 6.20081C9.60392 6.28497 9.56479 6.36294 9.50618 6.42511L2.50617 13.8626C2.43844 13.9346 2.34831 13.9816 2.25048 13.9958C2.15264 14.0101 2.05286 13.9908 1.96741 13.941C1.88196 13.8913 1.81587 13.8141 1.77992 13.722C1.74396 13.6299 1.74026 13.5283 1.76942 13.4339L3.3453 8.31249H0.437675C0.352226 8.31252 0.268639 8.28753 0.19723 8.24061C0.125821 8.19368 0.069717 8.12687 0.035844 8.04842C0.00197101 7.96997 -0.0081882 7.88332 0.00662039 7.79917C0.021429 7.71501 0.060557 7.63704 0.119174 7.57486L7.11917 0.137365C7.18682 0.065439 7.27681 0.0185123 7.37451 0.00421478C7.47221 -0.0100828 7.57188 0.00996469 7.6573 0.0594898Z" fill="white"/>
</svg>
