<svg width="163" height="30" viewBox="0 0 163 30" fill="none" xmlns="http://www.w3.org/2000/svg">
<g clip-path="url(#clip0_68_2317)">
<circle cx="16.9146" cy="16.0983" r="12.9605" fill="black"/>
<path d="M27.0597 16.0983C28.6144 16.0983 29.9053 17.3732 29.5702 18.8914C29.1256 20.906 28.2032 22.7992 26.8638 24.4038C25.5244 26.0084 23.8264 27.2542 21.9236 28.0516C20.4897 28.6525 19.0047 27.6102 18.727 26.0805L17.5168 19.4164C17.2031 17.6885 18.5305 16.0983 20.2866 16.0983H27.0597Z" fill="#F77718"/>
<ellipse cx="9.33189" cy="19.1067" rx="8.56709" ry="3.73438" transform="rotate(26.6667 9.33189 19.1067)" fill="#F77718"/>
<ellipse cx="9.25137" cy="18.6784" rx="7.2255" ry="3.00171" transform="rotate(26.6667 9.25137 18.6784)" fill="#C65806"/>
<ellipse cx="9.41051" cy="18.9236" rx="6.97297" ry="2.85419" transform="rotate(26.6667 9.41051 18.9236)" fill="#F7B47D"/>
<path d="M24.6028 12.5836C24.6028 13.3115 24.1111 14.341 23.5045 14.341C22.8979 14.341 22.8455 13.7509 22.8455 13.023C22.8455 12.295 22.8979 11.7049 23.5045 11.7049C24.1111 11.7049 24.3831 11.9246 24.6028 12.5836Z" fill="#FEB884"/>
<path d="M11.862 11.9246C11.862 12.6525 12.3538 13.682 12.9604 13.682C13.567 13.682 13.6194 13.0919 13.6194 12.364C13.6194 11.636 13.567 11.0459 12.9604 11.0459C12.3538 11.0459 12.0817 11.2656 11.862 11.9246Z" fill="#FEB884"/>
<path d="M0.999549 19.0145C0.648078 18.1358 1.14599 17.1839 1.43889 16.8178C1.56131 16.642 2.22212 16.891 2.53723 17.0374L3.85524 17.9161C4.22136 18.209 4.95359 18.8387 4.95359 19.0145C4.95359 19.1902 4.3678 19.9664 4.07491 20.3325L1.87822 20.7718C1.73178 20.5521 1.35102 19.8931 0.999549 19.0145Z" fill="#FEB884"/>
<path d="M18.0129 24.2865C18.3644 23.4079 17.8665 22.456 17.5736 22.0898C17.4511 21.9141 16.7903 22.1631 16.4752 22.3095L15.1572 23.1882C14.7911 23.4811 14.0589 24.1108 14.0589 24.2865C14.0589 24.4623 14.6446 25.2384 14.9375 25.6046L17.1342 26.0439C17.2807 25.8242 17.6614 25.1652 18.0129 24.2865Z" fill="#FEB884"/>
<circle cx="18.2326" cy="12.5836" r="5.05239" fill="#FEB884"/>
<path d="M14.6951 19.0038L14.6166 18.9589C14.1021 18.665 13.642 18.2847 13.2564 17.8348L13.0479 17.5916C12.7008 17.1866 12.4453 16.7115 12.2988 16.1987C12.1557 15.6981 12.1198 15.1729 12.1935 14.6575L12.3015 13.9016C12.4573 13.3561 13.2023 13.2869 13.456 13.7943L13.7744 14.4311C13.9448 14.772 14.3117 14.9684 14.6899 14.9211L16.8394 14.6524C17.3246 14.5917 17.8169 14.6215 18.2913 14.7401L20.1753 15.2111C20.737 15.3515 21.3304 15.1702 21.7177 14.7398L22.6175 13.7401C22.8445 13.4879 23.2483 13.5172 23.4365 13.7995C23.4813 13.8667 23.5098 13.9432 23.5197 14.0233C23.5962 14.641 23.7243 15.7143 23.7243 15.8787C23.7243 15.9866 23.5032 16.5421 23.2649 17.1073C22.9946 17.7481 22.5784 18.3158 22.0614 18.7811C21.1521 19.5995 19.9719 20.0524 18.7485 20.0524H18.6531C18.2279 20.0524 17.8042 20.0002 17.3917 19.8971L16.1385 19.5838C15.6331 19.4574 15.1474 19.2623 14.6951 19.0038Z" fill="#F6F6F6"/>
<path d="M15.2571 14.341C15.6965 13.4623 16.1358 13.9016 18.1128 13.9016C17.6003 14.6339 16.1358 16.1422 14.3784 16.318C12.6211 16.4937 12.741 14.1213 12.9607 13.0229C13.6197 13.682 14.9057 15.0439 15.2571 14.341Z" fill="white"/>
<path d="M19.99 14.341C19.5506 13.4623 19.1113 13.9017 17.1343 13.9017C17.6468 14.6339 19.1113 16.1423 20.8687 16.318C22.626 16.4938 22.626 14.341 22.4063 13.2427C21.7473 13.9017 20.3414 15.0439 19.99 14.341Z" fill="white"/>
<ellipse cx="17.3538" cy="13.2426" rx="1.53768" ry="1.31801" fill="#F77718"/>
<path fill-rule="evenodd" clip-rule="evenodd" d="M13.7616 11.3299C13.8474 11.287 13.9517 11.3218 13.9946 11.4076C14.1404 11.6992 14.2995 11.9254 14.5334 11.9949C14.8085 12.0766 15.2201 12.0798 15.7269 11.7757C15.8092 11.7263 15.9159 11.753 15.9652 11.8352C16.0146 11.9175 15.9879 12.0242 15.9056 12.0735C15.3188 12.4257 14.8068 12.4384 14.4345 12.3279C14.0446 12.2121 13.8291 11.8533 13.6839 11.5629C13.641 11.4771 13.6758 11.3728 13.7616 11.3299Z" fill="black"/>
<path fill-rule="evenodd" clip-rule="evenodd" d="M19.2533 11.7693C19.3391 11.7264 19.4434 11.7612 19.4863 11.847C19.6321 12.1386 19.7912 12.3648 20.0251 12.4342C20.3002 12.5159 20.7118 12.5191 21.2186 12.215C21.3009 12.1657 21.4076 12.1924 21.4569 12.2746C21.5063 12.3569 21.4796 12.4636 21.3973 12.5129C20.8105 12.865 20.2985 12.8778 19.9262 12.7672C19.5363 12.6515 19.3208 12.2927 19.1756 12.0023C19.1327 11.9165 19.1675 11.8122 19.2533 11.7693Z" fill="black"/>
<path fill-rule="evenodd" clip-rule="evenodd" d="M19.5536 10.8731C19.5398 10.8922 19.5374 10.9098 19.5392 10.9236C19.551 11.0188 19.4835 11.1056 19.3883 11.1174C19.2931 11.1293 19.2063 11.0618 19.1944 10.9666C19.1826 10.8714 19.2034 10.7643 19.2723 10.6693C19.3409 10.5746 19.4479 10.5043 19.5878 10.4626C19.8605 10.3815 20.2884 10.3998 20.9408 10.5881C22.212 10.9549 23.0901 10.9702 23.3505 10.9377C23.4457 10.9259 23.5325 10.9934 23.5443 11.0886C23.5562 11.1838 23.4886 11.2706 23.3935 11.2825C23.0725 11.3224 22.1452 11.2971 20.8445 10.9218C20.211 10.739 19.8624 10.7434 19.6869 10.7956C19.6026 10.8207 19.5676 10.8538 19.5536 10.8731Z" fill="white"/>
<path fill-rule="evenodd" clip-rule="evenodd" d="M16.924 10.5341C16.934 10.5554 16.9329 10.5732 16.9286 10.5864C16.8989 10.6776 16.9488 10.7756 17.04 10.8053C17.1312 10.835 17.2292 10.7852 17.2589 10.6939C17.2886 10.6027 17.2884 10.4937 17.2389 10.3874C17.1895 10.2813 17.0977 10.192 16.9683 10.1246C16.7159 9.9932 16.2923 9.92999 15.616 9.9911C14.2984 10.1101 13.4332 9.95865 13.1838 9.87742C13.0925 9.84772 12.9945 9.89759 12.9648 9.9888C12.9351 10.08 12.985 10.178 13.0762 10.2077C13.3837 10.3079 14.2991 10.4589 15.6473 10.3371C16.3039 10.2777 16.6454 10.3481 16.8079 10.4327C16.8858 10.4733 16.9139 10.5125 16.924 10.5341Z" fill="white"/>
<ellipse cx="7.24904" cy="16.318" rx="1.09835" ry="0.439338" transform="rotate(19.0681 7.24904 16.318)" fill="#F7672D"/>
<ellipse cx="5.13576" cy="16.2134" rx="1.09835" ry="0.439338" transform="rotate(19.0681 5.13576 16.2134)" fill="#F7672D"/>
<ellipse cx="6.01443" cy="18.4101" rx="1.09835" ry="0.439338" transform="rotate(19.0681 6.01443 18.4101)" fill="#F7672D"/>
<ellipse cx="8.21096" cy="17.9707" rx="1.09835" ry="0.439338" transform="rotate(19.0681 8.21096 17.9707)" fill="#F7672D"/>
<ellipse cx="10.408" cy="17.092" rx="1.09835" ry="0.439338" transform="rotate(19.0681 10.408 17.092)" fill="#F7672D"/>
<ellipse cx="8.65041" cy="20.1674" rx="1.09835" ry="0.439338" transform="rotate(19.0681 8.65041 20.1674)" fill="#F7672D"/>
<ellipse cx="10.408" cy="19.2887" rx="1.09835" ry="0.439338" transform="rotate(19.0681 10.408 19.2887)" fill="#F7672D"/>
<ellipse cx="12.6045" cy="18.8494" rx="1.09835" ry="0.439338" transform="rotate(19.0681 12.6045 18.8494)" fill="#F7672D"/>
<ellipse cx="11.7256" cy="21.4855" rx="1.09835" ry="0.439338" transform="rotate(19.0681 11.7256 21.4855)" fill="#F7672D"/>
<ellipse cx="13.9226" cy="20.6067" rx="1.09835" ry="0.439338" transform="rotate(19.0681 13.9226 20.6067)" fill="#F7672D"/>
<circle cx="17.5734" cy="15" r="0.439338" fill="black"/>
<path fill-rule="evenodd" clip-rule="evenodd" d="M14.9715 6.38201C14.0239 5.43279 12.4605 3.65873 12.7844 2.55638C13.2273 1.04885 16.9922 0.596591 19.6498 1.1996C22.3074 1.80262 24.3006 2.55638 25.6294 4.51618C26.6924 6.08401 24.5959 7.17949 23.4147 7.53124L23.2429 7.51227L22.7393 10.659L14.4981 9.34026L14.9715 6.38201Z" fill="#F6F6F6"/>
<path d="M50.3535 19.1627C49.69 19.89 48.8989 20.4067 47.9803 20.7129C47.0744 21.0191 46.1429 21.1722 45.186 21.1722C44.2035 21.1722 43.3168 20.9872 42.5257 20.6172C41.7474 20.2344 41.0776 19.7241 40.5161 19.0861C39.9675 18.4354 39.5401 17.6826 39.2339 16.8278C38.9404 15.9601 38.7937 15.0351 38.7937 14.0526C38.7937 13.0574 38.9468 12.126 39.253 11.2584C39.5592 10.3907 39.993 9.63796 40.5544 9C41.1286 8.34928 41.8176 7.83892 42.6214 7.4689C43.438 7.09888 44.3503 6.91388 45.3583 6.91388C46.4428 6.91388 47.4125 7.11164 48.2673 7.50718C49.1222 7.88995 49.8559 8.41946 50.4683 9.09569C50.6597 9.32536 50.7554 9.55502 50.7554 9.78469C50.7554 10.0654 50.6342 10.3142 50.3917 10.5311C50.1621 10.7352 49.9005 10.8373 49.6071 10.8373C49.4667 10.8373 49.3264 10.8118 49.186 10.7608C49.0457 10.7097 48.9181 10.614 48.8032 10.4737C48.3822 10.0144 47.8909 9.6571 47.3295 9.40191C46.7681 9.13397 46.111 9 45.3583 9C44.7331 9 44.1525 9.11483 43.6166 9.3445C43.0807 9.57416 42.615 9.9059 42.2195 10.3397C41.8367 10.7735 41.5305 11.303 41.3008 11.9282C41.0839 12.5534 40.9755 13.2616 40.9755 14.0526C40.9755 14.8437 41.0839 15.5518 41.3008 16.177C41.5305 16.8022 41.8367 17.3317 42.2195 17.7656C42.6023 18.1866 43.0488 18.512 43.5592 18.7416C44.0696 18.9713 44.6118 19.0861 45.186 19.0861C45.9388 19.0861 46.6087 18.9777 47.1956 18.7608C47.7953 18.5439 48.2929 18.2185 48.6884 17.7847C48.9181 17.5423 49.186 17.4211 49.4922 17.4211C49.7857 17.4211 50.0472 17.5295 50.2769 17.7464C50.5066 17.9506 50.6214 18.1994 50.6214 18.4928C50.6214 18.5949 50.6023 18.7097 50.564 18.8373C50.5257 18.9522 50.4555 19.0606 50.3535 19.1627ZM56.4038 12.0431C57.1566 12.0431 57.8583 12.126 58.5091 12.2919C59.1598 12.4577 59.7212 12.7193 60.1933 13.0766C60.6781 13.4338 61.0545 13.8931 61.3225 14.4545C61.5904 15.0159 61.7244 15.6858 61.7244 16.4641C61.7244 17.1404 61.6032 17.7592 61.3607 18.3206C61.1183 18.8692 60.7611 19.3413 60.289 19.7368C59.8296 20.1324 59.2619 20.445 58.5856 20.6746C57.9221 20.8915 57.163 21 56.3081 21H53.9349C53.6414 21 53.3863 20.8979 53.1694 20.6938C52.9524 20.4896 52.844 20.2472 52.844 19.9665V7.94737C52.844 7.60287 52.9524 7.34769 53.1694 7.18182C53.399 7.00319 53.6478 6.91388 53.9158 6.91388C54.1965 6.91388 54.4453 7.00319 54.6622 7.18182C54.8918 7.34769 55.0067 7.60287 55.0067 7.94737V12.0431H56.4038ZM64.9205 20.1196C64.9205 20.4769 64.8057 20.7448 64.576 20.9234C64.3591 21.0893 64.1103 21.1722 63.8296 21.1722C63.5617 21.1722 63.3129 21.0893 63.0832 20.9234C62.8663 20.7448 62.7579 20.4769 62.7579 20.1196V7.94737C62.7579 7.60287 62.8663 7.34769 63.0832 7.18182C63.3129 7.00319 63.5617 6.91388 63.8296 6.91388C64.1103 6.91388 64.3591 7.00319 64.576 7.18182C64.8057 7.34769 64.9205 7.60287 64.9205 7.94737V20.1196ZM56.3081 18.9139C56.9205 18.9139 57.4309 18.8501 57.8392 18.7225C58.2603 18.5949 58.5984 18.4226 58.8536 18.2057C59.1087 17.9761 59.2874 17.7145 59.3894 17.4211C59.5043 17.1148 59.5617 16.7959 59.5617 16.4641C59.5617 15.6986 59.3257 15.118 58.8536 14.7225C58.3815 14.3142 57.5649 14.11 56.4038 14.11H55.0067V18.9139H56.3081ZM67.9999 8.11962C67.9999 7.83892 68.1083 7.59649 68.3252 7.39234C68.5421 7.1882 68.7973 7.08612 69.0908 7.08612H71.3109C73.1609 7.08612 74.5453 7.48166 75.464 8.27273C76.3826 9.05104 76.842 10.11 76.842 11.4498C76.842 12.9809 76.3571 14.1483 75.3874 14.9522C74.4305 15.7432 73.0525 16.1388 71.2534 16.1388H70.1817V20.1196C70.1817 20.4769 70.0668 20.7448 69.8372 20.9234C69.6075 21.0893 69.3587 21.1722 69.0908 21.1722C68.8101 21.1722 68.5549 21.0893 68.3252 20.9234C68.1083 20.7448 67.9999 20.4769 67.9999 20.1196V8.11962ZM71.2534 14.0718C71.9169 14.0718 72.4656 14.0144 72.8994 13.8995C73.3332 13.7847 73.6777 13.6188 73.9329 13.4019C74.2008 13.1722 74.3858 12.8979 74.4879 12.5789C74.6027 12.2472 74.6601 11.8708 74.6601 11.4498C74.6601 11.1308 74.6155 10.8373 74.5262 10.5694C74.4496 10.2887 74.2901 10.0463 74.0477 9.84211C73.8053 9.6252 73.4608 9.45933 73.0142 9.3445C72.5804 9.21691 72.0126 9.15311 71.3109 9.15311H70.1817V14.0718H71.2534ZM93.9829 10.933L86.7485 20.7703C86.4423 21.1659 86.1105 21.3636 85.7533 21.3636C85.4853 21.3636 85.2557 21.2552 85.0643 21.0383C84.8729 20.8214 84.7772 20.5215 84.7772 20.1388V7.96651C84.7772 7.62201 84.8856 7.36045 85.1026 7.18182C85.3322 7.00319 85.5874 6.91388 85.8681 6.91388C86.136 6.91388 86.3848 7.00319 86.6145 7.18182C86.8442 7.36045 86.959 7.62201 86.959 7.96651V17.134L94.1935 7.35407C94.3338 7.14992 94.4933 7.00319 94.6719 6.91388C94.8506 6.82456 95.0228 6.7799 95.1887 6.7799C95.4566 6.7799 95.6863 6.88836 95.8777 7.10526C96.0691 7.30941 96.1648 7.59649 96.1648 7.96651V20.1388C96.1648 20.496 96.0499 20.764 95.8203 20.9426C95.5906 21.1085 95.3418 21.1914 95.0738 21.1914C94.7931 21.1914 94.538 21.1085 94.3083 20.9426C94.0914 20.764 93.9829 20.496 93.9829 20.1388V10.933ZM112.551 7.08612C112.921 7.08612 113.196 7.19458 113.374 7.41148C113.553 7.62839 113.642 7.87081 113.642 8.13876C113.642 8.39394 113.553 8.62998 113.374 8.84689C113.196 9.0638 112.921 9.17225 112.551 9.17225H109.776V20.1196C109.776 20.4769 109.662 20.7448 109.432 20.9234C109.202 21.0893 108.953 21.1722 108.685 21.1722C108.405 21.1722 108.15 21.0893 107.92 20.9234C107.703 20.7448 107.595 20.4769 107.595 20.1196V9.17225H104.839C104.469 9.17225 104.188 9.0638 103.996 8.84689C103.818 8.62998 103.728 8.39394 103.728 8.13876C103.728 7.87081 103.818 7.62839 103.996 7.41148C104.188 7.19458 104.469 7.08612 104.839 7.08612H112.551ZM116.571 21.0191C116.277 21.0191 116.022 20.9107 115.805 20.6938C115.588 20.4769 115.48 20.2281 115.48 19.9474V8.11962C115.48 7.85167 115.588 7.61563 115.805 7.41148C116.022 7.19458 116.277 7.08612 116.571 7.08612H121.547C121.917 7.08612 122.191 7.19458 122.37 7.41148C122.549 7.62839 122.638 7.86443 122.638 8.11962C122.638 8.38756 122.542 8.62998 122.351 8.84689C122.172 9.0638 121.904 9.17225 121.547 9.17225H117.662V12.3876H121.107C121.477 12.3876 121.751 12.5024 121.93 12.7321C122.108 12.949 122.198 13.185 122.198 13.4402C122.198 13.6954 122.108 13.9314 121.93 14.1483C121.751 14.3525 121.477 14.4545 121.107 14.4545H117.662V18.9139H121.681C122.051 18.9139 122.325 19.0287 122.504 19.2584C122.695 19.4753 122.791 19.7113 122.791 19.9665C122.791 20.2344 122.695 20.4769 122.504 20.6938C122.325 20.9107 122.051 21.0191 121.681 21.0191H116.571ZM136.057 19.1627C135.393 19.89 134.602 20.4067 133.683 20.7129C132.777 21.0191 131.846 21.1722 130.889 21.1722C129.907 21.1722 129.02 20.9872 128.229 20.6172C127.451 20.2344 126.781 19.7241 126.219 19.0861C125.671 18.4354 125.243 17.6826 124.937 16.8278C124.644 15.9601 124.497 15.0351 124.497 14.0526C124.497 13.0574 124.65 12.126 124.956 11.2584C125.262 10.3907 125.696 9.63796 126.258 9C126.832 8.34928 127.521 7.83892 128.325 7.4689C129.141 7.09888 130.053 6.91388 131.061 6.91388C132.146 6.91388 133.116 7.11164 133.97 7.50718C134.825 7.88995 135.559 8.41946 136.171 9.09569C136.363 9.32536 136.459 9.55502 136.459 9.78469C136.459 10.0654 136.337 10.3142 136.095 10.5311C135.865 10.7352 135.604 10.8373 135.31 10.8373C135.17 10.8373 135.029 10.8118 134.889 10.7608C134.749 10.7097 134.621 10.614 134.506 10.4737C134.085 10.0144 133.594 9.6571 133.033 9.40191C132.471 9.13397 131.814 9 131.061 9C130.436 9 129.856 9.11483 129.32 9.3445C128.784 9.57416 128.318 9.9059 127.923 10.3397C127.54 10.7735 127.234 11.303 127.004 11.9282C126.787 12.5534 126.679 13.2616 126.679 14.0526C126.679 14.8437 126.787 15.5518 127.004 16.177C127.234 16.8022 127.54 17.3317 127.923 17.7656C128.305 18.1866 128.752 18.512 129.262 18.7416C129.773 18.9713 130.315 19.0861 130.889 19.0861C131.642 19.0861 132.312 18.9777 132.899 18.7608C133.498 18.5439 133.996 18.2185 134.392 17.7847C134.621 17.5423 134.889 17.4211 135.195 17.4211C135.489 17.4211 135.75 17.5295 135.98 17.7464C136.21 17.9506 136.325 18.1994 136.325 18.4928C136.325 18.5949 136.305 18.7097 136.267 18.8373C136.229 18.9522 136.159 19.0606 136.057 19.1627ZM146.536 7.08612C146.906 7.08612 147.18 7.19458 147.359 7.41148C147.537 7.62839 147.627 7.87081 147.627 8.13876C147.627 8.39394 147.537 8.62998 147.359 8.84689C147.18 9.0638 146.906 9.17225 146.536 9.17225H143.761V20.1196C143.761 20.4769 143.646 20.7448 143.416 20.9234C143.187 21.0893 142.938 21.1722 142.67 21.1722C142.389 21.1722 142.134 21.0893 141.904 20.9234C141.687 20.7448 141.579 20.4769 141.579 20.1196V9.17225H138.823C138.453 9.17225 138.172 9.0638 137.981 8.84689C137.802 8.62998 137.713 8.39394 137.713 8.13876C137.713 7.87081 137.802 7.62839 137.981 7.41148C138.172 7.19458 138.453 7.08612 138.823 7.08612H146.536ZM148.442 14.0526C148.442 13.0574 148.589 12.126 148.882 11.2584C149.189 10.3907 149.622 9.63796 150.184 9C150.758 8.34928 151.447 7.83892 152.251 7.4689C153.055 7.09888 153.967 6.91388 154.988 6.91388C156.008 6.91388 156.921 7.09888 157.724 7.4689C158.541 7.83892 159.23 8.34928 159.791 9C160.366 9.63796 160.806 10.3907 161.112 11.2584C161.418 12.126 161.571 13.0574 161.571 14.0526C161.571 15.0351 161.418 15.9601 161.112 16.8278C160.806 17.6954 160.366 18.4545 159.791 19.1053C159.23 19.7432 158.541 20.2472 157.724 20.6172C156.908 20.9872 155.996 21.1722 154.988 21.1722C153.967 21.1722 153.055 20.9872 152.251 20.6172C151.447 20.2472 150.758 19.7432 150.184 19.1053C149.622 18.4545 149.189 17.6954 148.882 16.8278C148.589 15.9601 148.442 15.0351 148.442 14.0526ZM150.624 14.0526C150.624 14.8437 150.732 15.5518 150.949 16.177C151.166 16.7895 151.466 17.3126 151.849 17.7464C152.244 18.1802 152.71 18.512 153.246 18.7416C153.782 18.9713 154.362 19.0861 154.988 19.0861C155.626 19.0861 156.212 18.9713 156.748 18.7416C157.284 18.512 157.75 18.1802 158.145 17.7464C158.541 17.3126 158.847 16.7895 159.064 16.177C159.281 15.5518 159.389 14.8437 159.389 14.0526C159.389 13.2616 159.275 12.5534 159.045 11.9282C158.828 11.303 158.522 10.7735 158.126 10.3397C157.744 9.9059 157.278 9.57416 156.729 9.3445C156.193 9.11483 155.613 9 154.988 9C154.362 9 153.782 9.11483 153.246 9.3445C152.71 9.57416 152.244 9.9059 151.849 10.3397C151.466 10.7735 151.166 11.303 150.949 11.9282C150.732 12.5534 150.624 13.2616 150.624 14.0526Z" fill="white"/>
</g>
<defs>
<clipPath id="clip0_68_2317">
<rect width="162.875" height="28.1177" fill="white" transform="translate(0 0.94117)"/>
</clipPath>
</defs>
</svg>
