<svg width="12" height="18" viewBox="0 0 12 18" fill="none" xmlns="http://www.w3.org/2000/svg">
<path d="M5.99875 0C3.79483 0 1.97809 1.78696 1.97809 4.02067C1.97809 6.22459 3.76505 8.04133 5.99875 8.04133C8.23246 8.04133 10.0194 6.25437 10.0194 4.02067C10.0194 1.78696 8.20267 0 5.99875 0ZM5.99875 5.36089C5.25419 5.36089 4.65853 4.76523 4.65853 4.02067C4.65853 3.2761 5.25419 2.68044 5.99875 2.68044C6.74332 2.68044 7.33898 3.2761 7.33898 4.02067C7.33898 4.76523 6.74332 5.36089 5.99875 5.36089Z" fill="#858585"/>
<path d="M10.9427 10.7515C9.93012 11.3174 8.82816 11.7045 7.7262 11.8832L10.8534 15.7252C11.2108 16.172 11.3001 16.7974 10.9725 17.2739C10.4662 18.0483 9.39403 18.078 8.85794 17.393L5.96902 13.8489L3.10988 17.393C2.84184 17.7207 2.48444 17.8696 2.09727 17.8696C1.71009 17.8696 1.32292 17.6909 1.05487 17.3335C0.727264 16.8867 0.757047 16.1422 1.11444 15.6954L4.21184 11.8237C3.10988 11.6152 2.00792 11.2578 1.02509 10.6919C0.399654 10.3345 0.191175 9.56019 0.548567 8.90497C0.90596 8.27954 1.71009 8.07106 2.33553 8.42845C4.59902 9.70911 7.42837 9.70911 9.72164 8.45823C10.3471 8.10084 11.1512 8.3391 11.4788 8.96454C11.8064 9.61976 11.5682 10.3941 10.9427 10.7515Z" fill="#858585"/>
</svg>
