<svg width="18" height="18" viewBox="0 0 18 18" fill="none" xmlns="http://www.w3.org/2000/svg">
<path fill-rule="evenodd" clip-rule="evenodd" d="M8.40012 2.64118C5.11403 2.64118 2.45012 5.30508 2.45012 8.59118C2.45012 11.8773 5.11403 14.5412 8.40012 14.5412C10.0032 14.5412 11.4582 13.9072 12.5281 12.8764C12.5504 12.8473 12.5749 12.8193 12.6016 12.7926C12.6282 12.766 12.6562 12.7415 12.6853 12.7191C13.7162 11.6492 14.3501 10.1942 14.3501 8.59118C14.3501 5.30508 11.6862 2.64118 8.40012 2.64118ZM14.3772 13.3662C15.4241 12.0575 16.0501 10.3974 16.0501 8.59118C16.0501 4.3662 12.6251 0.941177 8.40012 0.941177C4.17514 0.941177 0.750122 4.3662 0.750122 8.59118C0.750122 12.8162 4.17514 16.2412 8.40012 16.2412C10.2064 16.2412 11.8664 15.6152 13.1752 14.5683L16.2991 17.6922C16.631 18.0242 17.1692 18.0242 17.5012 17.6922C17.8331 17.3603 17.8331 16.8221 17.5012 16.4901L14.3772 13.3662Z" fill="#9F9F9F"/>
</svg>
