<svg width="15" height="14" viewBox="0 0 15 14" fill="none" xmlns="http://www.w3.org/2000/svg">
<path fill-rule="evenodd" clip-rule="evenodd" d="M7.5 0C7.24049 0 7.00348 0.143911 6.88861 0.37123L4.94028 4.22695L0.583226 4.84906C0.326482 4.88572 0.113291 5.06155 0.0332611 5.30266C-0.0467689 5.54377 0.0202351 5.80835 0.206111 5.9852L3.35829 8.98435L2.61437 13.2214C2.5705 13.4713 2.67566 13.7238 2.88565 13.8728C3.09563 14.0218 3.37401 14.0415 3.60373 13.9235L7.5 11.9219V0Z" fill="#FFC300"/>
<path d="M8.11139 0.37123C7.99652 0.143911 7.75951 0 7.5 0V11.9219L11.3963 13.9235C11.626 14.0415 11.9044 14.0218 12.1144 13.8728C12.3243 13.7238 12.4295 13.4713 12.3856 13.2214L11.6417 8.98435L14.7939 5.9852C14.9798 5.80835 15.0468 5.54377 14.9667 5.30266C14.8867 5.06155 14.6735 4.88572 14.4168 4.84906L10.0597 4.22695L8.11139 0.37123Z" fill="#9F9F9F"/>
</svg>
