<svg width="15" height="14" viewBox="0 0 15 14" fill="none" xmlns="http://www.w3.org/2000/svg">
<path fill-rule="evenodd" clip-rule="evenodd" d="M7.5 0C7.75951 0 7.99652 0.143911 8.11139 0.37123L10.0597 4.22695L14.4168 4.84906C14.6735 4.88572 14.8867 5.06155 14.9667 5.30266C15.0468 5.54377 14.9798 5.80835 14.7939 5.9852L11.6417 8.98435L12.3856 13.2214C12.4295 13.4713 12.3243 13.7238 12.1144 13.8728C11.9044 14.0218 11.626 14.0415 11.3963 13.9235L7.5 11.9219L3.60373 13.9235C3.37401 14.0415 3.09563 14.0218 2.88565 13.8728C2.67566 13.7238 2.5705 13.4713 2.61437 13.2214L3.35829 8.98435L0.206111 5.9852C0.0202351 5.80835 -0.0467689 5.54377 0.0332611 5.30266C0.113291 5.06155 0.326482 4.88572 0.583226 4.84906L4.94028 4.22695L6.88861 0.37123C7.00348 0.143911 7.24049 0 7.5 0Z" fill="#9F9F9F"/>
</svg>
