<svg width="18" height="11" viewBox="0 0 18 11" fill="none" xmlns="http://www.w3.org/2000/svg">
<path fill-rule="evenodd" clip-rule="evenodd" d="M17.5763 1.63561C17.7098 1.24394 17.5763 0.959218 16.9856 0.959218H15.0218C14.5264 0.959218 14.2976 1.20852 14.1641 1.47519C14.1641 1.47519 13.1539 3.75297 11.7431 5.2297C11.2856 5.65679 11.076 5.79915 10.8281 5.79915C10.6946 5.79915 10.5229 5.65679 10.5229 5.26547V1.6172C10.5229 1.1547 10.3706 0.941162 9.95101 0.941162H6.86251C6.55726 0.941162 6.36676 1.1547 6.36676 1.36825C6.36676 1.81304 7.07213 1.91998 7.14826 3.16547V5.87172C7.14826 6.45887 7.03576 6.56616 6.78601 6.56616C6.11888 6.56616 4.49851 4.27068 3.5265 1.65505C3.3375 1.137 3.1455 0.941162 2.64975 0.941162H0.667126C0.0952502 0.941162 0 1.19012 0 1.45713C0 1.93769 0.667126 4.35748 3.10725 7.56026C4.72763 9.74776 7.03426 10.9235 9.11214 10.9235C10.3706 10.9235 10.5229 10.6564 10.5229 10.2116V8.55679C10.5229 8.02311 10.6373 7.93422 11.0378 7.93422C11.3235 7.93422 11.8384 8.07623 13.0013 9.12623C14.3355 10.3717 14.5643 10.9412 15.3079 10.9412H17.2714C17.8433 10.9412 18.1103 10.6741 17.9576 10.1582C17.7863 9.6422 17.1379 8.89498 16.299 8.0054C15.8415 7.50748 15.1553 6.95575 14.9456 6.68873C14.6599 6.33283 14.736 6.19047 14.9456 5.87033C14.9265 5.87033 17.3288 2.70297 17.5763 1.63422" fill="#858585"/>
</svg>
