<svg width="16" height="13" viewBox="0 0 16 13" fill="none" xmlns="http://www.w3.org/2000/svg">
<path d="M15.8399 3.52951C15.8399 3.52951 15.6839 2.35264 15.2042 1.83448C14.5956 1.15528 13.9138 1.15127 13.6013 1.11276C11.3621 0.939209 8.00353 0.939209 8.00353 0.939209H7.99603C7.99603 0.939209 4.63749 0.939209 2.3988 1.11276C2.0862 1.15127 1.40499 1.15528 0.795806 1.83448C0.316659 2.35264 0.16011 3.52951 0.16011 3.52951C0.16011 3.52951 6.10352e-05 4.91043 6.10352e-05 6.29136V7.58576C6.10352e-05 8.96768 0.16011 10.3481 0.16011 10.3481C0.16011 10.3481 0.316158 11.5245 0.795806 12.0416C1.40499 12.7208 2.20374 12.7003 2.55985 12.7714C3.83974 12.9024 8.00003 12.9429 8.00003 12.9429C8.00003 12.9429 11.3621 12.9369 13.6013 12.7654C13.9138 12.7253 14.5956 12.7213 15.2042 12.0421C15.6834 11.525 15.8399 10.3486 15.8399 10.3486C15.8399 10.3486 16 8.96768 16 7.58626V6.29186C16 4.91043 15.8399 3.52951 15.8399 3.52951Z" fill="#858585"/>
<path d="M6.00189 3.94019V9.94204L11.0034 6.94111L6.00189 3.94019Z" fill="#3E3E3E"/>
</svg>
