<?xml version="1.0" standalone="no"?>
<!DOCTYPE svg PUBLIC "-//W3C//DTD SVG 1.1//EN" "http://www.w3.org/Graphics/SVG/1.1/DTD/svg11.dtd" >
<svg>
<metadata>
Created by FontForge 20090914 at Wed Oct  2 13:12:54 2024
 By www-data
Copyright (c) 2018 ParaType Inc., ParaType Ltd. All rights reserved.
</metadata>
<defs>
<font id="DodoRounded-Bold" horiz-adv-x="580" >
  <font-face 
    font-family="Dodo Rounded"
    font-weight="700"
    font-stretch="normal"
    units-per-em="1045"
    panose-1="2 15 7 2 2 2 3 2 2 3"
    ascent="836"
    descent="-209"
    x-height="562"
    cap-height="726.001"
    bbox="-200 -293.006 1278 1068"
    underline-thickness="50"
    underline-position="-50"
    unicode-range="U+000D-U+FEFF"
  />
<missing-glyph horiz-adv-x="376" 
d="M34 0v696h274v-696h-274zM68 34h206v628h-206v-628z" />
    <glyph glyph-name="ij" unicode="ij" horiz-adv-x="461" 
d="M179 47c0 -18 -6 -31.5 -18 -40.5s-25 -13.5 -39 -13.5c-14.667 0 -27.834 4.5 -39.501 13.5s-17.5 22.5 -17.5 40.5v468c0 18 5.83301 31.5 17.5 40.5s24.834 13.5 39.501 13.5c14 0 27 -4.5 39 -13.5s18 -22.5 18 -40.5v-468zM180 712c0 -18.667 -6 -32.5 -18 -41.5
s-25 -13.5 -39 -13.5c-14.667 0 -27.834 4.5 -39.501 13.5s-17.5 22.833 -17.5 41.5v14c0 18 5.83301 31.667 17.5 41s24.834 14 39.501 14c14 0 27 -4.66699 39 -14s18 -23 18 -41v-14zM242 -88c6 0 11.667 0.501953 17 1.50195s10.166 3.66699 14.499 8
s7.66602 10.666 9.99902 18.999s3.5 19.833 3.5 34.5v540c0 18 5.83301 31.5 17.5 40.5s24.834 13.5 39.501 13.5c14 0 27 -4.5 39 -13.5s18 -22.5 18 -40.5v-540c0 -54 -14.167 -96.167 -42.5 -126.5s-67.166 -45.5 -116.499 -45.5c-19.333 0 -33.666 5.66699 -42.999 17
s-14 23.666 -14 36.999c0 14 4.66699 26.667 14 38s23.666 17 42.999 17zM400 712.002c0 -18.667 -6 -32.5 -18 -41.5s-25 -13.5 -39 -13.5c-14.667 0 -27.834 4.5 -39.501 13.5s-17.5 22.833 -17.5 41.5v14c0 18 5.83301 31.667 17.5 41s24.834 14 39.501 14
c14 0 27 -4.66699 39 -14s18 -23 18 -41v-14z" />
    <glyph glyph-name="uniFB01" unicode="fi" horiz-adv-x="555" 
d="M495 47c0 -18 -5.99512 -31.498 -17.9951 -40.498s-25 -13.5 -39 -13.5c-14.667 0 -27.834 4.5 -39.501 13.5s-17.5 22.5 -17.5 40.5v411h-169v-412c0 -18.667 -6 -32.5 -18 -41.5s-25 -13.5 -39 -13.5c-14.667 0 -27.834 4.5 -39.501 13.5s-17.5 22.833 -17.5 41.5v412
h-36c-19.333 0 -33.666 5.66699 -42.999 17s-14 23.666 -14 36.999s4.66699 25.666 14 36.999s23.666 17 42.999 17h36v36c0 34 5 62.833 15 86.5s23.167 42.834 39.5 57.501s34.833 25.334 55.5 32.001s41.334 10 62.001 10c22 0 42 -2.66699 60 -8s33.167 -12 45.5 -20
s21.833 -16.833 28.5 -26.5s10 -18.834 10 -27.501c0 -14.667 -6 -27.5 -18 -38.5s-25.667 -16.5 -41 -16.5c-6 0 -12.333 1.16699 -19 3.5s-13 6.16602 -19 11.499c-0.666992 1.33301 -5.33398 3.83301 -14.001 7.5s-19.667 5.5 -33 5.5
c-6.66699 0 -13.334 -0.666992 -20.001 -2s-12.834 -4.5 -18.501 -9.5s-10.334 -12.667 -14.001 -23s-5.5 -24.5 -5.5 -42.5v-36h206c6 2 12.333 3 19 3c14.667 0 28 -4.5 40 -13.5s18 -22.5 18 -40.5v-468z" />
    <glyph glyph-name="uniFB02" unicode="fl" horiz-adv-x="629" 
d="M98 566l0.00195312 5.99902c0 44 7 80 21 108s32 50 54 66s46.5 27 73.5 33s53.5 9 79.5 9c30.667 0 58.667 -2.66699 84 -8c9.33301 5.33301 19.666 8 30.999 8c14 0 27 -4.66699 39 -14s18 -22.666 18 -39.999v-591c0 -13.333 2 -23.833 6 -31.5s11.667 -11.5 23 -11.5
c7.33301 0 14.166 1.16699 20.499 3.5s13.5 3.5 21.5 3.5c15.333 0 27.5 -4.83301 36.5 -14.5s13.5 -23.5 13.5 -41.5c0 -12.667 -3.33301 -22.834 -10 -30.501s-15 -13.667 -25 -18s-20.667 -7.33301 -32 -9s-22 -2.5 -32 -2.5c-46.667 0 -81 13.833 -103 41.5
s-33 64.5 -33 110.5v528c-18 5.33301 -37.333 8 -58 8c-17.333 0 -33 -1.33301 -47 -4s-25.833 -7.66699 -35.5 -15s-17.167 -18.166 -22.5 -32.499s-8 -32.833 -8 -55.5v-6h91c19.333 0 33.666 -5.66699 42.999 -17s14 -23.666 14 -36.999s-4.66699 -25.666 -14 -36.999
s-23.666 -17 -42.999 -17h-91v-412c0 -18.667 -6 -32.5 -18 -41.5s-25.333 -13.5 -40 -13.5c-14 0 -27 4.5 -39 13.5s-18 22.833 -18 41.5v412h-35c-19.333 0 -33.833 5.66699 -43.5 17s-14.5 23.666 -14.5 36.999s4.83301 25.666 14.5 36.999s24.167 17 43.5 17h35z" />
    <glyph glyph-name=".notdef" horiz-adv-x="376" 
d="M34 0v696h274v-696h-274zM68 34h206v628h-206v-628z" />
    <glyph glyph-name="uni0000" horiz-adv-x="0" 
 />
    <glyph glyph-name="uni0000" horiz-adv-x="0" 
 />
    <glyph glyph-name="uni000D" unicode="&#xd;" horiz-adv-x="300" 
 />
    <glyph glyph-name="space" unicode=" " horiz-adv-x="300" 
 />
    <glyph glyph-name="exclam" unicode="!" horiz-adv-x="276" 
d="M194 221c0 -18 -6 -31.5 -18 -40.5s-25 -13.5 -39 -13.5c-14.667 0 -27.834 4.5 -39.501 13.5s-17.5 22.5 -17.5 40.5v461c0 18 5.83301 31.5 17.5 40.5s24.834 13.5 39.501 13.5c14 0 27 -4.5 39 -13.5s18 -22.5 18 -40.5v-461zM60 62
c0 21.333 7.66895 38.833 23.002 52.5s33.666 20.5 54.999 20.5s39.666 -6.83301 54.999 -20.5s23 -31.167 23 -52.5s-7.5 -39.333 -22.5 -54s-33.5 -22 -55.5 -22s-40.5 7.33301 -55.5 22s-22.5 32.667 -22.5 54z" />
    <glyph glyph-name="quotedbl" unicode="&#x22;" horiz-adv-x="438" 
d="M368 442c0 -18.667 -6 -32.5 -18 -41.5s-25 -13.5 -39 -13.5c-14.667 0 -27.834 4.5 -39.501 13.5s-17.5 22.833 -17.5 41.5v240c0 18 5.83301 31.5 17.5 40.5s24.834 13.5 39.501 13.5c14 0 27 -4.5 39 -13.5s18 -22.5 18 -40.5v-240zM184 442
c0 -18.667 -6 -32.5 -18 -41.5s-25 -13.5 -39 -13.5c-14.667 0 -27.834 4.5 -39.501 13.5s-17.5 22.833 -17.5 41.5v240c0 18 5.83301 31.5 17.5 40.5s24.834 13.5 39.501 13.5c14 0 27 -4.5 39 -13.5s18 -22.5 18 -40.5v-240z" />
    <glyph glyph-name="numbersign" unicode="#" horiz-adv-x="636" 
d="M142 331l19.001 73.002h-43c-19.333 0 -33.833 5.83301 -43.5 17.5s-14.5 24.167 -14.5 37.5c0 14 4.83301 26.833 14.5 38.5s24.167 17.5 43.5 17.5h72l46 180c3.33301 14.667 10.166 25.167 20.499 31.5s21.5 9.5 33.5 9.5c14.667 0 28.167 -4.66699 40.5 -14
s18.5 -22 18.5 -38c0 -3.33301 -0.666992 -8.33301 -2 -15l-40 -154h104l46 180c3.33301 14.667 10.166 25.167 20.499 31.5s21.166 9.5 32.499 9.5c14.667 0 28.167 -4.5 40.5 -13.5s18.5 -21.833 18.5 -38.5c0 -3.33301 -0.666992 -8.33301 -2 -15l-40 -155
c16.667 -2 29 -8.5 37 -19.5s12 -22.833 12 -35.5c0 -14 -4.66699 -26.667 -14 -38s-23.666 -17 -42.999 -17h-20l-19 -73h39c19.333 0 33.666 -5.83301 42.999 -17.5s14 -24.5 14 -38.5s-4.66699 -26.833 -14 -38.5s-23.666 -17.5 -42.999 -17.5h-67l-48 -187
c-3.33301 -14.667 -10 -25.167 -20 -31.5s-21 -9.5 -33 -9.5c-14.667 0 -28.167 4.66699 -40.5 14s-18.5 22.333 -18.5 39c0 3.33301 0.666992 8.33301 2 15l41 160h-103l-48 -187c-3.33301 -14.667 -10.166 -25.167 -20.499 -31.5s-21.5 -9.5 -33.5 -9.5
c-14.667 0 -28.167 4.66699 -40.5 14s-18.5 22.333 -18.5 39c0 3.33301 0.666992 8.33301 2 15l41 160c-18 1.33301 -31.5 7.66602 -40.5 18.999s-13.5 23.666 -13.5 36.999c0 14 4.83301 26.833 14.5 38.5s24.167 17.5 43.5 17.5h24zM260.001 331.002h103l19 73h-103z" />
    <glyph glyph-name="dollar" unicode="$" 
d="M335 731c40 -6 74.3379 -19.168 103.005 -39.501s51 -44.833 67 -73.5c4.66699 -8.66699 7 -17.667 7 -27c0 -15.333 -6.16699 -28.166 -18.5 -38.499s-26.166 -15.5 -41.499 -15.5c-12 0 -21.667 3.5 -29 10.5s-14.833 15.167 -22.5 24.5s-16.334 18.666 -26.001 27.999
s-22.834 16 -39.501 20v-206c26.667 -11.333 51.667 -23.166 75 -35.499s43.666 -27.166 60.999 -44.499s31.166 -37.5 41.499 -60.5s15.5 -50.5 15.5 -82.5c0 -27.333 -4.83301 -52.333 -14.5 -75s-23 -42.667 -40 -60s-37.333 -31.5 -61 -42.5s-49.5 -18.167 -77.5 -21.5
v-14c0 -14 -4.66699 -24.5 -14 -31.5s-19.666 -10.5 -30.999 -10.5s-21.5 3.5 -30.5 10.5s-13.5 17.5 -13.5 31.5v15c-22.667 3.33301 -45.834 10.166 -69.501 20.499s-45.334 22.166 -65.001 35.499s-35.667 27.5 -48 42.5s-18.5 28.833 -18.5 41.5
c0 14.667 6 27.5 18 38.5s25.667 16.5 41 16.5s29.333 -6.33301 42 -19c14 -15.333 29.167 -28.666 45.5 -39.999s34.5 -19.666 54.5 -24.999v227l-43 18c-22 10 -42 21 -60 33s-33.5 25.5 -46.5 40.5s-23 32.167 -30 51.5s-10.5 41.666 -10.5 66.999
c0 24 4.83301 46.667 14.5 68s23 40.333 40 57s37 30.5 60 41.5s48.167 18.5 75.5 22.5v15c0 14 4.5 24.5 13.5 31.5s19.167 10.5 30.5 10.5s21.666 -3.5 30.999 -10.5s14 -17.5 14 -31.5v-14zM414.005 190.999c0 28 -7 49.668 -21 65.001s-33.333 28.666 -58 39.999v-194
c26.667 6 46.5 17.333 59.5 34s19.5 35 19.5 55zM170.005 541c0 -26 7.33301 -45.3311 22 -57.998s32.667 -24 54 -34v171c-25.333 -6.66699 -44.333 -17.834 -57 -33.501s-19 -30.834 -19 -45.501z" />
    <glyph glyph-name="percent" unicode="%" horiz-adv-x="941" 
d="M229 18c-6.66699 -7.33301 -13.499 -12.3301 -20.499 -14.9971s-14.167 -4 -21.5 -4c-15.333 0 -29.166 5.5 -41.499 16.5s-18.5 24.167 -18.5 39.5c0 5.33301 1.16699 11.166 3.5 17.499s6.16602 12.166 11.499 17.499l572 618c12 12.667 25.667 19 41 19
s29.166 -5.5 41.499 -16.5s18.5 -24.167 18.5 -39.5c0 -12.667 -5 -24.334 -15 -35.001zM488.001 179.003c0 28 5 53.5 15 76.5s23.667 42.667 41 59s38.166 29.166 62.499 38.499s50.5 14 78.5 14s54 -4.66699 78 -14s44.667 -22.166 62 -38.499s31 -36 41 -59
s15 -48.5 15 -76.5s-5 -53.667 -15 -77s-23.667 -43.166 -41 -59.499s-38 -29 -62 -38s-50 -13.5 -78 -13.5s-54.167 4.5 -78.5 13.5s-45.166 21.667 -62.499 38s-31 36.166 -41 59.499s-15 49 -15 77zM602.001 179.003c0 -24 6.83301 -42.833 20.5 -56.5
s34.5 -20.5 62.5 -20.5c26.667 0 47 6.83301 61 20.5s21 32.5 21 56.5c0 23.333 -7 41.833 -21 55.5s-34.333 20.5 -61 20.5c-28 0 -48.833 -6.83301 -62.5 -20.5s-20.5 -32.167 -20.5 -55.5zM60.001 550.003c0 28 5 53.333 15 76s23.667 42.334 41 59.001
s38.166 29.5 62.499 38.5s50.5 13.5 78.5 13.5s54 -4.5 78 -13.5s44.667 -21.833 62 -38.5s31 -36.334 41 -59.001s15 -48 15 -76s-5 -53.667 -15 -77s-23.667 -43.333 -41 -60s-38 -29.5 -62 -38.5s-50 -13.5 -78 -13.5s-54.167 4.5 -78.5 13.5
s-45.166 21.833 -62.499 38.5s-31 36.667 -41 60s-15 49 -15 77zM174.001 550.003c0 -24 7 -42.833 21 -56.5s34.667 -20.5 62 -20.5c26.667 0 47 6.83301 61 20.5s21 32.5 21 56.5c0 23.333 -7 41.833 -21 55.5s-34.333 20.5 -61 20.5c-27.333 0 -48 -6.83301 -62 -20.5
s-21 -32.167 -21 -55.5z" />
    <glyph glyph-name="ampersand" unicode="&#x26;" horiz-adv-x="939" 
d="M636 70c-34 -24.667 -70.6699 -43.9961 -110.003 -57.9961s-81.333 -21 -126 -21c-46.667 0 -88.5 6.16699 -125.5 18.5s-68.5 29.5 -94.5 51.5s-45.833 48.333 -59.5 79s-20.5 64 -20.5 100c0 29.333 4.5 55.666 13.5 78.999s20.667 44 35 62s30.666 33.833 48.999 47.5
s36.833 25.834 55.5 36.501c-10.667 20.667 -18.834 40.667 -24.501 60s-8.5 38.666 -8.5 57.999c0 18.667 3.33301 37.167 10 55.5s16.834 34.666 30.501 48.999s30.834 26 51.501 35s45.334 13.5 74.001 13.5c24 0 45.833 -3.66699 65.5 -11s36.334 -17.5 50.001 -30.5
s24.334 -28.333 32.001 -46s11.5 -36.834 11.5 -57.501s-3.5 -39 -10.5 -55s-16.333 -30.5 -28 -43.5s-25.334 -24.833 -41.001 -35.5s-32.5 -21 -50.5 -31c30 -36 64.167 -72 102.5 -108s76.5 -70 114.5 -102c16.667 19.333 32.334 40.166 47.001 62.499s28 46.5 40 72.5
c5.33301 11.333 12.5 19.666 21.5 24.999s18.5 8 28.5 8c15.333 0 29.166 -5 41.499 -15s18.5 -23 18.5 -39c0 -8.66699 -1.66699 -16.334 -5 -23.001c-14 -30 -29.667 -58.5 -47 -85.5s-36.666 -52.167 -57.999 -75.5c14 -11.333 26.833 -21.166 38.5 -29.499
s22 -16.166 31 -23.499s16 -14.666 21 -21.999s7.5 -15.333 7.5 -24c0 -14.667 -5.66699 -27.834 -17 -39.501s-25 -17.5 -41 -17.5c-12 0 -23.667 4.33301 -35 13zM313.997 373.004c-31.333 -18 -55.833 -36.999 -73.5 -56.999s-26.5 -45.333 -26.5 -76
c0 -18.667 3.33301 -36.5 10 -53.5s17.5 -31.833 32.5 -44.5s34.333 -22.834 58 -30.501s52.167 -11.5 85.5 -11.5c51.333 0 100 14.333 146 43c-42 35.333 -83.333 72.5 -124 111.5s-76.667 78.5 -108 118.5zM430.997 591.005c0 11.333 -3.16895 20.167 -9.50195 26.5
s-18.166 9.5 -35.499 9.5c-20 0 -33.5 -4 -40.5 -12s-10.5 -18.667 -10.5 -32c0 -20 6 -42 18 -66c26.667 14 46.334 26.333 59.001 37s19 23 19 37z" />
    <glyph glyph-name="quotesingle" unicode="'" horiz-adv-x="254" 
d="M184 442c0 -18.667 -6 -32.5 -18 -41.5s-25 -13.5 -39 -13.5c-14.667 0 -27.834 4.5 -39.501 13.5s-17.5 22.833 -17.5 41.5v240c0 18 5.83301 31.5 17.5 40.5s24.834 13.5 39.501 13.5c14 0 27 -4.5 39 -13.5s18 -22.5 18 -40.5v-240z" />
    <glyph glyph-name="parenleft" unicode="(" horiz-adv-x="368" 
d="M319 635c-32 -18.667 -59.1631 -39.999 -81.4961 -63.999s-40.333 -49.5 -54 -76.5s-23.667 -55 -30 -84s-9.5 -57.833 -9.5 -86.5c0 -30.667 3.33301 -61 10 -91s17.167 -58.833 31.5 -86.5s32.666 -53.667 54.999 -78s49.166 -46.166 80.499 -65.499
c9.33301 -6 16.166 -13 20.499 -21s6.5 -16 6.5 -24c0 -14 -5.5 -26.833 -16.5 -38.5s-24.5 -17.5 -40.5 -17.5c-10.667 0 -21.334 3.33301 -32.001 10c-40.667 24.667 -75.5 52.834 -104.5 84.501s-52.667 65.5 -71 101.5s-31.833 73.167 -40.5 111.5s-13 76.5 -13 114.5
c0 35.333 4 71.666 12 108.999s21 73.666 39 108.999s41.667 68.833 71 100.5s65.333 60.167 108 85.5c10.667 6 21 9 31 9c16 0 29.5 -5.83301 40.5 -17.5s16.5 -24.834 16.5 -39.501c0 -18.667 -9.66699 -33.667 -29 -45z" />
    <glyph glyph-name="parenright" unicode=")" horiz-adv-x="368" 
d="M47 3c31.333 19.333 58.1699 41.1641 80.5029 65.4971s40.666 50.333 54.999 78s24.833 56.5 31.5 86.5s10 60.333 10 91c0 28.667 -3.16699 57.5 -9.5 86.5s-16.333 57 -30 84s-31.667 52.5 -54 76.5s-49.5 45.333 -81.5 64c-19.333 11.333 -29 26.333 -29 45
c0 14.667 5.5 27.834 16.5 39.501s24.5 17.5 40.5 17.5c9.33301 0 19.666 -3 30.999 -9c42.667 -25.333 78.667 -54.166 108 -86.499s53 -66.333 71 -102s31 -72.167 39 -109.5s12 -73.666 12 -108.999c0 -38 -4.33301 -76 -13 -114s-22.334 -74.833 -41.001 -110.5
s-42.5 -69.167 -71.5 -100.5s-63.5 -59.333 -103.5 -84c-10.667 -6.66699 -21.667 -10 -33 -10c-15.333 0 -28.5 5.83301 -39.5 17.5s-16.5 24.5 -16.5 38.5c0 18.667 9 33.667 27 45z" />
    <glyph glyph-name="asterisk" unicode="*" horiz-adv-x="536" 
d="M360 482l58.998 -78.001c8 -11.333 12 -22.333 12 -33c0 -15.333 -6.16699 -28.166 -18.5 -38.499s-26.166 -15.5 -41.499 -15.5c-8 0 -15.833 1.83301 -23.5 5.5s-14.5 9.5 -20.5 17.5l-59 78l-60 -77c-6.66699 -8.66699 -13.834 -14.834 -21.501 -18.501
s-15.5 -5.5 -23.5 -5.5c-15.333 0 -29 5.33301 -41 16s-18 23.334 -18 38.001c0 12 4 23 12 33l59 78l-95 30c-14 4.66699 -24.167 11.5 -30.5 20.5s-9.5 18.833 -9.5 29.5c0 14 5 26.833 15 38.5s23.333 17.5 40 17.5c6 0 12.667 -1 20 -3l96 -30v96c0 18 6 31.5 18 40.5
s25 13.5 39 13.5c14.667 0 27.834 -4.5 39.501 -13.5s17.5 -22.5 17.5 -40.5v-96l96 30c6.66699 2 13.334 3 20.001 3c17.333 0 30.833 -6 40.5 -18s14.5 -25 14.5 -39c0 -10.667 -3 -20.5 -9 -29.5s-16 -15.5 -30 -19.5z" />
    <glyph glyph-name="plus" unicode="+" 
d="M233 90v141h-144c-19.333 0 -33.666 5.66699 -42.999 17s-14 23.666 -14 36.999c0 14 4.66699 26.667 14 38s23.666 17 42.999 17h144v141c0 18 5.83301 31.667 17.5 41s24.834 14 39.501 14c14 0 27 -4.66699 39 -14s18 -23 18 -41v-141h144
c19.333 0 33.666 -5.66699 42.999 -17s14 -24 14 -38c0 -13.333 -4.66699 -25.666 -14 -36.999s-23.666 -17 -42.999 -17h-144v-141c0 -18 -6 -31.5 -18 -40.5s-25 -13.5 -39 -13.5c-14.667 0 -27.834 4.5 -39.501 13.5s-17.5 22.5 -17.5 40.5z" />
    <glyph glyph-name="comma" unicode="," horiz-adv-x="308" 
d="M227 95c-1.33301 -20.667 -6.66309 -43.833 -15.9961 -69.5s-20.833 -49.667 -34.5 -72s-28.834 -41.166 -45.501 -56.499s-33.334 -23 -50.001 -23c-15.333 0 -28.833 5.66699 -40.5 17s-17.5 24.333 -17.5 39c0 15.333 6.66699 28.666 20 39.999
c18 15.333 33.667 35 47 59s21 48.333 23 73c1.33301 17.333 7.66602 30 18.999 38s23.666 12 36.999 12c14.667 0 28 -4.5 40 -13.5s18 -22.167 18 -39.5v-4v0z" />
    <glyph glyph-name="hyphen" unicode="-" horiz-adv-x="450" 
d="M117 339h216c19.333 0 33.666 -5.5 42.999 -16.5s14 -23.167 14 -36.5s-4.66699 -25.5 -14 -36.5s-23.666 -16.5 -42.999 -16.5h-216c-19.333 0 -33.666 5.5 -42.999 16.5s-14 23.167 -14 36.5s4.66699 25.5 14 36.5s23.666 16.5 42.999 16.5z" />
    <glyph glyph-name="period" unicode="." horiz-adv-x="276" 
d="M60 62c0 21.333 7.66895 38.833 23.002 52.5s33.666 20.5 54.999 20.5s39.666 -6.83301 54.999 -20.5s23 -31.167 23 -52.5s-7.5 -39.333 -22.5 -54s-33.5 -22 -55.5 -22s-40.5 7.33301 -55.5 22s-22.5 32.667 -22.5 54z" />
    <glyph glyph-name="slash" unicode="/" horiz-adv-x="273" 
d="M281 684l-203.001 -772c-3.33301 -11.333 -8.83301 -19.5 -16.5 -24.5s-16.167 -7.5 -25.5 -7.5c-11.333 0 -21.833 3.5 -31.5 10.5s-14.5 17.167 -14.5 30.5c0 2.66699 0.666992 6.66699 2 12l203 772c3.33301 11.333 8.83301 19.333 16.5 24s15.834 7 24.501 7
c11.333 0 21.833 -3.5 31.5 -10.5s14.5 -16.833 14.5 -29.5c0 -5.33301 -0.333008 -9.33301 -1 -12z" />
    <glyph glyph-name="zero" unicode="0" 
d="M44 363c0 58 5.66699 110.167 17 156.5s27.666 85.5 48.999 117.5s47.166 56.5 77.499 73.5s64.5 25.5 102.5 25.5s72.167 -8.5 102.5 -25.5s56.166 -41.5 77.499 -73.5s37.666 -71.167 48.999 -117.5s17 -98.5 17 -156.5c0 -60 -5.66699 -113 -17 -159
s-27.666 -84.833 -48.999 -116.5s-47.166 -55.667 -77.499 -72s-64.5 -24.5 -102.5 -24.5s-72.167 8.16699 -102.5 24.5s-56.166 40.333 -77.499 72s-37.666 70.5 -48.999 116.5s-17 99 -17 159zM158 363c0 -56 4.66699 -101.333 14 -136s20.666 -61.334 33.999 -80.001
s27.666 -31.167 42.999 -37.5s29 -9.5 41 -9.5s25.667 3.16699 41 9.5s29.666 18.833 42.999 37.5s24.666 45.334 33.999 80.001s14 80 14 136c0 55.333 -4.66699 100.166 -14 134.499s-20.666 61.166 -33.999 80.499s-27.666 32.333 -42.999 39s-29 10 -41 10
s-25.667 -3.33301 -41 -10s-29.666 -19.667 -42.999 -39s-24.666 -46.166 -33.999 -80.499s-14 -79.166 -14 -134.499z" />
    <glyph glyph-name="one" unicode="1" horiz-adv-x="486" 
d="M252 46l0.00195312 536.999l-133 -80c-10.667 -6.66699 -21.334 -10 -32.001 -10c-16 0 -29.5 5.83301 -40.5 17.5s-16.5 24.834 -16.5 39.501c0 8 2.16699 15.833 6.5 23.5s11.5 14.5 21.5 20.5l221 132c14 8 27 12 39 12c14 0 25.5 -5 34.5 -15s13.5 -24 13.5 -42v-635
c0 -18.667 -6 -32.5 -18 -41.5s-25 -13.5 -39 -13.5c-14.667 0 -27.834 4.5 -39.501 13.5s-17.5 22.833 -17.5 41.5z" />
    <glyph glyph-name="two" unicode="2" 
d="M93 0c-20 0 -35.499 4.33496 -46.499 13.002s-16.5 19.667 -16.5 33c0 14 6.33301 28.333 19 43l200 230c27.333 31.333 49 58.166 65 80.499s28.333 42 37 59s14.167 32.167 16.5 45.5s3.5 26.666 3.5 39.999c0 22.667 -8 42.167 -24 58.5s-38.667 24.5 -68 24.5
c-36 0 -63.833 -8.83301 -83.5 -26.5s-33.167 -39.167 -40.5 -64.5c-4 -14 -11.167 -24.333 -21.5 -31s-21.166 -10 -32.499 -10c-14.667 0 -28.167 4.83301 -40.5 14.5s-18.5 22.5 -18.5 38.5v7.5c0 2.33301 0.666992 5.16602 2 8.49902c6 22 15.5 43.333 28.5 64
s29.167 39 48.5 55s42.166 28.667 68.499 38s56.166 14 89.499 14c30 0 57.667 -5 83 -15s47 -23.833 65 -41.5s32.167 -38 42.5 -61s15.5 -47.5 15.5 -73.5c0 -23.333 -2.33301 -45.5 -7 -66.5s-12.667 -43 -24 -66s-26.5 -47.667 -45.5 -74s-42.833 -55.833 -71.5 -88.5
l-122 -140h235c19.333 0 33.666 -5.66699 42.999 -17s14 -24 14 -38c0 -13.333 -4.66699 -25.666 -14 -36.999s-23.666 -17 -42.999 -17h-357z" />
    <glyph glyph-name="three" unicode="3" 
d="M151 176c8.66699 -20 24.5039 -37.666 47.5039 -52.999s52.833 -23 89.5 -23c43.333 0 76.833 11.333 100.5 34s35.5 52.667 35.5 90c0 15.333 -3.16699 30 -9.5 44s-15.833 26.167 -28.5 36.5s-28.834 18.833 -48.501 25.5s-42.5 10.334 -68.5 11.001h-14h-5
c-19.333 0 -33.666 5.66699 -42.999 17s-14 23.666 -14 36.999c0 14 4.66699 26.667 14 38s23.666 17 42.999 17h11c16 0 31 2.5 45 7.5s26.333 11.833 37 20.5s19.167 18.834 25.5 30.501s9.5 24.167 9.5 37.5c0 28 -8 48.5 -24 61.5s-36.667 19.5 -62 19.5
c-26 0 -45.833 -4.66699 -59.5 -14s-25.167 -19.5 -34.5 -30.5l-25.5 -30c-7.66699 -9 -18.5 -13.5 -32.5 -13.5c-15.333 0 -29.166 5 -41.499 15s-18.5 22.667 -18.5 38c0 17.333 6.33301 34.666 19 51.999s29 32.833 49 46.5s42.667 24.667 68 33s50.666 12.5 75.999 12.5
c26 0 51 -4 75 -12s45.167 -20 63.5 -36s33.166 -35.833 44.499 -59.5s17 -51.167 17 -82.5c0 -29.333 -6.33301 -55.833 -19 -79.5s-29 -44.167 -49 -61.5c34.667 -17.333 62.334 -41 83.001 -71s31 -66.667 31 -110c0 -34 -6.16699 -65.333 -18.5 -94
s-29.5 -53.334 -51.5 -74.001s-48.333 -36.667 -79 -48s-64.334 -17 -101.001 -17c-58 0 -108.5 13.333 -151.5 40s-73.833 61.667 -92.5 105c-2.66699 6 -4 13 -4 21c0 16 6.16699 28.833 18.5 38.5s26.166 14.5 41.499 14.5c10 0 19.667 -2.66699 29 -8
s16.666 -14 21.999 -26z" />
    <glyph glyph-name="four" unicode="4" 
d="M343 183l-250.997 -0.00195312c-19.333 0 -34.333 4.33301 -45 13s-16 20 -16 34c0 10.667 4 22.667 12 36l265 431c8.66699 13.333 18.667 23 30 29s24.666 9 39.999 9h13c19.333 0 35.166 -5.83301 47.499 -17.5s18.5 -27.5 18.5 -47.5v-379h38
c19.333 0 33.833 -5.66699 43.5 -17s14.5 -23.666 14.5 -36.999s-4.83301 -25.666 -14.5 -36.999s-24.167 -17 -43.5 -17h-38v-137c0 -18.667 -6 -32.5 -18 -41.5s-25 -13.5 -39 -13.5c-14.667 0 -27.834 4.5 -39.501 13.5s-17.5 22.833 -17.5 41.5v137zM343.003 563.998
l-165 -273h165v273z" />
    <glyph glyph-name="five" unicode="5" 
d="M152 178c7.33301 -20.667 21.6689 -38.8359 43.002 -54.5029s46 -23.5 74 -23.5c46 0 80.667 13.333 104 40s35 61 35 103c0 42.667 -11.333 75.834 -34 99.501s-60.667 35.5 -114 35.5c-13.333 0 -27.666 -1.66699 -42.999 -5s-31.666 -5 -48.999 -5
c-16 0 -28.833 4.66699 -38.5 14s-14.5 22.333 -14.5 39v7l27 249c1.33301 13.333 7.83301 24.833 19.5 34.5s24.167 14.5 37.5 14.5h233c19.333 0 33.666 -5.66699 42.999 -17s14 -23.666 14 -36.999s-4.66699 -25.666 -14 -36.999s-23.666 -17 -42.999 -17h-182l-13 -132
c3.33301 0.666992 7 1 11 1h12c43.333 0 81.333 -6 114 -18s60 -28.833 82 -50.5s38.5 -47.5 49.5 -77.5s16.5 -62.667 16.5 -98c0 -32 -5.16699 -63 -15.5 -93s-26 -56.833 -47 -80.5s-47.333 -42.667 -79 -57s-68.834 -21.5 -111.501 -21.5c-26.667 0 -52 4 -76 12
s-45.833 19 -65.5 33s-36.834 30.167 -51.501 48.5s-25.667 37.833 -33 58.5c-2 6 -3 12 -3 18c0 16 6.16699 29 18.5 39s26.166 15 41.499 15c10.667 0 20.667 -2.83301 30 -8.5s16.666 -15.167 21.999 -28.5z" />
    <glyph glyph-name="six" unicode="6" 
d="M329 474c26 0 51.999 -4.5 77.999 -13.5s49.5 -23.167 70.5 -42.5s38.167 -43.833 51.5 -73.5s20 -64.834 20 -105.501c0 -35.333 -5.66699 -68.166 -17 -98.499s-27.5 -56.5 -48.5 -78.5s-46.167 -39.333 -75.5 -52s-62 -19 -98 -19c-32.667 0 -64.167 5.5 -94.5 16.5
s-57 27.833 -80 50.5s-41.5 51 -55.5 85s-21 73.667 -21 119c0 54 6.33301 105.5 19 154.5s31.167 93.833 55.5 134.5s54.5 76.5 90.5 107.5s77 55.5 123 73.5c8.66699 3.33301 16.667 5 24 5c16 0 29 -5.83301 39 -17.5s15 -24.5 15 -38.5c0 -10 -2.66699 -19.333 -8 -28
s-14.666 -15.667 -27.999 -21c-48.667 -19.333 -88.167 -46.5 -118.5 -81.5s-53.166 -74.5 -68.499 -118.5c37.333 28 79.666 42 126.999 42zM309.999 100c35.333 0 64.999 11.667 88.999 35s36 58 36 104c0 24 -3.33301 44.167 -10 60.5s-15.5 29.333 -26.5 39
s-23.667 16.667 -38 21s-29.166 6.5 -44.499 6.5c-32 0 -61.5 -9.33301 -88.5 -28s-45.167 -46 -54.5 -82c0.666992 -30 5 -55 13 -75s18.5 -36 31.5 -48s27.5 -20.5 43.5 -25.5s32.333 -7.5 49 -7.5z" />
    <glyph glyph-name="seven" unicode="7" 
d="M374 618l-261 0.000976562c-19.333 0 -33.666 5.66699 -42.999 17s-14 23.666 -14 36.999s4.66699 25.666 14 36.999s23.666 17 42.999 17h345c18 0 32.333 -4.5 43 -13.5s16 -20.5 16 -34.5c0 -9.33301 -2 -18.333 -6 -27l-267 -618
c-5.33301 -12 -12.5 -20.667 -21.5 -26s-18.833 -8 -29.5 -8c-14.667 0 -28.167 5 -40.5 15s-18.5 22.667 -18.5 38c0 8.66699 1.66699 16.334 5 23.001z" />
    <glyph glyph-name="eight" unicode="8" 
d="M152 411c-40.667 31.333 -60.999 74.334 -60.999 129.001c0 30 5.16699 57 15.5 81s24.333 44.5 42 61.5s38.5 30.167 62.5 39.5s49.667 14 77 14h4c26.667 0 52 -4.5 76 -13.5s45 -22 63 -39s32.167 -37.667 42.5 -62s15.5 -51.5 15.5 -81.5
c0 -54 -20.333 -96.667 -61 -128c35.333 -20.667 62.333 -46.834 81 -78.501s28 -66.834 28 -105.501c0 -35.333 -6.33301 -67.666 -19 -96.999s-30 -54.333 -52 -75s-47.667 -36.667 -77 -48s-60.333 -17 -93 -17c-34.667 0 -67.334 5.5 -98.001 16.5
s-57.5 26.833 -80.5 47.5s-41.167 45.667 -54.5 75s-20 62 -20 98c0 37.333 9.33301 71.833 28 103.5s45.667 58.167 81 79.5zM158.001 228.001c0 -40 12.6699 -71.333 38.0029 -94s58.666 -34 99.999 -34c17.333 0 33.666 2.83301 48.999 8.5s28.666 14 39.999 25
s20.333 24.5 27 40.5s10 34 10 54c0 17.333 -3.5 33.333 -10.5 48s-16.5 27.334 -28.5 38.001s-26 19 -42 25s-33 9 -51 9s-35 -3 -51 -9s-30 -14.333 -42 -25s-21.5 -23.334 -28.5 -38.001s-10.5 -30.667 -10.5 -48zM205.004 540.001c0 -23.333 8 -42.999 24 -58.999
s36.333 -24 61 -24c24 0 44.167 8.16699 60.5 24.5s24.5 35.833 24.5 58.5c0 30 -8.33301 52 -25 66s-36 21 -58 21h-6c-22 -0.666992 -41 -7.83398 -57 -21.501s-24 -35.5 -24 -65.5z" />
    <glyph glyph-name="nine" unicode="9" 
d="M283 253c-29.333 0 -57.3291 4.50391 -83.9961 13.5039s-50.5 23.167 -71.5 42.5s-37.667 43.666 -50 72.999s-18.5 64.666 -18.5 105.999c0 35.333 5.66699 68.166 17 98.499s27.5 56.5 48.5 78.5s46.167 39.333 75.5 52s62 19 98 19c32.667 0 64.167 -5.5 94.5 -16.5
s57.166 -27.667 80.499 -50s41.833 -50.5 55.5 -84.5s20.5 -73.667 20.5 -119c0 -54 -6.33301 -105.667 -19 -155s-31.167 -94.333 -55.5 -135s-54.5 -76.334 -90.5 -107.001s-77 -55 -123 -73c-6.66699 -3.33301 -14.667 -5 -24 -5c-16 0 -29 5.83301 -39 17.5
s-15 24.5 -15 38.5c0 9.33301 2.66699 18.333 8 27s14.666 15.667 27.999 21c48 18.667 87.167 45.5 117.5 80.5s53.166 74.5 68.499 118.5c-32.667 -27.333 -73.334 -41 -122.001 -41zM298.004 627.004c-35.333 0 -64.999 -11.667 -88.999 -35s-36 -58 -36 -104
c0 -24 3.33301 -44.167 10 -60.5s15.5 -29.333 26.5 -39s23.667 -16.667 38 -21s29.5 -6.5 45.5 -6.5c31.333 0 60.666 9.33301 87.999 28s45.333 46 54 82c0 30 -4 55 -12 75s-18.5 36 -31.5 48s-27.667 20.5 -44 25.5s-32.833 7.5 -49.5 7.5z" />
    <glyph glyph-name="colon" unicode=":" horiz-adv-x="276" 
d="M60 499c0 21.333 7.66895 38.833 23.002 52.5s33.666 20.5 54.999 20.5s39.666 -6.83301 54.999 -20.5s23 -31.167 23 -52.5s-7.5 -39.166 -22.5 -53.499s-33.5 -21.5 -55.5 -21.5s-40.5 7.16699 -55.5 21.5s-22.5 32.166 -22.5 53.499zM60.002 66
c0 21.333 7.66895 38.833 23.002 52.5s33.666 20.5 54.999 20.5s39.666 -6.83301 54.999 -20.5s23 -31.167 23 -52.5s-7.5 -39.166 -22.5 -53.499s-33.5 -21.5 -55.5 -21.5s-40.5 7.16699 -55.5 21.5s-22.5 32.166 -22.5 53.499z" />
    <glyph glyph-name="semicolon" unicode=";" horiz-adv-x="287" 
d="M227 95c-1.33301 -20.667 -6.66309 -43.833 -15.9961 -69.5s-20.833 -49.667 -34.5 -72s-28.834 -41.166 -45.501 -56.499s-33.334 -23 -50.001 -23c-15.333 0 -28.833 5.66699 -40.5 17s-17.5 24.333 -17.5 39c0 15.333 6.66699 28.666 20 39.999
c18 15.333 33.667 35 47 59s21 48.333 23 73c1.33301 17.333 7.66602 30 18.999 38s23.666 12 36.999 12c14.667 0 28 -4.5 40 -13.5s18 -22.167 18 -39.5v-4zM69.0029 499.001c0 21.333 7.66895 38.833 23.002 52.5s33.666 20.5 54.999 20.5s39.666 -6.83301 54.999 -20.5
s23 -31.167 23 -52.5s-7.5 -39.166 -22.5 -53.499s-33.5 -21.5 -55.5 -21.5s-40.5 7.16699 -55.5 21.5s-22.5 32.166 -22.5 53.499z" />
    <glyph glyph-name="less" unicode="&#x3c;" 
d="M503 456l-311 -170l311 -170c10.667 -6 18.167 -13 22.5 -21s6.5 -16.333 6.5 -25c0 -14.667 -5.33301 -27.834 -16 -39.501s-24.334 -17.5 -41.001 -17.5c-4.66699 0 -9.5 0.5 -14.5 1.5s-10.167 3.16699 -15.5 6.5l-395 217c-23.333 13.333 -35 29.333 -35 48
s11.667 34.667 35 48l395 217c10.667 5.33301 20.667 8 30 8c16.667 0 30.334 -6 41.001 -18s16 -25 16 -39c0 -8.66699 -2.16699 -17.167 -6.5 -25.5s-11.833 -15.166 -22.5 -20.499z" />
    <glyph glyph-name="equal" unicode="=" 
d="M90 444h401c19.333 0 33.666 -5.66699 42.999 -17s14 -24 14 -38c0 -13.333 -4.66699 -25.666 -14 -36.999s-23.666 -17 -42.999 -17h-401c-19.333 0 -33.833 5.66699 -43.5 17s-14.5 23.666 -14.5 36.999c0 14 4.83301 26.667 14.5 38s24.167 17 43.5 17zM89 237h401
c19.333 0 33.833 -5.66699 43.5 -17s14.5 -24 14.5 -38c0 -13.333 -4.83301 -25.666 -14.5 -36.999s-24.167 -17 -43.5 -17h-401c-19.333 0 -33.666 5.66699 -42.999 17s-14 23.666 -14 36.999c0 14 4.66699 26.667 14 38s23.666 17 42.999 17z" />
    <glyph glyph-name="greater" unicode="&#x3e;" 
d="M77 116l311 170l-311 170c-10.667 5.33301 -18.167 12.166 -22.5 20.499s-6.5 16.833 -6.5 25.5c0 14 5.33301 27 16 39s24.334 18 41.001 18c8 0 18 -2.66699 30 -8l395 -217c11.333 -6.66699 19.833 -14.167 25.5 -22.5s8.5 -16.833 8.5 -25.5
s-2.83301 -17.167 -8.5 -25.5s-14.167 -15.833 -25.5 -22.5l-395 -217c-10 -5.33301 -20 -8 -30 -8c-16.667 0 -30.334 5.83301 -41.001 17.5s-16 24.834 -16 39.501c0 8.66699 2.16699 17 6.5 25s11.833 15 22.5 21z" />
    <glyph glyph-name="question" unicode="?" 
d="M43 569c9.33301 25.333 22.6709 48.3291 40.0039 68.9961s37.333 38.167 60 52.5s47 25.5 73 33.5s52.333 12 79 12c38.667 0 73 -5.83301 103 -17.5s55.333 -27 76 -46s36.5 -41 47.5 -66s16.5 -50.833 16.5 -77.5s-4 -50.5 -12 -71.5s-18.167 -39.833 -30.5 -56.5
s-26 -31.667 -41 -45l-41.5 -36l-37 -31c-10 -8.66699 -20.333 -18.667 -31 -30s-16 -24 -16 -38c0 -18 -6 -31.5 -18 -40.5s-25 -13.5 -39 -13.5c-14.667 0 -27.834 4.5 -39.501 13.5s-17.5 22.5 -17.5 40.5c0 23.333 5.16699 44.666 15.5 63.999s23.166 37.333 38.499 54
s32.166 32.5 50.499 47.5s35.166 30 50.499 45s28.166 30.333 38.499 46s15.5 32.834 15.5 51.501c0 10.667 -2.33301 21.834 -7 33.501s-12.167 22.334 -22.5 32.001s-23.666 17.5 -39.999 23.5s-36.166 9 -59.499 9c-16 0 -31.5 -2.33301 -46.5 -7
s-28.833 -11.167 -41.5 -19.5s-23.834 -18.166 -33.501 -29.499s-16.834 -23.666 -21.501 -36.999s-12 -22.833 -22 -28.5s-20.333 -8.5 -31 -8.5c-15.333 0 -29.166 4.83301 -41.499 14.5s-18.5 22.5 -18.5 38.5c0 6.66699 1.33301 13 4 19zM195.005 61.9961
c0 21.333 7.66895 38.833 23.002 52.5s33.666 20.5 54.999 20.5s39.666 -6.83301 54.999 -20.5s23 -31.167 23 -52.5s-7.5 -39.333 -22.5 -54s-33.5 -22 -55.5 -22s-40.5 7.33301 -55.5 22s-22.5 32.667 -22.5 54z" />
    <glyph glyph-name="at" unicode="@" horiz-adv-x="942" 
d="M674 197c0 -16 2.66797 -26.1689 8.00098 -30.502s12.333 -6.5 21 -6.5c7.33301 0 15.333 2.16699 24 6.5s16.834 12.5 24.501 24.5s14 28.833 19 50.5s7.5 49.834 7.5 84.501c0 38.667 -6.66699 75.5 -20 110.5s-32.833 66 -58.5 93s-57 48.5 -94 64.5
s-79.167 24 -126.5 24c-48 0 -91.5 -7.66699 -130.5 -23s-72.167 -37.166 -99.5 -65.499s-48.333 -63 -63 -104s-22 -87.5 -22 -139.5s7.66699 -98.5 23 -139.5s36.666 -75.667 63.999 -104s60 -50.166 98 -65.499s80 -23 126 -23c38 0 73 4.66699 105 14s58 21.333 78 36
c10.667 8 22.667 12 36 12c15.333 0 28.666 -5.66699 39.999 -17s17 -24.333 17 -39c0 -18 -9.66699 -34 -29 -48s-43.166 -25.833 -71.499 -35.5s-58.5 -17.167 -90.5 -22.5s-60.333 -8 -85 -8c-64 0 -122.167 10.833 -174.5 32.5s-97 52 -134 91s-65.667 85.333 -86 139
s-30.5 112.834 -30.5 177.501c0 64 9.83301 122.833 29.5 176.5s48 100 85 139s82 69.5 135 91.5s112.833 33 179.5 33c66 0 124.667 -11.333 176 -34s94.5 -52.834 129.5 -90.501s61.667 -80.5 80 -128.5s27.5 -97 27.5 -147c0 -33.333 -3.16699 -66.333 -9.5 -99
s-16.833 -62 -31.5 -88s-34 -47 -58 -63s-54 -24 -90 -24c-28.667 0 -53 5.5 -73 16.5s-35.667 25.833 -47 44.5c-32 -41.333 -74.667 -62 -128 -62c-34.667 0 -65.5 6 -92.5 18s-49.667 28.667 -68 50s-32.166 46.166 -41.499 74.499s-14 59.166 -14 92.499
c0 32.667 4.66699 63.334 14 92.001s23.166 53.5 41.499 74.5s41 37.667 68 50s57.833 18.5 92.5 18.5c23.333 0 43.833 -3 61.5 -9s33.167 -14.667 46.5 -26c4 11.333 11.167 19.833 21.5 25.5s21.166 8.5 32.499 8.5c14 0 27 -4.5 39 -13.5s18 -22.5 18 -40.5v-269z
M465.001 411.998c-32 0 -58.668 -10.4961 -80.001 -31.4961s-32 -52.5 -32 -94.5c0 -42.667 10.667 -74.5 32 -95.5s48 -31.5 80 -31.5c11.333 0 22.5 2.16699 33.5 6.5s21 10.166 30 17.499s16.333 16.166 22 26.499s8.83398 21.166 9.50098 32.499v93
c0 8 -2.16699 16.667 -6.5 26s-10.5 17.666 -18.5 24.999s-18 13.5 -30 18.5s-25.333 7.5 -40 7.5z" />
    <glyph glyph-name="A" unicode="A" horiz-adv-x="676" 
d="M485 174l-294.003 0.000976562l-60 -148c-5.33301 -12.667 -12.666 -21.667 -21.999 -27s-19.333 -8 -30 -8c-14.667 0 -28.167 4.83301 -40.5 14.5s-18.5 22.5 -18.5 38.5c0 7.33301 1.33301 14.666 4 21.999l262 636c12 28.667 29.333 43 52 43
c10.667 0 20.834 -3.66699 30.501 -11s17.5 -18.333 23.5 -33l260 -636c2.66699 -7.33301 4 -14.666 4 -21.999c0 -15.333 -6 -27.833 -18 -37.5s-25.667 -14.5 -41 -14.5c-10.667 0 -20.667 2.66699 -30 8s-16.666 14.666 -21.999 27.999zM235.997 282.001h205l-102 252z
" />
    <glyph glyph-name="B" unicode="B" horiz-adv-x="564" 
d="M524 228c0 -35.333 -6.66797 -67.1719 -20.001 -95.5049s-32 -52.333 -56 -72s-53 -34.667 -87 -45s-71.333 -15.5 -112 -15.5h-111c-15.333 0 -28.833 5.33301 -40.5 16s-17.5 23.334 -17.5 38.001v618c0 14.667 5.83301 27.334 17.5 38.001s25.167 16 40.5 16h115
c28.667 0 56.5 -3.33301 83.5 -10s50.833 -17.167 71.5 -31.5s37.334 -33.166 50.001 -56.499s19 -51.666 19 -84.999c0 -28.667 -6 -53.667 -18 -75s-27.667 -39.666 -47 -54.999c34 -18 61.167 -42.5 81.5 -73.5s30.5 -68.167 30.5 -111.5zM248.999 108.994
c29.333 0 54.3311 2.99805 74.998 8.99805s37.334 14.333 50.001 25s21.834 23.334 27.501 38.001s8.5 30.334 8.5 47.001c0 36 -12 63.833 -36 83.5s-65.333 29.5 -124 29.5h-55v-232h54zM249.997 449.992l4.99902 0.000976562c30.667 1.33301 56.334 10.333 77.001 27
s31 38.667 31 66c0 23.333 -7.83301 41.666 -23.5 54.999s-44.5 20 -86.5 20h-58v-168h49h6z" />
    <glyph glyph-name="C" unicode="C" horiz-adv-x="703" 
d="M652 96c-34.667 -38 -75.8369 -65.0029 -123.504 -81.0029s-96.5 -24 -146.5 -24c-51.333 0 -97.5 9.83301 -138.5 29.5s-76 46.334 -105 80.001s-51.333 73 -67 118s-23.5 93.167 -23.5 144.5c0 52 8 100.667 24 146s38.833 84.833 68.5 118.5s65.667 60.167 108 79.5
s89.833 29 142.5 29c56.667 0 107.334 -10.167 152.001 -30.5s83 -48.166 115 -83.499c10 -12 15 -24 15 -36c0 -14.667 -6.16699 -27.5 -18.5 -38.5s-26.166 -16.5 -41.499 -16.5c-7.33301 0 -14.666 1.33301 -21.999 4s-14 7.66699 -20 15c-22 24 -47.667 42.833 -77 56.5
s-63.666 20.5 -102.999 20.5c-32.667 0 -63 -6 -91 -18s-52.167 -29.333 -72.5 -52s-36.333 -50.334 -48 -83.001s-17.5 -69.667 -17.5 -111s5.83301 -78.333 17.5 -111s27.5 -60.167 47.5 -82.5s43.333 -39.5 70 -51.5s55 -18 85 -18c39.333 0 74.5 5.66699 105.5 17
s56.833 28.333 77.5 51c12 12.667 26 19 42 19c15.333 0 29 -5.5 41 -16.5s18 -24.167 18 -39.5c0 -5.33301 -1 -11.166 -3 -17.499s-5.66699 -12.166 -11 -17.499z" />
    <glyph glyph-name="D" unicode="D" horiz-adv-x="732" 
d="M80 673c0 14 5.66699 26.5 17 37.5s24.666 16.5 39.999 16.5h137c56.667 0 110 -6 160 -18s93.5 -31.667 130.5 -59s66.167 -63 87.5 -107s32 -98.333 32 -163c0 -66.667 -10.333 -124 -31 -172s-49.5 -87.5 -86.5 -118.5s-80.833 -53.833 -131.5 -68.5
s-106 -22 -166 -22h-132c-15.333 0 -28.666 5.66699 -39.999 17s-17 24.333 -17 39v618zM194 618v-508.999h75c47.333 0 89.666 5 126.999 15s68.833 25.833 94.5 47.5s45.334 49.667 59.001 84s20.5 75.833 20.5 124.5c0 43.333 -6.5 80.166 -19.5 110.499s-32 55 -57 74
s-55.833 32.667 -92.5 41s-79 12.5 -127 12.5h-80z" />
    <glyph glyph-name="E" unicode="E" horiz-adv-x="504" 
d="M138 -1c-15.333 0 -28.6641 5.66602 -39.9971 16.999s-17 24.333 -17 39v618c0 14 5.66699 26.5 17 37.5s24.666 16.5 39.999 16.5h260c19.333 0 33.666 -5.66699 42.999 -17s14 -23.666 14 -36.999c0 -14 -4.83301 -26.667 -14.5 -38s-23.834 -17 -42.501 -17h-203v-168
h180c19.333 0 33.666 -5.83301 42.999 -17.5s14 -24.167 14 -37.5s-4.66699 -25.5 -14 -36.5s-23.666 -16.5 -42.999 -16.5h-180v-233h210c19.333 0 33.833 -5.83301 43.5 -17.5s14.5 -24.167 14.5 -37.5c0 -14 -4.83301 -26.667 -14.5 -38s-24.167 -17 -43.5 -17h-267z" />
    <glyph glyph-name="F" unicode="F" horiz-adv-x="485" 
d="M80 672c0 14.667 5.6709 27.3301 17.0039 37.9971s24.666 16 39.999 16h261c19.333 0 33.666 -5.66699 42.999 -17s14 -23.666 14 -36.999s-4.83301 -25.666 -14.5 -36.999s-23.834 -17 -42.501 -17h-204v-217h181c19.333 0 33.666 -5.66699 42.999 -17s14 -24 14 -38
c0 -13.333 -4.66699 -25.666 -14 -36.999s-23.666 -17 -42.999 -17h-181v-246c0 -18.667 -6 -32.5 -18 -41.5s-25 -13.5 -39 -13.5c-14.667 0 -27.834 4.5 -39.501 13.5s-17.5 22.833 -17.5 41.5v626z" />
    <glyph glyph-name="G" unicode="G" horiz-adv-x="766" 
d="M573 550c-22.667 24.667 -48.8301 43.6719 -78.4971 57.0049s-64.5 20 -104.5 20c-32.667 0 -62.834 -6 -90.501 -18s-51.667 -29.333 -72 -52s-36.333 -50.334 -48 -83.001s-17.5 -69.667 -17.5 -111c0 -40.667 5.66699 -77.334 17 -110.001s27.333 -60.334 48 -83.001
s45.5 -40 74.5 -52s60.833 -18 95.5 -18c24 0 47.333 3.5 70 10.5s43.167 18 61.5 33s33.833 34.667 46.5 59s21 54.166 25 89.499h-203c-19.333 0 -33.833 5.66699 -43.5 17s-14.5 23.666 -14.5 36.999c0 14 4.83301 26.667 14.5 38s24.167 17 43.5 17h264
c15.333 0 28.666 -5.5 39.999 -16.5s17 -23.5 17 -37.5c0 -58 -8.33301 -109.167 -25 -153.5s-39.5 -81.5 -68.5 -111.5s-63 -52.667 -102 -68s-80.833 -23 -125.5 -23c-54.667 0 -103.5 9.66699 -146.5 29s-79.5 45.833 -109.5 79.5s-53 73 -69 118s-24 93.5 -24 145.5
s8 100.667 24 146s38.667 84.833 68 118.5s65.166 60.167 107.499 79.5s89.833 29 142.5 29c57.333 0 109.333 -10 156 -30s84 -48 112 -84c8.66699 -11.333 13 -23.333 13 -36c0 -15.333 -5.5 -28.5 -16.5 -39.5s-24.167 -16.5 -39.5 -16.5s-29.333 6.66699 -42 20z" />
    <glyph glyph-name="H" unicode="H" horiz-adv-x="737" 
d="M657 46c0 -18.667 -6 -32.5 -18 -41.5s-25 -13.5 -39 -13.5c-14.667 0 -27.834 4.5 -39.501 13.5s-17.5 22.833 -17.5 41.5v296h-349v-296c0 -18.667 -6 -32.5 -18 -41.5s-25 -13.5 -39 -13.5c-14.667 0 -27.834 4.5 -39.501 13.5s-17.5 22.833 -17.5 41.5v635
c0 18 5.83301 31.667 17.5 41s24.834 14 39.501 14c14 0 27 -4.66699 39 -14s18 -23 18 -41v-231h349v231c0 18 5.83301 31.667 17.5 41s24.834 14 39.501 14c14 0 27 -4.66699 39 -14s18 -23 18 -41v-635z" />
    <glyph glyph-name="I" unicode="I" horiz-adv-x="284" 
d="M199 46c0 -18.667 -6 -32.5 -18 -41.5s-25 -13.5 -39 -13.5c-14.667 0 -27.834 4.5 -39.501 13.5s-17.5 22.833 -17.5 41.5v636c0 18 5.83301 31.5 17.5 40.5s24.834 13.5 39.501 13.5c14 0 27 -4.5 39 -13.5s18 -22.5 18 -40.5v-636z" />
    <glyph glyph-name="J" unicode="J" horiz-adv-x="460" 
d="M119 137c7.33301 -9.33301 16.668 -17.834 28.001 -25.501s25.666 -11.5 42.999 -11.5c10 0 19.5 1.16699 28.5 3.5s17 6.66602 24 12.999s12.667 15.333 17 27s6.5 26.5 6.5 44.5v494c0 18 5.83301 31.5 17.5 40.5s24.834 13.5 39.501 13.5c14 0 27 -4.5 39 -13.5
s18 -22.5 18 -40.5v-494c0 -34 -5.33301 -63.333 -16 -88s-24.834 -45.167 -42.501 -61.5s-37.834 -28.333 -60.501 -36s-46.334 -11.5 -71.001 -11.5c-36.667 0 -70.667 8.66699 -102 26s-54.666 41 -69.999 71c-5.33301 10.667 -8 20.334 -8 29.001
c0 14.667 5.33301 26.834 16 36.501s23.334 14.5 38.001 14.5c20.667 0 39 -10.333 55 -31z" />
    <glyph glyph-name="K" unicode="K" horiz-adv-x="658" 
d="M207 342l-13.001 0.000976562v-296c0 -18.667 -6 -32.5 -18 -41.5s-25 -13.5 -39 -13.5c-14.667 0 -27.834 4.5 -39.501 13.5s-17.5 22.833 -17.5 41.5v636c0 18 5.83301 31.667 17.5 41s24.834 14 39.501 14c14 0 27 -4.66699 39 -14s18 -23 18 -41v-232h15l302 272
c6 5.33301 12.333 9.16602 19 11.499s13.334 3.5 20.001 3.5c15.333 0 29 -5.5 41 -16.5s18 -24.167 18 -39.5c0 -13.333 -6.33301 -26 -19 -38l-276 -249l312 -310c11.333 -11.333 17 -24 17 -38c0 -15.333 -6 -28.5 -18 -39.5s-25.667 -16.5 -41 -16.5
c-14.667 0 -28 6 -40 18z" />
    <glyph glyph-name="L" unicode="L" horiz-adv-x="521" 
d="M137 -1c-15.333 0 -28.668 5.66699 -40.001 17s-17 24.333 -17 39v626c0 18 5.83301 31.667 17.5 41s24.834 14 39.501 14c14 0 27 -4.66699 39 -14s18 -23 18 -41v-572h250c19.333 0 33.666 -5.83301 42.999 -17.5s14 -24.167 14 -37.5c0 -14 -4.66699 -26.667 -14 -38
s-23.666 -17 -42.999 -17h-307z" />
    <glyph glyph-name="M" unicode="M" horiz-adv-x="893" 
d="M129 688c2.66699 18.667 9.16309 32.835 19.4961 42.502s21.833 14.5 34.5 14.5c10 0 20.333 -3.5 31 -10.5s19 -17.833 25 -32.5l207 -512l208 512c6 14.667 14 25.5 24 32.5s20.333 10.5 31 10.5c12.667 0 24.334 -4.83301 35.001 -14.5s17.334 -23.834 20.001 -42.501
l78 -636v-8c0 -17.333 -6 -30.5 -18 -39.5s-25 -13.5 -39 -13.5c-13.333 0 -25.666 3.83301 -36.999 11.5s-18 20.167 -20 37.5l-54 435l-175 -432c-6 -14.667 -14 -25.667 -24 -33s-20 -11 -30 -11s-19.667 3.66699 -29 11s-17 18.333 -23 33l-174 430l-55 -433
c-2 -17.333 -8.66699 -29.833 -20 -37.5s-23.666 -11.5 -36.999 -11.5c-14.667 0 -28 4.66699 -40 14s-18 22.666 -18 39.999c0 1.33301 0.166992 2.5 0.5 3.5s0.5 2.16699 0.5 3.5z" />
    <glyph glyph-name="N" unicode="N" horiz-adv-x="745" 
d="M665 46c0 -20 -5.00098 -35.501 -15.001 -46.501s-21.667 -16.5 -35 -16.5c-8.66699 0 -17.667 2.33301 -27 7s-17.666 12.334 -24.999 23.001l-370 499v-466c0 -18.667 -5.83301 -32.667 -17.5 -42s-24.834 -14 -39.501 -14c-14 0 -26.833 4.66699 -38.5 14
s-17.5 23.333 -17.5 42v635c0 20 5 35.667 15 47s21.667 17 35 17c18.667 0 36 -10.333 52 -31l370 -502v469c0 18.667 5.83301 32.5 17.5 41.5s24.5 13.5 38.5 13.5c14.667 0 27.834 -4.5 39.501 -13.5s17.5 -22.833 17.5 -41.5v-635z" />
    <glyph glyph-name="O" unicode="O" horiz-adv-x="782" 
d="M48 363c0 52 7.83594 100.667 23.5029 146s38.334 84.833 68.001 118.5s65.5 60.167 107.5 79.5s89.667 29 143 29s101.166 -9.66699 143.499 -29s78.333 -45.833 108 -79.5s52.5 -73.167 68.5 -118.5s24 -94 24 -146c0 -51.333 -8 -99.666 -24 -144.999
s-38.833 -84.833 -68.5 -118.5s-65.834 -60.167 -108.501 -79.5s-90.334 -29 -143.001 -29c-53.333 0 -101 9.66699 -143 29s-77.833 45.833 -107.5 79.5s-52.334 73.167 -68.001 118.5s-23.5 93.666 -23.5 144.999zM162.003 363c0 -41.333 5.66602 -78.166 16.999 -110.499
s27.166 -59.833 47.499 -82.5s44.5 -40 72.5 -52s58.333 -18 91 -18c33.333 0 64 6 92 18s52.333 29.333 73 52s36.667 50.167 48 82.5s17 69.166 17 110.499s-5.83301 78.333 -17.5 111s-27.667 60.334 -48 83.001s-44.666 40 -72.999 52s-58.833 18 -91.5 18
s-63 -6 -91 -18s-52.167 -29.333 -72.5 -52s-36.166 -50.334 -47.499 -83.001s-17 -69.667 -17 -111z" />
    <glyph glyph-name="P" unicode="P" horiz-adv-x="577" 
d="M80 673c0 14.667 5.66895 27.333 17.002 38s24.666 16 39.999 16h116c96.667 0 169 -20.5 217 -61.5s72 -96.5 72 -166.5c0 -80 -25.167 -140.833 -75.5 -182.5s-122.5 -62.5 -216.5 -62.5h-56v-208c0 -18.667 -6 -32.5 -18 -41.5s-25 -13.5 -39 -13.5
c-14.667 0 -27.834 4.5 -39.501 13.5s-17.5 22.833 -17.5 41.5v627zM250.002 361.999c34.667 0 63.3311 3 85.998 9s40.834 14.833 54.501 26.5s23.334 26 29.001 43s8.5 36.5 8.5 58.5c0 16.667 -2.16699 32.167 -6.5 46.5s-12.833 27 -25.5 38s-30.5 19.667 -53.5 26
s-52.833 9.5 -89.5 9.5h-59v-257h56z" />
    <glyph glyph-name="Q" unicode="Q" horiz-adv-x="783" 
d="M48 363c0 52 8 100.668 24 146.001s38.667 84.833 68 118.5s65.166 60.167 107.499 79.5s89.833 29 142.5 29c53.333 0 101.166 -9.66699 143.499 -29s78.333 -45.833 108 -79.5s52.5 -73.167 68.5 -118.5s24 -94 24 -146c0 -44 -5.83301 -85.5 -17.5 -124.5
s-28.167 -74.5 -49.5 -106.5l51 -48c11.333 -11.333 17 -24 17 -38c0 -14.667 -5.83301 -27.667 -17.5 -39s-25.167 -17 -40.5 -17s-28.666 5.66699 -39.999 17l-48 45c-27.333 -19.333 -57.5 -34.333 -90.5 -45s-69.167 -16 -108.5 -16
c-52.667 0 -100.167 9.66699 -142.5 29s-78.166 45.833 -107.499 79.5s-52 73.167 -68 118.5s-24 93.666 -24 144.999zM584 210.001c11.333 20.667 20.166 43.832 26.499 69.499s9.5 53.5 9.5 83.5c0 41.333 -5.83301 78.333 -17.5 111s-27.667 60.334 -48 83.001
s-44.666 40 -72.999 52s-58.833 18 -91.5 18s-62.834 -6 -90.501 -18s-51.667 -29.333 -72 -52s-36.333 -50.334 -48 -83.001s-17.5 -69.667 -17.5 -111s5.83301 -78.166 17.5 -110.499s27.667 -59.833 48 -82.5s44.333 -40 72 -52s57.834 -18 90.501 -18
c44 0 82.667 10 116 30l-59 56c-12 12 -18 24.667 -18 38c0 14.667 6 27.667 18 39s25.667 17 41 17c14.667 0 28 -5.66699 40 -17z" />
    <glyph glyph-name="R" unicode="R" horiz-adv-x="590" 
d="M233 266l-38.998 0.00292969v-220c0 -18.667 -6 -32.5 -18 -41.5s-25 -13.5 -39 -13.5c-14.667 0 -27.834 4.5 -39.501 13.5s-17.5 22.833 -17.5 41.5v627c0 14.667 5.66699 27.334 17 38.001s24.666 16 39.999 16h109c40.667 0 78.5 -4.83301 113.5 -14.5
s65.333 -23.834 91 -42.501s45.667 -41.834 60 -69.501s21.5 -59.834 21.5 -96.501c0 -54 -15 -100.667 -45 -140s-70.333 -67.333 -121 -84l170 -200c9.33301 -11.333 14 -23 14 -35c0 -15.333 -6 -28.333 -18 -39s-25.667 -16 -41 -16c-7.33301 0 -14.833 1.66699 -22.5 5
s-14.5 8.66602 -20.5 15.999zM269.002 375.003c48 0 84.834 12.332 110.501 36.999s38.5 55.334 38.5 92.001c0 16 -2.83301 31 -8.5 45s-15.334 26.167 -29.001 36.5s-31.5 18.5 -53.5 24.5s-49 9 -81 9h-52v-244h75z" />
    <glyph glyph-name="S" unicode="S" horiz-adv-x="541" 
d="M371 574c-7.33301 13.333 -19.8369 25.4951 -37.5039 36.4951s-39.167 16.5 -64.5 16.5c-17.333 0 -32.166 -2.16699 -44.499 -6.5s-22.166 -9.83301 -29.499 -16.5s-12.666 -14.167 -15.999 -22.5s-5 -16.833 -5 -25.5c0 -27.333 8.16699 -48.833 24.5 -64.5
s36.833 -29.167 61.5 -40.5s51.334 -22.166 80.001 -32.499s55.334 -24 80.001 -41s45.167 -39 61.5 -66s24.5 -62.833 24.5 -107.5c0 -31.333 -6.5 -60 -19.5 -86s-30.667 -48.333 -53 -67s-48 -33.167 -77 -43.5s-59.5 -15.5 -91.5 -15.5c-30 0 -57.333 3.66699 -82 11
s-47 17.166 -67 29.499s-37.333 26.333 -52 42s-26.667 31.834 -36 48.501c-5.33301 8.66699 -8 18 -8 28c0 15.333 6.16699 28 18.5 38s25.833 15 40.5 15c9.33301 0 18.333 -2.16699 27 -6.5s15.667 -11.5 21 -21.5c10.667 -19.333 27.334 -36.833 50.001 -52.5
s52 -23.5 88 -23.5c19.333 0 36.833 2.83301 52.5 8.5s29 13.334 40 23.001s19.5 20.667 25.5 33s9 25.5 9 39.5c0 30 -8.16699 53.667 -24.5 71s-36.833 31.833 -61.5 43.5s-51.334 22.334 -80.001 32.001s-55.334 22.5 -80.001 38.5s-45.167 37 -61.5 63
s-24.5 60.667 -24.5 104c0 26 5 50 15 72s24.333 41 43 57s40.667 28.5 66 37.5s53.666 13.5 84.999 13.5c25.333 0 50.5 -4.16699 75.5 -12.5s47.333 -19.166 67 -32.499s35.667 -28.166 48 -44.499s18.5 -32.5 18.5 -48.5c0 -15.333 -6 -28 -18 -38s-25.667 -15 -41 -15
c-9.33301 0 -18.166 2.33301 -26.499 7s-15.5 12 -21.5 22z" />
    <glyph glyph-name="T" unicode="T" horiz-adv-x="548" 
d="M476 727c19.333 0 33.667 -5.66699 43 -17s14 -24 14 -38c0 -13.333 -4.66699 -25.666 -14 -36.999s-23.666 -17 -42.999 -17h-145v-572c0 -18.667 -6 -32.5 -18 -41.5s-25 -13.5 -39 -13.5c-14.667 0 -27.834 4.5 -39.501 13.5s-17.5 22.833 -17.5 41.5v572h-144
c-19.333 0 -33.833 5.66699 -43.5 17s-14.5 23.666 -14.5 36.999c0 14 4.83301 26.667 14.5 38s24.167 17 43.5 17h403z" />
    <glyph glyph-name="U" unicode="U" horiz-adv-x="694" 
d="M189 312c0 -40.667 4.16699 -74.501 12.5 -101.501s20 -48.667 35 -65s32.333 -28 52 -35s41.167 -10.5 64.5 -10.5c19.333 0 38.166 2.83301 56.499 8.5s34.5 16.334 48.5 32.001s25.333 37.334 34 65.001s13 63.167 13 106.5v370c0 18 5.83301 31.5 17.5 40.5
s24.834 13.5 39.501 13.5c14 0 27 -4.5 39 -13.5s18 -22.5 18 -40.5v-370c0 -54 -6.5 -101.167 -19.5 -141.5s-31.333 -73.833 -55 -100.5s-51.834 -46.5 -84.501 -59.5s-68.334 -19.5 -107.001 -19.5c-43.333 0 -82.166 7.16699 -116.499 21.5s-63.5 35.166 -87.5 62.499
s-42.333 60.833 -55 100.5s-19 85.167 -19 136.5v370c0 18 5.83301 31.5 17.5 40.5s24.834 13.5 39.501 13.5c14 0 27 -4.5 39 -13.5s18 -22.5 18 -40.5v-370z" />
    <glyph glyph-name="V" unicode="V" horiz-adv-x="638" 
d="M320 180l189.002 520c4.66699 12.667 11.667 21.834 21 27.501s19.333 8.5 30 8.5c14.667 0 28.167 -4.83301 40.5 -14.5s18.5 -22.167 18.5 -37.5c0 -8 -1.33301 -15 -4 -21l-242 -636c-5.33301 -15.333 -12.833 -26.5 -22.5 -33.5s-19.834 -10.5 -30.501 -10.5
s-20.834 3.5 -30.501 10.5s-17.167 18.167 -22.5 33.5l-243 636c-2.66699 6 -4 13 -4 21c0 16 6 28.667 18 38s25.667 14 41 14c10.667 0 20.667 -2.83301 30 -8.5s16.333 -14.834 21 -27.501z" />
    <glyph glyph-name="W" unicode="W" horiz-adv-x="927" 
d="M267 225l142.001 471.998c4.66699 16 12 28 22 36s20.667 12 32 12s21.833 -4 31.5 -12s17.167 -20 22.5 -36l144 -474l133 474c4 14 11 24 21 30s20.667 9 32 9c15.333 0 29.166 -4.66699 41.499 -14s18.5 -22.333 18.5 -39v-7.5
c0 -2.33301 -0.666992 -5.16602 -2 -8.49902l-187 -636c-5.33301 -16.667 -13 -29 -23 -37s-20.667 -12 -32 -12s-22 4 -32 12s-17.667 20 -23 36l-145 481l-143 -481c-5.33301 -16 -13 -28 -23 -36s-20.667 -12 -32 -12s-22 4 -32 12s-17.667 20.333 -23 37l-188 636
c-2 6 -3 11.333 -3 16c0 16.667 6.33301 29.667 19 39s26.334 14 41.001 14c11.333 0 22.166 -3.16699 32.499 -9.5s17.5 -16.166 21.5 -29.499z" />
    <glyph glyph-name="X" unicode="X" horiz-adv-x="647" 
d="M324 274l-189 -259.003c-12.667 -16.667 -27.667 -25 -45 -25c-15.333 0 -29.166 5.33301 -41.499 16s-18.5 23.667 -18.5 39c0 11.333 3.66699 22 11 32l213 292l-205 283c-8 10.667 -12 21.334 -12 32.001c0 14.667 6.16699 27.167 18.5 37.5s26.166 15.5 41.499 15.5
c8 0 15.833 -1.83301 23.5 -5.5s14.834 -9.83398 21.501 -18.501l181 -249l182 249c6 8.66699 13 14.834 21 18.501s16 5.5 24 5.5c15.333 0 29.166 -5.16699 41.499 -15.5s18.5 -23.166 18.5 -38.499c0 -11.333 -3.66699 -21.666 -11 -30.999l-206 -283l213 -292
c7.33301 -10 11 -20.667 11 -32c0 -15.333 -6 -28.333 -18 -39s-25.667 -16 -41 -16c-18 0 -33.333 8.33301 -46 25z" />
    <glyph glyph-name="Y" unicode="Y" horiz-adv-x="582" 
d="M348 294l0.000976562 -248c0 -18.667 -6 -32.667 -18 -42s-25 -14 -39 -14c-14.667 0 -27.834 4.66699 -39.501 14s-17.5 23.333 -17.5 42v248l-206 362c-5.33301 8.66699 -8 18 -8 28c0 15.333 6.16699 27.833 18.5 37.5s25.833 14.5 40.5 14.5
c9.33301 0 18.333 -2.16699 27 -6.5s15.667 -11.5 21 -21.5l164 -294l165 294c5.33301 10.667 12.333 18 21 22s17.667 6 27 6c15.333 0 29 -4.83301 41 -14.5s18 -22.167 18 -37.5c0 -8 -2.66699 -17.333 -8 -28z" />
    <glyph glyph-name="Z" unicode="Z" horiz-adv-x="591" 
d="M509 726c19.333 0 34.5 -4.33105 45.5 -12.998s16.5 -19.667 16.5 -33c0 -10.667 -4.66699 -23.334 -14 -38.001l-375 -533h315c19.333 0 33.833 -5.66699 43.5 -17s14.5 -24 14.5 -38c0 -13.333 -4.83301 -25.666 -14.5 -36.999s-24.167 -17 -43.5 -17h-415
c-19.333 0 -34.5 4.33301 -45.5 13s-16.5 19.667 -16.5 33c0 12 4.66699 24.667 14 38l376 534h-309c-19.333 0 -33.666 5.66699 -42.999 17s-14 23.666 -14 36.999s4.66699 25.666 14 36.999s23.666 17 42.999 17h408z" />
    <glyph glyph-name="bracketleft" unicode="[" horiz-adv-x="378" 
d="M301 628l-127 -0.00390625v-595h127c19.333 0 33.666 -5.66699 42.999 -17s14 -24 14 -38c0 -13.333 -4.66699 -25.666 -14 -36.999s-23.666 -17 -42.999 -17h-184c-15.333 0 -28.666 5.5 -39.999 16.5s-17 23.5 -17 37.5v704c0 14.667 5.66699 27.334 17 38.001
s24.666 16 39.999 16h184c19.333 0 33.666 -5.66699 42.999 -17s14 -23.666 14 -36.999s-4.66699 -25.666 -14 -36.999s-23.666 -17 -42.999 -17z" />
    <glyph glyph-name="backslash" unicode="\" horiz-adv-x="273" 
d="M78 704l202.999 -772c0.666992 -2.66699 1 -6.66699 1 -12c0 -13.333 -4.66699 -23.5 -14 -30.5s-19.666 -10.5 -30.999 -10.5c-9.33301 0 -17.833 2.5 -25.5 7.5s-13.167 13.167 -16.5 24.5l-203 772c-1.33301 5.33301 -2 9.33301 -2 12
c0 12.667 4.83301 22.5 14.5 29.5s20.167 10.5 31.5 10.5c9.33301 0 17.833 -2.33301 25.5 -7s13.167 -12.667 16.5 -24z" />
    <glyph glyph-name="bracketright" unicode="]" horiz-adv-x="378" 
d="M77 33l127 0.00390625v595h-127c-19.333 0 -33.666 5.66699 -42.999 17s-14 23.666 -14 36.999s4.66699 25.666 14 36.999s23.666 17 42.999 17h184c15.333 0 28.666 -5.33301 39.999 -16s17 -23.334 17 -38.001v-704c0 -14 -5.66699 -26.5 -17 -37.5
s-24.666 -16.5 -39.999 -16.5h-184c-19.333 0 -33.666 5.66699 -42.999 17s-14 23.666 -14 36.999c0 14 4.66699 26.667 14 38s23.666 17 42.999 17z" />
    <glyph glyph-name="asciicircum" unicode="^" 
d="M290 574l-178.005 -294.999c-6 -10 -13.333 -17.167 -22 -21.5s-17.667 -6.5 -27 -6.5c-15.333 0 -29.166 5 -41.499 15s-18.5 22.667 -18.5 38c0 9.33301 3 19 9 29l228 377c6.66699 10.667 14.334 18.667 23.001 24s17.667 8 27 8s18.333 -2.5 27 -7.5
s16.334 -13.167 23.001 -24.5l228 -377c5.33301 -8.66699 8 -18.334 8 -29.001c0 -15.333 -6.16699 -28 -18.5 -38s-26.166 -15 -41.499 -15c-9.33301 0 -18.166 2.16699 -26.499 6.5s-15.5 11.5 -21.5 21.5z" />
    <glyph glyph-name="underscore" unicode="_" horiz-adv-x="300" 
d="M270 -40c19.333 0 33.666 -5.66699 42.999 -17s14 -24 14 -38c0 -13.333 -4.66699 -25.666 -14 -36.999s-23.666 -17 -42.999 -17h-240c-19.333 0 -33.666 5.66699 -42.999 17s-14 23.666 -14 36.999c0 14 4.66699 26.667 14 38s23.666 17 42.999 17h240z" />
    <glyph glyph-name="grave" unicode="`" horiz-adv-x="190" 
d="M184 725c6.66699 -10.667 10.001 -21 10.001 -31c0 -15.333 -6 -28.166 -18 -38.499s-25.667 -15.5 -41 -15.5c-8.66699 0 -17 1.83301 -25 5.5s-15 10.167 -21 19.5l-83 118c-7.33301 10.667 -11 21 -11 31c0 15.333 6.16699 28.166 18.5 38.499
s26.166 15.5 41.499 15.5c18.667 0 34 -8.33301 46 -25z" />
    <glyph glyph-name="a" unicode="a" horiz-adv-x="538" 
d="M370 91c-15.333 -30.667 -35.9971 -55.166 -61.9971 -73.499s-59.333 -27.5 -100 -27.5c-30 0 -56.5 4.5 -79.5 13.5s-42.167 21.5 -57.5 37.5s-27 35 -35 57s-12 46 -12 72c0 37.333 8.66699 67.5 26 90.5s39.666 40.667 66.999 53s58 20.666 92 24.999
s67.667 6.5 101 6.5h30.5c10.333 0 20.166 -0.333008 29.499 -1c-0.666992 44 -9 74.333 -25 91s-43.333 25 -82 25c-24 0 -44.833 -5 -62.5 -15s-31.167 -23 -40.5 -39c-6 -10 -13 -17.167 -21 -21.5s-16.667 -6.5 -26 -6.5c-15.333 0 -29.166 5 -41.499 15
s-18.5 22.667 -18.5 38c0 10 2.66699 19.333 8 28c10 17.333 22.667 32.833 38 46.5s32.166 25.167 50.499 34.5s38 16.5 59 21.5s42.5 7.5 64.5 7.5c38.667 0 71.5 -5.5 98.5 -16.5s48.833 -26.5 65.5 -46.5s28.667 -44 36 -72s11 -58.667 11 -92v-295
c0 -18 -6 -31.5 -18 -40.5s-25 -13.5 -39 -13.5c-14.667 0 -27.834 4.5 -39.501 13.5s-17.5 22.5 -17.5 40.5v44zM138.003 170.001c0 -18.667 6.66699 -35.166 20 -49.499s36.666 -21.5 69.999 -21.5c40.667 0 73.5 14.167 98.5 42.5s39.167 64.833 42.5 109.5
c-11.333 0.666992 -22.5 1.16699 -33.5 1.5s-21.833 0.5 -32.5 0.5c-24.667 0 -47.167 -1.33301 -67.5 -4s-37.666 -7.33398 -51.999 -14.001s-25.5 -15.167 -33.5 -25.5s-12 -23.5 -12 -39.5z" />
    <glyph glyph-name="b" unicode="b" horiz-adv-x="589" 
d="M60 733c0 18 5.83398 31.667 17.501 41s24.834 14 39.501 14c14 0 27 -4.66699 39 -14s18 -23 18 -41v-232c18.667 22 40.167 38.333 64.5 49s51.166 16 80.499 16c41.333 0 77 -7.66699 107 -23s54.833 -36 74.5 -62s34.334 -56.333 44.001 -91
s14.5 -71.334 14.5 -110.001c0 -39.333 -4.83301 -76.5 -14.5 -111.5s-24.334 -65.667 -44.001 -92s-44.5 -47.166 -74.5 -62.499s-65.667 -23 -107 -23c-32 0 -60 5 -84 15s-44.333 24.333 -61 43v-3c0 -18.667 -6 -32.5 -18 -41.5s-25 -13.5 -39 -13.5
c-14.667 0 -27.834 4.5 -39.501 13.5s-17.5 22.833 -17.5 41.5v687zM309.001 100c19.333 0 37.334 3.49805 54.001 10.498s31 17.833 43 32.5s21.5 33.334 28.5 56.001s10.5 49.667 10.5 81c0 61.333 -13 106.333 -39 135s-58.333 43 -97 43
c-13.333 0 -27.5 -2.66699 -42.5 -8s-29.333 -14.166 -43 -26.499s-25.167 -29 -34.5 -50s-14.333 -47.5 -15 -79.5v-31c0 -27.333 3.66699 -51.333 11 -72s17.333 -37.667 30 -51s27.167 -23.333 43.5 -30s33.166 -10 50.499 -10z" />
    <glyph glyph-name="c" unicode="c" horiz-adv-x="539" 
d="M507 113c-22 -38 -50.501 -67.501 -85.501 -88.501s-76.5 -31.5 -124.5 -31.5c-42 0 -79.667 7.5 -113 22.5s-61.333 35.5 -84 61.5s-40 56.5 -52 91.5s-18 72.833 -18 113.5c0 40 5.83301 77.5 17.5 112.5s28.667 65.333 51 91s49.5 46 81.5 61s68.333 22.5 109 22.5
c46 0 87.833 -9.66699 125.5 -29s66.5 -46.666 86.5 -81.999c5.33301 -10.667 8 -20 8 -28c0 -15.333 -6.16699 -28 -18.5 -38s-26.166 -15 -41.499 -15c-9.33301 0 -18 2.16699 -26 6.5s-15 11.5 -21 21.5c-9.33301 16 -23.5 29.167 -42.5 39.5s-42.5 15.5 -70.5 15.5
c-20 0 -38.833 -3.66699 -56.5 -11s-33 -18.333 -46 -33s-23.333 -33.167 -31 -55.5s-11.5 -48.5 -11.5 -78.5c0 -60 14.333 -105 43 -135s65.334 -45 110.001 -45c48.667 0 84.667 20.667 108 62c6 10.667 13.333 18.167 22 22.5s17.667 6.5 27 6.5
c15.333 0 29.166 -5.16699 41.499 -15.5s18.5 -23.166 18.5 -38.499c0 -8.66699 -2.33301 -17.334 -7 -26.001z" />
    <glyph glyph-name="d" unicode="d" horiz-adv-x="589" 
d="M529 46c0 -18.667 -5.99805 -32.5 -17.998 -41.5s-25 -13.5 -39 -13.5c-14.667 0 -27.834 4.5 -39.501 13.5s-17.5 22.833 -17.5 41.5v10c-18.667 -22 -40.334 -38.333 -65.001 -49s-51.334 -16 -80.001 -16c-41.333 0 -77 7.66699 -107 23s-54.833 36.166 -74.5 62.499
s-34.334 57 -44.001 92s-14.5 72.167 -14.5 111.5c0 38.667 4.83301 75.334 14.5 110.001s24.334 65 44.001 91s44.5 46.667 74.5 62s65.667 23 107 23c32 0 59.833 -5.16699 83.5 -15.5s44.167 -24.5 61.5 -42.5v225c0 18 5.83301 31.667 17.5 41s24.834 14 39.501 14
c14 0 27 -4.66699 39 -14s18 -23 18 -41v-687zM280.002 458c-38.667 0 -70.998 -14.3291 -96.998 -42.9961s-39 -73.667 -39 -135c0 -31.333 3.5 -58.333 10.5 -81s16.5 -41.334 28.5 -56.001s26.333 -25.5 43 -32.5s34.667 -10.5 54 -10.5c12 0 25.667 2.5 41 7.5
s29.833 14 43.5 27s25.167 30.333 34.5 52s14.666 49.167 15.999 82.5v43c-0.666992 23.333 -4.83398 44.166 -12.501 62.499s-17.667 33.666 -30 45.999s-26.5 21.666 -42.5 27.999s-32.667 9.5 -50 9.5z" />
    <glyph glyph-name="e" unicode="e" horiz-adv-x="568" 
d="M509 113c-21.333 -38.667 -50.001 -68.499 -86.001 -89.499s-80.333 -31.5 -133 -31.5c-40.667 0 -77.167 7.66699 -109.5 23s-59.666 36 -81.999 62s-39.333 56.667 -51 92s-17.5 73 -17.5 113s5.83301 77.5 17.5 112.5s28.667 65.333 51 91s49.666 46 81.999 61
s68.833 22.5 109.5 22.5c40 0 75 -7.16699 105 -21.5s55.333 -33.833 76 -58.5s36.167 -53.834 46.5 -87.501s15.5 -69.5 15.5 -107.5c0 -14.667 -5.66699 -27.5 -17 -38.5s-24.666 -16.5 -39.999 -16.5h-329c2.66699 -18 7.5 -35.333 14.5 -52s16.167 -31.167 27.5 -43.5
s25.333 -22.333 42 -30s36.334 -11.5 59.001 -11.5c31.333 0 56 5.33301 74 16s33 26.667 45 48c5.33301 10 12.333 17.167 21 21.5s17.667 6.5 27 6.5c15.333 0 29.166 -5 41.499 -15s18.5 -22.667 18.5 -38c0 -8 -2.66699 -17.333 -8 -28zM413.999 348.001
c-7.33301 40 -22.167 68.833 -44.5 86.5s-48.833 26.5 -79.5 26.5c-20 0 -37.833 -3 -53.5 -9s-29 -14.167 -40 -24.5s-20.167 -22.333 -27.5 -36s-13 -28.167 -17 -43.5h262z" />
    <glyph glyph-name="f" unicode="f" horiz-adv-x="398" 
d="M99 566l0.00488281 35.998c0 34 5 62.833 15 86.5s23.167 42.834 39.5 57.501s34.666 25.334 54.999 32.001s41.166 10 62.499 10c22 0 41.833 -2.66699 59.5 -8s32.667 -12 45 -20s21.833 -16.667 28.5 -26s10 -18.333 10 -27c0 -15.333 -5.83301 -28.5 -17.5 -39.5
s-25.167 -16.5 -40.5 -16.5c-14.667 0 -27.334 5 -38.001 15c-0.666992 1.33301 -5.33398 3.83301 -14.001 7.5s-19.667 5.5 -33 5.5c-6.66699 0 -13.5 -0.666992 -20.5 -2s-13.167 -4.5 -18.5 -9.5s-9.83301 -12.667 -13.5 -23s-5.5 -24.5 -5.5 -42.5v-36h125
c19.333 0 33.666 -5.66699 42.999 -17s14 -23.666 14 -36.999s-4.66699 -25.666 -14 -36.999s-23.666 -17 -42.999 -17h-125v-412c0 -18.667 -6 -32.5 -18 -41.5s-25 -13.5 -39 -13.5c-14.667 0 -27.834 4.5 -39.501 13.5s-17.5 22.833 -17.5 41.5v412h-36
c-19.333 0 -33.833 5.66699 -43.5 17s-14.5 23.666 -14.5 36.999s4.83301 25.666 14.5 36.999s24.167 17 43.5 17h36z" />
    <glyph glyph-name="g" unicode="g" horiz-adv-x="589" 
d="M529 25c0 -36 -6.49902 -67.667 -19.499 -95s-30.667 -50.5 -53 -69.5s-48.5 -33.333 -78.5 -43s-62.333 -14.5 -97 -14.5c-28 0 -54.5 3.5 -79.5 10.5s-46.667 15.833 -65 26.5s-33 22.167 -44 34.5s-16.5 23.833 -16.5 34.5c0 14.667 6 27.667 18 39s25.667 17 41 17
c9.33301 0 18.166 -2.83301 26.499 -8.5s17.833 -11.667 28.5 -18s23.167 -12.333 37.5 -18s32.166 -8.5 53.499 -8.5c44 0 77.333 9.83301 100 29.5s34 47.5 34 83.5v26c-34.667 -38.667 -82 -58 -142 -58c-39.333 0 -74.166 7.66699 -104.499 23s-55.666 36 -75.999 62
s-35.833 56.5 -46.5 91.5s-16 72.5 -16 112.5s5.33301 77.5 16 112.5s26.5 65.333 47.5 91s47.167 46 78.5 61s67.333 22.5 108 22.5c31.333 0 57.833 -4.5 79.5 -13.5s40.167 -21.167 55.5 -36.5c1.33301 16.667 7.66602 29.167 18.999 37.5s24 12.5 38 12.5
s27 -4.5 39 -13.5s18 -22.5 18 -40.5v-490zM290.001 460c-20 0 -38.999 -3.66504 -56.999 -10.998s-33.5 -18.333 -46.5 -33s-23.333 -33.167 -31 -55.5s-11.5 -48.5 -11.5 -78.5c0 -30.667 3.83301 -57.334 11.5 -80.001s17.834 -41.334 30.501 -56.001
s27.5 -25.667 44.5 -33s34.5 -11 52.5 -11c15.333 0 30.666 2.66699 45.999 8s29.166 14.333 41.499 27s22.5 29 30.5 49s12.667 45 14 75v30c0 57.333 -11.5 99.833 -34.5 127.5s-53.167 41.5 -90.5 41.5z" />
    <glyph glyph-name="h" unicode="h" horiz-adv-x="574" 
d="M406 314c0 29.333 -2.33301 53.333 -7 72s-11.667 33.334 -21 44.001s-21 18 -35 22s-30.333 6 -49 6c-16 0 -31.333 -2.66699 -46 -8s-27.5 -13.5 -38.5 -24.5s-19.667 -25.167 -26 -42.5s-9.5 -38 -9.5 -62v-13v-262c0 -18.667 -6 -32.5 -18 -41.5s-25 -13.5 -39 -13.5
c-14.667 0 -27.834 4.5 -39.501 13.5s-17.5 22.833 -17.5 41.5v687c0 18 5.83301 31.667 17.5 41s24.834 14 39.501 14c14 0 27 -4.66699 39 -14s18 -23 18 -41v-220c34 35.333 80.667 53 140 53c40 0 73.167 -5.83301 99.5 -17.5s47.333 -28.334 63 -50.001
s26.834 -48 33.501 -79s10 -66.167 10 -105.5v-268c0 -18.667 -6 -32.5 -18 -41.5s-25 -13.5 -39 -13.5c-14.667 0 -27.834 4.5 -39.501 13.5s-17.5 22.833 -17.5 41.5v268z" />
    <glyph glyph-name="i" unicode="i" horiz-adv-x="244" 
d="M179 47c0 -18 -6 -31.5 -18 -40.5s-25 -13.5 -39 -13.5c-14.667 0 -27.834 4.5 -39.501 13.5s-17.5 22.5 -17.5 40.5v468c0 18 5.83301 31.5 17.5 40.5s24.834 13.5 39.501 13.5c14 0 27 -4.5 39 -13.5s18 -22.5 18 -40.5v-468zM180 712c0 -18.667 -6 -32.5 -18 -41.5
s-25 -13.5 -39 -13.5c-14.667 0 -27.834 4.5 -39.501 13.5s-17.5 22.833 -17.5 41.5v14c0 18 5.83301 31.667 17.5 41s24.834 14 39.501 14c14 0 27 -4.66699 39 -14s18 -23 18 -41v-14z" />
    <glyph glyph-name="j" unicode="j" horiz-adv-x="233" 
d="M14 -88c6 0 11.667 0.501953 17 1.50195s10.166 3.66699 14.499 8s7.66602 10.666 9.99902 18.999s3.5 19.833 3.5 34.5v540c0 18 5.83301 31.5 17.5 40.5s24.834 13.5 39.501 13.5c14 0 27 -4.5 39 -13.5s18 -22.5 18 -40.5v-540c0 -54 -14.167 -96.167 -42.5 -126.5
s-67.166 -45.5 -116.499 -45.5c-19.333 0 -33.666 5.66699 -42.999 17s-14 23.666 -14 36.999c0 14 4.66699 26.667 14 38s23.666 17 42.999 17zM172 712.002c0 -18.667 -6 -32.5 -18 -41.5s-25 -13.5 -39 -13.5c-14.667 0 -27.834 4.5 -39.501 13.5
s-17.5 22.833 -17.5 41.5v14c0 18 5.83301 31.667 17.5 41s24.834 14 39.501 14c14 0 27 -4.66699 39 -14s18 -23 18 -41v-14z" />
    <glyph glyph-name="k" unicode="k" horiz-adv-x="523" 
d="M197 217l-23.001 -21v-150c0 -18.667 -6 -32.5 -18 -41.5s-25 -13.5 -39 -13.5c-14.667 0 -27.834 4.5 -39.501 13.5s-17.5 22.833 -17.5 41.5v687c0 18 5.83301 31.667 17.5 41s24.834 14 39.501 14c14 0 27 -4.66699 39 -14s18 -23 18 -41v-386l225 204
c11.333 10.667 24.333 16 39 16c15.333 0 29 -5.66699 41 -17s18 -24.333 18 -39c0 -13.333 -6.33301 -26 -19 -38l-198 -181l215 -208c12 -12 18 -24.667 18 -38c0 -15.333 -6 -28.5 -18 -39.5s-25.667 -16.5 -41 -16.5s-28.666 5.66699 -39.999 17z" />
    <glyph glyph-name="l" unicode="l" horiz-adv-x="305" 
d="M174 143c0 -13.333 2 -23.832 6 -31.499s11.667 -11.5 23 -11.5c7.33301 0 14.166 1.16699 20.499 3.5s13.5 3.5 21.5 3.5c15.333 0 27.5 -4.83301 36.5 -14.5s13.5 -23.5 13.5 -41.5c0 -12.667 -3.33301 -22.834 -10 -30.501s-15 -13.667 -25 -18
s-20.667 -7.33301 -32 -9s-22 -2.5 -32 -2.5c-46.667 0 -81 13.833 -103 41.5s-33 64.5 -33 110.5v591c0 18 5.83301 31.5 17.5 40.5s24.834 13.5 39.501 13.5c14 0 27 -4.5 39 -13.5s18 -22.5 18 -40.5v-591z" />
    <glyph glyph-name="m" unicode="m" horiz-adv-x="843" 
d="M675 367c0 32 -7.66309 55.501 -22.9961 70.501s-35.333 22.5 -60 22.5c-30 0 -55.5 -10.167 -76.5 -30.5s-32.167 -48.5 -33.5 -84.5v-298c0 -18 -6 -31.5 -18 -40.5s-25 -13.5 -39 -13.5c-14.667 0 -27.834 4.5 -39.501 13.5s-17.5 22.5 -17.5 40.5v320
c0 32 -7.66699 55.5 -23 70.5s-35.333 22.5 -60 22.5c-30 0 -55.5 -10.167 -76.5 -30.5s-32.167 -48.5 -33.5 -84.5v-298c0 -18 -6 -31.5 -18 -40.5s-25.333 -13.5 -40 -13.5c-14 0 -27 4.5 -39 13.5s-18 22.5 -18 40.5v468c0 18 6 31.5 18 40.5s25.333 13.5 40 13.5
c13.333 0 25.833 -4 37.5 -12s18.167 -20 19.5 -36c15.333 15.333 33.833 27.166 55.5 35.499s46.5 12.5 74.5 12.5c37.333 0 68.333 -7.5 93 -22.5s43.667 -34.833 57 -59.5c15.333 25.333 36 45.333 62 60s57.667 22 95 22c31.333 0 58.166 -5.33301 80.499 -16
s40.666 -25.167 54.999 -43.5s24.833 -39.833 31.5 -64.5s10 -50.667 10 -78v-320c0 -18 -6 -31.5 -18 -40.5s-25 -13.5 -39 -13.5c-14.667 0 -27.834 4.5 -39.501 13.5s-17.5 22.5 -17.5 40.5v320z" />
    <glyph glyph-name="n" unicode="n" horiz-adv-x="582" 
d="M414 316c0 29.333 -2.33203 53.333 -6.99902 72s-11.834 33.334 -21.501 44.001s-21.667 18 -36 22s-31.166 6 -50.499 6c-17.333 0 -33.5 -2.83301 -48.5 -8.5s-28.167 -14.5 -39.5 -26.5s-20.333 -27.333 -27 -46s-10 -41.334 -10 -68.001v-264
c0 -18 -6 -31.5 -18 -40.5s-25 -13.5 -39 -13.5c-14.667 0 -27.834 4.5 -39.501 13.5s-17.5 22.5 -17.5 40.5v468c0 18 5.83301 31.5 17.5 40.5s24.834 13.5 39.501 13.5c14 0 27 -4.5 39 -13.5s18 -22.5 18 -40.5v-2c17.333 17.333 37.833 31 61.5 41s51.5 15 83.5 15
c40 0 73.333 -5.83301 100 -17.5s48 -28.334 64 -50.001s27.5 -48.167 34.5 -79.5s10.5 -66.666 10.5 -105.999v-269c0 -18 -6 -31.5 -18 -40.5s-25 -13.5 -39 -13.5c-14.667 0 -27.834 4.5 -39.501 13.5s-17.5 22.5 -17.5 40.5v269z" />
    <glyph glyph-name="o" unicode="o" horiz-adv-x="584" 
d="M30 282c0 40 6 77.5 18 112.5s29.167 65.5 51.5 91.5s49.666 46.333 81.999 61s69.166 22 110.499 22c40.667 0 77.334 -7.33301 110.001 -22s60.167 -35 82.5 -61s39.5 -56.5 51.5 -91.5s18 -72.5 18 -112.5s-6 -77.667 -18 -113s-29.167 -66 -51.5 -92
s-49.833 -46.5 -82.5 -61.5s-69.334 -22.5 -110.001 -22.5c-41.333 0 -78.166 7.5 -110.499 22.5s-59.666 35.5 -81.999 61.5s-39.5 56.667 -51.5 92s-18 73 -18 113zM144 282c0 -30 3.83301 -56.333 11.5 -79s18.167 -41.5 31.5 -56.5s29 -26.167 47 -33.5
s37.333 -11 58 -11s40 3.66699 58 11s33.667 18.5 47 33.5s23.833 33.833 31.5 56.5s11.5 49 11.5 79s-3.83301 56 -11.5 78s-18.167 40.5 -31.5 55.5s-29 26.167 -47 33.5s-37.333 11 -58 11s-40 -3.66699 -58 -11s-33.667 -18.5 -47 -33.5s-23.833 -33.5 -31.5 -55.5
s-11.5 -48 -11.5 -78z" />
    <glyph glyph-name="p" unicode="p" horiz-adv-x="589" 
d="M60 515c0 18 5.83301 31.5 17.5 40.5s24.834 13.5 39.501 13.5c14 0 27 -4.5 39 -13.5s18 -22.5 18 -40.5v-12c38 44 86.333 66 145 66c41.333 0 77 -7.66699 107 -23s54.833 -36 74.5 -62s34.334 -56.5 44.001 -91.5s14.5 -71.833 14.5 -110.5
c0 -39.333 -4.83301 -76.5 -14.5 -111.5s-24.334 -65.667 -44.001 -92s-44.5 -47.166 -74.5 -62.499s-65.667 -23 -107 -23c-32 0 -60 5.16699 -84 15.5s-44.333 25.166 -61 44.499v-196c0 -18 -6 -31.5 -18 -40.5s-25 -13.5 -39 -13.5c-14.667 0 -27.834 4.5 -39.501 13.5
s-17.5 22.5 -17.5 40.5v658zM309 102c19.333 0 37.335 3.50195 54.002 10.502s31 17.833 43 32.5s21.5 33.334 28.5 56.001s10.5 49.667 10.5 81c0 61.333 -13 106.333 -39 135s-58.333 43 -97 43c-12.667 0 -26.667 -2.83301 -42 -8.5s-29.666 -14.834 -42.999 -27.501
s-24.833 -29.334 -34.5 -50.001s-14.834 -46.334 -15.501 -77.001v-34c0 -26 3.83301 -49 11.5 -69s17.667 -36.833 30 -50.5s26.666 -24 42.999 -31s33.166 -10.5 50.499 -10.5z" />
    <glyph glyph-name="q" unicode="q" horiz-adv-x="589" 
d="M529 -143c0 -18 -5.99805 -31.499 -17.998 -40.499s-25 -13.5 -39 -13.5c-14.667 0 -27.834 4.5 -39.501 13.5s-17.5 22.5 -17.5 40.5v201c-18.667 -22 -40.334 -38.333 -65.001 -49s-51.334 -16 -80.001 -16c-41.333 0 -77 7.66699 -107 23s-54.833 36.166 -74.5 62.499
s-34.334 57 -44.001 92s-14.5 72.167 -14.5 111.5c0 38.667 4.83301 75.5 14.5 110.5s24.334 65.5 44.001 91.5s44.5 46.667 74.5 62s65.667 23 107 23c32 0 59.833 -5.16699 83.5 -15.5s44.167 -24.5 61.5 -42.5v4c0 18 5.83301 31.5 17.5 40.5s24.834 13.5 39.501 13.5
c14 0 27 -4.5 39 -13.5s18 -22.5 18 -40.5v-658zM280.002 460.001c-38.667 0 -71.001 -14.3301 -97.001 -42.9971s-39 -73.667 -39 -135c0 -31.333 3.5 -58.333 10.5 -81s16.5 -41.334 28.5 -56.001s26.333 -25.5 43 -32.5s34.667 -10.5 54 -10.5
c12.667 0 26.834 2.83301 42.501 8.5s30.334 15.167 44.001 28.5s25.167 31.166 34.5 53.499s14 50.5 14 84.5v41c-0.666992 22 -4.83398 41.833 -12.501 59.5s-17.5 32.667 -29.5 45s-26 21.666 -42 27.999s-33 9.5 -51 9.5z" />
    <glyph glyph-name="r" unicode="r" horiz-adv-x="360" 
d="M295 460c-35.333 0 -64.168 -11 -86.501 -33s-33.5 -51 -33.5 -87v-293c0 -18 -6 -31.5 -18 -40.5s-25.333 -13.5 -40 -13.5c-14 0 -27 4.5 -39 13.5s-18 22.5 -18 40.5v468c0 18 6 31.5 18 40.5s25 13.5 39 13.5c14.667 0 28 -4.5 40 -13.5s18 -22.5 18 -40.5v-16
c9.33301 21.333 22.333 38.333 39 51s38.334 19 65.001 19c24 0 41.833 -6.16699 53.5 -18.5s17.5 -25.833 17.5 -40.5c0 -13.333 -4.66699 -25 -14 -35s-23 -15 -41 -15z" />
    <glyph glyph-name="s" unicode="s" horiz-adv-x="499" 
d="M341 415c-1.33301 4 -3.83691 8.66895 -7.50391 14.002s-9.33398 10.166 -17.001 14.499s-17 8.16602 -28 11.499s-24.5 5 -40.5 5c-18.667 0 -33.834 -1.83301 -45.501 -5.5s-20.667 -8.16699 -27 -13.5s-10.666 -10.666 -12.999 -15.999s-3.5 -9.33301 -3.5 -12
c0 -12.667 3.33301 -23 10 -31s15.334 -14.5 26.001 -19.5s22.5 -9 35.5 -12s25.833 -6.16699 38.5 -9.5c26 -6.66699 50.833 -14.334 74.5 -23.001s44.5 -19.5 62.5 -32.5s32.167 -29.167 42.5 -48.5s15.5 -43.333 15.5 -72c0 -28 -5.83301 -52.833 -17.5 -74.5
s-27.334 -39.667 -47.001 -54s-42.167 -25.166 -67.5 -32.499s-52 -11 -80 -11c-22 0 -43.833 2.33301 -65.5 7s-42 11.834 -61 21.501s-36 21.667 -51 36s-26.5 31.5 -34.5 51.5c-3.33301 6.66699 -5 14 -5 22c0 15.333 6.16699 27.833 18.5 37.5s25.833 14.5 40.5 14.5
c10 0 17.833 -2 23.5 -6s11 -9 16 -15s10 -12.5 15 -19.5s11.833 -13.5 20.5 -19.5s19.5 -11 32.5 -15s29.833 -6 50.5 -6c18.667 0 34.167 1.83301 46.5 5.5s22.333 8.5 30 14.5s13.167 12.667 16.5 20s5 15 5 23c0 12.667 -3.5 23 -10.5 31s-15.833 14.5 -26.5 19.5
s-22.667 9 -36 12s-26 6.16699 -38 9.5c-24.667 6 -48.667 13.167 -72 21.5s-44.166 19.166 -62.499 32.499s-33 29.833 -44 49.5s-16.5 43.834 -16.5 72.501c0 24 5.66699 45.667 17 65s26.333 35.666 45 48.999s40.334 23.666 65.001 30.999s50.334 11 77.001 11
c23.333 0 47.166 -3.33301 71.499 -10s46.333 -16.334 66 -29.001s35.834 -27.667 48.501 -45s19 -37 19 -59c0 -16.667 -6.16699 -29.667 -18.5 -39s-25.833 -14 -40.5 -14c-11.333 0 -22.166 3.33301 -32.499 10s-17.166 17.334 -20.499 32.001z" />
    <glyph glyph-name="t" unicode="t" horiz-adv-x="423" 
d="M98 568l-0.00195312 94.002c0 18 5.83301 31.667 17.5 41s24.834 14 39.501 14c14 0 27 -4.66699 39 -14s18 -23 18 -41v-94h125c19.333 0 33.666 -5.66699 42.999 -17s14 -24 14 -38c0 -13.333 -4.66699 -25.666 -14 -36.999s-23.666 -17 -42.999 -17h-125v-282
c0 -15.333 1.83301 -27.833 5.5 -37.5s8.16699 -17.334 13.5 -23.001s11.5 -9.66699 18.5 -12s13.833 -3.5 20.5 -3.5c10.667 0 20 1.33301 28 4s15.5 5.66699 22.5 9s13.833 6.33301 20.5 9s13.667 4 21 4c16 0 28.5 -4.83301 37.5 -14.5s13.5 -21.834 13.5 -36.501
c0 -14 -5.5 -26.333 -16.5 -37s-24.167 -19.5 -39.5 -26.5s-31.166 -12.167 -47.499 -15.5s-29.5 -5 -39.5 -5c-55.333 0 -97.833 13.833 -127.5 41.5s-44.5 75.5 -44.5 143.5v282h-36c-19.333 0 -33.666 5.66699 -42.999 17s-14 23.666 -14 36.999
c0 14 4.66699 26.667 14 38s23.666 17 42.999 17h36z" />
    <glyph glyph-name="u" unicode="u" horiz-adv-x="577" 
d="M169 244c0 -28 2.66504 -51 7.99805 -69s13.333 -32.5 24 -43.5s23.834 -18.667 39.501 -23s33.5 -6.5 53.5 -6.5c16.667 0 32 1.83301 46 5.5s26 10.5 36 20.5s17.833 24.333 23.5 43s8.5 43 8.5 73v271c0 18 5.83301 31.5 17.5 40.5s24.834 13.5 39.501 13.5
c14 0 27 -4.5 39 -13.5s18 -22.5 18 -40.5v-271c0 -84.667 -20.333 -147.667 -61 -189s-96.334 -62 -167.001 -62c-78 0 -137.333 21.667 -178 65s-61 105.333 -61 186v271c0 18 5.83301 31.5 17.5 40.5s24.834 13.5 39.501 13.5c14 0 27 -4.5 39 -13.5s18 -22.5 18 -40.5
v-271z" />
    <glyph glyph-name="v" unicode="v" horiz-adv-x="511" 
d="M256 196l139.002 339.001c5.33301 12 12.5 20.667 21.5 26s18.5 8 28.5 8c15.333 0 29.333 -4.83301 42 -14.5s19 -22.834 19 -39.501c0 -3.33301 -0.333008 -6.83301 -1 -10.5s-1.66699 -7.16699 -3 -10.5l-193 -467c-6 -14.667 -13.833 -25.5 -23.5 -32.5
s-19.5 -10.5 -29.5 -10.5c-10.667 0 -20.667 3.5 -30 10.5s-17 17.833 -23 32.5l-194 467c-1.33301 3.33301 -2.33301 6.83301 -3 10.5s-1 7.16699 -1 10.5c0 16 6.16699 29 18.5 39s26.166 15 41.499 15c10 0 19.667 -2.66699 29 -8s16.666 -14 21.999 -26z" />
    <glyph glyph-name="w" unicode="w" horiz-adv-x="832" 
d="M236 209l127.003 324.997c5.33301 14.667 12.833 25.667 22.5 33s19.834 11 30.501 11s20.834 -3.66699 30.501 -11s17.167 -18.666 22.5 -33.999l122 -324l120 324c4.66699 12.667 11.667 21.834 21 27.501s19.333 8.5 30 8.5c15.333 0 29.166 -4.83301 41.499 -14.5
s18.5 -22.5 18.5 -38.5c0 -7.33301 -1.33301 -14 -4 -20l-174 -467c-5.33301 -15.333 -12.833 -26.833 -22.5 -34.5s-19.834 -11.5 -30.501 -11.5c-11.333 0 -21.833 3.83301 -31.5 11.5s-17.167 19.167 -22.5 34.5l-122 327l-129 -328
c-6 -15.333 -13.667 -26.666 -23 -33.999s-19.333 -11 -30 -11s-21 4 -31 12s-17.667 19.667 -23 35l-166 467c-1.33301 3.33301 -2.33301 6.5 -3 9.5s-1 6.16699 -1 9.5c0 16 6.16699 28.833 18.5 38.5s26.166 14.5 41.499 14.5c11.333 0 21.666 -2.83301 30.999 -8.5
s16.666 -15.167 21.999 -28.5z" />
    <glyph glyph-name="x" unicode="x" horiz-adv-x="507" 
d="M253 195l-133.999 -179c-6.66699 -8.66699 -13.834 -14.834 -21.501 -18.501s-15.5 -5.5 -23.5 -5.5c-15.333 0 -29 5.33301 -41 16s-18 23.667 -18 39c0 10 4 20.667 12 32l157 208l-148 197c-8 10.667 -12 21.334 -12 32.001c0 15.333 6 28.166 18 38.499
s25.667 15.5 41 15.5c8 0 16 -1.83301 24 -5.5s15 -9.5 21 -17.5l125 -167l126 167c6 8 12.833 13.833 20.5 17.5s15.5 5.5 23.5 5.5c15.333 0 29.166 -5.16699 41.499 -15.5s18.5 -23.166 18.5 -38.499c0 -10.667 -4 -21.334 -12 -32.001l-148 -197l157 -208
c8 -11.333 12 -22 12 -32c0 -15.333 -6.16699 -28.333 -18.5 -39s-26.166 -16 -41.499 -16c-8 0 -15.833 1.83301 -23.5 5.5s-14.5 9.83398 -20.5 18.501z" />
    <glyph glyph-name="y" unicode="y" horiz-adv-x="530" 
d="M86 -82c10.667 0 19.332 -1.83887 25.999 -5.50586s14.334 -5.5 23.001 -5.5s16.334 2.66699 23.001 8s12.834 12.833 18.501 22.5s11.167 20.834 16.5 33.501l17 41l11 27l-206 455c-3.33301 6.66699 -5 14.334 -5 23.001c0 15.333 6 28 18 38s25.667 15 41 15
c10 0 19.667 -2.66699 29 -8s16.666 -14 21.999 -26l156 -343l133 341c5.33301 12.667 12.666 21.834 21.999 27.501s19.333 8.5 30 8.5c14.667 0 28.167 -4.83301 40.5 -14.5s18.5 -22.5 18.5 -38.5c0 -8 -1.33301 -15 -4 -21l-186 -475l-17 -46
c-7.33301 -20 -15.833 -40.333 -25.5 -61s-21.5 -39.667 -35.5 -57s-30.5 -31.5 -49.5 -42.5s-41.5 -16.5 -67.5 -16.5c-12.667 0 -25.167 1.16699 -37.5 3.5s-23.5 6.33301 -33.5 12s-18 12.834 -24 21.501s-9 19.334 -9 32.001c0 14.667 4.83301 26.834 14.5 36.501
s23.167 14.5 40.5 14.5z" />
    <glyph glyph-name="z" unicode="z" horiz-adv-x="506" 
d="M429 562c19.333 0 34.5 -4.33301 45.5 -13s16.5 -19.667 16.5 -33c0 -6 -1.33301 -12.5 -4 -19.5s-6.66699 -14.167 -12 -21.5l-285 -366h230c19.333 0 33.833 -5.66699 43.5 -17s14.5 -24 14.5 -38c0 -13.333 -4.83301 -25.666 -14.5 -36.999s-24.167 -17 -43.5 -17
h-343c-19.333 0 -34.5 4.33301 -45.5 13s-16.5 19.667 -16.5 33c0 6 1.33301 12.5 4 19.5s6.66699 14.167 12 21.5l285 366h-224c-19.333 0 -33.666 5.66699 -42.999 17s-14 23.666 -14 36.999c0 14 4.66699 26.667 14 38s23.666 17 42.999 17h337z" />
    <glyph glyph-name="braceleft" unicode="{" horiz-adv-x="411" 
d="M288 627c-14.667 0 -25.168 -2.67285 -31.501 -8.00586s-9.5 -17.666 -9.5 -36.999v-148c0 -23.333 -3.83301 -44.333 -11.5 -63s-18.167 -35 -31.5 -49c12.667 -12.667 23 -28.167 31 -46.5s12 -40.166 12 -65.499v-130c0 -16 1.16699 -28.667 3.5 -38
s5.5 -16.166 9.5 -20.499s8.33301 -7 13 -8s9.66699 -1.5 15 -1.5h46c19.333 0 33.666 -5.66699 42.999 -17s14 -23.666 14 -36.999s-4.66699 -25.666 -14 -36.999s-23.666 -17 -42.999 -17h-46c-27.333 0 -50.666 4.5 -69.999 13.5s-35.333 21.5 -48 37.5
s-22 34.667 -28 56s-9 44.333 -9 69v130c0 18.667 -4.66699 31.834 -14 39.501s-23.666 13.167 -42.999 16.5s-33.5 10 -42.5 20s-13.5 21 -13.5 33s4.66699 23.167 14 33.5s23.666 17.166 42.999 20.499c16 2.66699 29.333 9 40 19s16 24 16 42v148
c0 47.333 13.667 84.666 41 111.999s65.333 41 114 41h46c19.333 0 33.666 -5.66699 42.999 -17s14 -23.666 14 -36.999s-4.66699 -25.666 -14 -36.999s-23.666 -17 -42.999 -17h-46z" />
    <glyph glyph-name="bar" unicode="|" horiz-adv-x="249" 
d="M169 694v-768c0 -14 -4.66699 -24.5 -14 -31.5s-19.666 -10.5 -30.999 -10.5s-21.5 3.5 -30.5 10.5s-13.5 17.5 -13.5 31.5v768c0 14 4.5 24.5 13.5 31.5s19.167 10.5 30.5 10.5s21.666 -3.5 30.999 -10.5s14 -17.5 14 -31.5z" />
    <glyph glyph-name="braceright" unicode="}" horiz-adv-x="411" 
d="M123 12c15.333 0 26.166 2.67285 32.499 8.00586s9.5 17.666 9.5 36.999v148c0 23.333 3.66699 44.333 11 63s17.666 35 30.999 49c-12.667 12.667 -22.834 28.167 -30.501 46.5s-11.5 40.166 -11.5 65.499v130c0 16 -1.16699 28.667 -3.5 38s-5.5 16.166 -9.5 20.499
s-8.5 7 -13.5 8s-10.167 1.5 -15.5 1.5h-46c-19.333 0 -33.666 5.66699 -42.999 17s-14 23.666 -14 36.999s4.66699 25.666 14 36.999s23.666 17 42.999 17h46c27.333 0 50.833 -4.5 70.5 -13.5s35.834 -21.5 48.501 -37.5s22 -34.667 28 -56s9 -44.333 9 -69v-130
c0 -18.667 4.5 -31.834 13.5 -39.501s23.167 -13.167 42.5 -16.5c18.667 -3.33301 32.667 -10.166 42 -20.499s14 -21.5 14 -33.5s-4.66699 -23 -14 -33s-23.666 -16.667 -42.999 -20c-15.333 -2.66699 -28.333 -9 -39 -19s-16 -24 -16 -42v-148
c0 -47.333 -13.667 -84.666 -41 -111.999s-65.666 -41 -114.999 -41h-46c-19.333 0 -33.666 5.66699 -42.999 17s-14 23.666 -14 36.999s4.66699 25.666 14 36.999s23.666 17 42.999 17h46z" />
    <glyph glyph-name="asciitilde" unicode="~" 
d="M51 342c40.667 34 83.3291 50.9971 127.996 50.9971c24 0 45.833 -3.83301 65.5 -11.5s38.167 -16 55.5 -25l49 -25c15.333 -7.66699 30.333 -11.5 45 -11.5c9.33301 0 19.166 1.83301 29.499 5.5s21.833 10.167 34.5 19.5c10.667 7.33301 22 11 34 11
c16 0 29.667 -5.66699 41 -17s17 -24.333 17 -39c0 -15.333 -6.5 -28.666 -19.5 -39.999s-28.167 -20.666 -45.5 -27.999s-34.666 -12.666 -51.999 -15.999s-30.333 -5 -39 -5c-20 0 -38.5 2.66699 -55.5 8s-32.667 11.5 -47 18.5s-27.833 14.167 -40.5 21.5
s-24.667 13 -36 17c-7.33301 2.66699 -13.666 4.83398 -18.999 6.50098s-10.333 2.5 -15 2.5c-6 0 -13.667 -1.5 -23 -4.5s-20.666 -9.83301 -33.999 -20.5c-11.333 -9.33301 -23.666 -14 -36.999 -14c-15.333 0 -28.666 5.66699 -39.999 17s-17 24.333 -17 39
c0 15.333 7 28.666 21 39.999z" />
    <glyph glyph-name="uni00A0" unicode="&#xa0;" horiz-adv-x="300" 
 />
    <glyph glyph-name="exclamdown" unicode="&#xa1;" horiz-adv-x="276" 
d="M194 315.027c0 17.9971 -6 31.4951 -18 40.4941s-25 13.498 -39 13.498c-14.667 0 -27.834 -4.49902 -39.501 -13.498s-17.5 -22.4971 -17.5 -40.4941v-460.944c0 -17.9971 5.83301 -31.4951 17.5 -40.4941s24.834 -13.498 39.501 -13.498c14 0 27 4.49902 39 13.498
s18 22.4971 18 40.4941v460.944zM60 474.008c0 -21.3311 7.66895 -38.8291 23.002 -52.4941s33.666 -20.4971 54.999 -20.4971s39.666 6.83203 54.999 20.4971s23 31.1631 23 52.4941s-7.5 39.3291 -22.5 53.9941s-33.5 21.9971 -55.5 21.9971
s-40.5 -7.33203 -55.5 -21.9971s-22.5 -32.6631 -22.5 -53.9941z" />
    <glyph glyph-name="sterling" unicode="&#xa3;" 
d="M417 571c-10 17.333 -23.3369 31.001 -40.0039 41.001s-40.334 15 -71.001 15c-32 0 -59 -9.33301 -81 -28s-33 -49 -33 -91c-0.666992 -23.333 2.33301 -45.333 9 -66s14.667 -42.667 24 -66l7 -18h149c19.333 0 33.666 -5.66699 42.999 -17s14 -24 14 -38
c0 -13.333 -4.66699 -25.666 -14 -36.999s-23.666 -17 -42.999 -17h-120c0.666992 -4.66699 1.16699 -9.33398 1.5 -14.001s0.5 -9.33398 0.5 -14.001c0 -24 -3.16699 -45.667 -9.5 -65s-14.833 -36.666 -25.5 -51.999h264c19.333 0 33.833 -5.66699 43.5 -17
s14.5 -23.666 14.5 -36.999s-4.83301 -25.666 -14.5 -36.999s-24.167 -17 -43.5 -17h-406c-21.333 0 -37.666 4.66699 -48.999 14s-17 20.666 -17 33.999c0 8.66699 2.83301 17.5 8.5 26.5s14.167 17.167 25.5 24.5c12 7.33301 23.667 15.166 35 23.499s21.5 17.5 30.5 27.5
s16.167 21.167 21.5 33.5s8 26.166 8 41.499c0 8.66699 -1 18 -3 28h-28c-19.333 0 -33.666 5.66699 -42.999 17s-14 23.666 -14 36.999s4 25.333 12 36s20.333 16.667 37 18c-8 21.333 -15.333 44.333 -22 69s-10 52 -10 82c0 36.667 6 69 18 97s28.333 51.667 49 71
s44.834 34 72.501 44s57.167 15 88.5 15c98.667 0 169.334 -38 212.001 -114c5.33301 -9.33301 8 -18.333 8 -27c0 -15.333 -6.16699 -28 -18.5 -38s-26.166 -15 -41.499 -15c-9.33301 0 -18.333 2.33301 -27 7s-16 12.334 -22 23.001z" />
    <glyph glyph-name="section" unicode="&#xa7;" 
d="M216 72c3.33301 -11.333 10.668 -21.8262 22.001 -31.4932s29 -14.5 53 -14.5c14 0 25.667 1.5 35 4.5s16.666 7 21.999 12s9 10.167 11 15.5s3 10.666 3 15.999c0 12.667 -9.66699 23.5 -29 32.5s-42.666 18.167 -69.999 27.5c-23.333 8 -47.5 16.833 -72.5 26.5
s-48 21.667 -69 36s-38.333 32 -52 53s-20.5 46.5 -20.5 76.5c0 17.333 2.66699 33.5 8 48.5s12.666 28.667 21.999 41s20.166 23.666 32.499 33.999s25.5 19.5 39.5 27.5c-14 12 -25.333 26.167 -34 42.5s-13 36.166 -13 59.499c0 22.667 4.66699 43.5 14 62.5
s22.166 35.5 38.499 49.5s35.833 24.833 58.5 32.5s47.334 11.5 74.001 11.5c24.667 0 48.167 -3.66699 70.5 -11s42.166 -17.5 59.499 -30.5s31.166 -28.167 41.499 -45.5s15.5 -36 15.5 -56c0 -16.667 -6.16699 -29.667 -18.5 -39s-25.833 -14 -40.5 -14
c-11.333 0 -22.166 3.33301 -32.499 10s-17.166 17.334 -20.499 32.001c-1.33301 6 -3.66602 11.667 -6.99902 17s-7.83301 10.166 -13.5 14.499s-13 7.83301 -22 10.5s-19.833 4 -32.5 4c-14 0 -25.5 -1.66699 -34.5 -5s-16.167 -7.33301 -21.5 -12
s-9.16602 -9.83398 -11.499 -15.501s-3.5 -10.834 -3.5 -15.501c0 -11.333 2.66699 -20 8 -26s12.333 -10.833 21 -14.5s18.334 -6.83398 29.001 -9.50098s21 -6 31 -10l27 -6c24 -7.33301 47.833 -15.666 71.5 -24.999s44.667 -21 63 -35s33.166 -30.833 44.499 -50.5
s17 -43.834 17 -72.501c0 -36 -9.83301 -66.5 -29.5 -91.5s-43.5 -45.833 -71.5 -62.5c14 -12 25.333 -26.333 34 -43s13 -36.334 13 -59.001s-4.5 -43.5 -13.5 -62.5s-21.667 -35.5 -38 -49.5s-35.833 -24.833 -58.5 -32.5s-47.667 -11.5 -75 -11.5
c-24 0 -47.333 3.66699 -70 11s-42.667 17.5 -60 30.5s-31.166 28.167 -41.499 45.5s-15.5 36 -15.5 56c0 16 6.16699 28.667 18.5 38s25.833 14 40.5 14c11.333 0 22.166 -3.16699 32.499 -9.5s17.166 -16.833 20.499 -31.5zM416.002 330.007
c0 12.667 -2.83398 22.501 -8.50098 29.501s-14 13 -25 18s-24.667 10.167 -41 15.5s-35.166 12.333 -56.499 21c-18.667 -4 -35.5 -9.5 -50.5 -16.5s-27.833 -14.5 -38.5 -22.5s-18.834 -16.167 -24.501 -24.5s-8.5 -16.5 -8.5 -24.5c0 -12.667 3.5 -23.334 10.5 -32.001
s16.333 -16.167 28 -22.5s25.334 -12 41.001 -17l49.5 -15.5c38.667 9.33301 69 22.5 91 39.5s33 34.167 33 51.5z" />
    <glyph glyph-name="dieresis" unicode="&#xa8;" horiz-adv-x="520" 
d="M409 715c0 -18.667 -6 -32.5 -18 -41.5s-25 -13.5 -39 -13.5c-14.667 0 -27.834 4.5 -39.501 13.5s-17.5 22.833 -17.5 41.5v14c0 18 5.83301 31.5 17.5 40.5s24.834 13.5 39.501 13.5c14 0 27 -4.5 39 -13.5s18 -22.5 18 -40.5v-14zM225 715
c0 -18.667 -6 -32.5 -18 -41.5s-25 -13.5 -39 -13.5c-14.667 0 -27.834 4.5 -39.501 13.5s-17.5 22.833 -17.5 41.5v14c0 18 5.83301 31.5 17.5 40.5s24.834 13.5 39.501 13.5c14 0 27 -4.5 39 -13.5s18 -22.5 18 -40.5v-14z" />
    <glyph glyph-name="copyright" unicode="&#xa9;" horiz-adv-x="902" 
d="M60 363c0 55.333 9.5 105.833 28.5 151.5s45.667 84.834 80 117.501s75.5 58 123.5 76s101 27 159 27s111 -9 159 -27s89.167 -43.333 123.5 -76s61 -71.834 80 -117.501s28.5 -96.167 28.5 -151.5s-9.33301 -105.833 -28 -151.5s-45.167 -84.834 -79.5 -117.501
s-75.5 -58 -123.5 -76s-101.333 -27 -160 -27s-112 9 -160 27s-89.167 43.333 -123.5 76s-60.833 71.834 -79.5 117.501s-28 96.167 -28 151.5zM728 363c0 40 -6.5 76.333 -19.5 109s-31.5 60.5 -55.5 83.5s-53.167 40.667 -87.5 53s-72.5 18.5 -114.5 18.5
s-80.167 -6.16699 -114.5 -18.5s-63.5 -30 -87.5 -53s-42.5 -50.833 -55.5 -83.5s-19.5 -69 -19.5 -109c0 -40.667 6.5 -77.167 19.5 -109.5s31.5 -59.833 55.5 -82.5s53 -40.167 87 -52.5s72.333 -18.5 115 -18.5s81 6.16699 115 18.5s63 29.833 87 52.5
s42.5 50.167 55.5 82.5s19.5 68.833 19.5 109.5zM600 195c-19.333 -13.333 -39.834 -23.6631 -61.501 -30.9961s-48.5 -11 -80.5 -11c-31.333 0 -60.166 5 -86.499 15s-49.333 24 -69 42s-35 39.833 -46 65.5s-16.5 54.167 -16.5 85.5c0 28 4.83301 54.5 14.5 79.5
s23.5 46.833 41.5 65.5s40.167 33.5 66.5 44.5s56.166 16.5 89.499 16.5c18.667 0 38 -2 58 -6s38.333 -9.83301 55 -17.5s30.5 -16.834 41.5 -27.501s16.5 -22.334 16.5 -35.001c0 -14.667 -5.66699 -27.834 -17 -39.501s-25 -17.5 -41 -17.5
c-7.33301 0 -14.666 1.83301 -21.999 5.5l-23.5 12c-8.33301 4.33301 -18 8.33301 -29 12s-23.833 5.5 -38.5 5.5c-31.333 0 -55.5 -8.66699 -72.5 -26s-25.5 -41.333 -25.5 -72c0 -32 9.33301 -56.5 28 -73.5s44 -25.5 76 -25.5c14.667 0 27.167 1.66699 37.5 5
s19.5 7 27.5 11l22 11c6.66699 3.33301 13.667 5 21 5c16 0 29.667 -5.83301 41 -17.5s17 -24.834 17 -39.501c0 -16.667 -8 -30.667 -24 -42z" />
    <glyph glyph-name="ordfeminine" unicode="&#xaa;" horiz-adv-x="488" 
d="M421 416c0 -14 -4.66797 -24.5 -14.001 -31.5s-19.666 -10.5 -30.999 -10.5c-10.667 0 -20.334 3 -29.001 9s-13.667 15.333 -15 28c-11.333 -12 -25.5 -21.167 -42.5 -27.5s-37.5 -9.5 -61.5 -9.5c-54 0 -96.5 15.5 -127.5 46.5s-46.5 72.167 -46.5 123.5
c0 25.333 4 48.333 12 69s19.5 38.5 34.5 53.5s33.333 26.667 55 35s45.834 12.5 72.501 12.5c45.333 0 80 -12.667 104 -38c1.33301 12.667 6.33301 22.167 15 28.5s18.334 9.5 29.001 9.5c11.333 0 21.666 -3.5 30.999 -10.5s14 -17.5 14 -31.5v-256zM237.999 630
c-30.667 0 -54.334 -7.83301 -71.001 -23.5s-25 -36.5 -25 -62.5c0 -26.667 8.33301 -47.667 25 -63s40.334 -23 71.001 -23c28 0 50.333 6.83301 67 20.5s25.667 34.167 27 61.5v8c-1.33301 26.667 -10.333 47 -27 61s-39 21 -67 21z" />
    <glyph glyph-name="guillemotleft" unicode="&#xab;" horiz-adv-x="619" 
d="M543 446l-153 -160.002l153 -160c10.667 -11.333 16 -23.666 16 -36.999c0 -14.667 -6 -27.5 -18 -38.5s-25.667 -16.5 -41 -16.5s-29 6.33301 -41 19l-189 197c-4.66699 4.66699 -8 10.167 -10 16.5s-3 12.833 -3 19.5c0 7.33301 1 14.166 3 20.499
s5.33301 11.833 10 16.5l189 197c6 6.66699 12.5 11.334 19.5 14.001s14.167 4 21.5 4c15.333 0 29 -5.5 41 -16.5s18 -23.833 18 -38.5c0 -13.333 -5.33301 -25.666 -16 -36.999zM316 445.998l-153 -160.002l153 -160c10.667 -11.333 16 -23.666 16 -36.999
c0 -14.667 -6 -27.5 -18 -38.5s-25.667 -16.5 -41 -16.5s-29 6.33301 -41 19l-189 197c-4.66699 4.66699 -8 10.167 -10 16.5s-3 12.833 -3 19.5c0 7.33301 1 14.166 3 20.499s5.33301 11.833 10 16.5l189 197c6 6.66699 12.5 11.334 19.5 14.001s14.167 4 21.5 4
c15.333 0 29 -5.5 41 -16.5s18 -23.833 18 -38.5c0 -13.333 -5.33301 -25.666 -16 -36.999z" />
    <glyph glyph-name="uni00AD" unicode="&#xad;" horiz-adv-x="450" 
d="M117 339h216c19.333 0 33.666 -5.5 42.999 -16.5s14 -23.167 14 -36.5s-4.66699 -25.5 -14 -36.5s-23.666 -16.5 -42.999 -16.5h-216c-19.333 0 -33.666 5.5 -42.999 16.5s-14 23.167 -14 36.5s4.66699 25.5 14 36.5s23.666 16.5 42.999 16.5z" />
    <glyph glyph-name="registered" unicode="&#xae;" horiz-adv-x="698" 
d="M40 501c0 44 7.5 84 22.5 120s36 66.833 63 92.5s59.5 45.667 97.5 60s80 21.5 126 21.5s88 -7.16699 126 -21.5s70.5 -34.333 97.5 -60s48 -56.5 63 -92.5s22.5 -76 22.5 -120c0 -43.333 -7.5 -83 -22.5 -119s-36 -67 -63 -93s-59.5 -46.167 -97.5 -60.5
s-80 -21.5 -126 -21.5s-88 7.16699 -126 21.5s-70.5 34.5 -97.5 60.5s-48 57 -63 93s-22.5 75.667 -22.5 119zM349 291h3.99414c32.667 0 62.5 5 89.5 15s49.833 24.167 68.5 42.5s33.167 40.333 43.5 66s15.5 54.5 15.5 86.5s-5.16699 61 -15.5 87s-25.166 48 -44.499 66
s-42.666 32 -69.999 42s-57.666 15 -90.999 15s-63.666 -5 -90.999 -15s-50.666 -24 -69.999 -42s-34.166 -40 -44.499 -66s-15.5 -55 -15.5 -87s5 -60.833 15 -86.5s24.5 -47.667 43.5 -66s41.833 -32.5 68.5 -42.5s56.667 -15 90 -15h4zM339.994 441l-47.001 0.00195312
v-66c0 -14 -4.5 -24.5 -13.5 -31.5s-19.167 -10.5 -30.5 -10.5s-21.5 3.5 -30.5 10.5s-13.5 17.5 -13.5 31.5v248c0 11.333 4.33301 21.166 13 29.499s19 12.5 31 12.5h102c22 0 42.333 -2 61 -6s35 -10.333 49 -19s24.833 -20 32.5 -34s11.5 -30.667 11.5 -50
c0 -22.667 -5.33301 -42.334 -16 -59.001s-25.667 -29.667 -45 -39l47 -46c8.66699 -9.33301 13 -19.333 13 -30c0 -11.333 -4.5 -21.333 -13.5 -30s-19.5 -13 -31.5 -13c-11.333 0 -21.666 4.66699 -30.999 14zM365.993 525.002c22.667 0 36.833 3.5 42.5 10.5
s8.5 13.833 8.5 20.5c0 6 -4 11.667 -12 17s-26 8 -54 8h-58v-56h73z" />
    <glyph glyph-name="macron" unicode="&#xaf;" horiz-adv-x="519" 
d="M390 772c19.333 0 33.833 -5.66699 43.5 -17s14.5 -24 14.5 -38c0 -13.333 -4.83301 -25.666 -14.5 -36.999s-24.167 -17 -43.5 -17h-262c-19.333 0 -33.666 5.66699 -42.999 17s-14 23.666 -14 36.999c0 14 4.66699 26.667 14 38s23.666 17 42.999 17h262z" />
    <glyph glyph-name="degree" unicode="&#xb0;" horiz-adv-x="467" 
d="M67 565c0 23.333 4.16895 44.667 12.502 64s19.833 36 34.5 50s32.167 24.833 52.5 32.5s42.833 11.5 67.5 11.5c24 0 46.167 -3.83301 66.5 -11.5s37.833 -18.5 52.5 -32.5s26.167 -30.667 34.5 -50s12.5 -40.666 12.5 -63.999c0 -22.667 -4 -43.667 -12 -63
s-19 -36 -33 -50s-31 -25 -51 -33s-42 -12 -66 -12h-4c-24.667 0 -47.334 3.83301 -68.001 11.5s-38.334 18.5 -53.001 32.5s-26 30.667 -34 50s-12 40.666 -12 63.999zM234.002 491.001c24.667 0 43.834 6.5 57.501 19.5s20.5 31.167 20.5 54.5s-6.83301 41.5 -20.5 54.5
s-32.834 19.5 -57.501 19.5c-25.333 0 -44.833 -6.5 -58.5 -19.5s-20.5 -31.167 -20.5 -54.5c0 -22.667 6.5 -40.5 19.5 -53.5s31.5 -19.833 55.5 -20.5h4z" />
    <glyph glyph-name="plusminus" unicode="&#xb1;" 
d="M233 189v64h-145c-19.333 0 -33.833 5.66699 -43.5 17s-14.5 23.666 -14.5 36.999c0 14 4.83301 26.667 14.5 38s24.167 17 43.5 17h145v152c0 18 5.83301 31.5 17.5 40.5s24.834 13.5 39.501 13.5c14 0 27 -4.5 39 -13.5s18 -22.5 18 -40.5v-152h145
c19.333 0 33.833 -5.66699 43.5 -17s14.5 -24 14.5 -38c0 -13.333 -4.83301 -25.666 -14.5 -36.999s-24.167 -17 -43.5 -17h-145v-64c0 -18 -6 -31.5 -18 -40.5s-25 -13.5 -39 -13.5c-14.667 0 -27.834 4.5 -39.501 13.5s-17.5 22.5 -17.5 40.5zM89 115h402
c19.333 0 33.666 -5.66699 42.999 -17s14 -24 14 -38c0 -13.333 -4.66699 -25.666 -14 -36.999s-23.666 -17 -42.999 -17h-402c-19.333 0 -33.666 5.66699 -42.999 17s-14 23.666 -14 36.999c0 14 4.66699 26.667 14 38s23.666 17 42.999 17z" />
    <glyph glyph-name="uni00B2" unicode="&#xb2;" horiz-adv-x="435" 
d="M95 373c-19.333 0 -33.666 3.66895 -42.999 11.002s-14 16.333 -14 27c0 8 2.66699 16.333 8 25s13 16.667 23 24l126 88l26 18c9.33301 6.66699 18.166 14 26.499 22s15.166 16.667 20.499 26s8 19.333 8 30c0 13.333 -5.16699 25.5 -15.5 36.5s-28.5 16.5 -54.5 16.5
c-24 0 -42.5 -5.5 -55.5 -16.5s-22.833 -25.167 -29.5 -42.5c-4 -10.667 -10 -18.334 -18 -23.001s-16.333 -7 -25 -7c-6.66699 0 -13 1.16699 -19 3.5s-11 5.83301 -15 10.5s-6.83301 10.334 -8.5 17.001s-1.16699 14 1.5 22c4.66699 16.667 12 32.167 22 46.5
s22.333 27 37 38s31.834 19.667 51.501 26s41.5 9.5 65.5 9.5c22.667 0 43.5 -3.16699 62.5 -9.5s35 -15.166 48 -26.499s23.167 -24.833 30.5 -40.5s11 -32.5 11 -50.5c0 -22 -3.5 -41.5 -10.5 -58.5s-16.667 -32.333 -29 -46s-26.833 -26.334 -43.5 -38.001l-53 -35.5
l-31 -19h149c14.667 0 25.667 -4.33301 33 -13s11 -18.334 11 -29.001s-3.66699 -20.334 -11 -29.001s-18.333 -13 -33 -13h-252z" />
    <glyph glyph-name="uni00B3" unicode="&#xb3;" horiz-adv-x="435" 
d="M121 506c16 -21.333 32.8359 -35.501 50.5029 -42.501s38.167 -10.5 61.5 -10.5c30.667 0 52.334 5.16699 65.001 15.5s19 20.833 19 31.5c0 7.33301 -1.33301 14 -4 20s-7.5 11 -14.5 15s-16.667 7.16699 -29 9.5s-28.166 3.5 -47.499 3.5h-8
c-15.333 0 -26.333 4 -33 12s-9.83398 16.667 -9.50098 26s3.83301 18 10.5 26s16.334 12 29.001 12h19c25.333 0 41.833 4.16699 49.5 12.5s11.5 16.833 11.5 25.5s-4.5 16.834 -13.5 24.501s-27.167 11.5 -54.5 11.5c-19.333 0 -36.333 -3.33301 -51 -10
s-28 -16.334 -40 -29.001c-10 -10 -20.667 -15 -32 -15s-21 3.33301 -29 10s-13 15.5 -15 26.5s1.66699 22.5 11 34.5c15.333 19.333 36.166 35.333 62.499 48s59.166 19 98.499 19c18 0 36 -2.16699 54 -6.5s34.167 -10.666 48.5 -18.999s26 -19 35 -32
s13.5 -27.833 13.5 -44.5c0 -19.333 -5.33301 -37 -16 -53s-23.667 -26.667 -39 -32c25.333 -6 45.166 -17.5 59.499 -34.5s21.5 -37.167 21.5 -60.5c0 -22 -4.5 -41.167 -13.5 -57.5s-21.333 -30 -37 -41s-33.834 -19.167 -54.501 -24.5s-43 -8 -67 -8
s-46.167 2.83301 -66.5 8.5s-38.333 13 -54 22s-28.834 19 -39.501 30s-18.334 21.5 -23.001 31.5c-6.66699 14.667 -8 27 -4 37s10.5 17.167 19.5 21.5s18.833 5.5 29.5 3.5s19.334 -7.66699 26.001 -17z" />
    <glyph glyph-name="acute" unicode="&#xb4;" horiz-adv-x="385" 
d="M186 843c6 9.33301 13 15.833 21 19.5s16.333 5.5 25 5.5c15.333 0 29.166 -5.16699 41.499 -15.5s18.5 -23.166 18.5 -38.499c0 -10.667 -3.33301 -20.667 -10 -30l-83 -118c-12 -16.667 -27.333 -25 -46 -25c-15.333 0 -29.166 5.16699 -41.499 15.5
s-18.5 23.166 -18.5 38.499c0 10.667 3.33301 20.667 10 30z" />
    <glyph glyph-name="periodcentered" unicode="&#xb7;" horiz-adv-x="300" 
d="M72 287c0 21.333 7.66895 38.833 23.002 52.5s33.666 20.5 54.999 20.5s39.666 -6.83301 54.999 -20.5s23 -31.167 23 -52.5s-7.5 -39.166 -22.5 -53.499s-33.5 -21.5 -55.5 -21.5s-40.5 7.16699 -55.5 21.5s-22.5 32.166 -22.5 53.499z" />
    <glyph glyph-name="cedilla" unicode="&#xb8;" horiz-adv-x="426" 
d="M228 21l0.00195312 -74.001c16 -1.33301 32 -4 48 -8s30.667 -9.66699 44 -17s24.166 -17.166 32.499 -29.499s12.5 -27.833 12.5 -46.5c0 -21.333 -4.66699 -39.166 -14 -53.499s-22.333 -25.833 -39 -34.5s-36.167 -14.834 -58.5 -18.501s-46.833 -5.5 -73.5 -5.5h-38
c-14 0 -27 1.33301 -39 4s-22 7.16699 -30 13.5s-12 15.833 -12 28.5c0 10.667 3.66699 20.334 11 29.001s18 13 32 13c21.333 0 40.833 -1.33301 58.5 -4s33.5 -4 47.5 -4c44 0 66 9.66699 66 29c0 4.66699 -1.83301 8.5 -5.5 11.5s-8.5 5.16699 -14.5 6.5
s-12.5 2.33301 -19.5 3s-13.833 1 -20.5 1s-12.834 -0.166992 -18.501 -0.5s-10.167 -0.5 -13.5 -0.5c-16 0 -27.333 4.16699 -34 12.5s-10 18.166 -10 29.499v115h88z" />
    <glyph glyph-name="uni00B9" unicode="&#xb9;" horiz-adv-x="435" 
d="M205 660l-82 -53c-8.66699 -5.33301 -17.167 -7.83301 -25.5 -7.5s-15.833 2.5 -22.5 6.5s-12 9.5 -16 16.5s-6 14.167 -6 21.5c0 13.333 6.66699 24.333 20 33l151 97c10.667 6.66699 21 10 31 10c11.333 0 20.5 -4 27.5 -12s10.5 -19 10.5 -33v-328
c0 -14 -4.5 -24.5 -13.5 -31.5s-19.167 -10.5 -30.5 -10.5s-21.5 3.5 -30.5 10.5s-13.5 17.5 -13.5 31.5v249z" />
    <glyph glyph-name="ordmasculine" unicode="&#xba;" horiz-adv-x="473" 
d="M53 544c0 25.333 4.5 48.333 13.5 69s21.667 38.5 38 53.5s35.833 26.667 58.5 35s47.334 12.5 74.001 12.5s51.167 -4.16699 73.5 -12.5s41.666 -20 57.999 -35s29 -32.833 38 -53.5s13.5 -43.667 13.5 -69s-4.5 -48.5 -13.5 -69.5s-21.667 -39 -38 -54
s-35.666 -26.5 -57.999 -34.5s-46.833 -12 -73.5 -12s-51.334 4 -74.001 12s-42.167 19.5 -58.5 34.5s-29 33 -38 54s-13.5 44.167 -13.5 69.5zM141 544c0 -26.667 8.33301 -47.667 25 -63s40.334 -23 71.001 -23c30 0 53.333 7.66699 70 23s25 36.333 25 63
c0 26 -8.33301 46.833 -25 62.5s-40 23.5 -70 23.5c-30.667 0 -54.334 -7.83301 -71.001 -23.5s-25 -36.5 -25 -62.5z" />
    <glyph glyph-name="guillemotright" unicode="&#xbb;" horiz-adv-x="619" 
d="M76 126l154 160l-154 160c-10.667 11.333 -16 23.333 -16 36c0 15.333 6 28.5 18 39.5s25.667 16.5 41 16.5c7.33301 0 14.5 -1.33301 21.5 -4s13.833 -7.33398 20.5 -14.001l188 -197c8.66699 -9.33301 13 -21.666 13 -36.999c0 -6.66699 -1 -13.167 -3 -19.5
s-5.33301 -11.833 -10 -16.5l-188 -197c-12.667 -12.667 -26.667 -19 -42 -19s-29 5.5 -41 16.5s-18 24.167 -18 39.5c0 12.667 5.33301 24.667 16 36zM303 126l154 160l-154 160c-10.667 11.333 -16 23.333 -16 36c0 15.333 6 28.5 18 39.5s25.667 16.5 41 16.5
c7.33301 0 14.5 -1.33301 21.5 -4s13.833 -7.33398 20.5 -14.001l188 -197c8.66699 -9.33301 13 -21.666 13 -36.999c0 -6.66699 -1 -13.167 -3 -19.5s-5.33301 -11.833 -10 -16.5l-188 -197c-12.667 -12.667 -26.667 -19 -42 -19s-29 5.5 -41 16.5s-18 24.167 -18 39.5
c0 12.667 5.33301 24.667 16 36z" />
    <glyph glyph-name="onequarter" unicode="&#xbc;" horiz-adv-x="1017" 
d="M212 605l-82 -53c-8.66699 -5.33301 -17.167 -7.83301 -25.5 -7.5s-15.833 2.5 -22.5 6.5s-12 9.5 -16 16.5s-6 14.167 -6 21.5c0 13.333 6.66699 24.333 20 33l151 97c10.667 6.66699 21 10 31 10c11.333 0 20.5 -4 27.5 -12s10.5 -19 10.5 -33v-328
c0 -14 -4.5 -24.5 -13.5 -31.5s-19.167 -10.5 -30.5 -10.5s-21.5 3.5 -30.5 10.5s-13.5 17.5 -13.5 31.5v249zM241 19c-9.33301 -10 -20 -14.999 -32 -14.999s-22.667 4.33301 -32 13s-14 18.667 -14 30c0 9.33301 4 18.666 12 27.999l571 618c10 10 20.667 15 32 15
c12 0 22.667 -4.33301 32 -13s14 -18.667 14 -30c0 -10 -4 -19.333 -12 -28zM796 123.001l-186.001 0.00195312c-16 0 -28.333 3.5 -37 10.5s-13 15.5 -13 25.5c0 12 5.66699 23.667 17 35l192 193c7.33301 7.33301 16 13.5 26 18.5s19.667 7.5 29 7.5h10
c34 0 51 -17.333 51 -52v-154h27c14.667 0 25.667 -4.33301 33 -13s11 -18.334 11 -29.001s-3.66699 -20.334 -11 -29.001s-18.333 -13 -33 -13h-27v-84c0 -14.667 -4.66699 -25.5 -14 -32.5s-19.666 -10.5 -30.999 -10.5s-21.5 3.5 -30.5 10.5s-13.5 17.833 -13.5 32.5v84z
M795.999 301.003h-1l-99 -94h100v94z" />
    <glyph glyph-name="onehalf" unicode="&#xbd;" horiz-adv-x="1038" 
d="M212 605l-82 -53c-8.66699 -5.33301 -17.167 -7.83301 -25.5 -7.5s-15.833 2.5 -22.5 6.5s-12 9.5 -16 16.5s-6 14.167 -6 21.5c0 13.333 6.66699 24.333 20 33l151 97c10.667 6.66699 21 10 31 10c11.333 0 20.5 -4 27.5 -12s10.5 -19 10.5 -33v-328
c0 -14 -4.5 -24.5 -13.5 -31.5s-19.167 -10.5 -30.5 -10.5s-21.5 3.5 -30.5 10.5s-13.5 17.5 -13.5 31.5v249zM241 19c-9.33301 -10 -20 -14.999 -32 -14.999s-22.667 4.33301 -32 13s-14 18.667 -14 30c0 9.33301 4 18.666 12 27.999l571 618c10 10 20.667 15 32 15
c12 0 22.667 -4.33301 32 -13s14 -18.667 14 -30c0 -10 -4 -19.333 -12 -28zM692 3.00098c-19.333 0 -33.666 3.66895 -42.999 11.002s-14 16.333 -14 27c0 8 2.66699 16.333 8 25s13 16.667 23 24l126 88l26 18c9.33301 6.66699 18.166 14 26.499 22
s15.166 16.667 20.499 26s8 19.333 8 30c0 13.333 -5.16699 25.5 -15.5 36.5s-28.5 16.5 -54.5 16.5c-24 0 -42.5 -5.5 -55.5 -16.5s-22.833 -25.167 -29.5 -42.5c-4 -10.667 -10 -18.334 -18 -23.001s-16.333 -7 -25 -7c-6.66699 0 -13 1.16699 -19 3.5
s-11 5.83301 -15 10.5s-6.83301 10.334 -8.5 17.001s-1.16699 14 1.5 22c4.66699 16.667 12 32.167 22 46.5s22.333 27 37 38s31.834 19.667 51.501 26s41.5 9.5 65.5 9.5c22.667 0 43.5 -3.16699 62.5 -9.5s35 -15.166 48 -26.499s23.167 -24.833 30.5 -40.5
s11 -32.5 11 -50.5c0 -22 -3.5 -41.5 -10.5 -58.5s-16.667 -32.333 -29 -46s-26.833 -26.334 -43.5 -38.001l-53 -35.5l-31 -19h149c14.667 0 25.667 -4.33301 33 -13s11 -18.334 11 -29.001s-3.66699 -20.334 -11 -29.001s-18.333 -13 -33 -13h-252z" />
    <glyph glyph-name="threequarters" unicode="&#xbe;" horiz-adv-x="1039" 
d="M141 451c16 -21.333 32.8359 -35.501 50.5029 -42.501s38.167 -10.5 61.5 -10.5c30.667 0 52.334 5.16699 65.001 15.5s19 20.833 19 31.5c0 7.33301 -1.33301 14 -4 20s-7.5 11 -14.5 15s-16.667 7.16699 -29 9.5s-28.166 3.5 -47.499 3.5h-8
c-15.333 0 -26.333 4 -33 12s-9.83398 16.667 -9.50098 26s3.83301 18 10.5 26s16.334 12 29.001 12h19c25.333 0 41.833 4.16699 49.5 12.5s11.5 16.833 11.5 25.5s-4.5 16.834 -13.5 24.501s-27.167 11.5 -54.5 11.5c-19.333 0 -36.333 -3.33301 -51 -10
s-28 -16.334 -40 -29.001c-10 -10 -20.667 -15 -32 -15s-21 3.33301 -29 10s-13 15.5 -15 26.5s1.66699 22.5 11 34.5c15.333 19.333 36.166 35.333 62.499 48s59.166 19 98.499 19c18 0 36 -2.16699 54 -6.5s34.167 -10.666 48.5 -18.999s26 -19 35 -32
s13.5 -27.833 13.5 -44.5c0 -19.333 -5.33301 -37 -16 -53s-23.667 -26.667 -39 -32c25.333 -6 45.166 -17.5 59.499 -34.5s21.5 -37.167 21.5 -60.5c0 -22 -4.5 -41.167 -13.5 -57.5s-21.333 -30 -37 -41s-33.834 -19.167 -54.501 -24.5s-43 -8 -67 -8
s-46.167 2.83301 -66.5 8.5s-38.333 13 -54 22s-28.834 19 -39.501 30s-18.334 21.5 -23.001 31.5c-6.66699 14.667 -8 27 -4 37s10.5 17.167 19.5 21.5s18.833 5.5 29.5 3.5s19.334 -7.66699 26.001 -17zM282.003 18.999c-9.33301 -10 -20 -14.999 -32 -14.999
s-22.667 4.33301 -32 13s-14 18.667 -14 30c0 9.33301 4 18.666 12 27.999l571 618c10 10 20.667 15 32 15c12 0 22.667 -4.33301 32 -13s14 -18.667 14 -30c0 -10 -4 -19.333 -12 -28zM819.003 123l-186.001 0.00195312c-16 0 -28.333 3.5 -37 10.5s-13 15.5 -13 25.5
c0 12 5.66699 23.667 17 35l192 193c7.33301 7.33301 16 13.5 26 18.5s19.667 7.5 29 7.5h10c34 0 51 -17.333 51 -52v-154h27c14.667 0 25.667 -4.33301 33 -13s11 -18.334 11 -29.001s-3.66699 -20.334 -11 -29.001s-18.333 -13 -33 -13h-27v-84
c0 -14.667 -4.66699 -25.5 -14 -32.5s-19.666 -10.5 -30.999 -10.5s-21.5 3.5 -30.5 10.5s-13.5 17.833 -13.5 32.5v84zM819.002 301.002h-1l-99 -94h100v94z" />
    <glyph glyph-name="questiondown" unicode="&#xbf;" 
d="M514.005 -46.9307c-9.33203 -25.3301 -22.6641 -48.3262 -39.9951 -68.9902s-37.3281 -38.1621 -59.9922 -52.4941c-22.6641 -14.3311 -46.9941 -25.4961 -72.9912 -33.4951s-52.3271 -11.998 -78.9902 -11.998c-38.6621 0 -72.9912 5.83301 -102.987 17.498
c-29.9971 11.665 -55.3271 26.9961 -75.9912 45.9932s-36.4951 40.9941 -47.4941 65.9912s-16.498 50.8271 -16.498 77.4902s4 50.4932 11.999 71.4902s18.1641 39.8281 30.4961 56.4932s25.9971 31.6631 40.9951 44.9941l41.4951 35.9961l36.9951 30.9961
c9.99902 8.66504 20.3311 18.6641 30.9961 29.9961s15.998 23.9971 15.998 37.9961c0 17.9971 5.99902 31.4951 17.998 40.4941s24.9971 13.498 38.9951 13.498c14.665 0 27.8301 -4.49902 39.4951 -13.498s17.498 -22.4971 17.498 -40.4941
c0 -23.3311 -5.16602 -44.6621 -15.498 -63.9932s-23.1641 -37.3291 -38.4951 -53.9941c-15.332 -16.6641 -32.1631 -32.4951 -50.4941 -47.4941c-18.3311 -14.998 -35.1621 -29.9961 -50.4932 -44.9941s-28.1631 -30.3291 -38.4951 -45.9941
s-15.498 -32.8301 -15.498 -51.4951c0 -10.665 2.33301 -21.8301 6.99902 -33.4951s12.165 -22.3301 22.4971 -31.9951s23.6641 -17.4971 39.9951 -23.4961s36.1621 -8.99902 59.4932 -8.99902c15.998 0 31.4961 2.33301 46.4941 7
c14.998 4.66602 28.8301 11.165 41.4951 19.4971c12.665 8.33301 23.8301 18.165 33.4951 29.4961c9.66504 11.332 16.8311 23.6641 21.4971 36.9961c4.66602 13.3311 11.998 22.8301 21.9971 28.4961s20.3311 8.49902 30.9961 8.49902
c15.332 0 29.1641 -4.83301 41.4951 -14.498c12.332 -9.66504 18.498 -22.4971 18.498 -38.4951c0 -6.66602 -1.33301 -12.999 -4 -18.998zM362.023 460.009c0 -21.3311 -7.66602 -38.8291 -22.9971 -52.4941s-33.6621 -20.4971 -54.9932 -20.4971
s-39.6621 6.83203 -54.9932 20.4971s-22.9971 31.1631 -22.9971 52.4941s7.49902 39.3291 22.4971 53.9941s33.4961 21.9971 55.4932 21.9971s40.4951 -7.33203 55.4932 -21.9971s22.4971 -32.6631 22.4971 -53.9941z" />
    <glyph glyph-name="Agrave" unicode="&#xc0;" horiz-adv-x="676" 
d="M485 174l-294.003 0.000976562l-60 -148c-5.33301 -12.667 -12.666 -21.667 -21.999 -27s-19.333 -8 -30 -8c-14.667 0 -28.167 4.83301 -40.5 14.5s-18.5 22.5 -18.5 38.5c0 7.33301 1.33301 14.666 4 21.999l262 636c12 28.667 29.333 43 52 43
c10.667 0 20.834 -3.66699 30.501 -11s17.5 -18.333 23.5 -33l260 -636c2.66699 -7.33301 4 -14.666 4 -21.999c0 -15.333 -6 -27.833 -18 -37.5s-25.667 -14.5 -41 -14.5c-10.667 0 -20.667 2.66699 -30 8s-16.666 14.666 -21.999 27.999zM235.997 282.001h205l-102 252z
M376.997 875.001c6.66699 -10.667 10.001 -21 10.001 -31c0 -15.333 -6 -28.166 -18 -38.499s-25.667 -15.5 -41 -15.5c-8.66699 0 -17 1.83301 -25 5.5s-15 10.167 -21 19.5l-83 118c-7.33301 10.667 -11 21 -11 31c0 15.333 6.16699 28.166 18.5 38.499
s26.166 15.5 41.499 15.5c18.667 0 34 -8.33301 46 -25z" />
    <glyph glyph-name="Aacute" unicode="&#xc1;" horiz-adv-x="676" 
d="M485 174l-294.003 0.000976562l-60 -148c-5.33301 -12.667 -12.666 -21.667 -21.999 -27s-19.333 -8 -30 -8c-14.667 0 -28.167 4.83301 -40.5 14.5s-18.5 22.5 -18.5 38.5c0 7.33301 1.33301 14.666 4 21.999l262 636c12 28.667 29.333 43 52 43
c10.667 0 20.834 -3.66699 30.501 -11s17.5 -18.333 23.5 -33l260 -636c2.66699 -7.33301 4 -14.666 4 -21.999c0 -15.333 -6 -27.833 -18 -37.5s-25.667 -14.5 -41 -14.5c-10.667 0 -20.667 2.66699 -30 8s-16.666 14.666 -21.999 27.999zM235.997 282.001h205l-102 252z
M392.997 993.001c6 9.33301 13 15.833 21 19.5s16.333 5.5 25 5.5c15.333 0 29.166 -5.16699 41.499 -15.5s18.5 -23.166 18.5 -38.499c0 -10.667 -3.33301 -20.667 -10 -30l-83 -118c-12 -16.667 -27.333 -25 -46 -25c-15.333 0 -29.166 5.16699 -41.499 15.5
s-18.5 23.166 -18.5 38.499c0 10.667 3.33301 20.667 10 30z" />
    <glyph glyph-name="Acircumflex" unicode="&#xc2;" horiz-adv-x="676" 
d="M485 174l-294.003 0.000976562l-60 -148c-5.33301 -12.667 -12.666 -21.667 -21.999 -27s-19.333 -8 -30 -8c-14.667 0 -28.167 4.83301 -40.5 14.5s-18.5 22.5 -18.5 38.5c0 7.33301 1.33301 14.666 4 21.999l262 636c12 28.667 29.333 43 52 43
c10.667 0 20.834 -3.66699 30.501 -11s17.5 -18.333 23.5 -33l260 -636c2.66699 -7.33301 4 -14.666 4 -21.999c0 -15.333 -6 -27.833 -18 -37.5s-25.667 -14.5 -41 -14.5c-10.667 0 -20.667 2.66699 -30 8s-16.666 14.666 -21.999 27.999zM235.997 282.001h205l-102 252z
M337.997 871.001l-97 -78c-13.333 -10 -25.666 -15 -36.999 -15c-15.333 0 -28.666 5.66699 -39.999 17s-17 24.333 -17 39c0 16 7 29.667 21 41l133 109c9.33301 7.33301 21.666 11 36.999 11c14 0 26.333 -3.66699 37 -11l134 -109c7.33301 -6 12.666 -12.5 15.999 -19.5
s5 -14.167 5 -21.5c0 -14.667 -5.83301 -27.667 -17.5 -39s-25.167 -17 -40.5 -17c-12.667 0 -25 5 -37 15z" />
    <glyph glyph-name="Atilde" unicode="&#xc3;" horiz-adv-x="676" 
d="M485 174l-294.003 0.000976562l-60 -148c-5.33301 -12.667 -12.666 -21.667 -21.999 -27s-19.333 -8 -30 -8c-14.667 0 -28.167 4.83301 -40.5 14.5s-18.5 22.5 -18.5 38.5c0 7.33301 1.33301 14.666 4 21.999l262 636c12 28.667 29.333 43 52 43
c10.667 0 20.834 -3.66699 30.501 -11s17.5 -18.333 23.5 -33l260 -636c2.66699 -7.33301 4 -14.666 4 -21.999c0 -15.333 -6 -27.833 -18 -37.5s-25.667 -14.5 -41 -14.5c-10.667 0 -20.667 2.66699 -30 8s-16.666 14.666 -21.999 27.999zM235.997 282.001h205l-102 252z
M174.997 911.001c20 17.333 38.8359 29.3311 56.5029 35.998s34.167 10 49.5 10c14 0 26.833 -2.33301 38.5 -7s22.5 -10 32.5 -16l26 -16c7.33301 -4.66699 13.333 -7 18 -7s9.5 1.5 14.5 4.5s10.5 6.5 16.5 10.5s12 7.5 18 10.5s12.333 4.5 19 4.5
c15.333 0 28.666 -5.5 39.999 -16.5s17 -23.833 17 -38.5c0 -11.333 -4.33301 -22.166 -13 -32.499s-19.334 -19.333 -32.001 -27s-26 -13.667 -40 -18s-26.333 -6.5 -37 -6.5c-10 0 -20.167 2.33301 -30.5 7s-20.5 9.83398 -30.5 15.501s-20 10.834 -30 15.501
s-19.333 7 -28 7c-4 0 -8.5 -1.66699 -13.5 -5l-16 -11c-5.66699 -4 -11.834 -7.66699 -18.501 -11s-13.334 -5 -20.001 -5c-15.333 0 -28.666 5.66699 -39.999 17s-17 24.333 -17 39c0 15.333 6.66699 28.666 20 39.999z" />
    <glyph glyph-name="Adieresis" unicode="&#xc4;" horiz-adv-x="676" 
d="M485 174l-294.003 0.000976562l-60 -148c-5.33301 -12.667 -12.666 -21.667 -21.999 -27s-19.333 -8 -30 -8c-14.667 0 -28.167 4.83301 -40.5 14.5s-18.5 22.5 -18.5 38.5c0 7.33301 1.33301 14.666 4 21.999l262 636c12 28.667 29.333 43 52 43
c10.667 0 20.834 -3.66699 30.501 -11s17.5 -18.333 23.5 -33l260 -636c2.66699 -7.33301 4 -14.666 4 -21.999c0 -15.333 -6 -27.833 -18 -37.5s-25.667 -14.5 -41 -14.5c-10.667 0 -20.667 2.66699 -30 8s-16.666 14.666 -21.999 27.999zM235.997 282.001h205l-102 252z
M484.997 865.001c0 -18.667 -6 -32.5 -18 -41.5s-25 -13.5 -39 -13.5c-14.667 0 -27.834 4.5 -39.501 13.5s-17.5 22.833 -17.5 41.5v14c0 18 5.83301 31.5 17.5 40.5s24.834 13.5 39.501 13.5c14 0 27 -4.5 39 -13.5s18 -22.5 18 -40.5v-14zM300.997 865.001
c0 -18.667 -6 -32.5 -18 -41.5s-25 -13.5 -39 -13.5c-14.667 0 -27.834 4.5 -39.501 13.5s-17.5 22.833 -17.5 41.5v14c0 18 5.83301 31.5 17.5 40.5s24.834 13.5 39.501 13.5c14 0 27 -4.5 39 -13.5s18 -22.5 18 -40.5v-14z" />
    <glyph glyph-name="Aring" unicode="&#xc5;" horiz-adv-x="676" 
d="M485 174l-294.003 0.000976562l-60 -148c-5.33301 -12.667 -12.666 -21.667 -21.999 -27s-19.333 -8 -30 -8c-14.667 0 -28.167 4.83301 -40.5 14.5s-18.5 22.5 -18.5 38.5c0 7.33301 1.33301 14.666 4 21.999l262 636c12 28.667 29.333 43 52 43
c10.667 0 20.834 -3.66699 30.501 -11s17.5 -18.333 23.5 -33l260 -636c2.66699 -7.33301 4 -14.666 4 -21.999c0 -15.333 -6 -27.833 -18 -37.5s-25.667 -14.5 -41 -14.5c-10.667 0 -20.667 2.66699 -30 8s-16.666 14.666 -21.999 27.999zM235.997 282.001h205l-102 252z
M229.997 885.001c0 29.333 10.167 53.332 30.5 71.999s45.833 28 76.5 28c31.333 0 57 -9.33301 77 -28s30 -42.667 30 -72s-9.5 -53.333 -28.5 -72s-43.5 -28.667 -73.5 -30h-4c-32 0 -58 9.33301 -78 28s-30 43.334 -30 74.001zM337.997 867
c5.33301 0 9.49902 1.16797 12.499 3.50098s4.5 7.16602 4.5 14.499c0 5.33301 -1.16699 9.33301 -3.5 12s-7.16602 4 -14.499 4c-12 0 -18 -5.33301 -18 -16c0 -11.333 4.66699 -17.333 14 -18h5z" />
    <glyph glyph-name="AE" unicode="&#xc6;" horiz-adv-x="890" 
d="M525 -1c-15.333 0 -28.665 5.66602 -39.998 16.999s-17 24.333 -17 39v148h-210l-133 -188c-12 -16.667 -27.333 -25 -46 -25c-15.333 0 -29 5.16699 -41 15.5s-18 23.166 -18 38.499c0 11.333 3.66699 22 11 32l445 627c5.33301 8 12 13.833 20 17.5
s16 5.83398 24 6.50098h265c19.333 0 33.666 -5.66699 42.999 -17s14 -23.666 14 -36.999c0 -14 -4.83301 -26.667 -14.5 -38s-23.834 -17 -42.501 -17h-203v-168h180c19.333 0 33.666 -5.83301 42.999 -17.5s14 -24.167 14 -37.5s-4.66699 -25.5 -14 -36.5
s-23.666 -16.5 -42.999 -16.5h-180v-233h210c19.333 0 33.833 -5.83301 43.5 -17.5s14.5 -24.167 14.5 -37.5c0 -14 -4.83301 -26.667 -14.5 -38s-24.167 -17 -43.5 -17h-267zM468.001 311.999v185l-132 -185h132z" />
    <glyph glyph-name="Ccedilla" unicode="&#xc7;" horiz-adv-x="703" 
d="M652 96c-30 -32 -64.502 -56.168 -103.502 -72.501s-79.833 -26.5 -122.5 -30.5v-46c16 -1.33301 32 -4 48 -8s30.667 -9.66699 44 -17s24.166 -17.166 32.499 -29.499s12.5 -27.833 12.5 -46.5c0 -21.333 -4.66699 -39.166 -14 -53.499s-22.333 -25.833 -39 -34.5
s-36.167 -14.834 -58.5 -18.501s-46.833 -5.5 -73.5 -5.5h-38c-14 0 -27 1.33301 -39 4s-22 7.16699 -30 13.5s-12 15.833 -12 28.5c0 10.667 3.66699 20.334 11 29.001s18 13 32 13c21.333 0 40.833 -1.33301 58.5 -4s33.5 -4 47.5 -4c44 0 66 9.66699 66 29
c0 4.66699 -1.83301 8.5 -5.5 11.5s-8.5 5.16699 -14.5 6.5s-12.5 2.33301 -19.5 3s-13.833 1 -20.5 1s-12.834 -0.166992 -18.501 -0.5s-10.167 -0.5 -13.5 -0.5c-16 0 -27.333 4.16699 -34 12.5s-10 18.166 -10 29.499v88c-44.667 5.33301 -85 18.666 -121 39.999
s-66.5 48.5 -91.5 81.5s-44.167 70.667 -57.5 113s-20 87.166 -20 134.499c0 52 8 100.667 24 146s38.833 84.833 68.5 118.5s65.667 60.167 108 79.5s89.833 29 142.5 29c56.667 0 107.334 -10.167 152.001 -30.5s83 -48.166 115 -83.499c10 -12 15 -24 15 -36
c0 -14.667 -6.16699 -27.5 -18.5 -38.5s-26.166 -16.5 -41.499 -16.5c-7.33301 0 -14.666 1.33301 -21.999 4s-14 7.66699 -20 15c-22 24 -47.667 42.833 -77 56.5s-63.666 20.5 -102.999 20.5c-32.667 0 -63 -6 -91 -18s-52.167 -29.333 -72.5 -52
s-36.333 -50.334 -48 -83.001s-17.5 -69.667 -17.5 -111s5.83301 -78.333 17.5 -111s27.5 -60.167 47.5 -82.5s43.333 -39.5 70 -51.5s55 -18 85 -18c39.333 0 74.5 5.66699 105.5 17s56.833 28.333 77.5 51c12 12.667 26 19 42 19c15.333 0 29 -5.5 41 -16.5
s18 -24.167 18 -39.5c0 -5.33301 -1 -11.166 -3 -17.499s-5.66699 -12.166 -11 -17.499z" />
    <glyph glyph-name="Egrave" unicode="&#xc8;" horiz-adv-x="504" 
d="M138 -1c-15.333 0 -28.6641 5.66602 -39.9971 16.999s-17 24.333 -17 39v618c0 14 5.66699 26.5 17 37.5s24.666 16.5 39.999 16.5h260c19.333 0 33.666 -5.66699 42.999 -17s14 -23.666 14 -36.999c0 -14 -4.83301 -26.667 -14.5 -38s-23.834 -17 -42.501 -17h-203v-168
h180c19.333 0 33.666 -5.83301 42.999 -17.5s14 -24.167 14 -37.5s-4.66699 -25.5 -14 -36.5s-23.666 -16.5 -42.999 -16.5h-180v-233h210c19.333 0 33.833 -5.83301 43.5 -17.5s14.5 -24.167 14.5 -37.5c0 -14 -4.83301 -26.667 -14.5 -38s-24.167 -17 -43.5 -17h-267z
M301.002 874.999c6.66699 -10.667 10.001 -21 10.001 -31c0 -15.333 -6 -28.166 -18 -38.499s-25.667 -15.5 -41 -15.5c-8.66699 0 -17 1.83301 -25 5.5s-15 10.167 -21 19.5l-83 118c-7.33301 10.667 -11 21 -11 31c0 15.333 6.16699 28.166 18.5 38.499
s26.166 15.5 41.499 15.5c18.667 0 34 -8.33301 46 -25z" />
    <glyph glyph-name="Eacute" unicode="&#xc9;" horiz-adv-x="504" 
d="M138 -1c-15.333 0 -28.6641 5.66602 -39.9971 16.999s-17 24.333 -17 39v618c0 14 5.66699 26.5 17 37.5s24.666 16.5 39.999 16.5h260c19.333 0 33.666 -5.66699 42.999 -17s14 -23.666 14 -36.999c0 -14 -4.83301 -26.667 -14.5 -38s-23.834 -17 -42.501 -17h-203v-168
h180c19.333 0 33.666 -5.83301 42.999 -17.5s14 -24.167 14 -37.5s-4.66699 -25.5 -14 -36.5s-23.666 -16.5 -42.999 -16.5h-180v-233h210c19.333 0 33.833 -5.83301 43.5 -17.5s14.5 -24.167 14.5 -37.5c0 -14 -4.83301 -26.667 -14.5 -38s-24.167 -17 -43.5 -17h-267z
M317.002 992.999c6 9.33301 13 15.833 21 19.5s16.333 5.5 25 5.5c15.333 0 29.166 -5.16699 41.499 -15.5s18.5 -23.166 18.5 -38.499c0 -10.667 -3.33301 -20.667 -10 -30l-83 -118c-12 -16.667 -27.333 -25 -46 -25c-15.333 0 -29.166 5.16699 -41.499 15.5
s-18.5 23.166 -18.5 38.499c0 10.667 3.33301 20.667 10 30z" />
    <glyph glyph-name="Ecircumflex" unicode="&#xca;" horiz-adv-x="504" 
d="M138 -1c-15.333 0 -28.6641 5.66602 -39.9971 16.999s-17 24.333 -17 39v618c0 14 5.66699 26.5 17 37.5s24.666 16.5 39.999 16.5h260c19.333 0 33.666 -5.66699 42.999 -17s14 -23.666 14 -36.999c0 -14 -4.83301 -26.667 -14.5 -38s-23.834 -17 -42.501 -17h-203v-168
h180c19.333 0 33.666 -5.83301 42.999 -17.5s14 -24.167 14 -37.5s-4.66699 -25.5 -14 -36.5s-23.666 -16.5 -42.999 -16.5h-180v-233h210c19.333 0 33.833 -5.83301 43.5 -17.5s14.5 -24.167 14.5 -37.5c0 -14 -4.83301 -26.667 -14.5 -38s-24.167 -17 -43.5 -17h-267z
M263.002 870.999l-97 -78c-13.333 -10 -25.666 -15 -36.999 -15c-15.333 0 -28.666 5.66699 -39.999 17s-17 24.333 -17 39c0 16 7 29.667 21 41l133 109c9.33301 7.33301 21.666 11 36.999 11c14 0 26.333 -3.66699 37 -11l134 -109c7.33301 -6 12.666 -12.5 15.999 -19.5
s5 -14.167 5 -21.5c0 -14.667 -5.83301 -27.667 -17.5 -39s-25.167 -17 -40.5 -17c-12.667 0 -25 5 -37 15z" />
    <glyph glyph-name="Edieresis" unicode="&#xcb;" horiz-adv-x="504" 
d="M138 -1c-15.333 0 -28.6641 5.66602 -39.9971 16.999s-17 24.333 -17 39v618c0 14 5.66699 26.5 17 37.5s24.666 16.5 39.999 16.5h260c19.333 0 33.666 -5.66699 42.999 -17s14 -23.666 14 -36.999c0 -14 -4.83301 -26.667 -14.5 -38s-23.834 -17 -42.501 -17h-203v-168
h180c19.333 0 33.666 -5.83301 42.999 -17.5s14 -24.167 14 -37.5s-4.66699 -25.5 -14 -36.5s-23.666 -16.5 -42.999 -16.5h-180v-233h210c19.333 0 33.833 -5.83301 43.5 -17.5s14.5 -24.167 14.5 -37.5c0 -14 -4.83301 -26.667 -14.5 -38s-24.167 -17 -43.5 -17h-267z
M409.002 864.999c0 -18.667 -6 -32.5 -18 -41.5s-25 -13.5 -39 -13.5c-14.667 0 -27.834 4.5 -39.501 13.5s-17.5 22.833 -17.5 41.5v14c0 18 5.83301 31.5 17.5 40.5s24.834 13.5 39.501 13.5c14 0 27 -4.5 39 -13.5s18 -22.5 18 -40.5v-14zM225.002 864.999
c0 -18.667 -6 -32.5 -18 -41.5s-25 -13.5 -39 -13.5c-14.667 0 -27.834 4.5 -39.501 13.5s-17.5 22.833 -17.5 41.5v14c0 18 5.83301 31.5 17.5 40.5s24.834 13.5 39.501 13.5c14 0 27 -4.5 39 -13.5s18 -22.5 18 -40.5v-14z" />
    <glyph glyph-name="Igrave" unicode="&#xcc;" horiz-adv-x="284" 
d="M199 46c0 -18.667 -6 -32.5 -18 -41.5s-25 -13.5 -39 -13.5c-14.667 0 -27.834 4.5 -39.501 13.5s-17.5 22.833 -17.5 41.5v636c0 18 5.83301 31.5 17.5 40.5s24.834 13.5 39.501 13.5c14 0 27 -4.5 39 -13.5s18 -22.5 18 -40.5v-636zM182 875
c6.66699 -10.667 10.001 -21 10.001 -31c0 -15.333 -6 -28.166 -18 -38.499s-25.667 -15.5 -41 -15.5c-8.66699 0 -17 1.83301 -25 5.5s-15 10.167 -21 19.5l-83 118c-7.33301 10.667 -11 21 -11 31c0 15.333 6.16699 28.166 18.5 38.499s26.166 15.5 41.499 15.5
c18.667 0 34 -8.33301 46 -25z" />
    <glyph glyph-name="Iacute" unicode="&#xcd;" horiz-adv-x="284" 
d="M199 46c0 -18.667 -6 -32.5 -18 -41.5s-25 -13.5 -39 -13.5c-14.667 0 -27.834 4.5 -39.501 13.5s-17.5 22.833 -17.5 41.5v636c0 18 5.83301 31.5 17.5 40.5s24.834 13.5 39.501 13.5c14 0 27 -4.5 39 -13.5s18 -22.5 18 -40.5v-636zM197 993
c6 9.33301 13 15.833 21 19.5s16.333 5.5 25 5.5c15.333 0 29.166 -5.16699 41.499 -15.5s18.5 -23.166 18.5 -38.499c0 -10.667 -3.33301 -20.667 -10 -30l-83 -118c-12 -16.667 -27.333 -25 -46 -25c-15.333 0 -29.166 5.16699 -41.499 15.5s-18.5 23.166 -18.5 38.499
c0 10.667 3.33301 20.667 10 30z" />
    <glyph glyph-name="Icircumflex" unicode="&#xce;" horiz-adv-x="284" 
d="M199 46c0 -18.667 -6 -32.5 -18 -41.5s-25 -13.5 -39 -13.5c-14.667 0 -27.834 4.5 -39.501 13.5s-17.5 22.833 -17.5 41.5v636c0 18 5.83301 31.5 17.5 40.5s24.834 13.5 39.501 13.5c14 0 27 -4.5 39 -13.5s18 -22.5 18 -40.5v-636zM143 871l-97 -78
c-13.333 -10 -25.666 -15 -36.999 -15c-15.333 0 -28.666 5.66699 -39.999 17s-17 24.333 -17 39c0 16 7 29.667 21 41l133 109c9.33301 7.33301 21.666 11 36.999 11c14 0 26.333 -3.66699 37 -11l134 -109c7.33301 -6 12.666 -12.5 15.999 -19.5s5 -14.167 5 -21.5
c0 -14.667 -5.83301 -27.667 -17.5 -39s-25.167 -17 -40.5 -17c-12.667 0 -25 5 -37 15z" />
    <glyph glyph-name="Idieresis" unicode="&#xcf;" horiz-adv-x="284" 
d="M199 46c0 -18.667 -6 -32.5 -18 -41.5s-25 -13.5 -39 -13.5c-14.667 0 -27.834 4.5 -39.501 13.5s-17.5 22.833 -17.5 41.5v636c0 18 5.83301 31.5 17.5 40.5s24.834 13.5 39.501 13.5c14 0 27 -4.5 39 -13.5s18 -22.5 18 -40.5v-636zM290 865
c0 -18.667 -6 -32.5 -18 -41.5s-25 -13.5 -39 -13.5c-14.667 0 -27.834 4.5 -39.501 13.5s-17.5 22.833 -17.5 41.5v14c0 18 5.83301 31.5 17.5 40.5s24.834 13.5 39.501 13.5c14 0 27 -4.5 39 -13.5s18 -22.5 18 -40.5v-14zM106 865c0 -18.667 -6 -32.5 -18 -41.5
s-25 -13.5 -39 -13.5c-14.667 0 -27.834 4.5 -39.501 13.5s-17.5 22.833 -17.5 41.5v14c0 18 5.83301 31.5 17.5 40.5s24.834 13.5 39.501 13.5c14 0 27 -4.5 39 -13.5s18 -22.5 18 -40.5v-14z" />
    <glyph glyph-name="Eth" unicode="&#xd0;" horiz-adv-x="751" 
d="M99 447v226c0 14 5.66699 26.5 17 37.5s24.666 16.5 39.999 16.5h137c56.667 0 110 -6 160 -18s93.5 -31.667 130.5 -59s66.167 -63 87.5 -107s32 -98.333 32 -163c0 -66.667 -10.333 -124 -31 -172s-49.5 -87.5 -86.5 -118.5s-80.833 -53.833 -131.5 -68.5
s-106 -22 -166 -22h-132c-15.333 0 -28.666 5.66699 -39.999 17s-17 24.333 -17 39v286h-27c-19.333 0 -33.666 5.5 -42.999 16.5s-14 23.167 -14 36.5s4.66699 25.5 14 36.5s23.666 16.5 42.999 16.5h27zM213 618v-170.999h75c19.333 0 33.666 -5.5 42.999 -16.5
s14 -23.167 14 -36.5s-4.66699 -25.5 -14 -36.5s-23.666 -16.5 -42.999 -16.5h-75v-232h75c47.333 0 89.666 5 126.999 15s68.833 25.833 94.5 47.5s45.334 49.667 59.001 84s20.5 75.833 20.5 124.5c0 43.333 -6.5 80.166 -19.5 110.499s-32 55 -57 74
s-55.833 32.667 -92.5 41s-79 12.5 -127 12.5h-80z" />
    <glyph glyph-name="Ntilde" unicode="&#xd1;" horiz-adv-x="745" 
d="M665 46c0 -20 -5.00098 -35.501 -15.001 -46.501s-21.667 -16.5 -35 -16.5c-8.66699 0 -17.667 2.33301 -27 7s-17.666 12.334 -24.999 23.001l-370 499v-466c0 -18.667 -5.83301 -32.667 -17.5 -42s-24.834 -14 -39.501 -14c-14 0 -26.833 4.66699 -38.5 14
s-17.5 23.333 -17.5 42v635c0 20 5 35.667 15 47s21.667 17 35 17c18.667 0 36 -10.333 52 -31l370 -502v469c0 18.667 5.83301 32.5 17.5 41.5s24.5 13.5 38.5 13.5c14.667 0 27.834 -4.5 39.501 -13.5s17.5 -22.833 17.5 -41.5v-635zM209.999 910.999
c20 17.333 38.8359 29.3311 56.5029 35.998s34.167 10 49.5 10c14 0 26.833 -2.33301 38.5 -7s22.5 -10 32.5 -16l26 -16c7.33301 -4.66699 13.333 -7 18 -7s9.5 1.5 14.5 4.5s10.5 6.5 16.5 10.5s12 7.5 18 10.5s12.333 4.5 19 4.5c15.333 0 28.666 -5.5 39.999 -16.5
s17 -23.833 17 -38.5c0 -11.333 -4.33301 -22.166 -13 -32.499s-19.334 -19.333 -32.001 -27s-26 -13.667 -40 -18s-26.333 -6.5 -37 -6.5c-10 0 -20.167 2.33301 -30.5 7s-20.5 9.83398 -30.5 15.501s-20 10.834 -30 15.501s-19.333 7 -28 7c-4 0 -8.5 -1.66699 -13.5 -5
l-16 -11c-5.66699 -4 -11.834 -7.66699 -18.501 -11s-13.334 -5 -20.001 -5c-15.333 0 -28.666 5.66699 -39.999 17s-17 24.333 -17 39c0 15.333 6.66699 28.666 20 39.999z" />
    <glyph glyph-name="Ograve" unicode="&#xd2;" horiz-adv-x="782" 
d="M48 363c0 52 7.83594 100.667 23.5029 146s38.334 84.833 68.001 118.5s65.5 60.167 107.5 79.5s89.667 29 143 29s101.166 -9.66699 143.499 -29s78.333 -45.833 108 -79.5s52.5 -73.167 68.5 -118.5s24 -94 24 -146c0 -51.333 -8 -99.666 -24 -144.999
s-38.833 -84.833 -68.5 -118.5s-65.834 -60.167 -108.501 -79.5s-90.334 -29 -143.001 -29c-53.333 0 -101 9.66699 -143 29s-77.833 45.833 -107.5 79.5s-52.334 73.167 -68.001 118.5s-23.5 93.666 -23.5 144.999zM162.003 363c0 -41.333 5.66602 -78.166 16.999 -110.499
s27.166 -59.833 47.499 -82.5s44.5 -40 72.5 -52s58.333 -18 91 -18c33.333 0 64 6 92 18s52.333 29.333 73 52s36.667 50.167 48 82.5s17 69.166 17 110.499s-5.83301 78.333 -17.5 111s-27.667 60.334 -48 83.001s-44.666 40 -72.999 52s-58.833 18 -91.5 18
s-63 -6 -91 -18s-52.167 -29.333 -72.5 -52s-36.166 -50.334 -47.499 -83.001s-17 -69.667 -17 -111zM430.002 875c6.66699 -10.667 10.001 -21 10.001 -31c0 -15.333 -6 -28.166 -18 -38.499s-25.667 -15.5 -41 -15.5c-8.66699 0 -17 1.83301 -25 5.5s-15 10.167 -21 19.5
l-83 118c-7.33301 10.667 -11 21 -11 31c0 15.333 6.16699 28.166 18.5 38.499s26.166 15.5 41.499 15.5c18.667 0 34 -8.33301 46 -25z" />
    <glyph glyph-name="Oacute" unicode="&#xd3;" horiz-adv-x="782" 
d="M48 363c0 52 7.83594 100.667 23.5029 146s38.334 84.833 68.001 118.5s65.5 60.167 107.5 79.5s89.667 29 143 29s101.166 -9.66699 143.499 -29s78.333 -45.833 108 -79.5s52.5 -73.167 68.5 -118.5s24 -94 24 -146c0 -51.333 -8 -99.666 -24 -144.999
s-38.833 -84.833 -68.5 -118.5s-65.834 -60.167 -108.501 -79.5s-90.334 -29 -143.001 -29c-53.333 0 -101 9.66699 -143 29s-77.833 45.833 -107.5 79.5s-52.334 73.167 -68.001 118.5s-23.5 93.666 -23.5 144.999zM162.003 363c0 -41.333 5.66602 -78.166 16.999 -110.499
s27.166 -59.833 47.499 -82.5s44.5 -40 72.5 -52s58.333 -18 91 -18c33.333 0 64 6 92 18s52.333 29.333 73 52s36.667 50.167 48 82.5s17 69.166 17 110.499s-5.83301 78.333 -17.5 111s-27.667 60.334 -48 83.001s-44.666 40 -72.999 52s-58.833 18 -91.5 18
s-63 -6 -91 -18s-52.167 -29.333 -72.5 -52s-36.166 -50.334 -47.499 -83.001s-17 -69.667 -17 -111zM446.002 993c6 9.33301 13 15.833 21 19.5s16.333 5.5 25 5.5c15.333 0 29.166 -5.16699 41.499 -15.5s18.5 -23.166 18.5 -38.499c0 -10.667 -3.33301 -20.667 -10 -30
l-83 -118c-12 -16.667 -27.333 -25 -46 -25c-15.333 0 -29.166 5.16699 -41.499 15.5s-18.5 23.166 -18.5 38.499c0 10.667 3.33301 20.667 10 30z" />
    <glyph glyph-name="Ocircumflex" unicode="&#xd4;" horiz-adv-x="782" 
d="M48 363c0 52 7.83594 100.667 23.5029 146s38.334 84.833 68.001 118.5s65.5 60.167 107.5 79.5s89.667 29 143 29s101.166 -9.66699 143.499 -29s78.333 -45.833 108 -79.5s52.5 -73.167 68.5 -118.5s24 -94 24 -146c0 -51.333 -8 -99.666 -24 -144.999
s-38.833 -84.833 -68.5 -118.5s-65.834 -60.167 -108.501 -79.5s-90.334 -29 -143.001 -29c-53.333 0 -101 9.66699 -143 29s-77.833 45.833 -107.5 79.5s-52.334 73.167 -68.001 118.5s-23.5 93.666 -23.5 144.999zM162.003 363c0 -41.333 5.66602 -78.166 16.999 -110.499
s27.166 -59.833 47.499 -82.5s44.5 -40 72.5 -52s58.333 -18 91 -18c33.333 0 64 6 92 18s52.333 29.333 73 52s36.667 50.167 48 82.5s17 69.166 17 110.499s-5.83301 78.333 -17.5 111s-27.667 60.334 -48 83.001s-44.666 40 -72.999 52s-58.833 18 -91.5 18
s-63 -6 -91 -18s-52.167 -29.333 -72.5 -52s-36.166 -50.334 -47.499 -83.001s-17 -69.667 -17 -111zM391.002 871l-97 -78c-13.333 -10 -25.666 -15 -36.999 -15c-15.333 0 -28.666 5.66699 -39.999 17s-17 24.333 -17 39c0 16 7 29.667 21 41l133 109
c9.33301 7.33301 21.666 11 36.999 11c14 0 26.333 -3.66699 37 -11l134 -109c7.33301 -6 12.666 -12.5 15.999 -19.5s5 -14.167 5 -21.5c0 -14.667 -5.83301 -27.667 -17.5 -39s-25.167 -17 -40.5 -17c-12.667 0 -25 5 -37 15z" />
    <glyph glyph-name="Otilde" unicode="&#xd5;" horiz-adv-x="782" 
d="M48 363c0 52 7.83594 100.667 23.5029 146s38.334 84.833 68.001 118.5s65.5 60.167 107.5 79.5s89.667 29 143 29s101.166 -9.66699 143.499 -29s78.333 -45.833 108 -79.5s52.5 -73.167 68.5 -118.5s24 -94 24 -146c0 -51.333 -8 -99.666 -24 -144.999
s-38.833 -84.833 -68.5 -118.5s-65.834 -60.167 -108.501 -79.5s-90.334 -29 -143.001 -29c-53.333 0 -101 9.66699 -143 29s-77.833 45.833 -107.5 79.5s-52.334 73.167 -68.001 118.5s-23.5 93.666 -23.5 144.999zM162.003 363c0 -41.333 5.66602 -78.166 16.999 -110.499
s27.166 -59.833 47.499 -82.5s44.5 -40 72.5 -52s58.333 -18 91 -18c33.333 0 64 6 92 18s52.333 29.333 73 52s36.667 50.167 48 82.5s17 69.166 17 110.499s-5.83301 78.333 -17.5 111s-27.667 60.334 -48 83.001s-44.666 40 -72.999 52s-58.833 18 -91.5 18
s-63 -6 -91 -18s-52.167 -29.333 -72.5 -52s-36.166 -50.334 -47.499 -83.001s-17 -69.667 -17 -111zM228.002 911c20 17.333 38.8359 29.3311 56.5029 35.998s34.167 10 49.5 10c14 0 26.833 -2.33301 38.5 -7s22.5 -10 32.5 -16l26 -16c7.33301 -4.66699 13.333 -7 18 -7
s9.5 1.5 14.5 4.5s10.5 6.5 16.5 10.5s12 7.5 18 10.5s12.333 4.5 19 4.5c15.333 0 28.666 -5.5 39.999 -16.5s17 -23.833 17 -38.5c0 -11.333 -4.33301 -22.166 -13 -32.499s-19.334 -19.333 -32.001 -27s-26 -13.667 -40 -18s-26.333 -6.5 -37 -6.5
c-10 0 -20.167 2.33301 -30.5 7s-20.5 9.83398 -30.5 15.501s-20 10.834 -30 15.501s-19.333 7 -28 7c-4 0 -8.5 -1.66699 -13.5 -5l-16 -11c-5.66699 -4 -11.834 -7.66699 -18.501 -11s-13.334 -5 -20.001 -5c-15.333 0 -28.666 5.66699 -39.999 17s-17 24.333 -17 39
c0 15.333 6.66699 28.666 20 39.999z" />
    <glyph glyph-name="Odieresis" unicode="&#xd6;" horiz-adv-x="782" 
d="M48 363c0 52 7.83594 100.667 23.5029 146s38.334 84.833 68.001 118.5s65.5 60.167 107.5 79.5s89.667 29 143 29s101.166 -9.66699 143.499 -29s78.333 -45.833 108 -79.5s52.5 -73.167 68.5 -118.5s24 -94 24 -146c0 -51.333 -8 -99.666 -24 -144.999
s-38.833 -84.833 -68.5 -118.5s-65.834 -60.167 -108.501 -79.5s-90.334 -29 -143.001 -29c-53.333 0 -101 9.66699 -143 29s-77.833 45.833 -107.5 79.5s-52.334 73.167 -68.001 118.5s-23.5 93.666 -23.5 144.999zM162.003 363c0 -41.333 5.66602 -78.166 16.999 -110.499
s27.166 -59.833 47.499 -82.5s44.5 -40 72.5 -52s58.333 -18 91 -18c33.333 0 64 6 92 18s52.333 29.333 73 52s36.667 50.167 48 82.5s17 69.166 17 110.499s-5.83301 78.333 -17.5 111s-27.667 60.334 -48 83.001s-44.666 40 -72.999 52s-58.833 18 -91.5 18
s-63 -6 -91 -18s-52.167 -29.333 -72.5 -52s-36.166 -50.334 -47.499 -83.001s-17 -69.667 -17 -111zM538.002 865c0 -18.667 -6 -32.5 -18 -41.5s-25 -13.5 -39 -13.5c-14.667 0 -27.834 4.5 -39.501 13.5s-17.5 22.833 -17.5 41.5v14c0 18 5.83301 31.5 17.5 40.5
s24.834 13.5 39.501 13.5c14 0 27 -4.5 39 -13.5s18 -22.5 18 -40.5v-14zM354.002 865c0 -18.667 -6 -32.5 -18 -41.5s-25 -13.5 -39 -13.5c-14.667 0 -27.834 4.5 -39.501 13.5s-17.5 22.833 -17.5 41.5v14c0 18 5.83301 31.5 17.5 40.5s24.834 13.5 39.501 13.5
c14 0 27 -4.5 39 -13.5s18 -22.5 18 -40.5v-14z" />
    <glyph glyph-name="multiply" unicode="&#xd7;" 
d="M395 109l-105 100l-101 -96c-12 -11.333 -25.667 -17 -41 -17s-28.833 5.5 -40.5 16.5s-17.5 23.833 -17.5 38.5c0 14 6 26.667 18 38l101 97l-104 100c-6.66699 6 -11.334 12.333 -14.001 19s-4 13 -4 19c0 15.333 5.83301 28.5 17.5 39.5s25.167 16.5 40.5 16.5
c14.667 0 28 -5.66699 40 -17l105 -100l101 97c11.333 11.333 24.666 17 39.999 17s29 -5.5 41 -16.5s18 -24.167 18 -39.5c0 -13.333 -6 -26 -18 -38l-102 -97l105 -100c6.66699 -6 11.334 -12.333 14.001 -19s4 -13 4 -19c0 -15.333 -5.83301 -28.5 -17.5 -39.5
s-25.167 -16.5 -40.5 -16.5s-28.666 5.66699 -39.999 17z" />
    <glyph glyph-name="Oslash" unicode="&#xd8;" horiz-adv-x="782" 
d="M48 363c0 52 8.00391 100.666 24.0039 145.999s38.667 84.833 68 118.5s65.166 60.167 107.499 79.5s89.833 29 142.5 29c16 0 31.667 -1 47 -3l7 24c3.33301 11.333 8.66602 19.333 15.999 24s15.666 7 24.999 7c11.333 0 21.833 -3.5 31.5 -10.5
s14.5 -16.833 14.5 -29.5c0 -5.33301 -0.333008 -9.33301 -1 -12l-7 -25c33.333 -13.333 63 -31.5 89 -54.5s48 -49.667 66 -80s31.833 -63.5 41.5 -99.5s14.5 -74 14.5 -114c0 -51.333 -8 -99.666 -24 -144.999s-38.833 -84.833 -68.5 -118.5
s-65.834 -60.167 -108.501 -79.5s-90.334 -29 -143.001 -29c-9.33301 0 -18.666 0.333008 -27.999 1s-18.333 1.66699 -27 3l-8 -31c-3.33301 -11.333 -8.83301 -19.5 -16.5 -24.5s-16.167 -7.5 -25.5 -7.5c-11.333 0 -21.833 3.66699 -31.5 11s-14.5 17.666 -14.5 30.999
c0 4.66699 0.333008 8.33398 1 11.001l9 34c-32 14 -60.333 32.5 -85 55.5s-45.667 49.5 -63 79.5s-30.5 62.667 -39.5 98s-13.5 72.333 -13.5 111zM390.004 99.999c33.333 0 64 6 92 18s52.333 29.333 73 52s36.667 50.167 48 82.5s17 69.166 17 110.499
c0 58.667 -11.333 108.334 -34 149.001s-53 70.667 -91 90l-132 -501c4.66699 -0.666992 9.16699 -1 13.5 -1h13.5zM162.004 362.999c0 -56.667 10.334 -104.832 31.001 -144.499s49 -69.5 85 -89.5l131 497c-3.33301 0.666992 -6.5 1 -9.5 1h-9.5
c-32.667 0 -62.834 -6 -90.501 -18s-51.667 -29.333 -72 -52s-36.333 -50.334 -48 -83.001s-17.5 -69.667 -17.5 -111z" />
    <glyph glyph-name="Ugrave" unicode="&#xd9;" horiz-adv-x="694" 
d="M189 312c0 -40.667 4.16699 -74.501 12.5 -101.501s20 -48.667 35 -65s32.333 -28 52 -35s41.167 -10.5 64.5 -10.5c19.333 0 38.166 2.83301 56.499 8.5s34.5 16.334 48.5 32.001s25.333 37.334 34 65.001s13 63.167 13 106.5v370c0 18 5.83301 31.5 17.5 40.5
s24.834 13.5 39.501 13.5c14 0 27 -4.5 39 -13.5s18 -22.5 18 -40.5v-370c0 -54 -6.5 -101.167 -19.5 -141.5s-31.333 -73.833 -55 -100.5s-51.834 -46.5 -84.501 -59.5s-68.334 -19.5 -107.001 -19.5c-43.333 0 -82.166 7.16699 -116.499 21.5s-63.5 35.166 -87.5 62.499
s-42.333 60.833 -55 100.5s-19 85.167 -19 136.5v370c0 18 5.83301 31.5 17.5 40.5s24.834 13.5 39.501 13.5c14 0 27 -4.5 39 -13.5s18 -22.5 18 -40.5v-370zM386 874.999c6.66699 -10.667 10.001 -21 10.001 -31c0 -15.333 -6 -28.166 -18 -38.499
s-25.667 -15.5 -41 -15.5c-8.66699 0 -17 1.83301 -25 5.5s-15 10.167 -21 19.5l-83 118c-7.33301 10.667 -11 21 -11 31c0 15.333 6.16699 28.166 18.5 38.499s26.166 15.5 41.499 15.5c18.667 0 34 -8.33301 46 -25z" />
    <glyph glyph-name="Uacute" unicode="&#xda;" horiz-adv-x="694" 
d="M189 312c0 -40.667 4.16699 -74.501 12.5 -101.501s20 -48.667 35 -65s32.333 -28 52 -35s41.167 -10.5 64.5 -10.5c19.333 0 38.166 2.83301 56.499 8.5s34.5 16.334 48.5 32.001s25.333 37.334 34 65.001s13 63.167 13 106.5v370c0 18 5.83301 31.5 17.5 40.5
s24.834 13.5 39.501 13.5c14 0 27 -4.5 39 -13.5s18 -22.5 18 -40.5v-370c0 -54 -6.5 -101.167 -19.5 -141.5s-31.333 -73.833 -55 -100.5s-51.834 -46.5 -84.501 -59.5s-68.334 -19.5 -107.001 -19.5c-43.333 0 -82.166 7.16699 -116.499 21.5s-63.5 35.166 -87.5 62.499
s-42.333 60.833 -55 100.5s-19 85.167 -19 136.5v370c0 18 5.83301 31.5 17.5 40.5s24.834 13.5 39.501 13.5c14 0 27 -4.5 39 -13.5s18 -22.5 18 -40.5v-370zM402 992.999c6 9.33301 13 15.833 21 19.5s16.333 5.5 25 5.5c15.333 0 29.166 -5.16699 41.499 -15.5
s18.5 -23.166 18.5 -38.499c0 -10.667 -3.33301 -20.667 -10 -30l-83 -118c-12 -16.667 -27.333 -25 -46 -25c-15.333 0 -29.166 5.16699 -41.499 15.5s-18.5 23.166 -18.5 38.499c0 10.667 3.33301 20.667 10 30z" />
    <glyph glyph-name="Ucircumflex" unicode="&#xdb;" horiz-adv-x="694" 
d="M189 312c0 -40.667 4.16699 -74.501 12.5 -101.501s20 -48.667 35 -65s32.333 -28 52 -35s41.167 -10.5 64.5 -10.5c19.333 0 38.166 2.83301 56.499 8.5s34.5 16.334 48.5 32.001s25.333 37.334 34 65.001s13 63.167 13 106.5v370c0 18 5.83301 31.5 17.5 40.5
s24.834 13.5 39.501 13.5c14 0 27 -4.5 39 -13.5s18 -22.5 18 -40.5v-370c0 -54 -6.5 -101.167 -19.5 -141.5s-31.333 -73.833 -55 -100.5s-51.834 -46.5 -84.501 -59.5s-68.334 -19.5 -107.001 -19.5c-43.333 0 -82.166 7.16699 -116.499 21.5s-63.5 35.166 -87.5 62.499
s-42.333 60.833 -55 100.5s-19 85.167 -19 136.5v370c0 18 5.83301 31.5 17.5 40.5s24.834 13.5 39.501 13.5c14 0 27 -4.5 39 -13.5s18 -22.5 18 -40.5v-370zM347 870.999l-97 -78c-13.333 -10 -25.666 -15 -36.999 -15c-15.333 0 -28.666 5.66699 -39.999 17
s-17 24.333 -17 39c0 16 7 29.667 21 41l133 109c9.33301 7.33301 21.666 11 36.999 11c14 0 26.333 -3.66699 37 -11l134 -109c7.33301 -6 12.666 -12.5 15.999 -19.5s5 -14.167 5 -21.5c0 -14.667 -5.83301 -27.667 -17.5 -39s-25.167 -17 -40.5 -17
c-12.667 0 -25 5 -37 15z" />
    <glyph glyph-name="Udieresis" unicode="&#xdc;" horiz-adv-x="694" 
d="M189 312c0 -40.667 4.16699 -74.501 12.5 -101.501s20 -48.667 35 -65s32.333 -28 52 -35s41.167 -10.5 64.5 -10.5c19.333 0 38.166 2.83301 56.499 8.5s34.5 16.334 48.5 32.001s25.333 37.334 34 65.001s13 63.167 13 106.5v370c0 18 5.83301 31.5 17.5 40.5
s24.834 13.5 39.501 13.5c14 0 27 -4.5 39 -13.5s18 -22.5 18 -40.5v-370c0 -54 -6.5 -101.167 -19.5 -141.5s-31.333 -73.833 -55 -100.5s-51.834 -46.5 -84.501 -59.5s-68.334 -19.5 -107.001 -19.5c-43.333 0 -82.166 7.16699 -116.499 21.5s-63.5 35.166 -87.5 62.499
s-42.333 60.833 -55 100.5s-19 85.167 -19 136.5v370c0 18 5.83301 31.5 17.5 40.5s24.834 13.5 39.501 13.5c14 0 27 -4.5 39 -13.5s18 -22.5 18 -40.5v-370zM494 864.999c0 -18.667 -6 -32.5 -18 -41.5s-25 -13.5 -39 -13.5c-14.667 0 -27.834 4.5 -39.501 13.5
s-17.5 22.833 -17.5 41.5v14c0 18 5.83301 31.5 17.5 40.5s24.834 13.5 39.501 13.5c14 0 27 -4.5 39 -13.5s18 -22.5 18 -40.5v-14zM310 864.999c0 -18.667 -6 -32.5 -18 -41.5s-25 -13.5 -39 -13.5c-14.667 0 -27.834 4.5 -39.501 13.5s-17.5 22.833 -17.5 41.5v14
c0 18 5.83301 31.5 17.5 40.5s24.834 13.5 39.501 13.5c14 0 27 -4.5 39 -13.5s18 -22.5 18 -40.5v-14z" />
    <glyph glyph-name="Yacute" unicode="&#xdd;" horiz-adv-x="582" 
d="M348 294l0.000976562 -248c0 -18.667 -6 -32.667 -18 -42s-25 -14 -39 -14c-14.667 0 -27.834 4.66699 -39.501 14s-17.5 23.333 -17.5 42v248l-206 362c-5.33301 8.66699 -8 18 -8 28c0 15.333 6.16699 27.833 18.5 37.5s25.833 14.5 40.5 14.5
c9.33301 0 18.333 -2.16699 27 -6.5s15.667 -11.5 21 -21.5l164 -294l165 294c5.33301 10.667 12.333 18 21 22s17.667 6 27 6c15.333 0 29 -4.83301 41 -14.5s18 -22.167 18 -37.5c0 -8 -2.66699 -17.333 -8 -28zM346.001 993c6 9.33301 13 15.833 21 19.5
s16.333 5.5 25 5.5c15.333 0 29.166 -5.16699 41.499 -15.5s18.5 -23.166 18.5 -38.499c0 -10.667 -3.33301 -20.667 -10 -30l-83 -118c-12 -16.667 -27.333 -25 -46 -25c-15.333 0 -29.166 5.16699 -41.499 15.5s-18.5 23.166 -18.5 38.499c0 10.667 3.33301 20.667 10 30z
" />
    <glyph glyph-name="Thorn" unicode="&#xde;" horiz-adv-x="577" 
d="M80 580v102c0 18 5.83301 31.5 17.5 40.5s24.834 13.5 39.501 13.5c14 0 27 -4.5 39 -13.5s18 -22.5 18 -40.5v-51h59c96.667 0 169 -20.5 217 -61.5s72 -96.5 72 -166.5c0 -80 -25.167 -140.833 -75.5 -182.5s-122.5 -62.5 -216.5 -62.5h-56v-112
c0 -18.667 -6 -32.5 -18 -41.5s-25 -13.5 -39 -13.5c-14.667 0 -27.834 4.5 -39.501 13.5s-17.5 22.833 -17.5 41.5v534zM250 266c34.667 0 63.3311 3 85.998 9s40.834 14.833 54.501 26.5s23.334 26 29.001 43s8.5 36.5 8.5 58.5c0 16.667 -2.16699 32.167 -6.5 46.5
s-12.833 26.833 -25.5 37.5s-30.5 19.167 -53.5 25.5s-52.833 9.5 -89.5 9.5h-59v-256h56z" />
    <glyph glyph-name="germandbls" unicode="&#xdf;" horiz-adv-x="622" 
d="M322 123c24.667 -14 52.666 -21.0029 83.999 -21.0029c16.667 0 30.334 1.66699 41.001 5s19 7.5 25 12.5s10.167 10.333 12.5 16s3.5 10.834 3.5 15.501c0 17.333 -6 31.833 -18 43.5s-26.833 22.167 -44.5 31.5s-37 18.833 -58 28.5s-40.333 21 -58 34
s-32.5 28.833 -44.5 47.5s-18 42 -18 70c0 30.667 6 55.167 18 73.5s25.333 33.833 40 46.5l40 34.5c12 10.333 18 22.833 18 37.5c0 6.66699 -1.5 13.5 -4.5 20.5s-7.83301 13.5 -14.5 19.5s-15.5 11 -26.5 15s-24.5 6 -40.5 6c-17.333 0 -32.333 -1.5 -45 -4.5
s-23.334 -8.66699 -32.001 -17s-15.167 -19.833 -19.5 -34.5s-6.5 -34 -6.5 -58v-499c0 -18.667 -6 -32.5 -18 -41.5s-25 -13.5 -39 -13.5c-14.667 0 -27.834 4.5 -39.501 13.5s-17.5 22.833 -17.5 41.5v499c0 76 19.5 132 58.5 168s91.833 54 158.5 54
c28.667 0 55.334 -4.33301 80.001 -13s45.834 -20.5 63.501 -35.5s31.5 -32.833 41.5 -53.5s15 -43 15 -67c0 -30 -6 -54.333 -18 -73s-25.333 -34.5 -40 -47.5l-40 -35c-12 -10.333 -18 -22.5 -18 -36.5c0 -17.333 8.33301 -30.666 25 -39.999s37.667 -19.666 63 -30.999
c21.333 -9.33301 41.333 -19.5 60 -30.5s34.834 -23.5 48.501 -37.5s24.5 -30.5 32.5 -49.5s12 -41.167 12 -66.5c0 -24.667 -5 -46.667 -15 -66s-23.833 -35.833 -41.5 -49.5s-38.5 -24.167 -62.5 -31.5s-49.667 -11 -77 -11c-20 0 -40 1.83301 -60 5.5s-38.167 9 -54.5 16
s-29.5 15.333 -39.5 25s-15 20.5 -15 32.5c0 14.667 5.5 28 16.5 40s24.5 18 40.5 18c9.33301 0 18.666 -2.33301 27.999 -7z" />
    <glyph glyph-name="agrave" unicode="&#xe0;" horiz-adv-x="538" 
d="M370 91c-15.333 -30.667 -35.9971 -55.166 -61.9971 -73.499s-59.333 -27.5 -100 -27.5c-30 0 -56.5 4.5 -79.5 13.5s-42.167 21.5 -57.5 37.5s-27 35 -35 57s-12 46 -12 72c0 37.333 8.66699 67.5 26 90.5s39.666 40.667 66.999 53s58 20.666 92 24.999
s67.667 6.5 101 6.5h30.5c10.333 0 20.166 -0.333008 29.499 -1c-0.666992 44 -9 74.333 -25 91s-43.333 25 -82 25c-24 0 -44.833 -5 -62.5 -15s-31.167 -23 -40.5 -39c-6 -10 -13 -17.167 -21 -21.5s-16.667 -6.5 -26 -6.5c-15.333 0 -29.166 5 -41.499 15
s-18.5 22.667 -18.5 38c0 10 2.66699 19.333 8 28c10 17.333 22.667 32.833 38 46.5s32.166 25.167 50.499 34.5s38 16.5 59 21.5s42.5 7.5 64.5 7.5c38.667 0 71.5 -5.5 98.5 -16.5s48.833 -26.5 65.5 -46.5s28.667 -44 36 -72s11 -58.667 11 -92v-295
c0 -18 -6 -31.5 -18 -40.5s-25 -13.5 -39 -13.5c-14.667 0 -27.834 4.5 -39.501 13.5s-17.5 22.5 -17.5 40.5v44zM138.003 170.001c0 -18.667 6.66699 -35.166 20 -49.499s36.666 -21.5 69.999 -21.5c40.667 0 73.5 14.167 98.5 42.5s39.167 64.833 42.5 109.5
c-11.333 0.666992 -22.5 1.16699 -33.5 1.5s-21.833 0.5 -32.5 0.5c-24.667 0 -47.167 -1.33301 -67.5 -4s-37.666 -7.33398 -51.999 -14.001s-25.5 -15.167 -33.5 -25.5s-12 -23.5 -12 -39.5zM320.003 725.002c6.66699 -10.667 10.001 -21 10.001 -31
c0 -15.333 -6 -28.166 -18 -38.499s-25.667 -15.5 -41 -15.5c-8.66699 0 -17 1.83301 -25 5.5s-15 10.167 -21 19.5l-83 118c-7.33301 10.667 -11 21 -11 31c0 15.333 6.16699 28.166 18.5 38.499s26.166 15.5 41.499 15.5c18.667 0 34 -8.33301 46 -25z" />
    <glyph glyph-name="aacute" unicode="&#xe1;" horiz-adv-x="538" 
d="M370 91c-15.333 -30.667 -35.9971 -55.166 -61.9971 -73.499s-59.333 -27.5 -100 -27.5c-30 0 -56.5 4.5 -79.5 13.5s-42.167 21.5 -57.5 37.5s-27 35 -35 57s-12 46 -12 72c0 37.333 8.66699 67.5 26 90.5s39.666 40.667 66.999 53s58 20.666 92 24.999
s67.667 6.5 101 6.5h30.5c10.333 0 20.166 -0.333008 29.499 -1c-0.666992 44 -9 74.333 -25 91s-43.333 25 -82 25c-24 0 -44.833 -5 -62.5 -15s-31.167 -23 -40.5 -39c-6 -10 -13 -17.167 -21 -21.5s-16.667 -6.5 -26 -6.5c-15.333 0 -29.166 5 -41.499 15
s-18.5 22.667 -18.5 38c0 10 2.66699 19.333 8 28c10 17.333 22.667 32.833 38 46.5s32.166 25.167 50.499 34.5s38 16.5 59 21.5s42.5 7.5 64.5 7.5c38.667 0 71.5 -5.5 98.5 -16.5s48.833 -26.5 65.5 -46.5s28.667 -44 36 -72s11 -58.667 11 -92v-295
c0 -18 -6 -31.5 -18 -40.5s-25 -13.5 -39 -13.5c-14.667 0 -27.834 4.5 -39.501 13.5s-17.5 22.5 -17.5 40.5v44zM138.003 170.001c0 -18.667 6.66699 -35.166 20 -49.499s36.666 -21.5 69.999 -21.5c40.667 0 73.5 14.167 98.5 42.5s39.167 64.833 42.5 109.5
c-11.333 0.666992 -22.5 1.16699 -33.5 1.5s-21.833 0.5 -32.5 0.5c-24.667 0 -47.167 -1.33301 -67.5 -4s-37.666 -7.33398 -51.999 -14.001s-25.5 -15.167 -33.5 -25.5s-12 -23.5 -12 -39.5zM303.003 843.002c6 9.33301 13 15.833 21 19.5s16.333 5.5 25 5.5
c15.333 0 29.166 -5.16699 41.499 -15.5s18.5 -23.166 18.5 -38.499c0 -10.667 -3.33301 -20.667 -10 -30l-83 -118c-12 -16.667 -27.333 -25 -46 -25c-15.333 0 -29.166 5.16699 -41.499 15.5s-18.5 23.166 -18.5 38.499c0 10.667 3.33301 20.667 10 30z" />
    <glyph glyph-name="acircumflex" unicode="&#xe2;" horiz-adv-x="538" 
d="M370 91c-15.333 -30.667 -35.9971 -55.166 -61.9971 -73.499s-59.333 -27.5 -100 -27.5c-30 0 -56.5 4.5 -79.5 13.5s-42.167 21.5 -57.5 37.5s-27 35 -35 57s-12 46 -12 72c0 37.333 8.66699 67.5 26 90.5s39.666 40.667 66.999 53s58 20.666 92 24.999
s67.667 6.5 101 6.5h30.5c10.333 0 20.166 -0.333008 29.499 -1c-0.666992 44 -9 74.333 -25 91s-43.333 25 -82 25c-24 0 -44.833 -5 -62.5 -15s-31.167 -23 -40.5 -39c-6 -10 -13 -17.167 -21 -21.5s-16.667 -6.5 -26 -6.5c-15.333 0 -29.166 5 -41.499 15
s-18.5 22.667 -18.5 38c0 10 2.66699 19.333 8 28c10 17.333 22.667 32.833 38 46.5s32.166 25.167 50.499 34.5s38 16.5 59 21.5s42.5 7.5 64.5 7.5c38.667 0 71.5 -5.5 98.5 -16.5s48.833 -26.5 65.5 -46.5s28.667 -44 36 -72s11 -58.667 11 -92v-295
c0 -18 -6 -31.5 -18 -40.5s-25 -13.5 -39 -13.5c-14.667 0 -27.834 4.5 -39.501 13.5s-17.5 22.5 -17.5 40.5v44zM138.003 170.001c0 -18.667 6.66699 -35.166 20 -49.499s36.666 -21.5 69.999 -21.5c40.667 0 73.5 14.167 98.5 42.5s39.167 64.833 42.5 109.5
c-11.333 0.666992 -22.5 1.16699 -33.5 1.5s-21.833 0.5 -32.5 0.5c-24.667 0 -47.167 -1.33301 -67.5 -4s-37.666 -7.33398 -51.999 -14.001s-25.5 -15.167 -33.5 -25.5s-12 -23.5 -12 -39.5zM269.003 721.002l-97 -78c-13.333 -10 -25.666 -15 -36.999 -15
c-15.333 0 -28.666 5.66699 -39.999 17s-17 24.333 -17 39c0 16 7 29.667 21 41l133 109c9.33301 7.33301 21.666 11 36.999 11c14 0 26.333 -3.66699 37 -11l134 -109c7.33301 -6 12.666 -12.5 15.999 -19.5s5 -14.167 5 -21.5c0 -14.667 -5.83301 -27.667 -17.5 -39
s-25.167 -17 -40.5 -17c-12.667 0 -25 5 -37 15z" />
    <glyph glyph-name="atilde" unicode="&#xe3;" horiz-adv-x="538" 
d="M370 91c-15.333 -30.667 -35.9971 -55.166 -61.9971 -73.499s-59.333 -27.5 -100 -27.5c-30 0 -56.5 4.5 -79.5 13.5s-42.167 21.5 -57.5 37.5s-27 35 -35 57s-12 46 -12 72c0 37.333 8.66699 67.5 26 90.5s39.666 40.667 66.999 53s58 20.666 92 24.999
s67.667 6.5 101 6.5h30.5c10.333 0 20.166 -0.333008 29.499 -1c-0.666992 44 -9 74.333 -25 91s-43.333 25 -82 25c-24 0 -44.833 -5 -62.5 -15s-31.167 -23 -40.5 -39c-6 -10 -13 -17.167 -21 -21.5s-16.667 -6.5 -26 -6.5c-15.333 0 -29.166 5 -41.499 15
s-18.5 22.667 -18.5 38c0 10 2.66699 19.333 8 28c10 17.333 22.667 32.833 38 46.5s32.166 25.167 50.499 34.5s38 16.5 59 21.5s42.5 7.5 64.5 7.5c38.667 0 71.5 -5.5 98.5 -16.5s48.833 -26.5 65.5 -46.5s28.667 -44 36 -72s11 -58.667 11 -92v-295
c0 -18 -6 -31.5 -18 -40.5s-25 -13.5 -39 -13.5c-14.667 0 -27.834 4.5 -39.501 13.5s-17.5 22.5 -17.5 40.5v44zM138.003 170.001c0 -18.667 6.66699 -35.166 20 -49.499s36.666 -21.5 69.999 -21.5c40.667 0 73.5 14.167 98.5 42.5s39.167 64.833 42.5 109.5
c-11.333 0.666992 -22.5 1.16699 -33.5 1.5s-21.833 0.5 -32.5 0.5c-24.667 0 -47.167 -1.33301 -67.5 -4s-37.666 -7.33398 -51.999 -14.001s-25.5 -15.167 -33.5 -25.5s-12 -23.5 -12 -39.5zM106.003 761.002c20 17.333 38.8359 29.3311 56.5029 35.998s34.167 10 49.5 10
c14 0 26.833 -2.33301 38.5 -7s22.5 -10 32.5 -16l26 -16c7.33301 -4.66699 13.333 -7 18 -7s9.5 1.5 14.5 4.5s10.5 6.5 16.5 10.5s12 7.5 18 10.5s12.333 4.5 19 4.5c15.333 0 28.666 -5.5 39.999 -16.5s17 -23.833 17 -38.5c0 -11.333 -4.33301 -22.166 -13 -32.499
s-19.334 -19.333 -32.001 -27s-26 -13.667 -40 -18s-26.333 -6.5 -37 -6.5c-10 0 -20.167 2.33301 -30.5 7s-20.5 9.83398 -30.5 15.501s-20 10.834 -30 15.501s-19.333 7 -28 7c-4 0 -8.5 -1.66699 -13.5 -5l-16 -11c-5.66699 -4 -11.834 -7.66699 -18.501 -11
s-13.334 -5 -20.001 -5c-15.333 0 -28.666 5.66699 -39.999 17s-17 24.333 -17 39c0 15.333 6.66699 28.666 20 39.999z" />
    <glyph glyph-name="adieresis" unicode="&#xe4;" horiz-adv-x="538" 
d="M370 91c-15.333 -30.667 -35.9971 -55.166 -61.9971 -73.499s-59.333 -27.5 -100 -27.5c-30 0 -56.5 4.5 -79.5 13.5s-42.167 21.5 -57.5 37.5s-27 35 -35 57s-12 46 -12 72c0 37.333 8.66699 67.5 26 90.5s39.666 40.667 66.999 53s58 20.666 92 24.999
s67.667 6.5 101 6.5h30.5c10.333 0 20.166 -0.333008 29.499 -1c-0.666992 44 -9 74.333 -25 91s-43.333 25 -82 25c-24 0 -44.833 -5 -62.5 -15s-31.167 -23 -40.5 -39c-6 -10 -13 -17.167 -21 -21.5s-16.667 -6.5 -26 -6.5c-15.333 0 -29.166 5 -41.499 15
s-18.5 22.667 -18.5 38c0 10 2.66699 19.333 8 28c10 17.333 22.667 32.833 38 46.5s32.166 25.167 50.499 34.5s38 16.5 59 21.5s42.5 7.5 64.5 7.5c38.667 0 71.5 -5.5 98.5 -16.5s48.833 -26.5 65.5 -46.5s28.667 -44 36 -72s11 -58.667 11 -92v-295
c0 -18 -6 -31.5 -18 -40.5s-25 -13.5 -39 -13.5c-14.667 0 -27.834 4.5 -39.501 13.5s-17.5 22.5 -17.5 40.5v44zM138.003 170.001c0 -18.667 6.66699 -35.166 20 -49.499s36.666 -21.5 69.999 -21.5c40.667 0 73.5 14.167 98.5 42.5s39.167 64.833 42.5 109.5
c-11.333 0.666992 -22.5 1.16699 -33.5 1.5s-21.833 0.5 -32.5 0.5c-24.667 0 -47.167 -1.33301 -67.5 -4s-37.666 -7.33398 -51.999 -14.001s-25.5 -15.167 -33.5 -25.5s-12 -23.5 -12 -39.5zM414.003 715.002c0 -18.667 -6 -32.5 -18 -41.5s-25 -13.5 -39 -13.5
c-14.667 0 -27.834 4.5 -39.501 13.5s-17.5 22.833 -17.5 41.5v14c0 18 5.83301 31.5 17.5 40.5s24.834 13.5 39.501 13.5c14 0 27 -4.5 39 -13.5s18 -22.5 18 -40.5v-14zM230.003 715.002c0 -18.667 -6 -32.5 -18 -41.5s-25 -13.5 -39 -13.5
c-14.667 0 -27.834 4.5 -39.501 13.5s-17.5 22.833 -17.5 41.5v14c0 18 5.83301 31.5 17.5 40.5s24.834 13.5 39.501 13.5c14 0 27 -4.5 39 -13.5s18 -22.5 18 -40.5v-14z" />
    <glyph glyph-name="aring" unicode="&#xe5;" horiz-adv-x="538" 
d="M370 91c-15.333 -30.667 -35.9971 -55.166 -61.9971 -73.499s-59.333 -27.5 -100 -27.5c-30 0 -56.5 4.5 -79.5 13.5s-42.167 21.5 -57.5 37.5s-27 35 -35 57s-12 46 -12 72c0 37.333 8.66699 67.5 26 90.5s39.666 40.667 66.999 53s58 20.666 92 24.999
s67.667 6.5 101 6.5h30.5c10.333 0 20.166 -0.333008 29.499 -1c-0.666992 44 -9 74.333 -25 91s-43.333 25 -82 25c-24 0 -44.833 -5 -62.5 -15s-31.167 -23 -40.5 -39c-6 -10 -13 -17.167 -21 -21.5s-16.667 -6.5 -26 -6.5c-15.333 0 -29.166 5 -41.499 15
s-18.5 22.667 -18.5 38c0 10 2.66699 19.333 8 28c10 17.333 22.667 32.833 38 46.5s32.166 25.167 50.499 34.5s38 16.5 59 21.5s42.5 7.5 64.5 7.5c38.667 0 71.5 -5.5 98.5 -16.5s48.833 -26.5 65.5 -46.5s28.667 -44 36 -72s11 -58.667 11 -92v-295
c0 -18 -6 -31.5 -18 -40.5s-25 -13.5 -39 -13.5c-14.667 0 -27.834 4.5 -39.501 13.5s-17.5 22.5 -17.5 40.5v44zM138.003 170.001c0 -18.667 6.66699 -35.166 20 -49.499s36.666 -21.5 69.999 -21.5c40.667 0 73.5 14.167 98.5 42.5s39.167 64.833 42.5 109.5
c-11.333 0.666992 -22.5 1.16699 -33.5 1.5s-21.833 0.5 -32.5 0.5c-24.667 0 -47.167 -1.33301 -67.5 -4s-37.666 -7.33398 -51.999 -14.001s-25.5 -15.167 -33.5 -25.5s-12 -23.5 -12 -39.5zM161.003 735.002c0 29.333 10.167 53.332 30.5 71.999s45.833 28 76.5 28
c31.333 0 57 -9.33301 77 -28s30 -42.667 30 -72s-9.5 -53.333 -28.5 -72s-43.5 -28.667 -73.5 -30h-4c-32 0 -58 9.33301 -78 28s-30 43.334 -30 74.001zM269.003 717.001c5.33301 0 9.49902 1.16797 12.499 3.50098s4.5 7.16602 4.5 14.499
c0 5.33301 -1.16699 9.33301 -3.5 12s-7.16602 4 -14.499 4c-12 0 -18 -5.33301 -18 -16c0 -11.333 4.66699 -17.333 14 -18h5z" />
    <glyph glyph-name="ae" unicode="&#xe6;" horiz-adv-x="910" 
d="M851 113c-21.333 -38.667 -50.001 -68.498 -86.001 -89.498s-80.333 -31.5 -133 -31.5c-50 0 -93.5 11.167 -130.5 33.5s-66.167 52.166 -87.5 89.499c-17.333 -36 -41.333 -65.333 -72 -88s-69 -34 -115 -34c-30 0 -57.333 4.33301 -82 13s-46 20.667 -64 36
s-32 34 -42 56s-15 46 -15 72c0 60 24.833 105.333 74.5 136s123.167 46 220.5 46c9.33301 0 18.666 -0.166992 27.999 -0.5s19 -0.833008 29 -1.5c-1.33301 40.667 -10.833 69.167 -28.5 85.5s-45.834 24.5 -84.501 24.5c-24.667 0 -45.667 -5 -63 -15
s-30.666 -23 -39.999 -39c-6 -10 -13.167 -17.167 -21.5 -21.5s-17.166 -6.5 -26.499 -6.5c-15.333 0 -29 5 -41 15s-18 22.667 -18 38c0 10 2.66699 19.333 8 28c19.333 34.667 46.833 61.667 82.5 81s75.5 29 119.5 29c42.667 0 79.167 -6.66699 109.5 -20
s54.833 -32.333 73.5 -57c22.667 24 49.5 42.833 80.5 56.5s66.167 20.5 105.5 20.5c40 0 75 -7.16699 105 -21.5s55.333 -33.833 76 -58.5s36.167 -53.834 46.5 -87.501s15.5 -69.5 15.5 -107.5c0 -14.667 -5.66699 -27.5 -17 -38.5s-24.666 -16.5 -39.999 -16.5h-329
c2.66699 -18 7.5 -35.333 14.5 -52s16.167 -31.167 27.5 -43.5s25.333 -22.333 42 -30s36.334 -11.5 59.001 -11.5c31.333 0 56 5.33301 74 16s33 26.667 45 48c5.33301 10 12.333 17.167 21 21.5s17.667 6.5 27 6.5c15.333 0 29.166 -5 41.499 -15s18.5 -22.667 18.5 -38
c0 -8 -2.66699 -17.333 -8 -28zM137.999 170.002c0 -18.667 6.49707 -34.667 19.4971 -48s36.167 -20 69.5 -20c20.667 0 39.334 4.33301 56.001 13s31.167 20.167 43.5 34.5s22.166 30.333 29.499 48s12 35.5 14 53.5c-10 0.666992 -19.667 1.16699 -29 1.5
s-18.666 0.5 -27.999 0.5c-25.333 0 -48.666 -1.33301 -69.999 -4s-39.666 -7.16699 -54.999 -13.5s-27.5 -14.833 -36.5 -25.5s-13.5 -24 -13.5 -40zM755.996 348.002c-7.33301 40 -22.167 68.833 -44.5 86.5s-48.833 26.5 -79.5 26.5c-20 0 -37.833 -3 -53.5 -9
s-29 -14.167 -40 -24.5s-20.167 -22.333 -27.5 -36s-13 -28.167 -17 -43.5h262z" />
    <glyph glyph-name="ccedilla" unicode="&#xe7;" horiz-adv-x="539" 
d="M507 113c-18.667 -32 -41.8311 -58.001 -69.498 -78.001s-59.834 -32.667 -96.501 -38v-50c16 -1.33301 32 -4 48 -8s30.667 -9.66699 44 -17s24.166 -17.166 32.499 -29.499s12.5 -27.833 12.5 -46.5c0 -21.333 -4.66699 -39.166 -14 -53.499s-22.333 -25.833 -39 -34.5
s-36.167 -14.834 -58.5 -18.501s-46.833 -5.5 -73.5 -5.5h-38c-14 0 -27 1.33301 -39 4s-22 7.16699 -30 13.5s-12 15.833 -12 28.5c0 10.667 3.66699 20.334 11 29.001s18 13 32 13c21.333 0 40.833 -1.33301 58.5 -4s33.5 -4 47.5 -4c44 0 66 9.66699 66 29
c0 4.66699 -1.83301 8.5 -5.5 11.5s-8.5 5.16699 -14.5 6.5s-12.5 2.33301 -19.5 3s-13.833 1 -20.5 1s-12.834 -0.166992 -18.501 -0.5s-10.167 -0.5 -13.5 -0.5c-16 0 -27.333 4.16699 -34 12.5s-10 18.166 -10 29.499v90c-35.333 4.66699 -66.833 15.334 -94.5 32.001
s-51 37.667 -70 63s-33.5 54.166 -43.5 86.499s-15 67.166 -15 104.499c0 40 5.83301 77.5 17.5 112.5s28.667 65.333 51 91s49.5 46 81.5 61s68.333 22.5 109 22.5c46 0 87.833 -9.66699 125.5 -29s66.5 -46.666 86.5 -81.999c5.33301 -10.667 8 -20 8 -28
c0 -15.333 -6.16699 -28 -18.5 -38s-26.166 -15 -41.499 -15c-9.33301 0 -18 2.16699 -26 6.5s-15 11.5 -21 21.5c-9.33301 16 -23.5 29.167 -42.5 39.5s-42.5 15.5 -70.5 15.5c-20 0 -38.833 -3.66699 -56.5 -11s-33 -18.333 -46 -33s-23.333 -33.167 -31 -55.5
s-11.5 -48.5 -11.5 -78.5c0 -60 14.333 -105 43 -135s65.334 -45 110.001 -45c48.667 0 84.667 20.667 108 62c6 10.667 13.333 18.167 22 22.5s17.667 6.5 27 6.5c15.333 0 29.166 -5.16699 41.499 -15.5s18.5 -23.166 18.5 -38.499
c0 -8.66699 -2.33301 -17.334 -7 -26.001z" />
    <glyph glyph-name="egrave" unicode="&#xe8;" horiz-adv-x="568" 
d="M509 113c-21.333 -38.667 -50.001 -68.499 -86.001 -89.499s-80.333 -31.5 -133 -31.5c-40.667 0 -77.167 7.66699 -109.5 23s-59.666 36 -81.999 62s-39.333 56.667 -51 92s-17.5 73 -17.5 113s5.83301 77.5 17.5 112.5s28.667 65.333 51 91s49.666 46 81.999 61
s68.833 22.5 109.5 22.5c40 0 75 -7.16699 105 -21.5s55.333 -33.833 76 -58.5s36.167 -53.834 46.5 -87.501s15.5 -69.5 15.5 -107.5c0 -14.667 -5.66699 -27.5 -17 -38.5s-24.666 -16.5 -39.999 -16.5h-329c2.66699 -18 7.5 -35.333 14.5 -52s16.167 -31.167 27.5 -43.5
s25.333 -22.333 42 -30s36.334 -11.5 59.001 -11.5c31.333 0 56 5.33301 74 16s33 26.667 45 48c5.33301 10 12.333 17.167 21 21.5s17.667 6.5 27 6.5c15.333 0 29.166 -5 41.499 -15s18.5 -22.667 18.5 -38c0 -8 -2.66699 -17.333 -8 -28zM413.999 348.001
c-7.33301 40 -22.167 68.833 -44.5 86.5s-48.833 26.5 -79.5 26.5c-20 0 -37.833 -3 -53.5 -9s-29 -14.167 -40 -24.5s-20.167 -22.333 -27.5 -36s-13 -28.167 -17 -43.5h262zM344.998 725.001c6.66699 -10.667 10.001 -21 10.001 -31c0 -15.333 -6 -28.166 -18 -38.499
s-25.667 -15.5 -41 -15.5c-8.66699 0 -17 1.83301 -25 5.5s-15 10.167 -21 19.5l-83 118c-7.33301 10.667 -11 21 -11 31c0 15.333 6.16699 28.166 18.5 38.499s26.166 15.5 41.499 15.5c18.667 0 34 -8.33301 46 -25z" />
    <glyph glyph-name="eacute" unicode="&#xe9;" horiz-adv-x="568" 
d="M509 113c-21.333 -38.667 -50.001 -68.499 -86.001 -89.499s-80.333 -31.5 -133 -31.5c-40.667 0 -77.167 7.66699 -109.5 23s-59.666 36 -81.999 62s-39.333 56.667 -51 92s-17.5 73 -17.5 113s5.83301 77.5 17.5 112.5s28.667 65.333 51 91s49.666 46 81.999 61
s68.833 22.5 109.5 22.5c40 0 75 -7.16699 105 -21.5s55.333 -33.833 76 -58.5s36.167 -53.834 46.5 -87.501s15.5 -69.5 15.5 -107.5c0 -14.667 -5.66699 -27.5 -17 -38.5s-24.666 -16.5 -39.999 -16.5h-329c2.66699 -18 7.5 -35.333 14.5 -52s16.167 -31.167 27.5 -43.5
s25.333 -22.333 42 -30s36.334 -11.5 59.001 -11.5c31.333 0 56 5.33301 74 16s33 26.667 45 48c5.33301 10 12.333 17.167 21 21.5s17.667 6.5 27 6.5c15.333 0 29.166 -5 41.499 -15s18.5 -22.667 18.5 -38c0 -8 -2.66699 -17.333 -8 -28zM413.999 348.001
c-7.33301 40 -22.167 68.833 -44.5 86.5s-48.833 26.5 -79.5 26.5c-20 0 -37.833 -3 -53.5 -9s-29 -14.167 -40 -24.5s-20.167 -22.333 -27.5 -36s-13 -28.167 -17 -43.5h262zM327.998 843.001c6 9.33301 13 15.833 21 19.5s16.333 5.5 25 5.5
c15.333 0 29.166 -5.16699 41.499 -15.5s18.5 -23.166 18.5 -38.499c0 -10.667 -3.33301 -20.667 -10 -30l-83 -118c-12 -16.667 -27.333 -25 -46 -25c-15.333 0 -29.166 5.16699 -41.499 15.5s-18.5 23.166 -18.5 38.499c0 10.667 3.33301 20.667 10 30z" />
    <glyph glyph-name="ecircumflex" unicode="&#xea;" horiz-adv-x="568" 
d="M509 113c-21.333 -38.667 -50.001 -68.499 -86.001 -89.499s-80.333 -31.5 -133 -31.5c-40.667 0 -77.167 7.66699 -109.5 23s-59.666 36 -81.999 62s-39.333 56.667 -51 92s-17.5 73 -17.5 113s5.83301 77.5 17.5 112.5s28.667 65.333 51 91s49.666 46 81.999 61
s68.833 22.5 109.5 22.5c40 0 75 -7.16699 105 -21.5s55.333 -33.833 76 -58.5s36.167 -53.834 46.5 -87.501s15.5 -69.5 15.5 -107.5c0 -14.667 -5.66699 -27.5 -17 -38.5s-24.666 -16.5 -39.999 -16.5h-329c2.66699 -18 7.5 -35.333 14.5 -52s16.167 -31.167 27.5 -43.5
s25.333 -22.333 42 -30s36.334 -11.5 59.001 -11.5c31.333 0 56 5.33301 74 16s33 26.667 45 48c5.33301 10 12.333 17.167 21 21.5s17.667 6.5 27 6.5c15.333 0 29.166 -5 41.499 -15s18.5 -22.667 18.5 -38c0 -8 -2.66699 -17.333 -8 -28zM413.999 348.001
c-7.33301 40 -22.167 68.833 -44.5 86.5s-48.833 26.5 -79.5 26.5c-20 0 -37.833 -3 -53.5 -9s-29 -14.167 -40 -24.5s-20.167 -22.333 -27.5 -36s-13 -28.167 -17 -43.5h262zM293.998 721.001l-97 -78c-13.333 -10 -25.666 -15 -36.999 -15
c-15.333 0 -28.666 5.66699 -39.999 17s-17 24.333 -17 39c0 16 7 29.667 21 41l133 109c9.33301 7.33301 21.666 11 36.999 11c14 0 26.333 -3.66699 37 -11l134 -109c7.33301 -6 12.666 -12.5 15.999 -19.5s5 -14.167 5 -21.5c0 -14.667 -5.83301 -27.667 -17.5 -39
s-25.167 -17 -40.5 -17c-12.667 0 -25 5 -37 15z" />
    <glyph glyph-name="edieresis" unicode="&#xeb;" horiz-adv-x="568" 
d="M509 113c-21.333 -38.667 -50.001 -68.499 -86.001 -89.499s-80.333 -31.5 -133 -31.5c-40.667 0 -77.167 7.66699 -109.5 23s-59.666 36 -81.999 62s-39.333 56.667 -51 92s-17.5 73 -17.5 113s5.83301 77.5 17.5 112.5s28.667 65.333 51 91s49.666 46 81.999 61
s68.833 22.5 109.5 22.5c40 0 75 -7.16699 105 -21.5s55.333 -33.833 76 -58.5s36.167 -53.834 46.5 -87.501s15.5 -69.5 15.5 -107.5c0 -14.667 -5.66699 -27.5 -17 -38.5s-24.666 -16.5 -39.999 -16.5h-329c2.66699 -18 7.5 -35.333 14.5 -52s16.167 -31.167 27.5 -43.5
s25.333 -22.333 42 -30s36.334 -11.5 59.001 -11.5c31.333 0 56 5.33301 74 16s33 26.667 45 48c5.33301 10 12.333 17.167 21 21.5s17.667 6.5 27 6.5c15.333 0 29.166 -5 41.499 -15s18.5 -22.667 18.5 -38c0 -8 -2.66699 -17.333 -8 -28zM413.999 348.001
c-7.33301 40 -22.167 68.833 -44.5 86.5s-48.833 26.5 -79.5 26.5c-20 0 -37.833 -3 -53.5 -9s-29 -14.167 -40 -24.5s-20.167 -22.333 -27.5 -36s-13 -28.167 -17 -43.5h262zM438.998 715.001c0 -18.667 -6 -32.5 -18 -41.5s-25 -13.5 -39 -13.5
c-14.667 0 -27.834 4.5 -39.501 13.5s-17.5 22.833 -17.5 41.5v14c0 18 5.83301 31.5 17.5 40.5s24.834 13.5 39.501 13.5c14 0 27 -4.5 39 -13.5s18 -22.5 18 -40.5v-14zM254.998 715.001c0 -18.667 -6 -32.5 -18 -41.5s-25 -13.5 -39 -13.5
c-14.667 0 -27.834 4.5 -39.501 13.5s-17.5 22.833 -17.5 41.5v14c0 18 5.83301 31.5 17.5 40.5s24.834 13.5 39.501 13.5c14 0 27 -4.5 39 -13.5s18 -22.5 18 -40.5v-14z" />
    <glyph glyph-name="igrave" unicode="&#xec;" horiz-adv-x="244" 
d="M179 47c0 -18 -6 -31.5 -18 -40.5s-25 -13.5 -39 -13.5c-14.667 0 -27.834 4.5 -39.501 13.5s-17.5 22.5 -17.5 40.5v468c0 18 5.83301 31.5 17.5 40.5s24.834 13.5 39.501 13.5c14 0 27 -4.5 39 -13.5s18 -22.5 18 -40.5v-468zM174 725
c6.66699 -10.667 10.001 -21 10.001 -31c0 -15.333 -6 -28.166 -18 -38.499s-25.667 -15.5 -41 -15.5c-8.66699 0 -17 1.83301 -25 5.5s-15 10.167 -21 19.5l-83 118c-7.33301 10.667 -11 21 -11 31c0 15.333 6.16699 28.166 18.5 38.499s26.166 15.5 41.499 15.5
c18.667 0 34 -8.33301 46 -25z" />
    <glyph glyph-name="iacute" unicode="&#xed;" horiz-adv-x="244" 
d="M179 47c0 -18 -6 -31.5 -18 -40.5s-25 -13.5 -39 -13.5c-14.667 0 -27.834 4.5 -39.501 13.5s-17.5 22.5 -17.5 40.5v468c0 18 5.83301 31.5 17.5 40.5s24.834 13.5 39.501 13.5c14 0 27 -4.5 39 -13.5s18 -22.5 18 -40.5v-468zM157 843c6 9.33301 13 15.833 21 19.5
s16.333 5.5 25 5.5c15.333 0 29.166 -5.16699 41.499 -15.5s18.5 -23.166 18.5 -38.499c0 -10.667 -3.33301 -20.667 -10 -30l-83 -118c-12 -16.667 -27.333 -25 -46 -25c-15.333 0 -29.166 5.16699 -41.499 15.5s-18.5 23.166 -18.5 38.499c0 10.667 3.33301 20.667 10 30z
" />
    <glyph glyph-name="icircumflex" unicode="&#xee;" horiz-adv-x="244" 
d="M179 47c0 -18 -6 -31.5 -18 -40.5s-25 -13.5 -39 -13.5c-14.667 0 -27.834 4.5 -39.501 13.5s-17.5 22.5 -17.5 40.5v468c0 18 5.83301 31.5 17.5 40.5s24.834 13.5 39.501 13.5c14 0 27 -4.5 39 -13.5s18 -22.5 18 -40.5v-468zM123 721l-97 -78
c-13.333 -10 -25.666 -15 -36.999 -15c-15.333 0 -28.666 5.66699 -39.999 17s-17 24.333 -17 39c0 16 7 29.667 21 41l133 109c9.33301 7.33301 21.666 11 36.999 11c14 0 26.333 -3.66699 37 -11l134 -109c7.33301 -6 12.666 -12.5 15.999 -19.5s5 -14.167 5 -21.5
c0 -14.667 -5.83301 -27.667 -17.5 -39s-25.167 -17 -40.5 -17c-12.667 0 -25 5 -37 15z" />
    <glyph glyph-name="idieresis" unicode="&#xef;" horiz-adv-x="244" 
d="M179 47c0 -18 -6 -31.5 -18 -40.5s-25 -13.5 -39 -13.5c-14.667 0 -27.834 4.5 -39.501 13.5s-17.5 22.5 -17.5 40.5v468c0 18 5.83301 31.5 17.5 40.5s24.834 13.5 39.501 13.5c14 0 27 -4.5 39 -13.5s18 -22.5 18 -40.5v-468zM268 715c0 -18.667 -6 -32.5 -18 -41.5
s-25 -13.5 -39 -13.5c-14.667 0 -27.834 4.5 -39.501 13.5s-17.5 22.833 -17.5 41.5v14c0 18 5.83301 31.5 17.5 40.5s24.834 13.5 39.501 13.5c14 0 27 -4.5 39 -13.5s18 -22.5 18 -40.5v-14zM84 715c0 -18.667 -6 -32.5 -18 -41.5s-25 -13.5 -39 -13.5
c-14.667 0 -27.834 4.5 -39.501 13.5s-17.5 22.833 -17.5 41.5v14c0 18 5.83301 31.5 17.5 40.5s24.834 13.5 39.501 13.5c14 0 27 -4.5 39 -13.5s18 -22.5 18 -40.5v-14z" />
    <glyph glyph-name="eth" unicode="&#xf0;" horiz-adv-x="584" 
d="M175 681c-7.33301 0 -13.501 2.00098 -18.501 6.00098s-9.16699 8.66699 -12.5 14s-5.83301 10.833 -7.5 16.5s-2.5 10.167 -2.5 13.5c0 14 5.16699 27 15.5 39s23.833 18 40.5 18c11.333 0 25.5 -4.33301 42.5 -13s36.833 -20.667 59.5 -36l74 37c10 4.66699 20 7 30 7
c14 0 25.5 -4.66699 34.5 -14s13.5 -19.666 13.5 -30.999c0 -8.66699 -2.66699 -17.167 -8 -25.5s-13.666 -15.166 -24.999 -20.499l-38 -19c22.667 -22 44.834 -46.833 66.501 -74.5s41 -57.834 58 -90.501s30.667 -67.834 41 -105.501s15.5 -77.834 15.5 -120.501
c0 -40 -6 -77.667 -18 -113s-29.167 -66 -51.5 -92s-49.833 -46.5 -82.5 -61.5s-69.334 -22.5 -110.001 -22.5c-41.333 0 -78.166 7.5 -110.499 22.5s-59.666 35.5 -81.999 61.5s-39.5 56.667 -51.5 92s-18 73 -18 113s5.5 77.167 16.5 111.5s27 64 48 89
s47.167 44.667 78.5 59s67.666 21.5 108.999 21.5c16.667 0 34 -2.66699 52 -8c-23.333 26 -45.333 47.667 -66 65l-69 -34c-10 -5.33301 -20.333 -8 -31 -8c-14 0 -25.5 4.66699 -34.5 14s-13.5 20 -13.5 32c0 8.66699 2.66699 17 8 25s13.666 15 24.999 21z
M291.999 460.001c-20.667 0 -40 -3.66797 -58 -11.001s-33.667 -18.5 -47 -33.5s-23.833 -33.5 -31.5 -55.5s-11.5 -48 -11.5 -78s3.83301 -56.333 11.5 -79s18.167 -41.5 31.5 -56.5s29 -26.167 47 -33.5s37.333 -11 58 -11s40 3.66699 58 11s33.667 18.5 47 33.5
s23.833 33.833 31.5 56.5s11.5 49 11.5 79c0 22.667 -2 44.834 -6 66.501s-11.5 40.667 -22.5 57s-26 29.5 -45 39.5s-43.833 15 -74.5 15z" />
    <glyph glyph-name="ntilde" unicode="&#xf1;" horiz-adv-x="582" 
d="M414 316c0 29.333 -2.33203 53.333 -6.99902 72s-11.834 33.334 -21.501 44.001s-21.667 18 -36 22s-31.166 6 -50.499 6c-17.333 0 -33.5 -2.83301 -48.5 -8.5s-28.167 -14.5 -39.5 -26.5s-20.333 -27.333 -27 -46s-10 -41.334 -10 -68.001v-264
c0 -18 -6 -31.5 -18 -40.5s-25 -13.5 -39 -13.5c-14.667 0 -27.834 4.5 -39.501 13.5s-17.5 22.5 -17.5 40.5v468c0 18 5.83301 31.5 17.5 40.5s24.834 13.5 39.501 13.5c14 0 27 -4.5 39 -13.5s18 -22.5 18 -40.5v-2c17.333 17.333 37.833 31 61.5 41s51.5 15 83.5 15
c40 0 73.333 -5.83301 100 -17.5s48 -28.334 64 -50.001s27.5 -48.167 34.5 -79.5s10.5 -66.666 10.5 -105.999v-269c0 -18 -6 -31.5 -18 -40.5s-25 -13.5 -39 -13.5c-14.667 0 -27.834 4.5 -39.501 13.5s-17.5 22.5 -17.5 40.5v269zM128.001 761
c20 17.333 38.8359 29.3311 56.5029 35.998s34.167 10 49.5 10c14 0 26.833 -2.33301 38.5 -7s22.5 -10 32.5 -16l26 -16c7.33301 -4.66699 13.333 -7 18 -7s9.5 1.5 14.5 4.5s10.5 6.5 16.5 10.5s12 7.5 18 10.5s12.333 4.5 19 4.5c15.333 0 28.666 -5.5 39.999 -16.5
s17 -23.833 17 -38.5c0 -11.333 -4.33301 -22.166 -13 -32.499s-19.334 -19.333 -32.001 -27s-26 -13.667 -40 -18s-26.333 -6.5 -37 -6.5c-10 0 -20.167 2.33301 -30.5 7s-20.5 9.83398 -30.5 15.501s-20 10.834 -30 15.501s-19.333 7 -28 7c-4 0 -8.5 -1.66699 -13.5 -5
l-16 -11c-5.66699 -4 -11.834 -7.66699 -18.501 -11s-13.334 -5 -20.001 -5c-15.333 0 -28.666 5.66699 -39.999 17s-17 24.333 -17 39c0 15.333 6.66699 28.666 20 39.999z" />
    <glyph glyph-name="ograve" unicode="&#xf2;" horiz-adv-x="584" 
d="M30 282c0 40 6 77.5 18 112.5s29.167 65.5 51.5 91.5s49.666 46.333 81.999 61s69.166 22 110.499 22c40.667 0 77.334 -7.33301 110.001 -22s60.167 -35 82.5 -61s39.5 -56.5 51.5 -91.5s18 -72.5 18 -112.5s-6 -77.667 -18 -113s-29.167 -66 -51.5 -92
s-49.833 -46.5 -82.5 -61.5s-69.334 -22.5 -110.001 -22.5c-41.333 0 -78.166 7.5 -110.499 22.5s-59.666 35.5 -81.999 61.5s-39.5 56.667 -51.5 92s-18 73 -18 113zM144 282c0 -30 3.83301 -56.333 11.5 -79s18.167 -41.5 31.5 -56.5s29 -26.167 47 -33.5
s37.333 -11 58 -11s40 3.66699 58 11s33.667 18.5 47 33.5s23.833 33.833 31.5 56.5s11.5 49 11.5 79s-3.83301 56 -11.5 78s-18.167 40.5 -31.5 55.5s-29 26.167 -47 33.5s-37.333 11 -58 11s-40 -3.66699 -58 -11s-33.667 -18.5 -47 -33.5s-23.833 -33.5 -31.5 -55.5
s-11.5 -48 -11.5 -78zM343 725c6.66699 -10.667 10.001 -21 10.001 -31c0 -15.333 -6 -28.166 -18 -38.499s-25.667 -15.5 -41 -15.5c-8.66699 0 -17 1.83301 -25 5.5s-15 10.167 -21 19.5l-83 118c-7.33301 10.667 -11 21 -11 31c0 15.333 6.16699 28.166 18.5 38.499
s26.166 15.5 41.499 15.5c18.667 0 34 -8.33301 46 -25z" />
    <glyph glyph-name="oacute" unicode="&#xf3;" horiz-adv-x="584" 
d="M30 282c0 40 6 77.5 18 112.5s29.167 65.5 51.5 91.5s49.666 46.333 81.999 61s69.166 22 110.499 22c40.667 0 77.334 -7.33301 110.001 -22s60.167 -35 82.5 -61s39.5 -56.5 51.5 -91.5s18 -72.5 18 -112.5s-6 -77.667 -18 -113s-29.167 -66 -51.5 -92
s-49.833 -46.5 -82.5 -61.5s-69.334 -22.5 -110.001 -22.5c-41.333 0 -78.166 7.5 -110.499 22.5s-59.666 35.5 -81.999 61.5s-39.5 56.667 -51.5 92s-18 73 -18 113zM144 282c0 -30 3.83301 -56.333 11.5 -79s18.167 -41.5 31.5 -56.5s29 -26.167 47 -33.5
s37.333 -11 58 -11s40 3.66699 58 11s33.667 18.5 47 33.5s23.833 33.833 31.5 56.5s11.5 49 11.5 79s-3.83301 56 -11.5 78s-18.167 40.5 -31.5 55.5s-29 26.167 -47 33.5s-37.333 11 -58 11s-40 -3.66699 -58 -11s-33.667 -18.5 -47 -33.5s-23.833 -33.5 -31.5 -55.5
s-11.5 -48 -11.5 -78zM326 843c6 9.33301 13 15.833 21 19.5s16.333 5.5 25 5.5c15.333 0 29.166 -5.16699 41.499 -15.5s18.5 -23.166 18.5 -38.499c0 -10.667 -3.33301 -20.667 -10 -30l-83 -118c-12 -16.667 -27.333 -25 -46 -25c-15.333 0 -29.166 5.16699 -41.499 15.5
s-18.5 23.166 -18.5 38.499c0 10.667 3.33301 20.667 10 30z" />
    <glyph glyph-name="ocircumflex" unicode="&#xf4;" horiz-adv-x="584" 
d="M30 282c0 40 6 77.5 18 112.5s29.167 65.5 51.5 91.5s49.666 46.333 81.999 61s69.166 22 110.499 22c40.667 0 77.334 -7.33301 110.001 -22s60.167 -35 82.5 -61s39.5 -56.5 51.5 -91.5s18 -72.5 18 -112.5s-6 -77.667 -18 -113s-29.167 -66 -51.5 -92
s-49.833 -46.5 -82.5 -61.5s-69.334 -22.5 -110.001 -22.5c-41.333 0 -78.166 7.5 -110.499 22.5s-59.666 35.5 -81.999 61.5s-39.5 56.667 -51.5 92s-18 73 -18 113zM144 282c0 -30 3.83301 -56.333 11.5 -79s18.167 -41.5 31.5 -56.5s29 -26.167 47 -33.5
s37.333 -11 58 -11s40 3.66699 58 11s33.667 18.5 47 33.5s23.833 33.833 31.5 56.5s11.5 49 11.5 79s-3.83301 56 -11.5 78s-18.167 40.5 -31.5 55.5s-29 26.167 -47 33.5s-37.333 11 -58 11s-40 -3.66699 -58 -11s-33.667 -18.5 -47 -33.5s-23.833 -33.5 -31.5 -55.5
s-11.5 -48 -11.5 -78zM292 721l-97 -78c-13.333 -10 -25.666 -15 -36.999 -15c-15.333 0 -28.666 5.66699 -39.999 17s-17 24.333 -17 39c0 16 7 29.667 21 41l133 109c9.33301 7.33301 21.666 11 36.999 11c14 0 26.333 -3.66699 37 -11l134 -109
c7.33301 -6 12.666 -12.5 15.999 -19.5s5 -14.167 5 -21.5c0 -14.667 -5.83301 -27.667 -17.5 -39s-25.167 -17 -40.5 -17c-12.667 0 -25 5 -37 15z" />
    <glyph glyph-name="otilde" unicode="&#xf5;" horiz-adv-x="584" 
d="M30 282c0 40 6 77.5 18 112.5s29.167 65.5 51.5 91.5s49.666 46.333 81.999 61s69.166 22 110.499 22c40.667 0 77.334 -7.33301 110.001 -22s60.167 -35 82.5 -61s39.5 -56.5 51.5 -91.5s18 -72.5 18 -112.5s-6 -77.667 -18 -113s-29.167 -66 -51.5 -92
s-49.833 -46.5 -82.5 -61.5s-69.334 -22.5 -110.001 -22.5c-41.333 0 -78.166 7.5 -110.499 22.5s-59.666 35.5 -81.999 61.5s-39.5 56.667 -51.5 92s-18 73 -18 113zM144 282c0 -30 3.83301 -56.333 11.5 -79s18.167 -41.5 31.5 -56.5s29 -26.167 47 -33.5
s37.333 -11 58 -11s40 3.66699 58 11s33.667 18.5 47 33.5s23.833 33.833 31.5 56.5s11.5 49 11.5 79s-3.83301 56 -11.5 78s-18.167 40.5 -31.5 55.5s-29 26.167 -47 33.5s-37.333 11 -58 11s-40 -3.66699 -58 -11s-33.667 -18.5 -47 -33.5s-23.833 -33.5 -31.5 -55.5
s-11.5 -48 -11.5 -78zM129 761c20 17.333 38.8359 29.3311 56.5029 35.998s34.167 10 49.5 10c14 0 26.833 -2.33301 38.5 -7s22.5 -10 32.5 -16l26 -16c7.33301 -4.66699 13.333 -7 18 -7s9.5 1.5 14.5 4.5s10.5 6.5 16.5 10.5s12 7.5 18 10.5s12.333 4.5 19 4.5
c15.333 0 28.666 -5.5 39.999 -16.5s17 -23.833 17 -38.5c0 -11.333 -4.33301 -22.166 -13 -32.499s-19.334 -19.333 -32.001 -27s-26 -13.667 -40 -18s-26.333 -6.5 -37 -6.5c-10 0 -20.167 2.33301 -30.5 7s-20.5 9.83398 -30.5 15.501s-20 10.834 -30 15.501
s-19.333 7 -28 7c-4 0 -8.5 -1.66699 -13.5 -5l-16 -11c-5.66699 -4 -11.834 -7.66699 -18.501 -11s-13.334 -5 -20.001 -5c-15.333 0 -28.666 5.66699 -39.999 17s-17 24.333 -17 39c0 15.333 6.66699 28.666 20 39.999z" />
    <glyph glyph-name="odieresis" unicode="&#xf6;" horiz-adv-x="584" 
d="M30 282c0 40 6 77.5 18 112.5s29.167 65.5 51.5 91.5s49.666 46.333 81.999 61s69.166 22 110.499 22c40.667 0 77.334 -7.33301 110.001 -22s60.167 -35 82.5 -61s39.5 -56.5 51.5 -91.5s18 -72.5 18 -112.5s-6 -77.667 -18 -113s-29.167 -66 -51.5 -92
s-49.833 -46.5 -82.5 -61.5s-69.334 -22.5 -110.001 -22.5c-41.333 0 -78.166 7.5 -110.499 22.5s-59.666 35.5 -81.999 61.5s-39.5 56.667 -51.5 92s-18 73 -18 113zM144 282c0 -30 3.83301 -56.333 11.5 -79s18.167 -41.5 31.5 -56.5s29 -26.167 47 -33.5
s37.333 -11 58 -11s40 3.66699 58 11s33.667 18.5 47 33.5s23.833 33.833 31.5 56.5s11.5 49 11.5 79s-3.83301 56 -11.5 78s-18.167 40.5 -31.5 55.5s-29 26.167 -47 33.5s-37.333 11 -58 11s-40 -3.66699 -58 -11s-33.667 -18.5 -47 -33.5s-23.833 -33.5 -31.5 -55.5
s-11.5 -48 -11.5 -78zM437 715c0 -18.667 -6 -32.5 -18 -41.5s-25 -13.5 -39 -13.5c-14.667 0 -27.834 4.5 -39.501 13.5s-17.5 22.833 -17.5 41.5v14c0 18 5.83301 31.5 17.5 40.5s24.834 13.5 39.501 13.5c14 0 27 -4.5 39 -13.5s18 -22.5 18 -40.5v-14zM253 715
c0 -18.667 -6 -32.5 -18 -41.5s-25 -13.5 -39 -13.5c-14.667 0 -27.834 4.5 -39.501 13.5s-17.5 22.833 -17.5 41.5v14c0 18 5.83301 31.5 17.5 40.5s24.834 13.5 39.501 13.5c14 0 27 -4.5 39 -13.5s18 -22.5 18 -40.5v-14z" />
    <glyph glyph-name="divide" unicode="&#xf7;" 
d="M89 343h402c19.333 0 33.666 -5.66699 42.999 -17s14 -24 14 -38c0 -13.333 -4.66699 -25.666 -14 -36.999s-23.666 -17 -42.999 -17h-402c-19.333 0 -33.666 5.66699 -42.999 17s-14 23.666 -14 36.999c0 14 4.66699 26.667 14 38s23.666 17 42.999 17zM347 88v-14
c0 -18 -6 -31.5 -18 -40.5s-25 -13.5 -39 -13.5c-14.667 0 -27.834 4.5 -39.501 13.5s-17.5 22.5 -17.5 40.5v14c0 18 5.83301 31.667 17.5 41s24.834 14 39.501 14c14 0 27 -4.66699 39 -14s18 -23 18 -41zM347 497v-14c0 -18.667 -6 -32.5 -18 -41.5s-25 -13.5 -39 -13.5
c-14.667 0 -27.834 4.5 -39.501 13.5s-17.5 22.833 -17.5 41.5v14c0 18 5.83301 31.667 17.5 41s24.834 14 39.501 14c14 0 27 -4.66699 39 -14s18 -23 18 -41z" />
    <glyph glyph-name="oslash" unicode="&#xf8;" horiz-adv-x="584" 
d="M30 282c0 40 6.00586 77.499 18.0059 112.499s29.167 65.5 51.5 91.5s49.666 46.333 81.999 61s69.166 22 110.499 22c14.667 0 29 -1 43 -3l4 13c2.66699 8.66699 6.66699 14.834 12 18.501s11.666 5.5 18.999 5.5c9.33301 0 17.666 -2.83301 24.999 -8.5
s11 -13.5 11 -23.5c0 -3.33301 -0.333008 -6 -1 -8l-4 -16c48.667 -21.333 86.334 -55.666 113.001 -102.999s40 -101.333 40 -162c0 -40 -6 -77.667 -18 -113s-29.167 -66 -51.5 -92s-49.833 -46.5 -82.5 -61.5s-69.334 -22.5 -110.001 -22.5
c-6.66699 0 -13 0.166992 -19 0.5s-12 0.833008 -18 1.5l-5 -19c-2.66699 -8.66699 -6.83398 -14.834 -12.501 -18.501s-12.167 -5.5 -19.5 -5.5c-8.66699 0 -16.667 2.83301 -24 8.5s-11 13.5 -11 23.5c0 3.33301 0.333008 6 1 8l5 20
c-50.667 21.333 -89.834 56 -117.501 104s-41.5 103.333 -41.5 166zM144.006 281.999c0 -41.333 6.66699 -75.168 20 -101.501s31.333 -46.166 54 -59.499l89 338c-3.33301 0.666992 -8.33301 1 -15 1c-20.667 0 -40 -3.66699 -58 -11s-33.667 -18.5 -47 -33.5
s-23.833 -33.5 -31.5 -55.5s-11.5 -48 -11.5 -78zM292.006 101.997c20.667 0 40 3.66699 58 11s33.667 18.5 47 33.5s23.833 33.833 31.5 56.5s11.5 49 11.5 79c0 38 -6.16699 70 -18.5 96s-28.833 45.667 -49.5 59l-89 -335h9z" />
    <glyph glyph-name="ugrave" unicode="&#xf9;" horiz-adv-x="577" 
d="M169 244c0 -28 2.66504 -51 7.99805 -69s13.333 -32.5 24 -43.5s23.834 -18.667 39.501 -23s33.5 -6.5 53.5 -6.5c16.667 0 32 1.83301 46 5.5s26 10.5 36 20.5s17.833 24.333 23.5 43s8.5 43 8.5 73v271c0 18 5.83301 31.5 17.5 40.5s24.834 13.5 39.501 13.5
c14 0 27 -4.5 39 -13.5s18 -22.5 18 -40.5v-271c0 -84.667 -20.333 -147.667 -61 -189s-96.334 -62 -167.001 -62c-78 0 -137.333 21.667 -178 65s-61 105.333 -61 186v271c0 18 5.83301 31.5 17.5 40.5s24.834 13.5 39.501 13.5c14 0 27 -4.5 39 -13.5s18 -22.5 18 -40.5
v-271zM339.998 725c6.66699 -10.667 10.001 -21 10.001 -31c0 -15.333 -6 -28.166 -18 -38.499s-25.667 -15.5 -41 -15.5c-8.66699 0 -17 1.83301 -25 5.5s-15 10.167 -21 19.5l-83 118c-7.33301 10.667 -11 21 -11 31c0 15.333 6.16699 28.166 18.5 38.499
s26.166 15.5 41.499 15.5c18.667 0 34 -8.33301 46 -25z" />
    <glyph glyph-name="uacute" unicode="&#xfa;" horiz-adv-x="577" 
d="M169 244c0 -28 2.66504 -51 7.99805 -69s13.333 -32.5 24 -43.5s23.834 -18.667 39.501 -23s33.5 -6.5 53.5 -6.5c16.667 0 32 1.83301 46 5.5s26 10.5 36 20.5s17.833 24.333 23.5 43s8.5 43 8.5 73v271c0 18 5.83301 31.5 17.5 40.5s24.834 13.5 39.501 13.5
c14 0 27 -4.5 39 -13.5s18 -22.5 18 -40.5v-271c0 -84.667 -20.333 -147.667 -61 -189s-96.334 -62 -167.001 -62c-78 0 -137.333 21.667 -178 65s-61 105.333 -61 186v271c0 18 5.83301 31.5 17.5 40.5s24.834 13.5 39.501 13.5c14 0 27 -4.5 39 -13.5s18 -22.5 18 -40.5
v-271zM322.998 843c6 9.33301 13 15.833 21 19.5s16.333 5.5 25 5.5c15.333 0 29.166 -5.16699 41.499 -15.5s18.5 -23.166 18.5 -38.499c0 -10.667 -3.33301 -20.667 -10 -30l-83 -118c-12 -16.667 -27.333 -25 -46 -25c-15.333 0 -29.166 5.16699 -41.499 15.5
s-18.5 23.166 -18.5 38.499c0 10.667 3.33301 20.667 10 30z" />
    <glyph glyph-name="ucircumflex" unicode="&#xfb;" horiz-adv-x="577" 
d="M169 244c0 -28 2.66504 -51 7.99805 -69s13.333 -32.5 24 -43.5s23.834 -18.667 39.501 -23s33.5 -6.5 53.5 -6.5c16.667 0 32 1.83301 46 5.5s26 10.5 36 20.5s17.833 24.333 23.5 43s8.5 43 8.5 73v271c0 18 5.83301 31.5 17.5 40.5s24.834 13.5 39.501 13.5
c14 0 27 -4.5 39 -13.5s18 -22.5 18 -40.5v-271c0 -84.667 -20.333 -147.667 -61 -189s-96.334 -62 -167.001 -62c-78 0 -137.333 21.667 -178 65s-61 105.333 -61 186v271c0 18 5.83301 31.5 17.5 40.5s24.834 13.5 39.501 13.5c14 0 27 -4.5 39 -13.5s18 -22.5 18 -40.5
v-271zM288.998 721l-97 -78c-13.333 -10 -25.666 -15 -36.999 -15c-15.333 0 -28.666 5.66699 -39.999 17s-17 24.333 -17 39c0 16 7 29.667 21 41l133 109c9.33301 7.33301 21.666 11 36.999 11c14 0 26.333 -3.66699 37 -11l134 -109
c7.33301 -6 12.666 -12.5 15.999 -19.5s5 -14.167 5 -21.5c0 -14.667 -5.83301 -27.667 -17.5 -39s-25.167 -17 -40.5 -17c-12.667 0 -25 5 -37 15z" />
    <glyph glyph-name="udieresis" unicode="&#xfc;" horiz-adv-x="577" 
d="M169 244c0 -28 2.66504 -51 7.99805 -69s13.333 -32.5 24 -43.5s23.834 -18.667 39.501 -23s33.5 -6.5 53.5 -6.5c16.667 0 32 1.83301 46 5.5s26 10.5 36 20.5s17.833 24.333 23.5 43s8.5 43 8.5 73v271c0 18 5.83301 31.5 17.5 40.5s24.834 13.5 39.501 13.5
c14 0 27 -4.5 39 -13.5s18 -22.5 18 -40.5v-271c0 -84.667 -20.333 -147.667 -61 -189s-96.334 -62 -167.001 -62c-78 0 -137.333 21.667 -178 65s-61 105.333 -61 186v271c0 18 5.83301 31.5 17.5 40.5s24.834 13.5 39.501 13.5c14 0 27 -4.5 39 -13.5s18 -22.5 18 -40.5
v-271zM433.998 715c0 -18.667 -6 -32.5 -18 -41.5s-25 -13.5 -39 -13.5c-14.667 0 -27.834 4.5 -39.501 13.5s-17.5 22.833 -17.5 41.5v14c0 18 5.83301 31.5 17.5 40.5s24.834 13.5 39.501 13.5c14 0 27 -4.5 39 -13.5s18 -22.5 18 -40.5v-14zM249.998 715
c0 -18.667 -6 -32.5 -18 -41.5s-25 -13.5 -39 -13.5c-14.667 0 -27.834 4.5 -39.501 13.5s-17.5 22.833 -17.5 41.5v14c0 18 5.83301 31.5 17.5 40.5s24.834 13.5 39.501 13.5c14 0 27 -4.5 39 -13.5s18 -22.5 18 -40.5v-14z" />
    <glyph glyph-name="yacute" unicode="&#xfd;" horiz-adv-x="530" 
d="M86 -82c10.667 0 19.332 -1.83887 25.999 -5.50586s14.334 -5.5 23.001 -5.5s16.334 2.66699 23.001 8s12.834 12.833 18.501 22.5s11.167 20.834 16.5 33.501l17 41l11 27l-206 455c-3.33301 6.66699 -5 14.334 -5 23.001c0 15.333 6 28 18 38s25.667 15 41 15
c10 0 19.667 -2.66699 29 -8s16.666 -14 21.999 -26l156 -343l133 341c5.33301 12.667 12.666 21.834 21.999 27.501s19.333 8.5 30 8.5c14.667 0 28.167 -4.83301 40.5 -14.5s18.5 -22.5 18.5 -38.5c0 -8 -1.33301 -15 -4 -21l-186 -475l-17 -46
c-7.33301 -20 -15.833 -40.333 -25.5 -61s-21.5 -39.667 -35.5 -57s-30.5 -31.5 -49.5 -42.5s-41.5 -16.5 -67.5 -16.5c-12.667 0 -25.167 1.16699 -37.5 3.5s-23.5 6.33301 -33.5 12s-18 12.834 -24 21.501s-9 19.334 -9 32.001c0 14.667 4.83301 26.834 14.5 36.501
s23.167 14.5 40.5 14.5zM298.998 842.994c6 9.33301 13 15.833 21 19.5s16.333 5.5 25 5.5c15.333 0 29.166 -5.16699 41.499 -15.5s18.5 -23.166 18.5 -38.499c0 -10.667 -3.33301 -20.667 -10 -30l-83 -118c-12 -16.667 -27.333 -25 -46 -25
c-15.333 0 -29.166 5.16699 -41.499 15.5s-18.5 23.166 -18.5 38.499c0 10.667 3.33301 20.667 10 30z" />
    <glyph glyph-name="thorn" unicode="&#xfe;" horiz-adv-x="589" 
d="M60 733c0 18 5.83398 31.667 17.501 41s24.834 14 39.501 14c14 0 27 -4.66699 39 -14s18 -23 18 -41v-232c18.667 22 40.167 38.333 64.5 49s51.166 16 80.499 16c41.333 0 77 -7.66699 107 -23s54.833 -36 74.5 -62s34.334 -56.333 44.001 -91
s14.5 -71.334 14.5 -110.001c0 -39.333 -4.83301 -76.5 -14.5 -111.5s-24.334 -65.667 -44.001 -92s-44.5 -47.166 -74.5 -62.499s-65.667 -23 -107 -23c-32 0 -60 5 -84 15s-44.333 24.333 -61 43v-192c0 -18 -6 -31.5 -18 -40.5s-25 -13.5 -39 -13.5
c-14.667 0 -27.834 4.5 -39.501 13.5s-17.5 22.5 -17.5 40.5v876zM174.001 263l-0.000976562 -8.00098c0.666992 -26 4.83398 -48.833 12.501 -68.5s17.667 -35.834 30 -48.501s26.5 -22.167 42.5 -28.5s32.667 -9.5 50 -9.5c19.333 0 37.333 3.5 54 10.5s31 17.833 43 32.5
s21.5 33.334 28.5 56.001s10.5 49.667 10.5 81c0 61.333 -13 106.333 -39 135s-58.333 43 -97 43c-13.333 0 -27.5 -2.66699 -42.5 -8s-29.333 -14.166 -43 -26.499s-25.167 -29 -34.5 -50s-14.333 -47.5 -15 -79.5v-12v-18v-1z" />
    <glyph glyph-name="ydieresis" unicode="&#xff;" horiz-adv-x="530" 
d="M86 -82c10.667 0 19.332 -1.83887 25.999 -5.50586s14.334 -5.5 23.001 -5.5s16.334 2.66699 23.001 8s12.834 12.833 18.501 22.5s11.167 20.834 16.5 33.501l17 41l11 27l-206 455c-3.33301 6.66699 -5 14.334 -5 23.001c0 15.333 6 28 18 38s25.667 15 41 15
c10 0 19.667 -2.66699 29 -8s16.666 -14 21.999 -26l156 -343l133 341c5.33301 12.667 12.666 21.834 21.999 27.501s19.333 8.5 30 8.5c14.667 0 28.167 -4.83301 40.5 -14.5s18.5 -22.5 18.5 -38.5c0 -8 -1.33301 -15 -4 -21l-186 -475l-17 -46
c-7.33301 -20 -15.833 -40.333 -25.5 -61s-21.5 -39.667 -35.5 -57s-30.5 -31.5 -49.5 -42.5s-41.5 -16.5 -67.5 -16.5c-12.667 0 -25.167 1.16699 -37.5 3.5s-23.5 6.33301 -33.5 12s-18 12.834 -24 21.501s-9 19.334 -9 32.001c0 14.667 4.83301 26.834 14.5 36.501
s23.167 14.5 40.5 14.5zM409.998 714.994c0 -18.667 -6 -32.5 -18 -41.5s-25 -13.5 -39 -13.5c-14.667 0 -27.834 4.5 -39.501 13.5s-17.5 22.833 -17.5 41.5v14c0 18 5.83301 31.5 17.5 40.5s24.834 13.5 39.501 13.5c14 0 27 -4.5 39 -13.5s18 -22.5 18 -40.5v-14z
M225.998 714.994c0 -18.667 -6 -32.5 -18 -41.5s-25 -13.5 -39 -13.5c-14.667 0 -27.834 4.5 -39.501 13.5s-17.5 22.833 -17.5 41.5v14c0 18 5.83301 31.5 17.5 40.5s24.834 13.5 39.501 13.5c14 0 27 -4.5 39 -13.5s18 -22.5 18 -40.5v-14z" />
    <glyph glyph-name="Amacron" unicode="&#x100;" horiz-adv-x="676" 
d="M485 174l-294.003 0.000976562l-60 -148c-5.33301 -12.667 -12.666 -21.667 -21.999 -27s-19.333 -8 -30 -8c-14.667 0 -28.167 4.83301 -40.5 14.5s-18.5 22.5 -18.5 38.5c0 7.33301 1.33301 14.666 4 21.999l262 636c12 28.667 29.333 43 52 43
c10.667 0 20.834 -3.66699 30.501 -11s17.5 -18.333 23.5 -33l260 -636c2.66699 -7.33301 4 -14.666 4 -21.999c0 -15.333 -6 -27.833 -18 -37.5s-25.667 -14.5 -41 -14.5c-10.667 0 -20.667 2.66699 -30 8s-16.666 14.666 -21.999 27.999zM235.997 282.001h205l-102 252z
M464.997 922.001c19.333 0 33.833 -5.66699 43.5 -17s14.5 -24 14.5 -38c0 -13.333 -4.83301 -25.666 -14.5 -36.999s-24.167 -17 -43.5 -17h-262c-19.333 0 -33.666 5.66699 -42.999 17s-14 23.666 -14 36.999c0 14 4.66699 26.667 14 38s23.666 17 42.999 17h262z" />
    <glyph glyph-name="amacron" unicode="&#x101;" horiz-adv-x="538" 
d="M370 91c-15.333 -30.667 -35.9971 -55.166 -61.9971 -73.499s-59.333 -27.5 -100 -27.5c-30 0 -56.5 4.5 -79.5 13.5s-42.167 21.5 -57.5 37.5s-27 35 -35 57s-12 46 -12 72c0 37.333 8.66699 67.5 26 90.5s39.666 40.667 66.999 53s58 20.666 92 24.999
s67.667 6.5 101 6.5h30.5c10.333 0 20.166 -0.333008 29.499 -1c-0.666992 44 -9 74.333 -25 91s-43.333 25 -82 25c-24 0 -44.833 -5 -62.5 -15s-31.167 -23 -40.5 -39c-6 -10 -13 -17.167 -21 -21.5s-16.667 -6.5 -26 -6.5c-15.333 0 -29.166 5 -41.499 15
s-18.5 22.667 -18.5 38c0 10 2.66699 19.333 8 28c10 17.333 22.667 32.833 38 46.5s32.166 25.167 50.499 34.5s38 16.5 59 21.5s42.5 7.5 64.5 7.5c38.667 0 71.5 -5.5 98.5 -16.5s48.833 -26.5 65.5 -46.5s28.667 -44 36 -72s11 -58.667 11 -92v-295
c0 -18 -6 -31.5 -18 -40.5s-25 -13.5 -39 -13.5c-14.667 0 -27.834 4.5 -39.501 13.5s-17.5 22.5 -17.5 40.5v44zM138.003 170.001c0 -18.667 6.66699 -35.166 20 -49.499s36.666 -21.5 69.999 -21.5c40.667 0 73.5 14.167 98.5 42.5s39.167 64.833 42.5 109.5
c-11.333 0.666992 -22.5 1.16699 -33.5 1.5s-21.833 0.5 -32.5 0.5c-24.667 0 -47.167 -1.33301 -67.5 -4s-37.666 -7.33398 -51.999 -14.001s-25.5 -15.167 -33.5 -25.5s-12 -23.5 -12 -39.5zM399.003 772.002c19.333 0 33.833 -5.66699 43.5 -17s14.5 -24 14.5 -38
c0 -13.333 -4.83301 -25.666 -14.5 -36.999s-24.167 -17 -43.5 -17h-262c-19.333 0 -33.666 5.66699 -42.999 17s-14 23.666 -14 36.999c0 14 4.66699 26.667 14 38s23.666 17 42.999 17h262z" />
    <glyph glyph-name="Abreve" unicode="&#x102;" horiz-adv-x="676" 
d="M485 174l-294.003 0.000976562l-60 -148c-5.33301 -12.667 -12.666 -21.667 -21.999 -27s-19.333 -8 -30 -8c-14.667 0 -28.167 4.83301 -40.5 14.5s-18.5 22.5 -18.5 38.5c0 7.33301 1.33301 14.666 4 21.999l262 636c12 28.667 29.333 43 52 43
c10.667 0 20.834 -3.66699 30.501 -11s17.5 -18.333 23.5 -33l260 -636c2.66699 -7.33301 4 -14.666 4 -21.999c0 -15.333 -6 -27.833 -18 -37.5s-25.667 -14.5 -41 -14.5c-10.667 0 -20.667 2.66699 -30 8s-16.666 14.666 -21.999 27.999zM235.997 282.001h205l-102 252z
M503.997 910.001c-5.33301 -14 -12.999 -27.334 -22.999 -40.001s-22.167 -23.834 -36.5 -33.501s-30.5 -17.334 -48.5 -23.001s-37.333 -8.5 -58 -8.5c-24 0 -46.5 3.83301 -67.5 11.5s-39.333 17.5 -55 29.5s-28.167 25.5 -37.5 40.5s-14 29.5 -14 43.5
c0 16.667 6.16699 29.667 18.5 39s25.833 14 40.5 14c11.333 0 22 -3.16699 32 -9.5s17.333 -16.5 22 -30.5c0 -0.666992 1.33301 -2.5 4 -5.5s6.5 -6.33301 11.5 -10s11.333 -6.83398 19 -9.50098s16.5 -4 26.5 -4c16.667 0 30 3.83301 40 11.5s16.333 14.834 19 21.501
c5.33301 12.667 12.5 21.834 21.5 27.501s18.833 8.5 29.5 8.5c15.333 0 29.166 -4.83301 41.499 -14.5s18.5 -22.5 18.5 -38.5c0 -3.33301 -0.333008 -6.66602 -1 -9.99902s-1.66699 -6.66602 -3 -9.99902z" />
    <glyph glyph-name="abreve" unicode="&#x103;" horiz-adv-x="538" 
d="M370 91c-15.333 -30.667 -35.9971 -55.166 -61.9971 -73.499s-59.333 -27.5 -100 -27.5c-30 0 -56.5 4.5 -79.5 13.5s-42.167 21.5 -57.5 37.5s-27 35 -35 57s-12 46 -12 72c0 37.333 8.66699 67.5 26 90.5s39.666 40.667 66.999 53s58 20.666 92 24.999
s67.667 6.5 101 6.5h30.5c10.333 0 20.166 -0.333008 29.499 -1c-0.666992 44 -9 74.333 -25 91s-43.333 25 -82 25c-24 0 -44.833 -5 -62.5 -15s-31.167 -23 -40.5 -39c-6 -10 -13 -17.167 -21 -21.5s-16.667 -6.5 -26 -6.5c-15.333 0 -29.166 5 -41.499 15
s-18.5 22.667 -18.5 38c0 10 2.66699 19.333 8 28c10 17.333 22.667 32.833 38 46.5s32.166 25.167 50.499 34.5s38 16.5 59 21.5s42.5 7.5 64.5 7.5c38.667 0 71.5 -5.5 98.5 -16.5s48.833 -26.5 65.5 -46.5s28.667 -44 36 -72s11 -58.667 11 -92v-295
c0 -18 -6 -31.5 -18 -40.5s-25 -13.5 -39 -13.5c-14.667 0 -27.834 4.5 -39.501 13.5s-17.5 22.5 -17.5 40.5v44zM138.003 170.001c0 -18.667 6.66699 -35.166 20 -49.499s36.666 -21.5 69.999 -21.5c40.667 0 73.5 14.167 98.5 42.5s39.167 64.833 42.5 109.5
c-11.333 0.666992 -22.5 1.16699 -33.5 1.5s-21.833 0.5 -32.5 0.5c-24.667 0 -47.167 -1.33301 -67.5 -4s-37.666 -7.33398 -51.999 -14.001s-25.5 -15.167 -33.5 -25.5s-12 -23.5 -12 -39.5zM436.003 760.002c-5.33301 -14 -12.999 -27.334 -22.999 -40.001
s-22.167 -23.834 -36.5 -33.501s-30.5 -17.334 -48.5 -23.001s-37.333 -8.5 -58 -8.5c-24 0 -46.5 3.83301 -67.5 11.5s-39.333 17.5 -55 29.5s-28.167 25.5 -37.5 40.5s-14 29.5 -14 43.5c0 16.667 6.16699 29.667 18.5 39s25.833 14 40.5 14c11.333 0 22 -3.16699 32 -9.5
s17.333 -16.5 22 -30.5c0 -0.666992 1.33301 -2.5 4 -5.5s6.5 -6.33301 11.5 -10s11.333 -6.83398 19 -9.50098s16.5 -4 26.5 -4c16.667 0 30 3.83301 40 11.5s16.333 14.834 19 21.501c5.33301 12.667 12.5 21.834 21.5 27.501s18.833 8.5 29.5 8.5
c15.333 0 29.166 -4.83301 41.499 -14.5s18.5 -22.5 18.5 -38.5c0 -3.33301 -0.333008 -6.66602 -1 -9.99902s-1.66699 -6.66602 -3 -9.99902z" />
    <glyph glyph-name="Aogonek" unicode="&#x104;" horiz-adv-x="676" 
d="M191 174l-60.002 -148.002c-5.33301 -12.667 -12.666 -21.667 -21.999 -27s-19.333 -8 -30 -8c-14.667 0 -28.167 4.83301 -40.5 14.5s-18.5 22.5 -18.5 38.5c0 7.33301 1.33301 14.666 4 21.999l262 636c12 28.667 29.333 43 52 43c10.667 0 20.834 -3.66699 30.501 -11
s17.5 -18.333 23.5 -33l260 -636c2.66699 -7.33301 4 -14.666 4 -21.999c0 -14.667 -5.33301 -26.667 -16 -36s-23 -14.666 -37 -15.999c-8 -4.66699 -17 -10.5 -27 -17.5s-19.333 -14.667 -28 -23s-16 -16.833 -22 -25.5s-9 -17 -9 -25c0 -4 0.333008 -8.33301 1 -13
s2.5 -9 5.5 -13s7.5 -7.5 13.5 -10.5s14 -4.5 24 -4.5c6 0 12.667 2.33301 20 7c2.66699 2.66699 5.66699 5.33398 9 8.00098c8 5.33301 17 8 27 8c13.333 0 24.666 -5 33.999 -15s14 -21.333 14 -34c0 -11.333 -3.83301 -20.833 -11.5 -28.5s-17.334 -14 -29.001 -19
s-24.167 -8.5 -37.5 -10.5s-25.333 -3 -36 -3c-11.333 0 -23.833 1.83301 -37.5 5.5s-26.5 9.66699 -38.5 18s-22 19.333 -30 33s-12 30.5 -12 50.5c0 17.333 2.83301 33.833 8.5 49.5s13.334 30.5 23.001 44.5s20.834 26.833 33.501 38.5s26 22.167 40 31.5l-53 131h-294z
M235.998 281.998h205l-102 252z" />
    <glyph glyph-name="aogonek" unicode="&#x105;" horiz-adv-x="538" 
d="M370 47l0.00390625 44c-15.333 -30.667 -36 -55.167 -62 -73.5s-59.333 -27.5 -100 -27.5c-30 0 -56.5 4.5 -79.5 13.5s-42.167 21.5 -57.5 37.5s-27 35 -35 57s-12 46 -12 72c0 37.333 8.66699 67.5 26 90.5s39.666 40.667 66.999 53s58 20.666 92 24.999
s67.667 6.5 101 6.5h30.5c10.333 0 20.166 -0.333008 29.499 -1c-0.666992 44 -9 74.333 -25 91s-43.333 25 -82 25c-24 0 -44.833 -5 -62.5 -15s-31.167 -23 -40.5 -39c-6 -10 -13 -17.167 -21 -21.5s-16.667 -6.5 -26 -6.5c-15.333 0 -29.166 5 -41.499 15
s-18.5 22.667 -18.5 38c0 10 2.66699 19.333 8 28c10 17.333 22.667 32.833 38 46.5s32.166 25.167 50.499 34.5s38 16.5 59 21.5s42.5 7.5 64.5 7.5c38.667 0 71.5 -5.5 98.5 -16.5s48.833 -26.5 65.5 -46.5s28.667 -44 36 -72s11 -58.667 11 -92v-295
c0 -16 -4.66699 -28.333 -14 -37s-20.333 -14 -33 -16c-8 -4.66699 -17.167 -10.667 -27.5 -18s-20.333 -15.333 -30 -24s-17.667 -17.5 -24 -26.5s-9.5 -17.5 -9.5 -25.5c0 -4 0.333008 -8.33301 1 -13s2.5 -9 5.5 -13s7.5 -7.5 13.5 -10.5s14 -4.5 24 -4.5
c6 0 12.667 2.33301 20 7c2.66699 2.66699 5.66699 5.33398 9 8.00098c8 5.33301 17 8 27 8c13.333 0 24.666 -5 33.999 -15s14 -21.333 14 -34c0 -11.333 -3.83301 -20.833 -11.5 -28.5s-17.334 -14 -29.001 -19s-24.167 -8.5 -37.5 -10.5s-25.333 -3 -36 -3
c-11.333 0 -23.833 1.83301 -37.5 5.5s-26.5 9.66699 -38.5 18s-22 19.333 -30 33s-12 30.5 -12 50.5c0 18 3 34.833 9 50.5s14 30.5 24 44.5s21.5 27 34.5 39s26.5 22.667 40.5 32v2zM138.004 170c0 -18.667 6.66699 -35.166 20 -49.499s36.666 -21.5 69.999 -21.5
c40.667 0 73.5 14.167 98.5 42.5s39.167 64.833 42.5 109.5c-11.333 0.666992 -22.5 1.16699 -33.5 1.5s-21.833 0.5 -32.5 0.5c-24.667 0 -47.167 -1.33301 -67.5 -4s-37.666 -7.33398 -51.999 -14.001s-25.5 -15.167 -33.5 -25.5s-12 -23.5 -12 -39.5z" />
    <glyph glyph-name="Cacute" unicode="&#x106;" horiz-adv-x="703" 
d="M652 96c-34.667 -38 -75.8369 -65.0029 -123.504 -81.0029s-96.5 -24 -146.5 -24c-51.333 0 -97.5 9.83301 -138.5 29.5s-76 46.334 -105 80.001s-51.333 73 -67 118s-23.5 93.167 -23.5 144.5c0 52 8 100.667 24 146s38.833 84.833 68.5 118.5s65.667 60.167 108 79.5
s89.833 29 142.5 29c56.667 0 107.334 -10.167 152.001 -30.5s83 -48.166 115 -83.499c10 -12 15 -24 15 -36c0 -14.667 -6.16699 -27.5 -18.5 -38.5s-26.166 -16.5 -41.499 -16.5c-7.33301 0 -14.666 1.33301 -21.999 4s-14 7.66699 -20 15c-22 24 -47.667 42.833 -77 56.5
s-63.666 20.5 -102.999 20.5c-32.667 0 -63 -6 -91 -18s-52.167 -29.333 -72.5 -52s-36.333 -50.334 -48 -83.001s-17.5 -69.667 -17.5 -111s5.83301 -78.333 17.5 -111s27.5 -60.167 47.5 -82.5s43.333 -39.5 70 -51.5s55 -18 85 -18c39.333 0 74.5 5.66699 105.5 17
s56.833 28.333 77.5 51c12 12.667 26 19 42 19c15.333 0 29 -5.5 41 -16.5s18 -24.167 18 -39.5c0 -5.33301 -1 -11.166 -3 -17.499s-5.66699 -12.166 -11 -17.499zM444.997 992.997c6 9.33301 13 15.833 21 19.5s16.333 5.5 25 5.5c15.333 0 29.166 -5.16699 41.499 -15.5
s18.5 -23.166 18.5 -38.499c0 -10.667 -3.33301 -20.667 -10 -30l-83 -118c-12 -16.667 -27.333 -25 -46 -25c-15.333 0 -29.166 5.16699 -41.499 15.5s-18.5 23.166 -18.5 38.499c0 10.667 3.33301 20.667 10 30z" />
    <glyph glyph-name="cacute" unicode="&#x107;" horiz-adv-x="539" 
d="M507 113c-22 -38 -50.501 -67.501 -85.501 -88.501s-76.5 -31.5 -124.5 -31.5c-42 0 -79.667 7.5 -113 22.5s-61.333 35.5 -84 61.5s-40 56.5 -52 91.5s-18 72.833 -18 113.5c0 40 5.83301 77.5 17.5 112.5s28.667 65.333 51 91s49.5 46 81.5 61s68.333 22.5 109 22.5
c46 0 87.833 -9.66699 125.5 -29s66.5 -46.666 86.5 -81.999c5.33301 -10.667 8 -20 8 -28c0 -15.333 -6.16699 -28 -18.5 -38s-26.166 -15 -41.499 -15c-9.33301 0 -18 2.16699 -26 6.5s-15 11.5 -21 21.5c-9.33301 16 -23.5 29.167 -42.5 39.5s-42.5 15.5 -70.5 15.5
c-20 0 -38.833 -3.66699 -56.5 -11s-33 -18.333 -46 -33s-23.333 -33.167 -31 -55.5s-11.5 -48.5 -11.5 -78.5c0 -60 14.333 -105 43 -135s65.334 -45 110.001 -45c48.667 0 84.667 20.667 108 62c6 10.667 13.333 18.167 22 22.5s17.667 6.5 27 6.5
c15.333 0 29.166 -5.16699 41.499 -15.5s18.5 -23.166 18.5 -38.499c0 -8.66699 -2.33301 -17.334 -7 -26.001zM330.999 842.999c6 9.33301 13 15.833 21 19.5s16.333 5.5 25 5.5c15.333 0 29.166 -5.16699 41.499 -15.5s18.5 -23.166 18.5 -38.499
c0 -10.667 -3.33301 -20.667 -10 -30l-83 -118c-12 -16.667 -27.333 -25 -46 -25c-15.333 0 -29.166 5.16699 -41.499 15.5s-18.5 23.166 -18.5 38.499c0 10.667 3.33301 20.667 10 30z" />
    <glyph glyph-name="Cdotaccent" unicode="&#x10a;" horiz-adv-x="703" 
d="M652 96c-34.667 -38 -75.8369 -65.0029 -123.504 -81.0029s-96.5 -24 -146.5 -24c-51.333 0 -97.5 9.83301 -138.5 29.5s-76 46.334 -105 80.001s-51.333 73 -67 118s-23.5 93.167 -23.5 144.5c0 52 8 100.667 24 146s38.833 84.833 68.5 118.5s65.667 60.167 108 79.5
s89.833 29 142.5 29c56.667 0 107.334 -10.167 152.001 -30.5s83 -48.166 115 -83.499c10 -12 15 -24 15 -36c0 -14.667 -6.16699 -27.5 -18.5 -38.5s-26.166 -16.5 -41.499 -16.5c-7.33301 0 -14.666 1.33301 -21.999 4s-14 7.66699 -20 15c-22 24 -47.667 42.833 -77 56.5
s-63.666 20.5 -102.999 20.5c-32.667 0 -63 -6 -91 -18s-52.167 -29.333 -72.5 -52s-36.333 -50.334 -48 -83.001s-17.5 -69.667 -17.5 -111s5.83301 -78.333 17.5 -111s27.5 -60.167 47.5 -82.5s43.333 -39.5 70 -51.5s55 -18 85 -18c39.333 0 74.5 5.66699 105.5 17
s56.833 28.333 77.5 51c12 12.667 26 19 42 19c15.333 0 29 -5.5 41 -16.5s18 -24.167 18 -39.5c0 -5.33301 -1 -11.166 -3 -17.499s-5.66699 -12.166 -11 -17.499zM443.997 861.997c0 -18.667 -6 -32.5 -18 -41.5s-25 -13.5 -39 -13.5c-14.667 0 -27.834 4.5 -39.501 13.5
s-17.5 22.833 -17.5 41.5v14c0 18 5.83301 31.667 17.5 41s24.834 14 39.501 14c14 0 27 -4.66699 39 -14s18 -23 18 -41v-14z" />
    <glyph glyph-name="cdotaccent" unicode="&#x10b;" horiz-adv-x="539" 
d="M507 113c-22 -38 -50.501 -67.501 -85.501 -88.501s-76.5 -31.5 -124.5 -31.5c-42 0 -79.667 7.5 -113 22.5s-61.333 35.5 -84 61.5s-40 56.5 -52 91.5s-18 72.833 -18 113.5c0 40 5.83301 77.5 17.5 112.5s28.667 65.333 51 91s49.5 46 81.5 61s68.333 22.5 109 22.5
c46 0 87.833 -9.66699 125.5 -29s66.5 -46.666 86.5 -81.999c5.33301 -10.667 8 -20 8 -28c0 -15.333 -6.16699 -28 -18.5 -38s-26.166 -15 -41.499 -15c-9.33301 0 -18 2.16699 -26 6.5s-15 11.5 -21 21.5c-9.33301 16 -23.5 29.167 -42.5 39.5s-42.5 15.5 -70.5 15.5
c-20 0 -38.833 -3.66699 -56.5 -11s-33 -18.333 -46 -33s-23.333 -33.167 -31 -55.5s-11.5 -48.5 -11.5 -78.5c0 -60 14.333 -105 43 -135s65.334 -45 110.001 -45c48.667 0 84.667 20.667 108 62c6 10.667 13.333 18.167 22 22.5s17.667 6.5 27 6.5
c15.333 0 29.166 -5.16699 41.499 -15.5s18.5 -23.166 18.5 -38.499c0 -8.66699 -2.33301 -17.334 -7 -26.001zM351.999 711.999c0 -18.667 -6 -32.5 -18 -41.5s-25 -13.5 -39 -13.5c-14.667 0 -27.834 4.5 -39.501 13.5s-17.5 22.833 -17.5 41.5v14
c0 18 5.83301 31.667 17.5 41s24.834 14 39.501 14c14 0 27 -4.66699 39 -14s18 -23 18 -41v-14z" />
    <glyph glyph-name="Ccaron" unicode="&#x10c;" horiz-adv-x="703" 
d="M652 96c-34.667 -38 -75.8369 -65.0029 -123.504 -81.0029s-96.5 -24 -146.5 -24c-51.333 0 -97.5 9.83301 -138.5 29.5s-76 46.334 -105 80.001s-51.333 73 -67 118s-23.5 93.167 -23.5 144.5c0 52 8 100.667 24 146s38.833 84.833 68.5 118.5s65.667 60.167 108 79.5
s89.833 29 142.5 29c56.667 0 107.334 -10.167 152.001 -30.5s83 -48.166 115 -83.499c10 -12 15 -24 15 -36c0 -14.667 -6.16699 -27.5 -18.5 -38.5s-26.166 -16.5 -41.499 -16.5c-7.33301 0 -14.666 1.33301 -21.999 4s-14 7.66699 -20 15c-22 24 -47.667 42.833 -77 56.5
s-63.666 20.5 -102.999 20.5c-32.667 0 -63 -6 -91 -18s-52.167 -29.333 -72.5 -52s-36.333 -50.334 -48 -83.001s-17.5 -69.667 -17.5 -111s5.83301 -78.333 17.5 -111s27.5 -60.167 47.5 -82.5s43.333 -39.5 70 -51.5s55 -18 85 -18c39.333 0 74.5 5.66699 105.5 17
s56.833 28.333 77.5 51c12 12.667 26 19 42 19c15.333 0 29 -5.5 41 -16.5s18 -24.167 18 -39.5c0 -5.33301 -1 -11.166 -3 -17.499s-5.66699 -12.166 -11 -17.499zM389.997 905.997l96 77.999c12.667 10.667 25 15.334 37 14.001c15.333 0 28.833 -5.66699 40.5 -17
s17.5 -24.333 17.5 -39c0 -15.333 -7 -28.666 -21 -39.999l-133 -109c-5.33301 -4 -11.166 -6.83301 -17.499 -8.5s-13.166 -2.5 -20.499 -2.5s-14 0.833008 -20 2.5s-11.333 4.5 -16 8.5l-134 109c-14 11.333 -21 24.666 -21 39.999c0 14.667 5.66699 27.667 17 39
s24.666 17 39.999 17c13.333 0 25.666 -4.66699 36.999 -14z" />
    <glyph glyph-name="ccaron" unicode="&#x10d;" horiz-adv-x="539" 
d="M507 113c-22 -38 -50.501 -67.501 -85.501 -88.501s-76.5 -31.5 -124.5 -31.5c-42 0 -79.667 7.5 -113 22.5s-61.333 35.5 -84 61.5s-40 56.5 -52 91.5s-18 72.833 -18 113.5c0 40 5.83301 77.5 17.5 112.5s28.667 65.333 51 91s49.5 46 81.5 61s68.333 22.5 109 22.5
c46 0 87.833 -9.66699 125.5 -29s66.5 -46.666 86.5 -81.999c5.33301 -10.667 8 -20 8 -28c0 -15.333 -6.16699 -28 -18.5 -38s-26.166 -15 -41.499 -15c-9.33301 0 -18 2.16699 -26 6.5s-15 11.5 -21 21.5c-9.33301 16 -23.5 29.167 -42.5 39.5s-42.5 15.5 -70.5 15.5
c-20 0 -38.833 -3.66699 -56.5 -11s-33 -18.333 -46 -33s-23.333 -33.167 -31 -55.5s-11.5 -48.5 -11.5 -78.5c0 -60 14.333 -105 43 -135s65.334 -45 110.001 -45c48.667 0 84.667 20.667 108 62c6 10.667 13.333 18.167 22 22.5s17.667 6.5 27 6.5
c15.333 0 29.166 -5.16699 41.499 -15.5s18.5 -23.166 18.5 -38.499c0 -8.66699 -2.33301 -17.334 -7 -26.001zM296.999 755.999l96 77.999c12.667 10.667 25 15.334 37 14.001c15.333 0 28.833 -5.66699 40.5 -17s17.5 -24.333 17.5 -39c0 -15.333 -7 -28.666 -21 -39.999
l-133 -109c-5.33301 -4 -11.166 -6.83301 -17.499 -8.5s-13.166 -2.5 -20.499 -2.5s-14 0.833008 -20 2.5s-11.333 4.5 -16 8.5l-134 109c-14 11.333 -21 24.666 -21 39.999c0 14.667 5.66699 27.667 17 39s24.666 17 39.999 17c13.333 0 25.666 -4.66699 36.999 -14z" />
    <glyph glyph-name="Dcaron" unicode="&#x10e;" horiz-adv-x="732" 
d="M80 673c0 14 5.66699 26.5 17 37.5s24.666 16.5 39.999 16.5h137c56.667 0 110 -6 160 -18s93.5 -31.667 130.5 -59s66.167 -63 87.5 -107s32 -98.333 32 -163c0 -66.667 -10.333 -124 -31 -172s-49.5 -87.5 -86.5 -118.5s-80.833 -53.833 -131.5 -68.5
s-106 -22 -166 -22h-132c-15.333 0 -28.666 5.66699 -39.999 17s-17 24.333 -17 39v618zM194 618v-508.999h75c47.333 0 89.666 5 126.999 15s68.833 25.833 94.5 47.5s45.334 49.667 59.001 84s20.5 75.833 20.5 124.5c0 43.333 -6.5 80.166 -19.5 110.499s-32 55 -57 74
s-55.833 32.667 -92.5 41s-79 12.5 -127 12.5h-80zM366 906.001l96 77.999c12.667 10.667 25 15.334 37 14.001c15.333 0 28.833 -5.66699 40.5 -17s17.5 -24.333 17.5 -39c0 -15.333 -7 -28.666 -21 -39.999l-133 -109c-5.33301 -4 -11.166 -6.83301 -17.499 -8.5
s-13.166 -2.5 -20.499 -2.5s-14 0.833008 -20 2.5s-11.333 4.5 -16 8.5l-134 109c-14 11.333 -21 24.666 -21 39.999c0 14.667 5.66699 27.667 17 39s24.666 17 39.999 17c13.333 0 25.666 -4.66699 36.999 -14z" />
    <glyph glyph-name="dcaron" unicode="&#x10f;" horiz-adv-x="698" 
d="M529 46c0 -18.667 -5.99805 -32.5 -17.998 -41.5s-25 -13.5 -39 -13.5c-14.667 0 -27.834 4.5 -39.501 13.5s-17.5 22.833 -17.5 41.5v10c-18.667 -22 -40.334 -38.333 -65.001 -49s-51.334 -16 -80.001 -16c-41.333 0 -77 7.66699 -107 23s-54.833 36.166 -74.5 62.499
s-34.334 57 -44.001 92s-14.5 72.167 -14.5 111.5c0 38.667 4.83301 75.334 14.5 110.001s24.334 65 44.001 91s44.5 46.667 74.5 62s65.667 23 107 23c32 0 59.833 -5.16699 83.5 -15.5s44.167 -24.5 61.5 -42.5v225c0 18 5.83301 31.667 17.5 41s24.834 14 39.501 14
c14 0 27 -4.66699 39 -14s18 -23 18 -41v-687zM280.002 458c-38.667 0 -70.998 -14.3291 -96.998 -42.9961s-39 -73.667 -39 -135c0 -31.333 3.5 -58.333 10.5 -81s16.5 -41.334 28.5 -56.001s26.333 -25.5 43 -32.5s34.667 -10.5 54 -10.5c12 0 25.667 2.5 41 7.5
s29.833 14 43.5 27s25.167 30.333 34.5 52s14.666 49.167 15.999 82.5v43c-0.666992 23.333 -4.83398 44.166 -12.501 62.499s-17.667 33.666 -30 45.999s-26.5 21.666 -42.5 27.999s-32.667 9.5 -50 9.5zM706.004 752.004c6.66699 -22.667 10 -47.666 10 -74.999
c0 -18.667 -2 -38.834 -6 -60.501s-9.66699 -41.834 -17 -60.501s-16.666 -34.167 -27.999 -46.5s-24.333 -18.5 -39 -18.5c-15.333 0 -28.833 4.83301 -40.5 14.5s-17.5 22.167 -17.5 37.5c0 10.667 2.66699 20.334 8 29.001c8 14 14.333 30.167 19 48.5s7 36.833 7 55.5
c0 11.333 -1.33301 22.166 -4 32.499s-4 19.5 -4 27.5c0 16.667 6.33301 29.834 19 39.501s26.667 14.5 42 14.5c11.333 0 21.666 -3 30.999 -9s16 -15.667 20 -29z" />
    <glyph glyph-name="Dcroat" unicode="&#x110;" horiz-adv-x="751" 
d="M99 447v226c0 14 5.66699 26.5 17 37.5s24.666 16.5 39.999 16.5h137c56.667 0 110 -6 160 -18s93.5 -31.667 130.5 -59s66.167 -63 87.5 -107s32 -98.333 32 -163c0 -66.667 -10.333 -124 -31 -172s-49.5 -87.5 -86.5 -118.5s-80.833 -53.833 -131.5 -68.5
s-106 -22 -166 -22h-132c-15.333 0 -28.666 5.66699 -39.999 17s-17 24.333 -17 39v286h-27c-19.333 0 -33.666 5.5 -42.999 16.5s-14 23.167 -14 36.5s4.66699 25.5 14 36.5s23.666 16.5 42.999 16.5h27zM213 618v-170.999h75c19.333 0 33.666 -5.5 42.999 -16.5
s14 -23.167 14 -36.5s-4.66699 -25.5 -14 -36.5s-23.666 -16.5 -42.999 -16.5h-75v-232h75c47.333 0 89.666 5 126.999 15s68.833 25.833 94.5 47.5s45.334 49.667 59.001 84s20.5 75.833 20.5 124.5c0 43.333 -6.5 80.166 -19.5 110.499s-32 55 -57 74
s-55.833 32.667 -92.5 41s-79 12.5 -127 12.5h-80z" />
    <glyph glyph-name="dcroat" unicode="&#x111;" horiz-adv-x="600" 
d="M415 690l0.00195312 43c0 18 5.83301 31.667 17.5 41s24.834 14 39.501 14c14 0 27 -4.66699 39 -14s18 -23 18 -41v-43h9c19.333 0 33.666 -5.66699 42.999 -17s14 -23.666 14 -36.999s-4.66699 -25.666 -14 -36.999s-23.666 -17 -42.999 -17h-9v-536
c0 -18.667 -6 -32.5 -18 -41.5s-25 -13.5 -39 -13.5c-14.667 0 -27.834 4.5 -39.501 13.5s-17.5 22.833 -17.5 41.5v10c-18.667 -22 -40.334 -38.333 -65.001 -49s-51.334 -16 -80.001 -16c-41.333 0 -77 7.66699 -107 23s-54.833 36.166 -74.5 62.499
s-34.334 57 -44.001 92s-14.5 72.167 -14.5 111.5c0 38.667 4.83301 75.334 14.5 110.001s24.334 65 44.001 91s44.5 46.667 74.5 62s65.667 23 107 23c32 0 59.833 -5.16699 83.5 -15.5s44.167 -24.5 61.5 -42.5v74h-93c-19.333 0 -33.666 5.66699 -42.999 17
s-14 23.666 -14 36.999s4.66699 25.666 14 36.999s23.666 17 42.999 17h93zM280.002 458c-38.667 0 -70.998 -14.3291 -96.998 -42.9961s-39 -73.667 -39 -135c0 -31.333 3.5 -58.333 10.5 -81s16.5 -41.334 28.5 -56.001s26.333 -25.5 43 -32.5s34.667 -10.5 54 -10.5
c12 0 25.667 2.5 41 7.5s29.833 14 43.5 27s25.167 30.333 34.5 52s14.666 49.167 15.999 82.5v43c-0.666992 23.333 -4.83398 44.166 -12.501 62.499s-17.667 33.666 -30 45.999s-26.5 21.666 -42.5 27.999s-32.667 9.5 -50 9.5z" />
    <glyph glyph-name="Emacron" unicode="&#x112;" horiz-adv-x="504" 
d="M138 -1c-15.333 0 -28.6641 5.66602 -39.9971 16.999s-17 24.333 -17 39v618c0 14 5.66699 26.5 17 37.5s24.666 16.5 39.999 16.5h260c19.333 0 33.666 -5.66699 42.999 -17s14 -23.666 14 -36.999c0 -14 -4.83301 -26.667 -14.5 -38s-23.834 -17 -42.501 -17h-203v-168
h180c19.333 0 33.666 -5.83301 42.999 -17.5s14 -24.167 14 -37.5s-4.66699 -25.5 -14 -36.5s-23.666 -16.5 -42.999 -16.5h-180v-233h210c19.333 0 33.833 -5.83301 43.5 -17.5s14.5 -24.167 14.5 -37.5c0 -14 -4.83301 -26.667 -14.5 -38s-24.167 -17 -43.5 -17h-267z
M390.002 921.999c19.333 0 33.833 -5.66699 43.5 -17s14.5 -24 14.5 -38c0 -13.333 -4.83301 -25.666 -14.5 -36.999s-24.167 -17 -43.5 -17h-262c-19.333 0 -33.666 5.66699 -42.999 17s-14 23.666 -14 36.999c0 14 4.66699 26.667 14 38s23.666 17 42.999 17h262z" />
    <glyph glyph-name="emacron" unicode="&#x113;" horiz-adv-x="568" 
d="M509 113c-21.333 -38.667 -50.001 -68.499 -86.001 -89.499s-80.333 -31.5 -133 -31.5c-40.667 0 -77.167 7.66699 -109.5 23s-59.666 36 -81.999 62s-39.333 56.667 -51 92s-17.5 73 -17.5 113s5.83301 77.5 17.5 112.5s28.667 65.333 51 91s49.666 46 81.999 61
s68.833 22.5 109.5 22.5c40 0 75 -7.16699 105 -21.5s55.333 -33.833 76 -58.5s36.167 -53.834 46.5 -87.501s15.5 -69.5 15.5 -107.5c0 -14.667 -5.66699 -27.5 -17 -38.5s-24.666 -16.5 -39.999 -16.5h-329c2.66699 -18 7.5 -35.333 14.5 -52s16.167 -31.167 27.5 -43.5
s25.333 -22.333 42 -30s36.334 -11.5 59.001 -11.5c31.333 0 56 5.33301 74 16s33 26.667 45 48c5.33301 10 12.333 17.167 21 21.5s17.667 6.5 27 6.5c15.333 0 29.166 -5 41.499 -15s18.5 -22.667 18.5 -38c0 -8 -2.66699 -17.333 -8 -28zM413.999 348.001
c-7.33301 40 -22.167 68.833 -44.5 86.5s-48.833 26.5 -79.5 26.5c-20 0 -37.833 -3 -53.5 -9s-29 -14.167 -40 -24.5s-20.167 -22.333 -27.5 -36s-13 -28.167 -17 -43.5h262zM423.998 772.001c19.333 0 33.833 -5.66699 43.5 -17s14.5 -24 14.5 -38
c0 -13.333 -4.83301 -25.666 -14.5 -36.999s-24.167 -17 -43.5 -17h-262c-19.333 0 -33.666 5.66699 -42.999 17s-14 23.666 -14 36.999c0 14 4.66699 26.667 14 38s23.666 17 42.999 17h262z" />
    <glyph glyph-name="Edotaccent" unicode="&#x116;" horiz-adv-x="504" 
d="M138 -1c-15.333 0 -28.6641 5.66602 -39.9971 16.999s-17 24.333 -17 39v618c0 14 5.66699 26.5 17 37.5s24.666 16.5 39.999 16.5h260c19.333 0 33.666 -5.66699 42.999 -17s14 -23.666 14 -36.999c0 -14 -4.83301 -26.667 -14.5 -38s-23.834 -17 -42.501 -17h-203v-168
h180c19.333 0 33.666 -5.83301 42.999 -17.5s14 -24.167 14 -37.5s-4.66699 -25.5 -14 -36.5s-23.666 -16.5 -42.999 -16.5h-180v-233h210c19.333 0 33.833 -5.83301 43.5 -17.5s14.5 -24.167 14.5 -37.5c0 -14 -4.83301 -26.667 -14.5 -38s-24.167 -17 -43.5 -17h-267z
M316.002 861.999c0 -18.667 -6 -32.5 -18 -41.5s-25 -13.5 -39 -13.5c-14.667 0 -27.834 4.5 -39.501 13.5s-17.5 22.833 -17.5 41.5v14c0 18 5.83301 31.667 17.5 41s24.834 14 39.501 14c14 0 27 -4.66699 39 -14s18 -23 18 -41v-14z" />
    <glyph glyph-name="edotaccent" unicode="&#x117;" horiz-adv-x="568" 
d="M509 113c-21.333 -38.667 -50.001 -68.499 -86.001 -89.499s-80.333 -31.5 -133 -31.5c-40.667 0 -77.167 7.66699 -109.5 23s-59.666 36 -81.999 62s-39.333 56.667 -51 92s-17.5 73 -17.5 113s5.83301 77.5 17.5 112.5s28.667 65.333 51 91s49.666 46 81.999 61
s68.833 22.5 109.5 22.5c40 0 75 -7.16699 105 -21.5s55.333 -33.833 76 -58.5s36.167 -53.834 46.5 -87.501s15.5 -69.5 15.5 -107.5c0 -14.667 -5.66699 -27.5 -17 -38.5s-24.666 -16.5 -39.999 -16.5h-329c2.66699 -18 7.5 -35.333 14.5 -52s16.167 -31.167 27.5 -43.5
s25.333 -22.333 42 -30s36.334 -11.5 59.001 -11.5c31.333 0 56 5.33301 74 16s33 26.667 45 48c5.33301 10 12.333 17.167 21 21.5s17.667 6.5 27 6.5c15.333 0 29.166 -5 41.499 -15s18.5 -22.667 18.5 -38c0 -8 -2.66699 -17.333 -8 -28zM413.999 348.001
c-7.33301 40 -22.167 68.833 -44.5 86.5s-48.833 26.5 -79.5 26.5c-20 0 -37.833 -3 -53.5 -9s-29 -14.167 -40 -24.5s-20.167 -22.333 -27.5 -36s-13 -28.167 -17 -43.5h262zM348.998 712.001c0 -18.667 -6 -32.5 -18 -41.5s-25 -13.5 -39 -13.5
c-14.667 0 -27.834 4.5 -39.501 13.5s-17.5 22.833 -17.5 41.5v14c0 18 5.83301 31.667 17.5 41s24.834 14 39.501 14c14 0 27 -4.66699 39 -14s18 -23 18 -41v-14z" />
    <glyph glyph-name="Eogonek" unicode="&#x118;" horiz-adv-x="504" 
d="M408 -2c-7.33301 -4 -16.6641 -9.66895 -27.9971 -17.002s-22.166 -15.5 -32.499 -24.5s-19.333 -18.5 -27 -28.5s-11.5 -19.333 -11.5 -28c0 -4 0.333008 -8.33301 1 -13s2.5 -9 5.5 -13s7.5 -7.5 13.5 -10.5s14 -4.5 24 -4.5c6 0 12.667 2.33301 20 7
c2.66699 2.66699 5.66699 5.33398 9 8.00098c8 5.33301 17 8 27 8c13.333 0 24.666 -5 33.999 -15s14 -21.333 14 -34c0 -11.333 -3.83301 -20.833 -11.5 -28.5s-17.334 -14 -29.001 -19s-24.167 -8.5 -37.5 -10.5s-25.333 -3 -36 -3c-11.333 0 -23.833 1.83301 -37.5 5.5
s-26.5 9.66699 -38.5 18s-22 19.333 -30 33s-12 30.5 -12 50.5c0 23.333 5 45 15 65s22.667 38.333 38 55h-140c-15.333 0 -28.666 5.66699 -39.999 17s-17 24.333 -17 39v618c0 14 5.66699 26.5 17 37.5s24.666 16.5 39.999 16.5h260c19.333 0 33.666 -5.66699 42.999 -17
s14 -23.666 14 -36.999c0 -14 -4.83301 -26.667 -14.5 -38s-23.834 -17 -42.501 -17h-203v-168h180c19.333 0 33.666 -5.83301 42.999 -17.5s14 -24.167 14 -37.5s-4.66699 -25.5 -14 -36.5s-23.666 -16.5 -42.999 -16.5h-180v-233h210c19.333 0 33.833 -5.83301 43.5 -17.5
s14.5 -24.167 14.5 -37.5s-4.5 -25.5 -13.5 -36.5s-22.167 -17.167 -39.5 -18.5c-1.33301 0 -2 -0.333008 -2 -1z" />
    <glyph glyph-name="eogonek" unicode="&#x119;" horiz-adv-x="568" 
d="M509 113c-18.667 -33.333 -42.3281 -60 -70.9951 -80s-63.334 -32.667 -104.001 -38c-8 -4 -17.333 -9.66699 -28 -17s-20.834 -15.333 -30.501 -24s-17.834 -17.667 -24.501 -27s-10 -18.333 -10 -27c0 -4 0.333008 -8.33301 1 -13s2.5 -9 5.5 -13s7.5 -7.5 13.5 -10.5
s14 -4.5 24 -4.5c6 0 12.667 2.33301 20 7c2.66699 2.66699 5.66699 5.33398 9 8.00098c8 5.33301 17 8 27 8c13.333 0 24.666 -5 33.999 -15s14 -21.333 14 -34c0 -11.333 -3.83301 -20.833 -11.5 -28.5s-17.334 -14 -29.001 -19s-24.167 -8.5 -37.5 -10.5
s-25.333 -3 -36 -3c-11.333 0 -23.833 1.83301 -37.5 5.5s-26.5 9.66699 -38.5 18s-22 19.333 -30 33s-12 30.5 -12 50.5c0 24 5.33301 46.333 16 67s24.334 39.334 41.001 56.001c-29.333 8.66699 -55.333 21.834 -78 39.501s-41.834 38.667 -57.501 63
s-27.667 51.666 -36 81.999s-12.5 62.166 -12.5 95.499c0 40 5.83301 77.5 17.5 112.5s28.667 65.333 51 91s49.666 46 81.999 61s68.833 22.5 109.5 22.5c40 0 75 -7.16699 105 -21.5s55.333 -33.833 76 -58.5s36.167 -53.834 46.5 -87.501s15.5 -69.5 15.5 -107.5
c0 -14.667 -5.66699 -27.5 -17 -38.5s-24.666 -16.5 -39.999 -16.5h-329c2.66699 -18 7.5 -35.333 14.5 -52s16.167 -31.167 27.5 -43.5s25.333 -22.333 42 -30s36.334 -11.5 59.001 -11.5c31.333 0 56 5.33301 74 16s33 26.667 45 48c5.33301 10 12.333 17.167 21 21.5
s17.667 6.5 27 6.5c15.333 0 29.166 -5 41.499 -15s18.5 -22.667 18.5 -38c0 -8 -2.66699 -17.333 -8 -28zM414.006 348c-7.33301 40 -22.167 68.833 -44.5 86.5s-48.833 26.5 -79.5 26.5c-20 0 -37.833 -3 -53.5 -9s-29 -14.167 -40 -24.5s-20.167 -22.333 -27.5 -36
s-13 -28.167 -17 -43.5h262z" />
    <glyph glyph-name="Ecaron" unicode="&#x11a;" horiz-adv-x="504" 
d="M138 -1c-15.333 0 -28.6641 5.66602 -39.9971 16.999s-17 24.333 -17 39v618c0 14 5.66699 26.5 17 37.5s24.666 16.5 39.999 16.5h260c19.333 0 33.666 -5.66699 42.999 -17s14 -23.666 14 -36.999c0 -14 -4.83301 -26.667 -14.5 -38s-23.834 -17 -42.501 -17h-203v-168
h180c19.333 0 33.666 -5.83301 42.999 -17.5s14 -24.167 14 -37.5s-4.66699 -25.5 -14 -36.5s-23.666 -16.5 -42.999 -16.5h-180v-233h210c19.333 0 33.833 -5.83301 43.5 -17.5s14.5 -24.167 14.5 -37.5c0 -14 -4.83301 -26.667 -14.5 -38s-24.167 -17 -43.5 -17h-267z
M263.002 905.999l96 77.999c12.667 10.667 25 15.334 37 14.001c15.333 0 28.833 -5.66699 40.5 -17s17.5 -24.333 17.5 -39c0 -15.333 -7 -28.666 -21 -39.999l-133 -109c-5.33301 -4 -11.166 -6.83301 -17.499 -8.5s-13.166 -2.5 -20.499 -2.5s-14 0.833008 -20 2.5
s-11.333 4.5 -16 8.5l-134 109c-14 11.333 -21 24.666 -21 39.999c0 14.667 5.66699 27.667 17 39s24.666 17 39.999 17c13.333 0 25.666 -4.66699 36.999 -14z" />
    <glyph glyph-name="ecaron" unicode="&#x11b;" horiz-adv-x="568" 
d="M509 113c-21.333 -38.667 -50.001 -68.499 -86.001 -89.499s-80.333 -31.5 -133 -31.5c-40.667 0 -77.167 7.66699 -109.5 23s-59.666 36 -81.999 62s-39.333 56.667 -51 92s-17.5 73 -17.5 113s5.83301 77.5 17.5 112.5s28.667 65.333 51 91s49.666 46 81.999 61
s68.833 22.5 109.5 22.5c40 0 75 -7.16699 105 -21.5s55.333 -33.833 76 -58.5s36.167 -53.834 46.5 -87.501s15.5 -69.5 15.5 -107.5c0 -14.667 -5.66699 -27.5 -17 -38.5s-24.666 -16.5 -39.999 -16.5h-329c2.66699 -18 7.5 -35.333 14.5 -52s16.167 -31.167 27.5 -43.5
s25.333 -22.333 42 -30s36.334 -11.5 59.001 -11.5c31.333 0 56 5.33301 74 16s33 26.667 45 48c5.33301 10 12.333 17.167 21 21.5s17.667 6.5 27 6.5c15.333 0 29.166 -5 41.499 -15s18.5 -22.667 18.5 -38c0 -8 -2.66699 -17.333 -8 -28zM413.999 348.001
c-7.33301 40 -22.167 68.833 -44.5 86.5s-48.833 26.5 -79.5 26.5c-20 0 -37.833 -3 -53.5 -9s-29 -14.167 -40 -24.5s-20.167 -22.333 -27.5 -36s-13 -28.167 -17 -43.5h262zM293.998 756.001l96 77.999c12.667 10.667 25 15.334 37 14.001
c15.333 0 28.833 -5.66699 40.5 -17s17.5 -24.333 17.5 -39c0 -15.333 -7 -28.666 -21 -39.999l-133 -109c-5.33301 -4 -11.166 -6.83301 -17.499 -8.5s-13.166 -2.5 -20.499 -2.5s-14 0.833008 -20 2.5s-11.333 4.5 -16 8.5l-134 109c-14 11.333 -21 24.666 -21 39.999
c0 14.667 5.66699 27.667 17 39s24.666 17 39.999 17c13.333 0 25.666 -4.66699 36.999 -14z" />
    <glyph glyph-name="Gbreve" unicode="&#x11e;" horiz-adv-x="766" 
d="M573 550c-22.667 24.667 -48.8301 43.6719 -78.4971 57.0049s-64.5 20 -104.5 20c-32.667 0 -62.834 -6 -90.501 -18s-51.667 -29.333 -72 -52s-36.333 -50.334 -48 -83.001s-17.5 -69.667 -17.5 -111c0 -40.667 5.66699 -77.334 17 -110.001s27.333 -60.334 48 -83.001
s45.5 -40 74.5 -52s60.833 -18 95.5 -18c24 0 47.333 3.5 70 10.5s43.167 18 61.5 33s33.833 34.667 46.5 59s21 54.166 25 89.499h-203c-19.333 0 -33.833 5.66699 -43.5 17s-14.5 23.666 -14.5 36.999c0 14 4.83301 26.667 14.5 38s24.167 17 43.5 17h264
c15.333 0 28.666 -5.5 39.999 -16.5s17 -23.5 17 -37.5c0 -58 -8.33301 -109.167 -25 -153.5s-39.5 -81.5 -68.5 -111.5s-63 -52.667 -102 -68s-80.833 -23 -125.5 -23c-54.667 0 -103.5 9.66699 -146.5 29s-79.5 45.833 -109.5 79.5s-53 73 -69 118s-24 93.5 -24 145.5
s8 100.667 24 146s38.667 84.833 68 118.5s65.166 60.167 107.499 79.5s89.833 29 142.5 29c57.333 0 109.333 -10 156 -30s84 -48 112 -84c8.66699 -11.333 13 -23.333 13 -36c0 -15.333 -5.5 -28.5 -16.5 -39.5s-24.167 -16.5 -39.5 -16.5s-29.333 6.66699 -42 20z
M556.004 910.005c-5.33301 -14 -12.999 -27.334 -22.999 -40.001s-22.167 -23.834 -36.5 -33.501s-30.5 -17.334 -48.5 -23.001s-37.333 -8.5 -58 -8.5c-24 0 -46.5 3.83301 -67.5 11.5s-39.333 17.5 -55 29.5s-28.167 25.5 -37.5 40.5s-14 29.5 -14 43.5
c0 16.667 6.16699 29.667 18.5 39s25.833 14 40.5 14c11.333 0 22 -3.16699 32 -9.5s17.333 -16.5 22 -30.5c0 -0.666992 1.33301 -2.5 4 -5.5s6.5 -6.33301 11.5 -10s11.333 -6.83398 19 -9.50098s16.5 -4 26.5 -4c16.667 0 30 3.83301 40 11.5s16.333 14.834 19 21.501
c5.33301 12.667 12.5 21.834 21.5 27.501s18.833 8.5 29.5 8.5c15.333 0 29.166 -4.83301 41.499 -14.5s18.5 -22.5 18.5 -38.5c0 -3.33301 -0.333008 -6.66602 -1 -9.99902s-1.66699 -6.66602 -3 -9.99902z" />
    </font>
</defs>
</svg>
